%TF.GenerationSoftware,KiCad,Pcbnew,8.0.6-8.0.6-0~ubuntu22.04.1*%
%TF.CreationDate,2024-10-27T10:41:31+01:00*%
%TF.ProjectId,hackbat,6861636b-6261-4742-9e6b-696361645f70,rev?*%
%TF.SameCoordinates,Original*%
%TF.FileFunction,Paste,Top*%
%TF.FilePolarity,Positive*%
%FSLAX46Y46*%
G04 Gerber Fmt 4.6, Leading zero omitted, Abs format (unit mm)*
G04 Created by KiCad (PCBNEW 8.0.6-8.0.6-0~ubuntu22.04.1) date 2024-10-27 10:41:31*
%MOMM*%
%LPD*%
G01*
G04 APERTURE LIST*
G04 Aperture macros list*
%AMRoundRect*
0 Rectangle with rounded corners*
0 $1 Rounding radius*
0 $2 $3 $4 $5 $6 $7 $8 $9 X,Y pos of 4 corners*
0 Add a 4 corners polygon primitive as box body*
4,1,4,$2,$3,$4,$5,$6,$7,$8,$9,$2,$3,0*
0 Add four circle primitives for the rounded corners*
1,1,$1+$1,$2,$3*
1,1,$1+$1,$4,$5*
1,1,$1+$1,$6,$7*
1,1,$1+$1,$8,$9*
0 Add four rect primitives between the rounded corners*
20,1,$1+$1,$2,$3,$4,$5,0*
20,1,$1+$1,$4,$5,$6,$7,0*
20,1,$1+$1,$6,$7,$8,$9,0*
20,1,$1+$1,$8,$9,$2,$3,0*%
G04 Aperture macros list end*
%ADD10RoundRect,0.135000X0.135000X0.185000X-0.135000X0.185000X-0.135000X-0.185000X0.135000X-0.185000X0*%
%ADD11RoundRect,0.135000X-0.135000X-0.185000X0.135000X-0.185000X0.135000X0.185000X-0.135000X0.185000X0*%
%ADD12RoundRect,0.250000X0.315000X-0.315000X0.315000X0.315000X-0.315000X0.315000X-0.315000X-0.315000X0*%
%ADD13RoundRect,0.062500X0.062500X-0.362500X0.062500X0.362500X-0.062500X0.362500X-0.062500X-0.362500X0*%
%ADD14RoundRect,0.062500X0.362500X-0.062500X0.362500X0.062500X-0.362500X0.062500X-0.362500X-0.062500X0*%
%ADD15R,1.200000X1.400000*%
%ADD16RoundRect,0.140000X0.140000X0.170000X-0.140000X0.170000X-0.140000X-0.170000X0.140000X-0.170000X0*%
%ADD17RoundRect,0.147500X0.147500X0.172500X-0.147500X0.172500X-0.147500X-0.172500X0.147500X-0.172500X0*%
%ADD18RoundRect,0.200000X-0.200000X-0.275000X0.200000X-0.275000X0.200000X0.275000X-0.200000X0.275000X0*%
%ADD19RoundRect,0.140000X-0.140000X-0.170000X0.140000X-0.170000X0.140000X0.170000X-0.140000X0.170000X0*%
%ADD20RoundRect,0.200000X-0.275000X0.200000X-0.275000X-0.200000X0.275000X-0.200000X0.275000X0.200000X0*%
%ADD21R,1.550000X1.300000*%
%ADD22RoundRect,0.200000X0.200000X0.275000X-0.200000X0.275000X-0.200000X-0.275000X0.200000X-0.275000X0*%
%ADD23RoundRect,0.147500X0.172500X-0.147500X0.172500X0.147500X-0.172500X0.147500X-0.172500X-0.147500X0*%
%ADD24RoundRect,0.140000X-0.170000X0.140000X-0.170000X-0.140000X0.170000X-0.140000X0.170000X0.140000X0*%
%ADD25RoundRect,0.140000X0.170000X-0.140000X0.170000X0.140000X-0.170000X0.140000X-0.170000X-0.140000X0*%
%ADD26RoundRect,0.375000X0.625000X0.375000X-0.625000X0.375000X-0.625000X-0.375000X0.625000X-0.375000X0*%
%ADD27RoundRect,0.500000X0.500000X1.400000X-0.500000X1.400000X-0.500000X-1.400000X0.500000X-1.400000X0*%
%ADD28R,1.500000X5.080000*%
%ADD29R,1.200000X1.200000*%
%ADD30RoundRect,0.225000X0.250000X-0.225000X0.250000X0.225000X-0.250000X0.225000X-0.250000X-0.225000X0*%
%ADD31RoundRect,0.218750X0.218750X0.256250X-0.218750X0.256250X-0.218750X-0.256250X0.218750X-0.256250X0*%
%ADD32RoundRect,0.250000X-0.375000X-1.000000X0.375000X-1.000000X0.375000X1.000000X-0.375000X1.000000X0*%
G04 APERTURE END LIST*
D10*
%TO.C,R23*%
X181710000Y-94400000D03*
X180690000Y-94400000D03*
%TD*%
D11*
%TO.C,R22*%
X153790000Y-102300000D03*
X154810000Y-102300000D03*
%TD*%
%TO.C,R21*%
X153790000Y-101300000D03*
X154810000Y-101300000D03*
%TD*%
%TO.C,R20*%
X153890000Y-109000000D03*
X154910000Y-109000000D03*
%TD*%
%TO.C,R18*%
X153890000Y-107900000D03*
X154910000Y-107900000D03*
%TD*%
%TO.C,R17*%
X153790000Y-103500000D03*
X154810000Y-103500000D03*
%TD*%
D12*
%TO.C,U2*%
X174350000Y-91325000D03*
X175650000Y-91325000D03*
X174350000Y-90025000D03*
X175650000Y-90025000D03*
D13*
X174000000Y-92600000D03*
X174500000Y-92600000D03*
X175000000Y-92600000D03*
X175500000Y-92600000D03*
X176000000Y-92600000D03*
D14*
X176925000Y-91675000D03*
X176925000Y-91175000D03*
X176925000Y-90675000D03*
X176925000Y-90175000D03*
X176925000Y-89675000D03*
D13*
X176000000Y-88750000D03*
X175500000Y-88750000D03*
X175000000Y-88750000D03*
X174500000Y-88750000D03*
X174000000Y-88750000D03*
D14*
X173075000Y-89675000D03*
X173075000Y-90175000D03*
X173075000Y-90675000D03*
X173075000Y-91175000D03*
X173075000Y-91675000D03*
%TD*%
D15*
%TO.C,Y1*%
X179150000Y-89100000D03*
X179150000Y-91300000D03*
X180850000Y-91300000D03*
X180850000Y-89100000D03*
%TD*%
D16*
%TO.C,C4*%
X178880000Y-87200000D03*
X177920000Y-87200000D03*
%TD*%
D17*
%TO.C,L1*%
X176885000Y-87200000D03*
X175915000Y-87200000D03*
%TD*%
D18*
%TO.C,R8*%
X212775000Y-100800000D03*
X214425000Y-100800000D03*
%TD*%
D19*
%TO.C,C7*%
X176640000Y-82600000D03*
X177600000Y-82600000D03*
%TD*%
D20*
%TO.C,R15*%
X165600000Y-84175000D03*
X165600000Y-85825000D03*
%TD*%
D10*
%TO.C,R10*%
X171510000Y-89800000D03*
X170490000Y-89800000D03*
%TD*%
D20*
%TO.C,R12*%
X159800000Y-84200000D03*
X159800000Y-85850000D03*
%TD*%
D21*
%TO.C,SW2*%
X214525000Y-85250000D03*
X222475000Y-85250000D03*
X214525000Y-89750000D03*
X222475000Y-89750000D03*
%TD*%
D22*
%TO.C,R3*%
X238387500Y-77800000D03*
X236737500Y-77800000D03*
%TD*%
D23*
%TO.C,L2*%
X174800000Y-86085000D03*
X174800000Y-85115000D03*
%TD*%
D18*
%TO.C,R7*%
X225375000Y-100800000D03*
X227025000Y-100800000D03*
%TD*%
D24*
%TO.C,C3*%
X176000000Y-93920000D03*
X176000000Y-94880000D03*
%TD*%
D22*
%TO.C,R4*%
X238400000Y-75750000D03*
X236750000Y-75750000D03*
%TD*%
D25*
%TO.C,C6*%
X175800000Y-86080000D03*
X175800000Y-85120000D03*
%TD*%
D20*
%TO.C,R11*%
X164000000Y-84175000D03*
X164000000Y-85825000D03*
%TD*%
%TO.C,R16*%
X167200000Y-84175000D03*
X167200000Y-85825000D03*
%TD*%
D19*
%TO.C,C9*%
X180120000Y-87200000D03*
X181080000Y-87200000D03*
%TD*%
D20*
%TO.C,R13*%
X162400000Y-84175000D03*
X162400000Y-85825000D03*
%TD*%
D26*
%TO.C,U4*%
X148750000Y-107300000D03*
X148750000Y-105000000D03*
D27*
X142450000Y-105000000D03*
D26*
X148750000Y-102700000D03*
%TD*%
D28*
%TO.C,J2*%
X175000000Y-75362500D03*
X179250000Y-75362500D03*
%TD*%
D18*
%TO.C,R6*%
X212775000Y-91600000D03*
X214425000Y-91600000D03*
%TD*%
D29*
%TO.C,D3*%
X190000000Y-105000000D03*
X192800000Y-105000000D03*
%TD*%
D23*
%TO.C,L4*%
X175400000Y-82170000D03*
X175400000Y-81200000D03*
%TD*%
D18*
%TO.C,R5*%
X212975000Y-110400000D03*
X214625000Y-110400000D03*
%TD*%
D21*
%TO.C,SW4*%
X214550000Y-94500000D03*
X222500000Y-94500000D03*
X214550000Y-99000000D03*
X222500000Y-99000000D03*
%TD*%
D20*
%TO.C,R14*%
X158135000Y-84200000D03*
X158135000Y-85850000D03*
%TD*%
D21*
%TO.C,SW5*%
X202050000Y-94500000D03*
X210000000Y-94500000D03*
X202050000Y-99000000D03*
X210000000Y-99000000D03*
%TD*%
D25*
%TO.C,C11*%
X175400000Y-79880000D03*
X175400000Y-78920000D03*
%TD*%
D16*
%TO.C,C5*%
X174480000Y-87200000D03*
X173520000Y-87200000D03*
%TD*%
D19*
%TO.C,C8*%
X180720000Y-93200000D03*
X181680000Y-93200000D03*
%TD*%
D23*
%TO.C,L3*%
X175400000Y-84085000D03*
X175400000Y-83115000D03*
%TD*%
D21*
%TO.C,SW1*%
X214550000Y-104000000D03*
X222500000Y-104000000D03*
X214550000Y-108500000D03*
X222500000Y-108500000D03*
%TD*%
D18*
%TO.C,R9*%
X200375000Y-100800000D03*
X202025000Y-100800000D03*
%TD*%
D19*
%TO.C,C10*%
X176520000Y-80600000D03*
X177480000Y-80600000D03*
%TD*%
D30*
%TO.C,C12*%
X151000000Y-106975000D03*
X151000000Y-105425000D03*
%TD*%
D31*
%TO.C,D1*%
X235125000Y-77800000D03*
X233550000Y-77800000D03*
%TD*%
D21*
%TO.C,SW3*%
X227050000Y-94500000D03*
X235000000Y-94500000D03*
X227050000Y-99000000D03*
X235000000Y-99000000D03*
%TD*%
D31*
%TO.C,D2*%
X235162500Y-75750000D03*
X233587500Y-75750000D03*
%TD*%
D32*
%TO.C,SW6*%
X190500000Y-108250000D03*
X193000000Y-108250000D03*
X195500000Y-108250000D03*
%TD*%
M02*
