%TF.GenerationSoftware,KiCad,Pcbnew,8.0.6-8.0.6-0~ubuntu22.04.1*%
%TF.CreationDate,2024-10-27T10:41:28+01:00*%
%TF.ProjectId,hackbat,6861636b-6261-4742-9e6b-696361645f70,rev?*%
%TF.SameCoordinates,Original*%
%TF.FileFunction,Copper,L2,Bot*%
%TF.FilePolarity,Positive*%
%FSLAX46Y46*%
G04 Gerber Fmt 4.6, Leading zero omitted, Abs format (unit mm)*
G04 Created by KiCad (PCBNEW 8.0.6-8.0.6-0~ubuntu22.04.1) date 2024-10-27 10:41:28*
%MOMM*%
%LPD*%
G01*
G04 APERTURE LIST*
G04 Aperture macros list*
%AMRoundRect*
0 Rectangle with rounded corners*
0 $1 Rounding radius*
0 $2 $3 $4 $5 $6 $7 $8 $9 X,Y pos of 4 corners*
0 Add a 4 corners polygon primitive as box body*
4,1,4,$2,$3,$4,$5,$6,$7,$8,$9,$2,$3,0*
0 Add four circle primitives for the rounded corners*
1,1,$1+$1,$2,$3*
1,1,$1+$1,$4,$5*
1,1,$1+$1,$6,$7*
1,1,$1+$1,$8,$9*
0 Add four rect primitives between the rounded corners*
20,1,$1+$1,$2,$3,$4,$5,0*
20,1,$1+$1,$4,$5,$6,$7,0*
20,1,$1+$1,$6,$7,$8,$9,0*
20,1,$1+$1,$8,$9,$2,$3,0*%
G04 Aperture macros list end*
%TA.AperFunction,ComponentPad*%
%ADD10C,1.400000*%
%TD*%
%TA.AperFunction,HeatsinkPad*%
%ADD11R,2.600000X2.600000*%
%TD*%
%TA.AperFunction,HeatsinkPad*%
%ADD12C,0.500000*%
%TD*%
%TA.AperFunction,ComponentPad*%
%ADD13RoundRect,0.375000X0.375000X-1.125000X0.375000X1.125000X-0.375000X1.125000X-0.375000X-1.125000X0*%
%TD*%
%TA.AperFunction,SMDPad,CuDef*%
%ADD14R,1.500000X5.080000*%
%TD*%
%TA.AperFunction,ComponentPad*%
%ADD15R,1.500000X1.500000*%
%TD*%
%TA.AperFunction,SMDPad,CuDef*%
%ADD16RoundRect,0.200000X-0.200000X-0.275000X0.200000X-0.275000X0.200000X0.275000X-0.200000X0.275000X0*%
%TD*%
%TA.AperFunction,SMDPad,CuDef*%
%ADD17RoundRect,0.100000X0.575000X-0.100000X0.575000X0.100000X-0.575000X0.100000X-0.575000X-0.100000X0*%
%TD*%
%TA.AperFunction,ComponentPad*%
%ADD18O,1.600000X0.900000*%
%TD*%
%TA.AperFunction,SMDPad,CuDef*%
%ADD19RoundRect,0.250000X0.450000X-0.550000X0.450000X0.550000X-0.450000X0.550000X-0.450000X-0.550000X0*%
%TD*%
%TA.AperFunction,SMDPad,CuDef*%
%ADD20RoundRect,0.250000X0.700000X-0.700000X0.700000X0.700000X-0.700000X0.700000X-0.700000X-0.700000X0*%
%TD*%
%TA.AperFunction,ComponentPad*%
%ADD21R,3.000000X3.000000*%
%TD*%
%TA.AperFunction,ComponentPad*%
%ADD22C,3.000000*%
%TD*%
%TA.AperFunction,SMDPad,CuDef*%
%ADD23R,1.500000X0.900000*%
%TD*%
%TA.AperFunction,SMDPad,CuDef*%
%ADD24R,0.800000X0.800000*%
%TD*%
%TA.AperFunction,SMDPad,CuDef*%
%ADD25RoundRect,0.200000X0.275000X-0.200000X0.275000X0.200000X-0.275000X0.200000X-0.275000X-0.200000X0*%
%TD*%
%TA.AperFunction,SMDPad,CuDef*%
%ADD26R,1.900000X1.300000*%
%TD*%
%TA.AperFunction,SMDPad,CuDef*%
%ADD27R,1.200000X1.000000*%
%TD*%
%TA.AperFunction,SMDPad,CuDef*%
%ADD28R,2.800000X1.000000*%
%TD*%
%TA.AperFunction,SMDPad,CuDef*%
%ADD29R,0.800000X1.000000*%
%TD*%
%TA.AperFunction,SMDPad,CuDef*%
%ADD30R,1.200000X0.700000*%
%TD*%
%TA.AperFunction,SMDPad,CuDef*%
%ADD31RoundRect,0.225000X0.250000X-0.225000X0.250000X0.225000X-0.250000X0.225000X-0.250000X-0.225000X0*%
%TD*%
%TA.AperFunction,ViaPad*%
%ADD32C,0.600000*%
%TD*%
%TA.AperFunction,Conductor*%
%ADD33C,0.200000*%
%TD*%
%TA.AperFunction,Conductor*%
%ADD34C,0.127000*%
%TD*%
%TA.AperFunction,Conductor*%
%ADD35C,0.133350*%
%TD*%
G04 APERTURE END LIST*
D10*
%TO.P,BOOT,1,A*%
%TO.N,GND*%
X181500000Y-98940000D03*
%TO.P,BOOT,2,B*%
%TO.N,RF_GD0*%
X181500000Y-96400000D03*
%TD*%
D11*
%TO.P,U2,21,GND*%
%TO.N,GND*%
X175000000Y-90675000D03*
D12*
X174500000Y-90175000D03*
X175500000Y-90175000D03*
%TD*%
D13*
%TO.P,U3,1,VCC_IN*%
%TO.N,Net-(U3-VCC_IN)*%
X159800000Y-81000000D03*
%TO.P,U3,2,GND*%
%TO.N,Net-(U3-GND)*%
X162340000Y-81000000D03*
%TO.P,U3,3,SCL*%
%TO.N,OLED_SCL*%
X164880000Y-81000000D03*
%TO.P,U3,4,SDA*%
%TO.N,OLED_SDA*%
X167420000Y-81000000D03*
%TD*%
D14*
%TO.P,J2,2,Ext*%
%TO.N,GND*%
X170750000Y-75362500D03*
X179250000Y-75362500D03*
%TD*%
D15*
%TO.P,AE1,1,A*%
%TO.N,Net-(AE1-A)*%
X175000000Y-76000000D03*
%TD*%
D16*
%TO.P,R1,1*%
%TO.N,/esp32c6/USB_P*%
X157175000Y-93400000D03*
%TO.P,R1,2*%
%TO.N,Net-(U5-GPIO13{slash}USB_D+)*%
X158825000Y-93400000D03*
%TD*%
%TO.P,R2,1*%
%TO.N,/esp32c6/USB_N*%
X157175000Y-95000000D03*
%TO.P,R2,2*%
%TO.N,Net-(U5-GPIO12{slash}USB_D-)*%
X158825000Y-95000000D03*
%TD*%
D17*
%TO.P,J1,1,VBUS*%
%TO.N,+5V*%
X144525000Y-89600000D03*
%TO.P,J1,2,D-*%
%TO.N,/esp32c6/USB_N*%
X144525000Y-88950000D03*
%TO.P,J1,3,D+*%
%TO.N,/esp32c6/USB_P*%
X144525000Y-88300000D03*
%TO.P,J1,4,ID*%
%TO.N,unconnected-(J1-ID-Pad4)*%
X144525000Y-87650000D03*
%TO.P,J1,5,GND*%
%TO.N,GND*%
X144525000Y-87000000D03*
D18*
%TO.P,J1,6,Shield*%
X141850000Y-91600000D03*
D19*
X144300000Y-91500000D03*
D20*
X141850000Y-89500000D03*
X141850000Y-87100000D03*
D19*
X144300000Y-85100000D03*
D18*
X141850000Y-85000000D03*
%TD*%
D21*
%TO.P,BT1,1,+*%
%TO.N,Net-(BT1-+)*%
X185367500Y-104607500D03*
D22*
%TO.P,BT1,2,-*%
%TO.N,GND*%
X185367500Y-91907500D03*
%TD*%
D23*
%TO.P,U5,1,GND*%
%TO.N,GND*%
X162000000Y-110430000D03*
%TO.P,U5,2,3V3*%
%TO.N,+3V3*%
X162000000Y-109160000D03*
%TO.P,U5,3,EN/CHIP_PU*%
X162000000Y-107890000D03*
%TO.P,U5,4,MTMS/GPIO4/ADC1_CH4*%
%TO.N,BUT_RIGHT*%
X162000000Y-106620000D03*
%TO.P,U5,5,MTDI/GPIO5/ADC1_CH5*%
%TO.N,BUT_UP*%
X162000000Y-105350000D03*
%TO.P,U5,6,MTCK/GPIO6/ADC1_CH6*%
%TO.N,RF_SPICLK*%
X162000000Y-104080000D03*
%TO.P,U5,7,MTDO/GPIO7*%
%TO.N,RF_SPID*%
X162000000Y-102810000D03*
%TO.P,U5,8,GPIO0/ADC1_CH0/XTAL_32K_P*%
%TO.N,OLED_SCL*%
X162000000Y-101540000D03*
%TO.P,U5,9,GPIO1/ADC1_CH1/XTAL_32K_N*%
%TO.N,OLED_SDA*%
X162000000Y-100270000D03*
%TO.P,U5,10,GPIO8*%
%TO.N,RF_SPIQ*%
X162000000Y-99000000D03*
%TO.P,U5,11,GPIO10*%
%TO.N,LED1*%
X162000000Y-97730000D03*
%TO.P,U5,12,GPIO11*%
%TO.N,LED2*%
X162000000Y-96460000D03*
%TO.P,U5,13,GPIO12/USB_D-*%
%TO.N,Net-(U5-GPIO12{slash}USB_D-)*%
X162000000Y-95190000D03*
%TO.P,U5,14,GPIO13/USB_D+*%
%TO.N,Net-(U5-GPIO13{slash}USB_D+)*%
X162000000Y-93920000D03*
%TO.P,U5,15,GPIO9*%
%TO.N,RF_GD0*%
X179500000Y-93920000D03*
%TO.P,U5,16,GPIO18*%
%TO.N,SD_CMD*%
X179500000Y-95190000D03*
%TO.P,U5,17,GPIO19*%
%TO.N,SD_CLK*%
X179500000Y-96460000D03*
%TO.P,U5,18,GPIO20*%
%TO.N,SD_DATA0*%
X179500000Y-97730000D03*
%TO.P,U5,19,GPIO21*%
%TO.N,SD_DATA1*%
X179500000Y-99000000D03*
%TO.P,U5,20,GPIO22*%
%TO.N,SD_DATA2*%
X179500000Y-100270000D03*
%TO.P,U5,21,GPIO23*%
%TO.N,SD_DATA3*%
X179500000Y-101540000D03*
%TO.P,U5,22,NC*%
%TO.N,unconnected-(U5-NC-Pad22)*%
X179500000Y-102810000D03*
%TO.P,U5,23,GPIO15*%
%TO.N,BUT_ENTER*%
X179500000Y-104080000D03*
%TO.P,U5,24,U0RXD/GPIO17*%
%TO.N,BUT_LEFT*%
X179500000Y-105350000D03*
%TO.P,U5,25,U0TXD/GPIO16*%
%TO.N,RF_SPICS*%
X179500000Y-106620000D03*
%TO.P,U5,26,GPIO3/ADC1_CH3*%
%TO.N,RF_GD2*%
X179500000Y-107890000D03*
%TO.P,U5,27,GPIO2/ADC1_CH2*%
%TO.N,BUT_DOWN*%
X179500000Y-109160000D03*
%TO.P,U5,28,GND*%
%TO.N,GND*%
X179500000Y-110430000D03*
D24*
%TO.P,U5,29,GND*%
X167995000Y-103460000D03*
X167995000Y-104710000D03*
X167995000Y-105960000D03*
X169245000Y-103460000D03*
X169245000Y-104710000D03*
X169245000Y-105960000D03*
X170495000Y-103460000D03*
X170495000Y-104710000D03*
X170495000Y-105960000D03*
%TD*%
D25*
%TO.P,R19,1*%
%TO.N,GND*%
X158200000Y-110625000D03*
%TO.P,R19,2*%
%TO.N,SD_CD*%
X158200000Y-108975000D03*
%TD*%
D26*
%TO.P,J3,11,SHIELD*%
%TO.N,GND*%
X141090000Y-97355000D03*
D27*
X156190000Y-99705000D03*
X151890000Y-110855000D03*
D28*
X141540000Y-110855000D03*
D29*
%TO.P,J3,10,DET_A*%
%TO.N,+3V3*%
X145690000Y-110855000D03*
D30*
%TO.P,J3,9,DET_B*%
%TO.N,SD_CD*%
X156190000Y-109905000D03*
%TO.P,J3,8,DAT1*%
%TO.N,SD_DATA1*%
X156190000Y-108955000D03*
%TO.P,J3,7,DAT0*%
%TO.N,SD_DATA0*%
X156190000Y-107855000D03*
%TO.P,J3,6,VSS*%
%TO.N,GND*%
X156190000Y-106755000D03*
%TO.P,J3,5,CLK*%
%TO.N,SD_CLK*%
X156190000Y-105655000D03*
%TO.P,J3,4,VDD*%
%TO.N,+3V3*%
X156190000Y-104555000D03*
%TO.P,J3,3,CMD*%
%TO.N,SD_CMD*%
X156190000Y-103455000D03*
%TO.P,J3,2,DAT3/CD*%
%TO.N,SD_DATA3*%
X156190000Y-102355000D03*
%TO.P,J3,1,DAT2*%
%TO.N,SD_DATA2*%
X156190000Y-101255000D03*
%TD*%
D31*
%TO.P,C1,1*%
%TO.N,GND*%
X159800000Y-110575000D03*
%TO.P,C1,2*%
%TO.N,+3V3*%
X159800000Y-109025000D03*
%TD*%
%TO.P,C2,1*%
%TO.N,GND*%
X147000000Y-91375000D03*
%TO.P,C2,2*%
%TO.N,+5V*%
X147000000Y-89825000D03*
%TD*%
D32*
%TO.N,GND*%
X181660000Y-92500000D03*
%TO.N,+3V3*%
X182100000Y-90300000D03*
%TO.N,RF_GD0*%
X180400000Y-94000000D03*
%TO.N,SD_DATA1*%
X155300000Y-109000000D03*
%TO.N,SD_DATA0*%
X155300000Y-107900000D03*
%TO.N,+3V3*%
X153600000Y-105600000D03*
%TO.N,SD_DATA2*%
X155300000Y-101300000D03*
%TO.N,SD_DATA3*%
X155300000Y-102400000D03*
%TO.N,SD_CMD*%
X155200000Y-103500000D03*
%TO.N,+3V3*%
X153790000Y-103500000D03*
X214400000Y-95250000D03*
X208800000Y-95100000D03*
X146700000Y-111200000D03*
X175050000Y-94950000D03*
X167150000Y-86800000D03*
X158400000Y-97950000D03*
X171600000Y-87400000D03*
X151490000Y-105425000D03*
X176800000Y-88400000D03*
X165425000Y-86358607D03*
X216300000Y-103700000D03*
X201950000Y-94600000D03*
X177810742Y-89947255D03*
X162550000Y-86400000D03*
%TO.N,GND*%
X170000000Y-85700000D03*
X165050000Y-100000000D03*
X170000000Y-82000000D03*
X170000000Y-88600000D03*
X183300000Y-107150000D03*
X183750000Y-110300000D03*
X175250000Y-95950000D03*
X176100000Y-99250000D03*
X172000000Y-88600000D03*
X177700000Y-95850000D03*
X177350000Y-94550000D03*
X167400000Y-90000000D03*
X165500000Y-90000000D03*
X185000000Y-107150000D03*
X160900000Y-87450000D03*
X172000000Y-82000000D03*
X170000000Y-80000000D03*
X206125000Y-101850000D03*
X172000000Y-84000000D03*
X160900000Y-90800000D03*
X187700000Y-110300000D03*
X160900000Y-89200000D03*
X203850000Y-101850000D03*
X181750000Y-110300000D03*
X172000000Y-80000000D03*
X186050000Y-110300000D03*
X160400000Y-103800000D03*
X163900000Y-101050000D03*
X172000000Y-85700000D03*
X208400000Y-101850000D03*
X170000000Y-84000000D03*
X174750000Y-99250000D03*
%TO.N,+5V*%
X148900000Y-100800000D03*
%TO.N,LED1*%
X232100000Y-77800000D03*
%TO.N,LED2*%
X232250000Y-75850000D03*
%TO.N,SD_DATA0*%
X157800000Y-107800000D03*
X173200000Y-98400000D03*
%TO.N,SD_CLK*%
X157700000Y-105700000D03*
X173200000Y-97600000D03*
%TO.N,SD_DATA3*%
X157850000Y-102200000D03*
X169850000Y-96236500D03*
%TO.N,SD_CMD*%
X157600000Y-103200000D03*
X173200000Y-96800000D03*
%TO.N,SD_DATA2*%
X157900000Y-101300000D03*
X170500000Y-95673000D03*
%TO.N,SD_DATA1*%
X173200000Y-99200000D03*
X157225000Y-108929861D03*
%TO.N,BUT_DOWN*%
X213000000Y-108350000D03*
%TO.N,BUT_UP*%
X163900000Y-105850000D03*
%TO.N,BUT_RIGHT*%
X163450000Y-106800000D03*
%TO.N,BUT_ENTER*%
X214950000Y-100800000D03*
%TO.N,BUT_LEFT*%
X202050000Y-101950000D03*
%TO.N,OLED_SCL*%
X159550000Y-98300000D03*
%TO.N,OLED_SDA*%
X160400000Y-98300000D03*
%TO.N,RF_GD0*%
X177186500Y-93050000D03*
%TO.N,RF_SPID*%
X174413500Y-93897995D03*
%TO.N,RF_GD2*%
X177700000Y-106550000D03*
%TO.N,RF_SPICS*%
X178650000Y-106550000D03*
%TO.N,RF_SPIQ*%
X172850000Y-93000000D03*
%TO.N,RF_SPICLK*%
X173572378Y-94663500D03*
%TD*%
D33*
%TO.N,+3V3*%
X181600000Y-89947255D02*
X185952840Y-89947255D01*
X177810742Y-89947255D02*
X181600000Y-89947255D01*
X182100000Y-90300000D02*
X181747255Y-89947255D01*
X181747255Y-89947255D02*
X181600000Y-89947255D01*
D34*
%TO.N,RF_GD0*%
X179580000Y-94000000D02*
X179500000Y-93920000D01*
X180400000Y-94000000D02*
X179580000Y-94000000D01*
D33*
%TO.N,+3V3*%
X156190000Y-104555000D02*
X158745000Y-104555000D01*
X158745000Y-104555000D02*
X158950000Y-104350000D01*
X153600000Y-104555000D02*
X153200000Y-104555000D01*
X156190000Y-104555000D02*
X153200000Y-104555000D01*
X153200000Y-104555000D02*
X152360000Y-104555000D01*
D34*
%TO.N,SD_DATA1*%
X155300000Y-109000000D02*
X156145000Y-109000000D01*
X156145000Y-109000000D02*
X156190000Y-108955000D01*
%TO.N,SD_DATA0*%
X155300000Y-107900000D02*
X156145000Y-107900000D01*
X156145000Y-107900000D02*
X156190000Y-107855000D01*
D33*
%TO.N,+3V3*%
X151665000Y-105600000D02*
X151490000Y-105425000D01*
X153600000Y-105600000D02*
X151665000Y-105600000D01*
D34*
%TO.N,SD_DATA2*%
X155300000Y-101300000D02*
X156145000Y-101300000D01*
X156145000Y-101300000D02*
X156190000Y-101255000D01*
%TO.N,SD_DATA3*%
X155300000Y-102400000D02*
X156145000Y-102400000D01*
X156145000Y-102400000D02*
X156190000Y-102355000D01*
%TO.N,SD_CMD*%
X155200000Y-103500000D02*
X156145000Y-103500000D01*
X156145000Y-103500000D02*
X156190000Y-103455000D01*
D33*
%TO.N,+3V3*%
X153600000Y-104555000D02*
X153790000Y-104365000D01*
X153790000Y-104365000D02*
X153790000Y-103500000D01*
X216300000Y-103700000D02*
X216300000Y-97150000D01*
X158950000Y-104350000D02*
X158950000Y-99050000D01*
X159800000Y-109025000D02*
X159800000Y-105200000D01*
X159935000Y-109160000D02*
X159800000Y-109025000D01*
X171648529Y-87400000D02*
X172848529Y-88600000D01*
X152360000Y-104555000D02*
X151490000Y-105425000D01*
X190605585Y-94600000D02*
X201950000Y-94600000D01*
X159800000Y-105200000D02*
X159155000Y-104555000D01*
X175050000Y-94950000D02*
X175050000Y-94000000D01*
X158300000Y-98400000D02*
X158300000Y-98050000D01*
X216300000Y-97150000D02*
X214400000Y-95250000D01*
X214400000Y-95250000D02*
X208950000Y-95250000D01*
X177810742Y-89410742D02*
X177200000Y-88800000D01*
X176600000Y-88600000D02*
X176800000Y-88400000D01*
X158300000Y-98050000D02*
X158400000Y-97950000D01*
X175050000Y-94000000D02*
X176950000Y-92100000D01*
X159800000Y-105200000D02*
X158950000Y-104350000D01*
X176950000Y-92100000D02*
X176950000Y-90807997D01*
X171600000Y-87400000D02*
X171648529Y-87400000D01*
X162591393Y-86358607D02*
X162550000Y-86400000D01*
X165425000Y-86358607D02*
X162591393Y-86358607D01*
X162000000Y-109160000D02*
X159935000Y-109160000D01*
X208950000Y-95250000D02*
X208800000Y-95100000D01*
X177810742Y-89947255D02*
X177810742Y-89410742D01*
X185952840Y-89947255D02*
X190605585Y-94600000D01*
X167150000Y-86800000D02*
X165866393Y-86800000D01*
X165866393Y-86800000D02*
X165425000Y-86358607D01*
X172848529Y-88600000D02*
X176600000Y-88600000D01*
X145690000Y-110855000D02*
X146355000Y-110855000D01*
X162000000Y-107890000D02*
X162000000Y-109160000D01*
X146355000Y-110855000D02*
X146700000Y-111200000D01*
X158950000Y-99050000D02*
X158300000Y-98400000D01*
X176950000Y-90807997D02*
X177810742Y-89947255D01*
X177200000Y-88800000D02*
X176800000Y-88400000D01*
%TO.N,+5V*%
X144525000Y-89600000D02*
X146775000Y-89600000D01*
X146775000Y-89600000D02*
X147000000Y-89825000D01*
X148900000Y-91725000D02*
X148900000Y-100800000D01*
X147000000Y-89825000D02*
X148900000Y-91725000D01*
D34*
%TO.N,LED1*%
X230762448Y-77800000D02*
X232100000Y-77800000D01*
X168777000Y-87485448D02*
X169635448Y-86627000D01*
X163200000Y-96599448D02*
X168777000Y-91022448D01*
X162000000Y-97730000D02*
X162877000Y-97730000D01*
X209077000Y-86627000D02*
X209100000Y-86650000D01*
X209100000Y-86650000D02*
X221912448Y-86650000D01*
X168777000Y-91022448D02*
X168777000Y-87485448D01*
X163200000Y-97407000D02*
X163200000Y-96599448D01*
X221912448Y-86650000D02*
X230762448Y-77800000D01*
X169635448Y-86627000D02*
X209077000Y-86627000D01*
X162877000Y-97730000D02*
X163200000Y-97407000D01*
%TO.N,LED2*%
X162000000Y-96460000D02*
X162877000Y-96460000D01*
X162877000Y-96460000D02*
X168450000Y-90887000D01*
X168450000Y-87350000D02*
X169500000Y-86300000D01*
X169500000Y-86300000D02*
X221800000Y-86300000D01*
X168450000Y-90887000D02*
X168450000Y-87350000D01*
X221800000Y-86300000D02*
X232250000Y-75850000D01*
%TO.N,SD_DATA0*%
X173870000Y-97730000D02*
X173200000Y-98400000D01*
X157745000Y-107855000D02*
X156190000Y-107855000D01*
X179500000Y-97730000D02*
X173870000Y-97730000D01*
X157800000Y-107800000D02*
X157745000Y-107855000D01*
%TO.N,SD_CLK*%
X176540000Y-96460000D02*
X175597000Y-97403000D01*
X157700000Y-105700000D02*
X156900000Y-105700000D01*
X173397000Y-97403000D02*
X173200000Y-97600000D01*
X156855000Y-105655000D02*
X156190000Y-105655000D01*
X175597000Y-97403000D02*
X173397000Y-97403000D01*
X156900000Y-105700000D02*
X156855000Y-105655000D01*
X179500000Y-96460000D02*
X176540000Y-96460000D01*
%TO.N,SD_CD*%
X157270000Y-109905000D02*
X158200000Y-108975000D01*
X156190000Y-109905000D02*
X157270000Y-109905000D01*
%TO.N,SD_DATA3*%
X173297000Y-100597000D02*
X177547000Y-100597000D01*
X157850000Y-102200000D02*
X157695000Y-102355000D01*
X177547000Y-100597000D02*
X178490000Y-101540000D01*
X170886500Y-96236500D02*
X171200000Y-96550000D01*
X169850000Y-96236500D02*
X170886500Y-96236500D01*
X157695000Y-102355000D02*
X156190000Y-102355000D01*
X178490000Y-101540000D02*
X179500000Y-101540000D01*
X171200000Y-96550000D02*
X171200000Y-98500000D01*
X171200000Y-98500000D02*
X173297000Y-100597000D01*
%TO.N,SD_CMD*%
X179500000Y-95190000D02*
X177210000Y-95190000D01*
X156190000Y-103455000D02*
X157345000Y-103455000D01*
X177210000Y-95190000D02*
X175324000Y-97076000D01*
X157345000Y-103455000D02*
X157600000Y-103200000D01*
X173476000Y-97076000D02*
X173200000Y-96800000D01*
X175324000Y-97076000D02*
X173476000Y-97076000D01*
%TO.N,SD_DATA2*%
X157855000Y-101255000D02*
X156190000Y-101255000D01*
X170500000Y-95673000D02*
X170785448Y-95673000D01*
X173470000Y-100270000D02*
X179500000Y-100270000D01*
X170785448Y-95673000D02*
X171527000Y-96414552D01*
X171527000Y-98327000D02*
X173470000Y-100270000D01*
X157900000Y-101300000D02*
X157855000Y-101255000D01*
X171527000Y-96414552D02*
X171527000Y-98327000D01*
%TO.N,SD_DATA1*%
X157225000Y-108929861D02*
X156215139Y-108929861D01*
X177657000Y-98057000D02*
X174343000Y-98057000D01*
X179500000Y-99000000D02*
X178600000Y-99000000D01*
X156215139Y-108929861D02*
X156190000Y-108955000D01*
X174343000Y-98057000D02*
X173200000Y-99200000D01*
X178600000Y-99000000D02*
X177657000Y-98057000D01*
D35*
%TO.N,/esp32c6/USB_P*%
X155829174Y-94033325D02*
X156462499Y-93400000D01*
X154469041Y-94033325D02*
X155829174Y-94033325D01*
X156462499Y-93400000D02*
X157175000Y-93400000D01*
X148894041Y-88458325D02*
X154469041Y-94033325D01*
X145695826Y-88458325D02*
X148894041Y-88458325D01*
X145537501Y-88300000D02*
X145695826Y-88458325D01*
X144525000Y-88300000D02*
X145537501Y-88300000D01*
D34*
%TO.N,Net-(U5-GPIO13{slash}USB_D+)*%
X162000000Y-93920000D02*
X159345000Y-93920000D01*
X159345000Y-93920000D02*
X158825000Y-93400000D01*
D35*
%TO.N,/esp32c6/USB_N*%
X144525000Y-88950000D02*
X145537501Y-88950000D01*
X148755959Y-88791675D02*
X154330959Y-94366675D01*
X155829174Y-94366675D02*
X156462499Y-95000000D01*
X156462499Y-95000000D02*
X157175000Y-95000000D01*
X145537501Y-88950000D02*
X145695826Y-88791675D01*
X145695826Y-88791675D02*
X148755959Y-88791675D01*
X154330959Y-94366675D02*
X155829174Y-94366675D01*
D34*
%TO.N,Net-(U5-GPIO12{slash}USB_D-)*%
X160400000Y-94800000D02*
X161000000Y-94800000D01*
X160200000Y-95000000D02*
X160400000Y-94800000D01*
X158825000Y-95000000D02*
X160200000Y-95000000D01*
X161000000Y-94800000D02*
X161390000Y-95190000D01*
X161390000Y-95190000D02*
X162000000Y-95190000D01*
%TO.N,BUT_DOWN*%
X212190000Y-109160000D02*
X213000000Y-108350000D01*
X179500000Y-109160000D02*
X212190000Y-109160000D01*
%TO.N,BUT_UP*%
X163400000Y-105350000D02*
X163900000Y-105850000D01*
X162000000Y-105350000D02*
X163400000Y-105350000D01*
%TO.N,BUT_RIGHT*%
X162000000Y-106620000D02*
X163270000Y-106620000D01*
X163270000Y-106620000D02*
X163450000Y-106800000D01*
%TO.N,BUT_ENTER*%
X209850000Y-101050000D02*
X214700000Y-101050000D01*
X181827000Y-107950000D02*
X182383000Y-108506000D01*
X182950000Y-108506000D02*
X199431552Y-108506000D01*
X201486500Y-103613500D02*
X201486500Y-101716590D01*
X201673000Y-106264552D02*
X201673000Y-103800000D01*
X181827000Y-105950000D02*
X181827000Y-107950000D01*
X199431552Y-108506000D02*
X200168776Y-107768776D01*
X182383000Y-108506000D02*
X182950000Y-108506000D01*
X201673000Y-103800000D02*
X201486500Y-103613500D01*
X200168776Y-107768776D02*
X201673000Y-106264552D01*
X179500000Y-104080000D02*
X179957000Y-104080000D01*
X214700000Y-101050000D02*
X214950000Y-100800000D01*
X179957000Y-104080000D02*
X181827000Y-105950000D01*
X201486500Y-101716590D02*
X202153090Y-101050000D01*
X202153090Y-101050000D02*
X209850000Y-101050000D01*
%TO.N,BUT_LEFT*%
X181500000Y-106893000D02*
X181500000Y-108550000D01*
X179500000Y-105350000D02*
X179957000Y-105350000D01*
X202000000Y-102300000D02*
X202000000Y-102000000D01*
X202000000Y-106400000D02*
X202000000Y-102300000D01*
X201450000Y-106950000D02*
X202000000Y-106400000D01*
X202000000Y-102000000D02*
X202050000Y-101950000D01*
X181783000Y-108833000D02*
X183150000Y-108833000D01*
X183150000Y-108833000D02*
X199567000Y-108833000D01*
X179957000Y-105350000D02*
X181500000Y-106893000D01*
X199567000Y-108833000D02*
X201450000Y-106950000D01*
X181500000Y-108550000D02*
X181783000Y-108833000D01*
%TO.N,OLED_SCL*%
X159550000Y-99547000D02*
X160376500Y-100373500D01*
X160376500Y-100373500D02*
X161543000Y-101540000D01*
X161543000Y-101540000D02*
X162000000Y-101540000D01*
X159550000Y-98300000D02*
X159550000Y-99547000D01*
%TO.N,OLED_SDA*%
X161123000Y-100270000D02*
X162000000Y-100270000D01*
X160400000Y-99547000D02*
X161123000Y-100270000D01*
X160400000Y-98300000D02*
X160400000Y-99547000D01*
%TO.N,RF_GD0*%
X179500000Y-93920000D02*
X178056500Y-93920000D01*
X178056500Y-93920000D02*
X177186500Y-93050000D01*
%TO.N,RF_SPID*%
X174413500Y-93897995D02*
X174211495Y-94100000D01*
X167700000Y-98600000D02*
X163490000Y-102810000D01*
X163490000Y-102810000D02*
X162000000Y-102810000D01*
X174211495Y-94100000D02*
X169650000Y-94100000D01*
X169650000Y-94100000D02*
X167700000Y-96050000D01*
X167700000Y-96050000D02*
X167700000Y-98600000D01*
%TO.N,RF_GD2*%
X179500000Y-107890000D02*
X178390000Y-107890000D01*
X178000000Y-106850000D02*
X177700000Y-106550000D01*
X178390000Y-107890000D02*
X178000000Y-107500000D01*
X178000000Y-107500000D02*
X178000000Y-106850000D01*
%TO.N,RF_SPICS*%
X178650000Y-106550000D02*
X179430000Y-106550000D01*
X179430000Y-106550000D02*
X179500000Y-106620000D01*
%TO.N,RF_SPIQ*%
X172850000Y-93000000D02*
X172850000Y-93250000D01*
X167373000Y-97327000D02*
X165700000Y-99000000D01*
X165700000Y-99000000D02*
X162000000Y-99000000D01*
X167373000Y-95914552D02*
X167373000Y-97327000D01*
X172327000Y-93773000D02*
X169514552Y-93773000D01*
X169514552Y-93773000D02*
X167373000Y-95914552D01*
X172850000Y-93250000D02*
X172327000Y-93773000D01*
%TO.N,RF_SPICLK*%
X173335878Y-94427000D02*
X169785448Y-94427000D01*
X173572378Y-94663500D02*
X173335878Y-94427000D01*
X168027000Y-96185448D02*
X168027000Y-98735448D01*
X168027000Y-98735448D02*
X162682448Y-104080000D01*
X169785448Y-94427000D02*
X168027000Y-96185448D01*
X162682448Y-104080000D02*
X162000000Y-104080000D01*
%TD*%
%TA.AperFunction,Conductor*%
%TO.N,GND*%
G36*
X177943039Y-73320185D02*
G01*
X177988794Y-73372989D01*
X178000000Y-73424500D01*
X178000000Y-75112500D01*
X180500000Y-75112500D01*
X180500000Y-73424500D01*
X180519685Y-73357461D01*
X180572489Y-73311706D01*
X180624000Y-73300500D01*
X239525500Y-73300500D01*
X239592539Y-73320185D01*
X239638294Y-73372989D01*
X239649500Y-73424500D01*
X239649500Y-108996948D01*
X239649351Y-109003033D01*
X239631984Y-109356531D01*
X239630791Y-109368640D01*
X239579308Y-109715712D01*
X239576934Y-109727648D01*
X239491680Y-110068001D01*
X239488147Y-110079646D01*
X239369945Y-110409996D01*
X239365289Y-110421237D01*
X239215270Y-110738429D01*
X239209533Y-110749162D01*
X239029156Y-111050102D01*
X239022396Y-111060220D01*
X238813377Y-111342049D01*
X238805657Y-111351455D01*
X238570033Y-111611428D01*
X238561428Y-111620033D01*
X238301455Y-111855657D01*
X238292049Y-111863377D01*
X238010220Y-112072396D01*
X238000102Y-112079156D01*
X237699162Y-112259533D01*
X237688429Y-112265270D01*
X237371237Y-112415289D01*
X237359996Y-112419945D01*
X237029646Y-112538147D01*
X237018001Y-112541680D01*
X236677648Y-112626934D01*
X236665712Y-112629308D01*
X236318640Y-112680791D01*
X236306531Y-112681984D01*
X235973016Y-112698369D01*
X235953031Y-112699351D01*
X235946949Y-112699500D01*
X179874000Y-112699500D01*
X179806961Y-112679815D01*
X179761206Y-112627011D01*
X179750000Y-112575500D01*
X179750000Y-111920000D01*
X161750000Y-111920000D01*
X161750000Y-112575500D01*
X161730315Y-112642539D01*
X161677511Y-112688294D01*
X161626000Y-112699500D01*
X140524000Y-112699500D01*
X140456961Y-112679815D01*
X140411206Y-112627011D01*
X140400000Y-112575500D01*
X140400000Y-111979000D01*
X140419685Y-111911961D01*
X140472489Y-111866206D01*
X140524000Y-111855000D01*
X141290000Y-111855000D01*
X141790000Y-111855000D01*
X142987828Y-111855000D01*
X142987844Y-111854999D01*
X143047372Y-111848598D01*
X143047379Y-111848596D01*
X143182086Y-111798354D01*
X143182093Y-111798350D01*
X143297187Y-111712190D01*
X143297190Y-111712187D01*
X143383350Y-111597093D01*
X143383354Y-111597086D01*
X143433596Y-111462379D01*
X143433598Y-111462372D01*
X143439999Y-111402844D01*
X143440000Y-111402827D01*
X143440000Y-111105000D01*
X141790000Y-111105000D01*
X141790000Y-111855000D01*
X141290000Y-111855000D01*
X141290000Y-109855000D01*
X140524000Y-109855000D01*
X140456961Y-109835315D01*
X140411206Y-109782511D01*
X140400000Y-109731000D01*
X140400000Y-101229000D01*
X140419685Y-101161961D01*
X140472489Y-101116206D01*
X140524000Y-101105000D01*
X141490000Y-101105000D01*
X141490000Y-98629000D01*
X141509685Y-98561961D01*
X141562489Y-98516206D01*
X141614000Y-98505000D01*
X142087828Y-98505000D01*
X142087844Y-98504999D01*
X142147372Y-98498598D01*
X142147379Y-98498596D01*
X142282086Y-98448354D01*
X142282093Y-98448350D01*
X142397187Y-98362190D01*
X142397190Y-98362187D01*
X142483350Y-98247093D01*
X142483354Y-98247086D01*
X142533596Y-98112379D01*
X142533598Y-98112372D01*
X142539999Y-98052844D01*
X142540000Y-98052827D01*
X142540000Y-97605000D01*
X140964000Y-97605000D01*
X140896961Y-97585315D01*
X140851206Y-97532511D01*
X140840000Y-97481000D01*
X140840000Y-97105000D01*
X141340000Y-97105000D01*
X142540000Y-97105000D01*
X142540000Y-96657172D01*
X142539999Y-96657155D01*
X142533598Y-96597627D01*
X142533596Y-96597620D01*
X142483354Y-96462913D01*
X142483350Y-96462906D01*
X142397190Y-96347812D01*
X142397187Y-96347809D01*
X142282093Y-96261649D01*
X142282086Y-96261645D01*
X142147379Y-96211403D01*
X142147372Y-96211401D01*
X142087844Y-96205000D01*
X141340000Y-96205000D01*
X141340000Y-97105000D01*
X140840000Y-97105000D01*
X140840000Y-96205000D01*
X140524000Y-96205000D01*
X140456961Y-96185315D01*
X140411206Y-96132511D01*
X140400000Y-96081000D01*
X140400000Y-92050225D01*
X140419685Y-91983186D01*
X140472489Y-91937431D01*
X140541647Y-91927487D01*
X140605203Y-91956512D01*
X140638561Y-92002773D01*
X140658117Y-92049987D01*
X140658124Y-92050000D01*
X140762086Y-92205589D01*
X140762089Y-92205593D01*
X140894406Y-92337910D01*
X140894410Y-92337913D01*
X141049999Y-92441875D01*
X141050008Y-92441880D01*
X141222894Y-92513491D01*
X141222902Y-92513493D01*
X141406428Y-92549999D01*
X141406431Y-92550000D01*
X141600000Y-92550000D01*
X141600000Y-91850000D01*
X142100000Y-91850000D01*
X142100000Y-92550000D01*
X142293569Y-92550000D01*
X142293571Y-92549999D01*
X142477097Y-92513493D01*
X142477105Y-92513491D01*
X142649991Y-92441880D01*
X142650000Y-92441875D01*
X142805588Y-92337914D01*
X142926107Y-92217395D01*
X142987430Y-92183910D01*
X143057122Y-92188894D01*
X143113056Y-92230765D01*
X143131495Y-92266072D01*
X143165641Y-92369119D01*
X143165643Y-92369124D01*
X143257684Y-92518345D01*
X143381654Y-92642315D01*
X143530875Y-92734356D01*
X143530880Y-92734358D01*
X143697302Y-92789505D01*
X143697309Y-92789506D01*
X143800019Y-92799999D01*
X144049999Y-92799999D01*
X144550000Y-92799999D01*
X144799972Y-92799999D01*
X144799986Y-92799998D01*
X144902697Y-92789505D01*
X145069119Y-92734358D01*
X145069124Y-92734356D01*
X145218345Y-92642315D01*
X145342315Y-92518345D01*
X145434356Y-92369124D01*
X145434358Y-92369119D01*
X145489505Y-92202697D01*
X145489506Y-92202690D01*
X145499999Y-92099986D01*
X145500000Y-92099973D01*
X145500000Y-91750000D01*
X144550000Y-91750000D01*
X144550000Y-92799999D01*
X144049999Y-92799999D01*
X144050000Y-92799998D01*
X144050000Y-91750000D01*
X143193000Y-91750000D01*
X143183023Y-91759976D01*
X143173315Y-91793039D01*
X143120511Y-91838794D01*
X143069000Y-91850000D01*
X142249728Y-91850000D01*
X142341614Y-91811940D01*
X142411940Y-91741614D01*
X142450000Y-91649728D01*
X142450000Y-91648322D01*
X146025001Y-91648322D01*
X146035144Y-91747607D01*
X146088452Y-91908481D01*
X146088457Y-91908492D01*
X146177424Y-92052728D01*
X146177427Y-92052732D01*
X146297267Y-92172572D01*
X146297271Y-92172575D01*
X146441507Y-92261542D01*
X146441518Y-92261547D01*
X146602393Y-92314855D01*
X146701683Y-92324999D01*
X146749999Y-92324998D01*
X146750000Y-92324998D01*
X146750000Y-91625000D01*
X146025001Y-91625000D01*
X146025001Y-91648322D01*
X142450000Y-91648322D01*
X142450000Y-91550272D01*
X142411940Y-91458386D01*
X142341614Y-91388060D01*
X142249728Y-91350000D01*
X143057000Y-91350000D01*
X143066976Y-91340023D01*
X143076685Y-91306961D01*
X143129489Y-91261206D01*
X143181000Y-91250000D01*
X145499999Y-91250000D01*
X145499999Y-90900028D01*
X145499998Y-90900013D01*
X145489505Y-90797302D01*
X145434358Y-90630880D01*
X145434356Y-90630875D01*
X145342315Y-90481654D01*
X145218344Y-90357683D01*
X145218340Y-90357680D01*
X145153636Y-90317770D01*
X145106911Y-90265822D01*
X145095690Y-90196860D01*
X145123533Y-90132778D01*
X145181602Y-90093922D01*
X145199331Y-90089759D01*
X145225304Y-90085646D01*
X145338342Y-90028050D01*
X145338346Y-90028046D01*
X145343671Y-90024179D01*
X145409478Y-90000702D01*
X145416552Y-90000500D01*
X146103615Y-90000500D01*
X146170654Y-90020185D01*
X146216409Y-90072989D01*
X146226729Y-90109711D01*
X146229500Y-90132778D01*
X146234640Y-90175588D01*
X146287636Y-90309976D01*
X146346390Y-90387454D01*
X146371213Y-90452765D01*
X146356785Y-90521129D01*
X146312688Y-90567914D01*
X146297273Y-90577422D01*
X146297267Y-90577427D01*
X146177427Y-90697267D01*
X146177424Y-90697271D01*
X146088457Y-90841507D01*
X146088452Y-90841518D01*
X146035144Y-91002393D01*
X146025000Y-91101677D01*
X146025000Y-91125000D01*
X147126000Y-91125000D01*
X147193039Y-91144685D01*
X147238794Y-91197489D01*
X147250000Y-91249000D01*
X147250000Y-92324999D01*
X147298308Y-92324999D01*
X147298322Y-92324998D01*
X147397607Y-92314855D01*
X147558481Y-92261547D01*
X147558492Y-92261542D01*
X147702728Y-92172575D01*
X147702732Y-92172572D01*
X147822572Y-92052732D01*
X147822575Y-92052728D01*
X147911542Y-91908492D01*
X147911547Y-91908481D01*
X147964856Y-91747606D01*
X147974611Y-91652121D01*
X148001007Y-91587429D01*
X148058188Y-91547277D01*
X148127999Y-91544414D01*
X148185650Y-91577042D01*
X148463181Y-91854573D01*
X148496666Y-91915896D01*
X148499500Y-91942254D01*
X148499500Y-100293419D01*
X148479815Y-100360458D01*
X148473876Y-100368905D01*
X148375464Y-100497157D01*
X148314956Y-100643237D01*
X148314955Y-100643239D01*
X148294318Y-100799998D01*
X148294318Y-100800001D01*
X148314955Y-100956760D01*
X148314956Y-100956762D01*
X148375464Y-101102841D01*
X148471718Y-101228282D01*
X148597159Y-101324536D01*
X148743238Y-101385044D01*
X148809762Y-101393802D01*
X148899999Y-101405682D01*
X148900000Y-101405682D01*
X148900001Y-101405682D01*
X148966197Y-101396967D01*
X149056762Y-101385044D01*
X149202841Y-101324536D01*
X149328282Y-101228282D01*
X149367624Y-101177009D01*
X149424052Y-101135807D01*
X149493798Y-101131652D01*
X149554718Y-101165864D01*
X149587471Y-101227581D01*
X149590000Y-101252496D01*
X149590000Y-109331000D01*
X149570315Y-109398039D01*
X149517511Y-109443794D01*
X149466000Y-109455000D01*
X142290000Y-109455000D01*
X142290000Y-109731000D01*
X142270315Y-109798039D01*
X142217511Y-109843794D01*
X142166000Y-109855000D01*
X141790000Y-109855000D01*
X141790000Y-110605000D01*
X143440000Y-110605000D01*
X143440000Y-110307172D01*
X143439999Y-110307158D01*
X143438397Y-110292257D01*
X143450801Y-110223497D01*
X143498411Y-110172359D01*
X143561686Y-110155000D01*
X144868280Y-110155000D01*
X144935319Y-110174685D01*
X144981074Y-110227489D01*
X144991454Y-110293290D01*
X144989500Y-110310128D01*
X144989500Y-111399856D01*
X144989502Y-111399882D01*
X144992413Y-111424987D01*
X144992415Y-111424991D01*
X145037793Y-111527764D01*
X145037794Y-111527765D01*
X145117235Y-111607206D01*
X145220009Y-111652585D01*
X145245135Y-111655500D01*
X146134864Y-111655499D01*
X146134879Y-111655497D01*
X146134882Y-111655497D01*
X146159985Y-111652586D01*
X146159987Y-111652585D01*
X146159991Y-111652585D01*
X146183762Y-111642088D01*
X146253037Y-111633016D01*
X146309332Y-111657144D01*
X146397159Y-111724536D01*
X146543238Y-111785044D01*
X146621619Y-111795363D01*
X146699999Y-111805682D01*
X146700000Y-111805682D01*
X146700001Y-111805682D01*
X146755692Y-111798350D01*
X146856762Y-111785044D01*
X147002841Y-111724536D01*
X147128282Y-111628282D01*
X147224536Y-111502841D01*
X147285044Y-111356762D01*
X147303193Y-111218907D01*
X147305682Y-111200001D01*
X147305682Y-111199998D01*
X147285044Y-111043239D01*
X147285044Y-111043238D01*
X147224536Y-110897159D01*
X147128282Y-110771718D01*
X147002841Y-110675464D01*
X146856762Y-110614956D01*
X146800577Y-110607559D01*
X146696485Y-110593855D01*
X146632589Y-110565588D01*
X146624990Y-110558597D01*
X146600915Y-110534522D01*
X146600913Y-110534520D01*
X146549783Y-110505000D01*
X147690000Y-110505000D01*
X147690000Y-111255000D01*
X150666000Y-111255000D01*
X150733039Y-111274685D01*
X150778794Y-111327489D01*
X150790000Y-111379000D01*
X150790000Y-111402844D01*
X150796401Y-111462372D01*
X150796403Y-111462379D01*
X150846645Y-111597086D01*
X150846649Y-111597093D01*
X150932809Y-111712187D01*
X150932812Y-111712190D01*
X151047906Y-111798350D01*
X151047913Y-111798354D01*
X151182620Y-111848596D01*
X151182627Y-111848598D01*
X151242155Y-111854999D01*
X151242172Y-111855000D01*
X151640000Y-111855000D01*
X151640000Y-109855000D01*
X151242155Y-109855000D01*
X151182627Y-109861401D01*
X151182620Y-109861403D01*
X151047913Y-109911645D01*
X151047906Y-109911649D01*
X150932812Y-109997809D01*
X150932809Y-109997812D01*
X150846649Y-110112906D01*
X150846645Y-110112913D01*
X150796403Y-110247620D01*
X150796401Y-110247627D01*
X150790000Y-110307155D01*
X150790000Y-110381000D01*
X150770315Y-110448039D01*
X150717511Y-110493794D01*
X150666000Y-110505000D01*
X147690000Y-110505000D01*
X146549783Y-110505000D01*
X146509588Y-110481793D01*
X146482405Y-110474509D01*
X146422745Y-110438145D01*
X146392216Y-110375298D01*
X146390499Y-110354735D01*
X146390499Y-110310143D01*
X146390499Y-110310136D01*
X146388545Y-110293286D01*
X146400374Y-110224425D01*
X146447555Y-110172891D01*
X146511719Y-110155000D01*
X149890000Y-110155000D01*
X149890000Y-109579000D01*
X149909685Y-109511961D01*
X149962489Y-109466206D01*
X150014000Y-109455000D01*
X151190000Y-109455000D01*
X151190000Y-106132580D01*
X151209685Y-106065541D01*
X151262489Y-106019786D01*
X151330186Y-106009641D01*
X151333233Y-106010042D01*
X151333238Y-106010044D01*
X151490000Y-106030682D01*
X151490001Y-106030682D01*
X151569733Y-106020185D01*
X151646762Y-106010044D01*
X151647018Y-106009937D01*
X151647557Y-106009830D01*
X151654613Y-106007940D01*
X151654736Y-106008402D01*
X151694468Y-106000500D01*
X153093420Y-106000500D01*
X153160459Y-106020185D01*
X153168907Y-106026124D01*
X153171716Y-106028279D01*
X153171718Y-106028282D01*
X153297159Y-106124536D01*
X153443238Y-106185044D01*
X153512595Y-106194175D01*
X153599999Y-106205682D01*
X153600000Y-106205682D01*
X153600001Y-106205682D01*
X153652254Y-106198802D01*
X153756762Y-106185044D01*
X153902841Y-106124536D01*
X154028282Y-106028282D01*
X154124536Y-105902841D01*
X154185044Y-105756762D01*
X154205682Y-105600000D01*
X154198725Y-105547159D01*
X154185044Y-105443239D01*
X154185044Y-105443238D01*
X154124536Y-105297159D01*
X154028282Y-105171718D01*
X154028279Y-105171715D01*
X154028277Y-105171713D01*
X154023745Y-105167181D01*
X153990260Y-105105858D01*
X153995244Y-105036166D01*
X154037116Y-104980233D01*
X154102580Y-104955816D01*
X154111426Y-104955500D01*
X155203011Y-104955500D01*
X155270050Y-104975185D01*
X155315805Y-105027989D01*
X155316415Y-105029347D01*
X155323509Y-105045412D01*
X155327705Y-105054915D01*
X155336776Y-105124194D01*
X155327704Y-105155087D01*
X155292415Y-105235006D01*
X155292415Y-105235008D01*
X155289500Y-105260131D01*
X155289500Y-105943303D01*
X155269815Y-106010342D01*
X155239815Y-106042566D01*
X155232818Y-106047804D01*
X155232808Y-106047814D01*
X155146649Y-106162906D01*
X155146645Y-106162913D01*
X155096403Y-106297620D01*
X155096401Y-106297627D01*
X155090000Y-106357155D01*
X155090000Y-106505000D01*
X157290000Y-106505000D01*
X157290000Y-106365728D01*
X157309685Y-106298689D01*
X157362489Y-106252934D01*
X157431647Y-106242990D01*
X157461449Y-106251166D01*
X157543238Y-106285044D01*
X157621619Y-106295363D01*
X157699999Y-106305682D01*
X157700000Y-106305682D01*
X157700001Y-106305682D01*
X157761237Y-106297620D01*
X157856762Y-106285044D01*
X158002841Y-106224536D01*
X158128282Y-106128282D01*
X158224536Y-106002841D01*
X158285044Y-105856762D01*
X158303839Y-105714000D01*
X158305682Y-105700001D01*
X158305682Y-105699998D01*
X158285044Y-105543239D01*
X158285044Y-105543238D01*
X158224536Y-105397159D01*
X158128282Y-105271718D01*
X158005983Y-105177875D01*
X157964782Y-105121448D01*
X157960627Y-105051702D01*
X157994840Y-104990781D01*
X158056557Y-104958029D01*
X158081471Y-104955500D01*
X158797724Y-104955500D01*
X158797727Y-104955500D01*
X158879516Y-104933585D01*
X158949361Y-104935248D01*
X158999286Y-104965679D01*
X159363181Y-105329573D01*
X159396666Y-105390896D01*
X159399500Y-105417254D01*
X159399500Y-108210070D01*
X159379815Y-108277109D01*
X159327011Y-108322864D01*
X159320990Y-108325424D01*
X159290027Y-108337634D01*
X159290026Y-108337634D01*
X159174920Y-108424922D01*
X159104884Y-108517278D01*
X159048691Y-108558801D01*
X158978970Y-108563352D01*
X158917856Y-108529486D01*
X158906815Y-108516664D01*
X158841231Y-108429056D01*
X158832546Y-108417454D01*
X158832544Y-108417453D01*
X158832544Y-108417452D01*
X158717335Y-108331206D01*
X158717328Y-108331202D01*
X158582482Y-108280908D01*
X158582483Y-108280908D01*
X158522883Y-108274501D01*
X158522881Y-108274500D01*
X158522873Y-108274500D01*
X158522865Y-108274500D01*
X158439012Y-108274500D01*
X158371973Y-108254815D01*
X158326218Y-108202011D01*
X158316274Y-108132853D01*
X158324451Y-108103048D01*
X158354443Y-108030638D01*
X158385044Y-107956762D01*
X158405682Y-107800000D01*
X158401068Y-107764956D01*
X158385044Y-107643239D01*
X158385044Y-107643238D01*
X158324536Y-107497159D01*
X158228282Y-107371718D01*
X158102841Y-107275464D01*
X158099770Y-107274192D01*
X157956762Y-107214956D01*
X157956760Y-107214955D01*
X157800001Y-107194318D01*
X157799999Y-107194318D01*
X157643239Y-107214955D01*
X157643237Y-107214956D01*
X157497158Y-107275464D01*
X157486730Y-107283466D01*
X157421560Y-107308658D01*
X157353116Y-107294618D01*
X157303127Y-107245803D01*
X157287466Y-107177711D01*
X157287957Y-107171829D01*
X157289999Y-107152836D01*
X157290000Y-107152827D01*
X157290000Y-107005000D01*
X155090000Y-107005000D01*
X155090000Y-107152844D01*
X155096401Y-107212372D01*
X155098187Y-107219930D01*
X155095052Y-107220670D01*
X155098977Y-107275630D01*
X155065486Y-107336949D01*
X155025269Y-107363819D01*
X154997163Y-107375461D01*
X154997158Y-107375464D01*
X154871719Y-107471716D01*
X154775463Y-107597160D01*
X154714956Y-107743237D01*
X154714955Y-107743239D01*
X154694318Y-107899998D01*
X154694318Y-107900001D01*
X154714955Y-108056760D01*
X154714956Y-108056762D01*
X154775464Y-108202841D01*
X154871718Y-108328282D01*
X154902140Y-108351625D01*
X154943341Y-108408052D01*
X154947496Y-108477798D01*
X154913283Y-108538719D01*
X154902146Y-108548369D01*
X154888552Y-108558801D01*
X154871718Y-108571718D01*
X154775463Y-108697160D01*
X154714956Y-108843237D01*
X154714955Y-108843239D01*
X154694318Y-108999998D01*
X154694318Y-109000001D01*
X154714955Y-109156760D01*
X154714956Y-109156762D01*
X154775464Y-109302841D01*
X154871718Y-109428282D01*
X154997159Y-109524536D01*
X155143238Y-109585044D01*
X155181685Y-109590105D01*
X155245581Y-109618371D01*
X155284053Y-109676695D01*
X155289500Y-109713044D01*
X155289500Y-110299856D01*
X155289502Y-110299882D01*
X155292413Y-110324987D01*
X155292414Y-110324988D01*
X155292414Y-110324990D01*
X155292415Y-110324991D01*
X155295030Y-110330913D01*
X155304102Y-110400192D01*
X155274279Y-110463377D01*
X155215029Y-110500408D01*
X155181596Y-110505000D01*
X153114000Y-110505000D01*
X153046961Y-110485315D01*
X153001206Y-110432511D01*
X152990000Y-110381000D01*
X152990000Y-110307172D01*
X152989999Y-110307155D01*
X152983598Y-110247627D01*
X152983596Y-110247620D01*
X152933354Y-110112913D01*
X152933350Y-110112906D01*
X152847190Y-109997812D01*
X152847187Y-109997809D01*
X152732093Y-109911649D01*
X152732086Y-109911645D01*
X152597379Y-109861403D01*
X152597372Y-109861401D01*
X152537844Y-109855000D01*
X152140000Y-109855000D01*
X152140000Y-111855000D01*
X152537828Y-111855000D01*
X152537844Y-111854999D01*
X152597372Y-111848598D01*
X152597379Y-111848596D01*
X152732086Y-111798354D01*
X152732093Y-111798350D01*
X152847187Y-111712190D01*
X152847190Y-111712187D01*
X152933350Y-111597093D01*
X152933354Y-111597086D01*
X152983596Y-111462379D01*
X152983598Y-111462372D01*
X152989999Y-111402844D01*
X152990000Y-111402827D01*
X152990000Y-111379000D01*
X153009685Y-111311961D01*
X153062489Y-111266206D01*
X153114000Y-111255000D01*
X155740000Y-111255000D01*
X155740000Y-110881582D01*
X157225001Y-110881582D01*
X157231408Y-110952102D01*
X157231409Y-110952107D01*
X157281981Y-111114396D01*
X157369927Y-111259877D01*
X157490122Y-111380072D01*
X157635604Y-111468019D01*
X157635603Y-111468019D01*
X157797894Y-111518590D01*
X157797892Y-111518590D01*
X157868418Y-111524999D01*
X157949999Y-111524998D01*
X157950000Y-111524998D01*
X157950000Y-110875000D01*
X158450000Y-110875000D01*
X158450000Y-111524999D01*
X158531581Y-111524999D01*
X158602102Y-111518591D01*
X158602107Y-111518590D01*
X158764396Y-111468018D01*
X158909877Y-111380072D01*
X158919638Y-111370311D01*
X158980960Y-111336824D01*
X159050652Y-111341806D01*
X159091589Y-111368114D01*
X159091605Y-111368095D01*
X159091802Y-111368251D01*
X159095003Y-111370308D01*
X159097267Y-111372572D01*
X159097271Y-111372575D01*
X159241507Y-111461542D01*
X159241518Y-111461547D01*
X159402393Y-111514855D01*
X159501683Y-111524999D01*
X159549999Y-111524998D01*
X159550000Y-111524998D01*
X159550000Y-110825000D01*
X160050000Y-110825000D01*
X160050000Y-111524999D01*
X160098308Y-111524999D01*
X160098322Y-111524998D01*
X160197607Y-111514855D01*
X160358481Y-111461547D01*
X160358492Y-111461542D01*
X160502728Y-111372575D01*
X160502732Y-111372572D01*
X160622573Y-111252731D01*
X160654271Y-111201341D01*
X160706219Y-111154616D01*
X160775181Y-111143393D01*
X160839263Y-111171236D01*
X160859076Y-111192125D01*
X160892812Y-111237190D01*
X161007906Y-111323350D01*
X161007913Y-111323354D01*
X161142620Y-111373596D01*
X161142627Y-111373598D01*
X161202155Y-111379999D01*
X161202172Y-111380000D01*
X161750000Y-111380000D01*
X162250000Y-111380000D01*
X162797828Y-111380000D01*
X162797844Y-111379999D01*
X162857372Y-111373598D01*
X162857379Y-111373596D01*
X162992086Y-111323354D01*
X162992093Y-111323350D01*
X163107187Y-111237190D01*
X163107190Y-111237187D01*
X163193350Y-111122093D01*
X163193354Y-111122086D01*
X163243596Y-110987379D01*
X163243598Y-110987372D01*
X163249999Y-110927844D01*
X178250000Y-110927844D01*
X178256401Y-110987372D01*
X178256403Y-110987379D01*
X178306645Y-111122086D01*
X178306649Y-111122093D01*
X178392809Y-111237187D01*
X178392812Y-111237190D01*
X178507906Y-111323350D01*
X178507913Y-111323354D01*
X178642620Y-111373596D01*
X178642627Y-111373598D01*
X178702155Y-111379999D01*
X178702172Y-111380000D01*
X179250000Y-111380000D01*
X179750000Y-111380000D01*
X180297828Y-111380000D01*
X180297844Y-111379999D01*
X180357372Y-111373598D01*
X180357379Y-111373596D01*
X180492086Y-111323354D01*
X180492093Y-111323350D01*
X180607187Y-111237190D01*
X180607190Y-111237187D01*
X180693350Y-111122093D01*
X180693354Y-111122086D01*
X180711319Y-111073920D01*
X188849499Y-111073920D01*
X188878340Y-111218907D01*
X188878343Y-111218917D01*
X188934912Y-111355488D01*
X188934919Y-111355501D01*
X189017048Y-111478415D01*
X189017051Y-111478419D01*
X189121580Y-111582948D01*
X189121584Y-111582951D01*
X189244498Y-111665080D01*
X189244511Y-111665087D01*
X189358222Y-111712187D01*
X189381087Y-111721658D01*
X189381091Y-111721658D01*
X189381092Y-111721659D01*
X189526079Y-111750500D01*
X189526082Y-111750500D01*
X189673920Y-111750500D01*
X189771462Y-111731096D01*
X189818913Y-111721658D01*
X189955495Y-111665084D01*
X190078416Y-111582951D01*
X190182951Y-111478416D01*
X190265084Y-111355495D01*
X190266758Y-111351455D01*
X190283116Y-111311961D01*
X190321658Y-111218913D01*
X190342448Y-111114396D01*
X190350500Y-111073920D01*
X195649499Y-111073920D01*
X195678340Y-111218907D01*
X195678343Y-111218917D01*
X195734912Y-111355488D01*
X195734919Y-111355501D01*
X195817048Y-111478415D01*
X195817051Y-111478419D01*
X195921580Y-111582948D01*
X195921584Y-111582951D01*
X196044498Y-111665080D01*
X196044511Y-111665087D01*
X196158222Y-111712187D01*
X196181087Y-111721658D01*
X196181091Y-111721658D01*
X196181092Y-111721659D01*
X196326079Y-111750500D01*
X196326082Y-111750500D01*
X196473920Y-111750500D01*
X196571462Y-111731096D01*
X196618913Y-111721658D01*
X196755495Y-111665084D01*
X196878416Y-111582951D01*
X196982951Y-111478416D01*
X197065084Y-111355495D01*
X197066758Y-111351455D01*
X197083116Y-111311961D01*
X197121658Y-111218913D01*
X197142448Y-111114396D01*
X197150500Y-111073920D01*
X197150500Y-110926079D01*
X197121659Y-110781092D01*
X197121658Y-110781091D01*
X197121658Y-110781087D01*
X197088485Y-110701000D01*
X197065087Y-110644511D01*
X197065080Y-110644498D01*
X196982951Y-110521584D01*
X196982948Y-110521580D01*
X196878419Y-110417051D01*
X196878415Y-110417048D01*
X196755501Y-110334919D01*
X196755488Y-110334912D01*
X196618917Y-110278343D01*
X196618907Y-110278340D01*
X196473920Y-110249500D01*
X196473918Y-110249500D01*
X196326082Y-110249500D01*
X196326080Y-110249500D01*
X196181092Y-110278340D01*
X196181082Y-110278343D01*
X196044511Y-110334912D01*
X196044498Y-110334919D01*
X195921584Y-110417048D01*
X195921580Y-110417051D01*
X195817051Y-110521580D01*
X195817048Y-110521584D01*
X195734919Y-110644498D01*
X195734912Y-110644511D01*
X195678343Y-110781082D01*
X195678340Y-110781092D01*
X195649500Y-110926079D01*
X195649500Y-110926082D01*
X195649500Y-111073918D01*
X195649500Y-111073920D01*
X195649499Y-111073920D01*
X190350500Y-111073920D01*
X190350500Y-110926079D01*
X190321659Y-110781092D01*
X190321658Y-110781091D01*
X190321658Y-110781087D01*
X190288485Y-110701000D01*
X190265087Y-110644511D01*
X190265080Y-110644498D01*
X190182951Y-110521584D01*
X190182948Y-110521580D01*
X190078419Y-110417051D01*
X190078415Y-110417048D01*
X189955501Y-110334919D01*
X189955488Y-110334912D01*
X189818917Y-110278343D01*
X189818907Y-110278340D01*
X189673920Y-110249500D01*
X189673918Y-110249500D01*
X189526082Y-110249500D01*
X189526080Y-110249500D01*
X189381092Y-110278340D01*
X189381082Y-110278343D01*
X189244511Y-110334912D01*
X189244498Y-110334919D01*
X189121584Y-110417048D01*
X189121580Y-110417051D01*
X189017051Y-110521580D01*
X189017048Y-110521584D01*
X188934919Y-110644498D01*
X188934912Y-110644511D01*
X188878343Y-110781082D01*
X188878340Y-110781092D01*
X188849500Y-110926079D01*
X188849500Y-110926082D01*
X188849500Y-111073918D01*
X188849500Y-111073920D01*
X188849499Y-111073920D01*
X180711319Y-111073920D01*
X180743596Y-110987379D01*
X180743598Y-110987372D01*
X180749999Y-110927844D01*
X180750000Y-110927827D01*
X180750000Y-110680000D01*
X179750000Y-110680000D01*
X179750000Y-111380000D01*
X179250000Y-111380000D01*
X179250000Y-110680000D01*
X178250000Y-110680000D01*
X178250000Y-110927844D01*
X163249999Y-110927844D01*
X163250000Y-110927827D01*
X163250000Y-110680000D01*
X162250000Y-110680000D01*
X162250000Y-111380000D01*
X161750000Y-111380000D01*
X161750000Y-110680000D01*
X160818000Y-110680000D01*
X160818000Y-110701000D01*
X160798315Y-110768039D01*
X160745511Y-110813794D01*
X160694000Y-110825000D01*
X160050000Y-110825000D01*
X159550000Y-110825000D01*
X159218000Y-110825000D01*
X159204319Y-110838681D01*
X159142996Y-110872166D01*
X159116638Y-110875000D01*
X158450000Y-110875000D01*
X157950000Y-110875000D01*
X157225001Y-110875000D01*
X157225001Y-110881582D01*
X155740000Y-110881582D01*
X155740000Y-110679499D01*
X155759685Y-110612460D01*
X155812489Y-110566705D01*
X155864000Y-110555499D01*
X156834856Y-110555499D01*
X156834864Y-110555499D01*
X156834879Y-110555497D01*
X156834882Y-110555497D01*
X156859987Y-110552586D01*
X156859988Y-110552585D01*
X156859991Y-110552585D01*
X156962765Y-110507206D01*
X157042206Y-110427765D01*
X157042207Y-110427760D01*
X157048699Y-110418286D01*
X157050216Y-110419325D01*
X157086312Y-110376582D01*
X157153096Y-110356046D01*
X157220380Y-110374876D01*
X157220536Y-110375000D01*
X158782000Y-110375000D01*
X158795681Y-110361319D01*
X158857004Y-110327834D01*
X158883362Y-110325000D01*
X160707000Y-110325000D01*
X160707000Y-110304000D01*
X160726685Y-110236961D01*
X160779489Y-110191206D01*
X160831000Y-110180000D01*
X163250000Y-110180000D01*
X163250000Y-109932172D01*
X163249999Y-109932155D01*
X163243598Y-109872627D01*
X163243596Y-109872620D01*
X163193354Y-109737913D01*
X163193352Y-109737911D01*
X163107190Y-109622813D01*
X163107185Y-109622807D01*
X163100185Y-109617567D01*
X163058316Y-109561632D01*
X163050499Y-109518307D01*
X163050499Y-108665136D01*
X163050497Y-108665117D01*
X163047586Y-108640012D01*
X163047585Y-108640010D01*
X163047585Y-108640009D01*
X163018919Y-108575086D01*
X163009847Y-108505808D01*
X163018919Y-108474913D01*
X163038604Y-108430332D01*
X163047585Y-108409991D01*
X163050500Y-108384865D01*
X163050499Y-107470076D01*
X163070183Y-107403038D01*
X163122987Y-107357283D01*
X163192146Y-107347339D01*
X163221949Y-107355515D01*
X163293238Y-107385044D01*
X163369750Y-107395117D01*
X163449999Y-107405682D01*
X163450000Y-107405682D01*
X163450001Y-107405682D01*
X163530105Y-107395136D01*
X163606762Y-107385044D01*
X163752841Y-107324536D01*
X163878282Y-107228282D01*
X163974536Y-107102841D01*
X164035044Y-106956762D01*
X164052930Y-106820904D01*
X164055682Y-106800001D01*
X164055682Y-106799998D01*
X164035044Y-106643239D01*
X164035044Y-106643238D01*
X164012068Y-106587771D01*
X164004600Y-106518302D01*
X164035875Y-106455823D01*
X164079174Y-106425760D01*
X164122428Y-106407844D01*
X167095000Y-106407844D01*
X167101401Y-106467372D01*
X167101403Y-106467379D01*
X167151645Y-106602086D01*
X167151649Y-106602093D01*
X167237809Y-106717187D01*
X167237812Y-106717190D01*
X167352906Y-106803350D01*
X167352913Y-106803354D01*
X167487620Y-106853596D01*
X167487627Y-106853598D01*
X167547155Y-106859999D01*
X167547172Y-106860000D01*
X167745000Y-106860000D01*
X168245000Y-106860000D01*
X168442828Y-106860000D01*
X168442844Y-106859999D01*
X168502371Y-106853598D01*
X168576666Y-106825888D01*
X168646358Y-106820904D01*
X168663334Y-106825888D01*
X168737628Y-106853598D01*
X168737627Y-106853598D01*
X168797155Y-106859999D01*
X168797172Y-106860000D01*
X168995000Y-106860000D01*
X169495000Y-106860000D01*
X169692828Y-106860000D01*
X169692844Y-106859999D01*
X169752371Y-106853598D01*
X169826666Y-106825888D01*
X169896358Y-106820904D01*
X169913334Y-106825888D01*
X169987628Y-106853598D01*
X169987627Y-106853598D01*
X170047155Y-106859999D01*
X170047172Y-106860000D01*
X170245000Y-106860000D01*
X170745000Y-106860000D01*
X170942828Y-106860000D01*
X170942844Y-106859999D01*
X171002372Y-106853598D01*
X171002379Y-106853596D01*
X171137086Y-106803354D01*
X171137093Y-106803350D01*
X171252187Y-106717190D01*
X171252190Y-106717187D01*
X171338350Y-106602093D01*
X171338354Y-106602086D01*
X171388596Y-106467379D01*
X171388598Y-106467372D01*
X171394999Y-106407844D01*
X171395000Y-106407827D01*
X171395000Y-106210000D01*
X170745000Y-106210000D01*
X170745000Y-106860000D01*
X170245000Y-106860000D01*
X170245000Y-106210000D01*
X169495000Y-106210000D01*
X169495000Y-106860000D01*
X168995000Y-106860000D01*
X168995000Y-106210000D01*
X168245000Y-106210000D01*
X168245000Y-106860000D01*
X167745000Y-106860000D01*
X167745000Y-106210000D01*
X167095000Y-106210000D01*
X167095000Y-106407844D01*
X164122428Y-106407844D01*
X164202841Y-106374536D01*
X164328282Y-106278282D01*
X164424536Y-106152841D01*
X164485044Y-106006762D01*
X164505682Y-105850000D01*
X164485044Y-105693238D01*
X164424536Y-105547159D01*
X164328282Y-105421718D01*
X164202841Y-105325464D01*
X164121250Y-105291668D01*
X164056762Y-105264956D01*
X164056760Y-105264955D01*
X163900002Y-105244318D01*
X163899998Y-105244318D01*
X163880293Y-105246912D01*
X163811258Y-105236146D01*
X163776428Y-105211654D01*
X163722618Y-105157844D01*
X167095000Y-105157844D01*
X167101401Y-105217372D01*
X167101403Y-105217382D01*
X167129110Y-105291668D01*
X167134094Y-105361359D01*
X167129110Y-105378332D01*
X167101403Y-105452617D01*
X167101401Y-105452627D01*
X167095000Y-105512155D01*
X167095000Y-105710000D01*
X167745000Y-105710000D01*
X168245000Y-105710000D01*
X168995000Y-105710000D01*
X169495000Y-105710000D01*
X170245000Y-105710000D01*
X170745000Y-105710000D01*
X171395000Y-105710000D01*
X171395000Y-105512172D01*
X171394999Y-105512155D01*
X171388598Y-105452628D01*
X171360888Y-105378334D01*
X171355904Y-105308642D01*
X171360888Y-105291666D01*
X171388598Y-105217371D01*
X171394999Y-105157844D01*
X171395000Y-105157827D01*
X171395000Y-104960000D01*
X170745000Y-104960000D01*
X170745000Y-105710000D01*
X170245000Y-105710000D01*
X170245000Y-104960000D01*
X169495000Y-104960000D01*
X169495000Y-105710000D01*
X168995000Y-105710000D01*
X168995000Y-104960000D01*
X168245000Y-104960000D01*
X168245000Y-105710000D01*
X167745000Y-105710000D01*
X167745000Y-104960000D01*
X167095000Y-104960000D01*
X167095000Y-105157844D01*
X163722618Y-105157844D01*
X163623502Y-105058728D01*
X163623497Y-105058724D01*
X163540501Y-105010807D01*
X163540500Y-105010806D01*
X163540499Y-105010806D01*
X163447922Y-104986000D01*
X163447920Y-104986000D01*
X163174499Y-104986000D01*
X163107460Y-104966315D01*
X163061705Y-104913511D01*
X163050499Y-104862000D01*
X163050499Y-104855143D01*
X163050499Y-104855136D01*
X163050497Y-104855117D01*
X163047586Y-104830012D01*
X163047585Y-104830010D01*
X163047585Y-104830009D01*
X163018919Y-104765086D01*
X163009847Y-104695808D01*
X163018919Y-104664913D01*
X163047584Y-104599993D01*
X163047585Y-104599991D01*
X163050500Y-104574865D01*
X163050499Y-104278082D01*
X163070183Y-104211044D01*
X163086813Y-104190407D01*
X163369376Y-103907844D01*
X167095000Y-103907844D01*
X167101401Y-103967372D01*
X167101403Y-103967382D01*
X167129110Y-104041668D01*
X167134094Y-104111359D01*
X167129110Y-104128332D01*
X167101403Y-104202617D01*
X167101401Y-104202627D01*
X167095000Y-104262155D01*
X167095000Y-104460000D01*
X167745000Y-104460000D01*
X168245000Y-104460000D01*
X168995000Y-104460000D01*
X169495000Y-104460000D01*
X170245000Y-104460000D01*
X170745000Y-104460000D01*
X171395000Y-104460000D01*
X171395000Y-104262172D01*
X171394999Y-104262155D01*
X171388598Y-104202628D01*
X171360888Y-104128334D01*
X171355904Y-104058642D01*
X171360888Y-104041666D01*
X171388598Y-103967371D01*
X171394999Y-103907844D01*
X171395000Y-103907827D01*
X171395000Y-103710000D01*
X170745000Y-103710000D01*
X170745000Y-104460000D01*
X170245000Y-104460000D01*
X170245000Y-103710000D01*
X169495000Y-103710000D01*
X169495000Y-104460000D01*
X168995000Y-104460000D01*
X168995000Y-103710000D01*
X168245000Y-103710000D01*
X168245000Y-104460000D01*
X167745000Y-104460000D01*
X167745000Y-103710000D01*
X167095000Y-103710000D01*
X167095000Y-103907844D01*
X163369376Y-103907844D01*
X164265065Y-103012155D01*
X167095000Y-103012155D01*
X167095000Y-103210000D01*
X167745000Y-103210000D01*
X168245000Y-103210000D01*
X168995000Y-103210000D01*
X169495000Y-103210000D01*
X170245000Y-103210000D01*
X170745000Y-103210000D01*
X171395000Y-103210000D01*
X171395000Y-103012172D01*
X171394999Y-103012155D01*
X171388598Y-102952627D01*
X171388596Y-102952620D01*
X171338354Y-102817913D01*
X171338350Y-102817906D01*
X171252190Y-102702812D01*
X171252187Y-102702809D01*
X171137093Y-102616649D01*
X171137086Y-102616645D01*
X171002379Y-102566403D01*
X171002372Y-102566401D01*
X170942844Y-102560000D01*
X170745000Y-102560000D01*
X170745000Y-103210000D01*
X170245000Y-103210000D01*
X170245000Y-102560000D01*
X170047155Y-102560000D01*
X169987627Y-102566401D01*
X169987617Y-102566403D01*
X169913332Y-102594110D01*
X169843641Y-102599094D01*
X169826668Y-102594110D01*
X169752382Y-102566403D01*
X169752372Y-102566401D01*
X169692844Y-102560000D01*
X169495000Y-102560000D01*
X169495000Y-103210000D01*
X168995000Y-103210000D01*
X168995000Y-102560000D01*
X168797155Y-102560000D01*
X168737627Y-102566401D01*
X168737617Y-102566403D01*
X168663332Y-102594110D01*
X168593641Y-102599094D01*
X168576668Y-102594110D01*
X168502382Y-102566403D01*
X168502372Y-102566401D01*
X168442844Y-102560000D01*
X168245000Y-102560000D01*
X168245000Y-103210000D01*
X167745000Y-103210000D01*
X167745000Y-102560000D01*
X167547155Y-102560000D01*
X167487627Y-102566401D01*
X167487620Y-102566403D01*
X167352913Y-102616645D01*
X167352906Y-102616649D01*
X167237812Y-102702809D01*
X167237809Y-102702812D01*
X167151649Y-102817906D01*
X167151645Y-102817913D01*
X167101403Y-102952620D01*
X167101401Y-102952627D01*
X167095000Y-103012155D01*
X164265065Y-103012155D01*
X168318273Y-98958949D01*
X168366194Y-98875947D01*
X168391000Y-98783370D01*
X168391000Y-98687526D01*
X168391000Y-96387584D01*
X168410685Y-96320545D01*
X168427319Y-96299903D01*
X169899903Y-94827319D01*
X169961226Y-94793834D01*
X169987584Y-94791000D01*
X172892359Y-94791000D01*
X172959398Y-94810685D01*
X173005153Y-94863489D01*
X173006920Y-94867547D01*
X173039896Y-94947159D01*
X173047842Y-94966341D01*
X173144096Y-95091782D01*
X173269537Y-95188036D01*
X173415616Y-95248544D01*
X173453360Y-95253513D01*
X173572377Y-95269182D01*
X173572378Y-95269182D01*
X173572379Y-95269182D01*
X173624632Y-95262302D01*
X173729140Y-95248544D01*
X173875219Y-95188036D01*
X174000660Y-95091782D01*
X174096914Y-94966341D01*
X174157422Y-94820262D01*
X174177203Y-94670008D01*
X174178060Y-94663501D01*
X174178060Y-94663500D01*
X174175535Y-94644318D01*
X174173588Y-94629532D01*
X174184353Y-94560497D01*
X174230733Y-94508241D01*
X174298002Y-94489356D01*
X174312711Y-94490408D01*
X174413500Y-94503677D01*
X174413502Y-94503676D01*
X174415814Y-94503981D01*
X174479711Y-94532247D01*
X174518183Y-94590571D01*
X174519015Y-94660436D01*
X174514191Y-94674372D01*
X174464957Y-94793234D01*
X174464955Y-94793239D01*
X174444318Y-94949998D01*
X174444318Y-94950001D01*
X174464955Y-95106760D01*
X174464956Y-95106762D01*
X174497381Y-95185044D01*
X174525464Y-95252841D01*
X174621718Y-95378282D01*
X174747159Y-95474536D01*
X174893238Y-95535044D01*
X174971619Y-95545363D01*
X175049999Y-95555682D01*
X175050000Y-95555682D01*
X175050001Y-95555682D01*
X175102254Y-95548802D01*
X175206762Y-95535044D01*
X175352841Y-95474536D01*
X175478282Y-95378282D01*
X175574536Y-95252841D01*
X175635044Y-95106762D01*
X175655682Y-94950000D01*
X175649473Y-94902841D01*
X175639357Y-94826000D01*
X175635044Y-94793238D01*
X175574536Y-94647159D01*
X175574535Y-94647158D01*
X175574535Y-94647157D01*
X175476124Y-94518905D01*
X175450930Y-94453736D01*
X175450500Y-94443419D01*
X175450500Y-94217254D01*
X175470185Y-94150215D01*
X175486819Y-94129573D01*
X175950242Y-93666150D01*
X176414049Y-93202342D01*
X176475370Y-93168859D01*
X176545061Y-93173843D01*
X176600995Y-93215715D01*
X176616289Y-93242572D01*
X176645440Y-93312950D01*
X176661964Y-93352841D01*
X176758218Y-93478282D01*
X176883659Y-93574536D01*
X177029738Y-93635044D01*
X177186500Y-93655682D01*
X177206204Y-93653087D01*
X177275236Y-93663851D01*
X177310071Y-93688345D01*
X177765227Y-94143501D01*
X177832999Y-94211273D01*
X177833000Y-94211274D01*
X177833002Y-94211275D01*
X177859125Y-94226357D01*
X177916001Y-94259194D01*
X178008578Y-94284000D01*
X178104422Y-94284000D01*
X178325501Y-94284000D01*
X178392540Y-94303685D01*
X178438295Y-94356489D01*
X178449501Y-94408000D01*
X178449501Y-94414856D01*
X178449502Y-94414882D01*
X178452413Y-94439987D01*
X178452414Y-94439988D01*
X178452414Y-94439990D01*
X178452415Y-94439991D01*
X178453849Y-94443238D01*
X178481081Y-94504914D01*
X178490152Y-94574192D01*
X178481081Y-94605084D01*
X178452415Y-94670006D01*
X178452415Y-94670008D01*
X178449500Y-94695131D01*
X178449500Y-94702000D01*
X178429815Y-94769039D01*
X178377011Y-94814794D01*
X178325500Y-94826000D01*
X177162078Y-94826000D01*
X177069501Y-94850806D01*
X177069499Y-94850807D01*
X177069498Y-94850807D01*
X177024490Y-94876793D01*
X177005494Y-94887760D01*
X176986500Y-94898726D01*
X176986497Y-94898728D01*
X175209545Y-96675681D01*
X175148222Y-96709166D01*
X175121864Y-96712000D01*
X173896380Y-96712000D01*
X173829341Y-96692315D01*
X173783586Y-96639511D01*
X173781819Y-96635453D01*
X173775495Y-96620185D01*
X173724536Y-96497159D01*
X173628282Y-96371718D01*
X173502841Y-96275464D01*
X173499427Y-96274050D01*
X173356762Y-96214956D01*
X173356760Y-96214955D01*
X173200001Y-96194318D01*
X173199999Y-96194318D01*
X173043239Y-96214955D01*
X173043237Y-96214956D01*
X172897160Y-96275463D01*
X172771718Y-96371718D01*
X172675463Y-96497160D01*
X172614956Y-96643237D01*
X172614955Y-96643239D01*
X172594318Y-96799998D01*
X172594318Y-96800001D01*
X172614955Y-96956760D01*
X172614956Y-96956762D01*
X172675464Y-97102841D01*
X172692095Y-97124516D01*
X172717287Y-97189686D01*
X172703247Y-97258130D01*
X172692095Y-97275484D01*
X172675464Y-97297158D01*
X172614956Y-97443237D01*
X172614955Y-97443239D01*
X172594318Y-97599998D01*
X172594318Y-97600001D01*
X172614955Y-97756760D01*
X172614956Y-97756762D01*
X172675464Y-97902841D01*
X172692095Y-97924516D01*
X172717287Y-97989686D01*
X172703247Y-98058130D01*
X172692095Y-98075484D01*
X172675464Y-98097158D01*
X172614956Y-98243237D01*
X172614955Y-98243239D01*
X172594318Y-98399998D01*
X172594318Y-98400001D01*
X172614955Y-98556760D01*
X172614957Y-98556765D01*
X172619230Y-98567081D01*
X172626699Y-98636551D01*
X172595423Y-98699030D01*
X172535334Y-98734681D01*
X172465509Y-98732187D01*
X172416988Y-98702214D01*
X171927319Y-98212545D01*
X171893834Y-98151222D01*
X171891000Y-98124864D01*
X171891000Y-96366632D01*
X171891000Y-96366630D01*
X171866194Y-96274053D01*
X171842233Y-96232552D01*
X171818275Y-96191054D01*
X171818271Y-96191049D01*
X171061178Y-95433956D01*
X171034298Y-95393728D01*
X171024536Y-95370159D01*
X170928282Y-95244718D01*
X170802841Y-95148464D01*
X170656762Y-95087956D01*
X170656760Y-95087955D01*
X170500001Y-95067318D01*
X170499999Y-95067318D01*
X170343239Y-95087955D01*
X170343237Y-95087956D01*
X170197160Y-95148463D01*
X170071718Y-95244718D01*
X169975463Y-95370160D01*
X169914956Y-95516238D01*
X169913371Y-95528281D01*
X169913170Y-95529804D01*
X169884902Y-95593700D01*
X169826577Y-95632170D01*
X169806417Y-95636555D01*
X169709573Y-95649305D01*
X169693238Y-95651456D01*
X169693237Y-95651456D01*
X169547160Y-95711963D01*
X169421718Y-95808218D01*
X169325463Y-95933660D01*
X169264956Y-96079737D01*
X169264955Y-96079739D01*
X169244318Y-96236498D01*
X169244318Y-96236501D01*
X169264955Y-96393260D01*
X169264956Y-96393262D01*
X169307991Y-96497159D01*
X169325464Y-96539341D01*
X169421718Y-96664782D01*
X169547159Y-96761036D01*
X169693238Y-96821544D01*
X169720849Y-96825179D01*
X169849999Y-96842182D01*
X169850000Y-96842182D01*
X169850001Y-96842182D01*
X169902254Y-96835302D01*
X170006762Y-96821544D01*
X170152841Y-96761036D01*
X170278282Y-96664782D01*
X170290383Y-96649011D01*
X170346809Y-96607811D01*
X170388757Y-96600500D01*
X170684364Y-96600500D01*
X170751403Y-96620185D01*
X170772045Y-96636819D01*
X170799681Y-96664455D01*
X170833166Y-96725778D01*
X170836000Y-96752136D01*
X170836000Y-98452078D01*
X170836000Y-98547922D01*
X170860806Y-98640499D01*
X170860807Y-98640500D01*
X170860807Y-98640501D01*
X170908724Y-98723497D01*
X170908726Y-98723500D01*
X170908727Y-98723501D01*
X173005727Y-100820501D01*
X173073499Y-100888273D01*
X173073500Y-100888274D01*
X173073502Y-100888275D01*
X173078222Y-100891000D01*
X173156501Y-100936194D01*
X173249078Y-100961000D01*
X173344922Y-100961000D01*
X177344864Y-100961000D01*
X177411903Y-100980685D01*
X177432545Y-100997319D01*
X178198727Y-101763501D01*
X178266499Y-101831273D01*
X178349501Y-101879194D01*
X178357593Y-101881362D01*
X178417254Y-101917726D01*
X178447784Y-101980573D01*
X178449501Y-102001137D01*
X178449501Y-102034856D01*
X178449502Y-102034882D01*
X178452413Y-102059987D01*
X178452414Y-102059988D01*
X178481081Y-102124914D01*
X178490152Y-102194192D01*
X178481081Y-102225084D01*
X178452415Y-102290006D01*
X178452415Y-102290008D01*
X178449500Y-102315131D01*
X178449500Y-103304856D01*
X178449502Y-103304882D01*
X178452413Y-103329987D01*
X178452414Y-103329988D01*
X178452414Y-103329990D01*
X178452415Y-103329991D01*
X178459592Y-103346246D01*
X178481081Y-103394914D01*
X178490152Y-103464192D01*
X178481081Y-103495084D01*
X178452415Y-103560006D01*
X178452415Y-103560008D01*
X178449500Y-103585131D01*
X178449500Y-104574856D01*
X178449502Y-104574882D01*
X178452413Y-104599987D01*
X178452414Y-104599988D01*
X178481081Y-104664914D01*
X178490152Y-104734192D01*
X178481081Y-104765084D01*
X178452415Y-104830006D01*
X178452415Y-104830008D01*
X178449500Y-104855131D01*
X178449500Y-105844856D01*
X178449502Y-105844882D01*
X178453489Y-105879258D01*
X178450826Y-105879566D01*
X178449708Y-105935075D01*
X178410757Y-105993080D01*
X178378913Y-106012310D01*
X178347160Y-106025462D01*
X178347159Y-106025463D01*
X178250486Y-106099643D01*
X178185317Y-106124837D01*
X178116872Y-106110798D01*
X178099514Y-106099643D01*
X178002842Y-106025464D01*
X177856762Y-105964956D01*
X177856760Y-105964955D01*
X177700001Y-105944318D01*
X177699999Y-105944318D01*
X177543239Y-105964955D01*
X177543237Y-105964956D01*
X177397160Y-106025463D01*
X177271718Y-106121718D01*
X177175463Y-106247160D01*
X177114956Y-106393237D01*
X177114955Y-106393239D01*
X177094318Y-106549998D01*
X177094318Y-106550001D01*
X177114955Y-106706760D01*
X177114956Y-106706762D01*
X177153576Y-106800000D01*
X177175464Y-106852841D01*
X177271718Y-106978282D01*
X177397159Y-107074536D01*
X177543238Y-107135044D01*
X177543248Y-107135045D01*
X177544084Y-107135270D01*
X177544719Y-107135657D01*
X177550747Y-107138154D01*
X177550357Y-107139093D01*
X177603747Y-107171630D01*
X177634281Y-107234474D01*
X177636000Y-107255047D01*
X177636000Y-107452078D01*
X177636000Y-107547922D01*
X177660806Y-107640499D01*
X177660807Y-107640500D01*
X177660807Y-107640501D01*
X177708724Y-107723497D01*
X177708726Y-107723500D01*
X177708727Y-107723501D01*
X178166499Y-108181273D01*
X178249501Y-108229194D01*
X178342078Y-108254000D01*
X178342081Y-108254000D01*
X178349929Y-108256103D01*
X178349571Y-108257436D01*
X178405580Y-108282212D01*
X178444053Y-108340535D01*
X178449501Y-108376887D01*
X178449501Y-108384856D01*
X178449502Y-108384882D01*
X178452413Y-108409987D01*
X178452414Y-108409988D01*
X178452414Y-108409990D01*
X178452415Y-108409991D01*
X178465111Y-108438745D01*
X178481081Y-108474914D01*
X178490152Y-108544192D01*
X178481081Y-108575084D01*
X178452415Y-108640006D01*
X178452415Y-108640008D01*
X178449500Y-108665131D01*
X178449500Y-109518303D01*
X178429815Y-109585342D01*
X178399815Y-109617566D01*
X178392818Y-109622804D01*
X178392808Y-109622814D01*
X178306649Y-109737906D01*
X178306645Y-109737913D01*
X178256403Y-109872620D01*
X178256401Y-109872627D01*
X178250000Y-109932155D01*
X178250000Y-110180000D01*
X180750000Y-110180000D01*
X180750000Y-109932172D01*
X180749999Y-109932155D01*
X180743598Y-109872627D01*
X180743596Y-109872620D01*
X180693354Y-109737913D01*
X180693350Y-109737907D01*
X180681675Y-109722310D01*
X180657258Y-109656846D01*
X180672110Y-109588573D01*
X180721515Y-109539168D01*
X180780942Y-109524000D01*
X212237919Y-109524000D01*
X212237922Y-109524000D01*
X212330499Y-109499194D01*
X212413501Y-109451273D01*
X212876429Y-108988343D01*
X212937750Y-108954860D01*
X212980290Y-108953087D01*
X213000000Y-108955682D01*
X213156762Y-108935044D01*
X213302841Y-108874536D01*
X213428282Y-108778282D01*
X213524536Y-108652841D01*
X213585044Y-108506762D01*
X213605682Y-108350000D01*
X213603207Y-108331204D01*
X213585044Y-108193239D01*
X213585044Y-108193238D01*
X213524536Y-108047159D01*
X213428282Y-107921718D01*
X213302841Y-107825464D01*
X213156762Y-107764956D01*
X213156760Y-107764955D01*
X213000001Y-107744318D01*
X212999999Y-107744318D01*
X212843239Y-107764955D01*
X212843237Y-107764956D01*
X212697160Y-107825463D01*
X212571718Y-107921718D01*
X212475463Y-108047160D01*
X212414956Y-108193237D01*
X212414955Y-108193239D01*
X212394318Y-108349998D01*
X212394318Y-108350000D01*
X212396912Y-108369710D01*
X212386143Y-108438745D01*
X212361653Y-108473571D01*
X212075543Y-108759682D01*
X212014223Y-108793166D01*
X211987864Y-108796000D01*
X200418136Y-108796000D01*
X200351097Y-108776315D01*
X200305342Y-108723511D01*
X200295398Y-108654353D01*
X200324423Y-108590797D01*
X200330455Y-108584319D01*
X201274275Y-107640499D01*
X201741273Y-107173501D01*
X202291273Y-106623501D01*
X202339194Y-106540499D01*
X202364000Y-106447922D01*
X202364000Y-106352078D01*
X202364000Y-102527123D01*
X202383685Y-102460084D01*
X202412514Y-102428747D01*
X202478282Y-102378282D01*
X202574536Y-102252841D01*
X202635044Y-102106762D01*
X202655682Y-101950000D01*
X202653708Y-101935009D01*
X202635044Y-101793239D01*
X202635044Y-101793238D01*
X202574536Y-101647159D01*
X202548697Y-101613485D01*
X202523504Y-101548317D01*
X202537542Y-101479873D01*
X202586356Y-101429883D01*
X202647074Y-101414000D01*
X214747921Y-101414000D01*
X214747922Y-101414000D01*
X214811488Y-101396966D01*
X214859765Y-101393802D01*
X214950000Y-101405682D01*
X214950001Y-101405682D01*
X215016197Y-101396967D01*
X215106762Y-101385044D01*
X215252841Y-101324536D01*
X215378282Y-101228282D01*
X215474536Y-101102841D01*
X215535044Y-100956762D01*
X215553245Y-100818511D01*
X215555682Y-100800001D01*
X215555682Y-100799998D01*
X215535044Y-100643239D01*
X215535044Y-100643238D01*
X215474536Y-100497159D01*
X215378282Y-100371718D01*
X215252841Y-100275464D01*
X215106762Y-100214956D01*
X215106760Y-100214955D01*
X214950001Y-100194318D01*
X214949999Y-100194318D01*
X214793239Y-100214955D01*
X214793237Y-100214956D01*
X214647160Y-100275463D01*
X214521718Y-100371718D01*
X214425463Y-100497160D01*
X214378950Y-100609453D01*
X214335109Y-100663856D01*
X214268815Y-100685921D01*
X214264389Y-100686000D01*
X209897922Y-100686000D01*
X202105168Y-100686000D01*
X202043450Y-100702537D01*
X202012590Y-100710806D01*
X201936042Y-100755001D01*
X201936041Y-100755000D01*
X201929587Y-100758727D01*
X201929586Y-100758728D01*
X201262999Y-101425317D01*
X201195228Y-101493087D01*
X201195224Y-101493092D01*
X201147307Y-101576088D01*
X201147307Y-101576089D01*
X201147306Y-101576091D01*
X201122500Y-101668668D01*
X201122500Y-103565578D01*
X201122500Y-103661422D01*
X201147306Y-103753999D01*
X201147307Y-103754000D01*
X201147307Y-103754001D01*
X201195224Y-103836997D01*
X201195228Y-103837002D01*
X201272681Y-103914455D01*
X201306166Y-103975778D01*
X201309000Y-104002136D01*
X201309000Y-106062416D01*
X201289315Y-106129455D01*
X201272681Y-106150097D01*
X199317097Y-108105681D01*
X199255774Y-108139166D01*
X199229416Y-108142000D01*
X182585136Y-108142000D01*
X182518097Y-108122315D01*
X182497455Y-108105681D01*
X182227319Y-107835545D01*
X182193834Y-107774222D01*
X182191000Y-107747864D01*
X182191000Y-105902080D01*
X182191000Y-105902078D01*
X182166194Y-105809501D01*
X182118273Y-105726499D01*
X182050501Y-105658727D01*
X180586818Y-104195044D01*
X180553333Y-104133721D01*
X180550499Y-104107363D01*
X180550499Y-103585143D01*
X180550499Y-103585136D01*
X180550497Y-103585117D01*
X180547586Y-103560012D01*
X180547585Y-103560010D01*
X180547585Y-103560009D01*
X180518919Y-103495086D01*
X180509847Y-103425808D01*
X180518919Y-103394913D01*
X180547584Y-103329993D01*
X180547585Y-103329991D01*
X180550500Y-103304865D01*
X180550500Y-103062631D01*
X183567000Y-103062631D01*
X183567000Y-106152356D01*
X183567002Y-106152382D01*
X183569913Y-106177487D01*
X183569915Y-106177491D01*
X183615293Y-106280264D01*
X183615294Y-106280265D01*
X183694735Y-106359706D01*
X183797509Y-106405085D01*
X183822635Y-106408000D01*
X186912364Y-106407999D01*
X186912379Y-106407997D01*
X186912382Y-106407997D01*
X186937487Y-106405086D01*
X186937488Y-106405085D01*
X186937491Y-106405085D01*
X187040265Y-106359706D01*
X187119706Y-106280265D01*
X187165085Y-106177491D01*
X187168000Y-106152365D01*
X187167999Y-103062636D01*
X187165750Y-103043239D01*
X187165086Y-103037512D01*
X187165085Y-103037510D01*
X187165085Y-103037509D01*
X187119706Y-102934735D01*
X187040265Y-102855294D01*
X186993690Y-102834729D01*
X186937492Y-102809915D01*
X186912365Y-102807000D01*
X183822643Y-102807000D01*
X183822617Y-102807002D01*
X183797512Y-102809913D01*
X183797508Y-102809915D01*
X183694735Y-102855293D01*
X183615294Y-102934734D01*
X183569915Y-103037506D01*
X183569915Y-103037508D01*
X183567000Y-103062631D01*
X180550500Y-103062631D01*
X180550499Y-102315136D01*
X180550497Y-102315117D01*
X180547586Y-102290012D01*
X180547585Y-102290010D01*
X180547585Y-102290009D01*
X180518919Y-102225086D01*
X180509847Y-102155808D01*
X180518919Y-102124913D01*
X180526934Y-102106762D01*
X180547585Y-102059991D01*
X180550500Y-102034865D01*
X180550499Y-101045136D01*
X180550497Y-101045117D01*
X180547586Y-101020012D01*
X180547585Y-101020010D01*
X180547585Y-101020009D01*
X180518919Y-100955086D01*
X180509847Y-100885808D01*
X180518919Y-100854913D01*
X180527708Y-100835009D01*
X180547585Y-100789991D01*
X180550500Y-100764865D01*
X180550499Y-99979044D01*
X180570183Y-99912006D01*
X180622987Y-99866251D01*
X180692146Y-99856307D01*
X180755702Y-99885332D01*
X180758038Y-99887408D01*
X180773741Y-99901723D01*
X180962820Y-100018797D01*
X180962822Y-100018798D01*
X181170195Y-100099134D01*
X181388807Y-100140000D01*
X181611193Y-100140000D01*
X181829809Y-100099133D01*
X182037168Y-100018801D01*
X182037181Y-100018795D01*
X182153326Y-99946879D01*
X181546447Y-99340000D01*
X181552661Y-99340000D01*
X181654394Y-99312741D01*
X181745606Y-99260080D01*
X181820080Y-99185606D01*
X181872741Y-99094394D01*
X181900000Y-98992661D01*
X181900000Y-98986447D01*
X182508861Y-99595308D01*
X182524631Y-99574425D01*
X182524633Y-99574422D01*
X182623759Y-99375350D01*
X182684621Y-99161439D01*
X182705141Y-98940000D01*
X182705141Y-98939999D01*
X182684621Y-98718560D01*
X182623759Y-98504649D01*
X182524635Y-98305580D01*
X182524630Y-98305572D01*
X182508860Y-98284690D01*
X181900000Y-98893551D01*
X181900000Y-98887339D01*
X181872741Y-98785606D01*
X181820080Y-98694394D01*
X181745606Y-98619920D01*
X181654394Y-98567259D01*
X181552661Y-98540000D01*
X181546447Y-98540000D01*
X182153327Y-97933119D01*
X182037178Y-97861202D01*
X182037177Y-97861201D01*
X181829804Y-97780865D01*
X181611193Y-97740000D01*
X181388807Y-97740000D01*
X181170195Y-97780865D01*
X180962822Y-97861201D01*
X180962820Y-97861202D01*
X180773738Y-97978278D01*
X180758035Y-97992593D01*
X180695230Y-98023209D01*
X180625844Y-98015009D01*
X180571904Y-97970598D01*
X180550538Y-97904076D01*
X180550499Y-97901007D01*
X180550499Y-97235136D01*
X180550497Y-97235117D01*
X180547586Y-97210012D01*
X180547585Y-97210011D01*
X180547585Y-97210009D01*
X180538347Y-97189088D01*
X180529276Y-97119812D01*
X180559099Y-97056627D01*
X180618348Y-97019595D01*
X180688212Y-97020475D01*
X180746510Y-97058987D01*
X180747635Y-97060338D01*
X180789116Y-97110883D01*
X180941460Y-97235909D01*
X180941467Y-97235913D01*
X181115266Y-97328811D01*
X181115269Y-97328811D01*
X181115273Y-97328814D01*
X181303868Y-97386024D01*
X181500000Y-97405341D01*
X181696132Y-97386024D01*
X181884727Y-97328814D01*
X181908903Y-97315892D01*
X182058532Y-97235913D01*
X182058538Y-97235910D01*
X182210883Y-97110883D01*
X182335910Y-96958538D01*
X182409135Y-96821544D01*
X182428811Y-96784733D01*
X182428811Y-96784732D01*
X182428814Y-96784727D01*
X182486024Y-96596132D01*
X182505341Y-96400000D01*
X182486024Y-96203868D01*
X182428814Y-96015273D01*
X182428811Y-96015269D01*
X182428811Y-96015266D01*
X182335913Y-95841467D01*
X182335909Y-95841460D01*
X182210883Y-95689116D01*
X182058539Y-95564090D01*
X182058532Y-95564086D01*
X181884733Y-95471188D01*
X181884727Y-95471186D01*
X181696132Y-95413976D01*
X181696129Y-95413975D01*
X181500000Y-95394659D01*
X181303870Y-95413975D01*
X181115266Y-95471188D01*
X180941467Y-95564086D01*
X180941460Y-95564090D01*
X180789114Y-95689118D01*
X180770350Y-95711982D01*
X180712603Y-95751315D01*
X180642759Y-95753184D01*
X180582991Y-95716995D01*
X180552277Y-95654238D01*
X180550499Y-95633326D01*
X180550499Y-94695136D01*
X180549391Y-94685578D01*
X180561221Y-94616717D01*
X180608402Y-94565184D01*
X180625113Y-94556732D01*
X180702841Y-94524536D01*
X180828282Y-94428282D01*
X180924536Y-94302841D01*
X180985044Y-94156762D01*
X181005682Y-94000000D01*
X180998684Y-93946848D01*
X180985044Y-93843239D01*
X180985044Y-93843238D01*
X180924536Y-93697159D01*
X180828282Y-93571718D01*
X180702841Y-93475464D01*
X180644152Y-93451154D01*
X180599516Y-93432665D01*
X180545113Y-93388823D01*
X180533536Y-93368190D01*
X180502206Y-93297236D01*
X180502205Y-93297234D01*
X180422765Y-93217794D01*
X180319992Y-93172415D01*
X180294865Y-93169500D01*
X178705143Y-93169500D01*
X178705117Y-93169502D01*
X178680012Y-93172413D01*
X178680008Y-93172415D01*
X178577235Y-93217793D01*
X178497794Y-93297234D01*
X178452415Y-93400006D01*
X178452415Y-93400008D01*
X178449500Y-93425131D01*
X178449500Y-93432000D01*
X178429815Y-93499039D01*
X178377011Y-93544794D01*
X178325500Y-93556000D01*
X178258636Y-93556000D01*
X178191597Y-93536315D01*
X178170955Y-93519681D01*
X177824845Y-93173571D01*
X177791360Y-93112248D01*
X177789587Y-93069708D01*
X177792182Y-93050000D01*
X177771544Y-92893238D01*
X177711036Y-92747159D01*
X177614782Y-92621718D01*
X177489341Y-92525464D01*
X177489339Y-92525463D01*
X177359692Y-92471761D01*
X177305289Y-92427920D01*
X177283224Y-92361625D01*
X177299760Y-92295197D01*
X177323206Y-92254589D01*
X177323207Y-92254588D01*
X177350500Y-92152727D01*
X177350500Y-92047273D01*
X177350500Y-91025251D01*
X177370185Y-90958212D01*
X177386815Y-90937574D01*
X177735733Y-90588655D01*
X177797054Y-90555172D01*
X177807227Y-90553399D01*
X177810739Y-90552936D01*
X177810742Y-90552937D01*
X177967504Y-90532299D01*
X178113583Y-90471791D01*
X178239024Y-90375537D01*
X178239025Y-90375534D01*
X178241835Y-90373379D01*
X178307005Y-90348185D01*
X178317322Y-90347755D01*
X181391860Y-90347755D01*
X181458899Y-90367440D01*
X181504654Y-90420244D01*
X181514799Y-90455567D01*
X181514956Y-90456761D01*
X181514956Y-90456762D01*
X181546244Y-90532299D01*
X181575464Y-90602841D01*
X181671718Y-90728282D01*
X181797159Y-90824536D01*
X181943238Y-90885044D01*
X182021619Y-90895363D01*
X182099999Y-90905682D01*
X182100000Y-90905682D01*
X182100001Y-90905682D01*
X182152254Y-90898802D01*
X182256762Y-90885044D01*
X182402841Y-90824536D01*
X182528282Y-90728282D01*
X182624536Y-90602841D01*
X182685044Y-90456762D01*
X182685201Y-90455565D01*
X182685613Y-90454633D01*
X182687147Y-90448912D01*
X182688039Y-90449151D01*
X182713469Y-90391671D01*
X182771795Y-90353201D01*
X182808140Y-90347755D01*
X184109947Y-90347755D01*
X184176986Y-90367440D01*
X184197628Y-90384074D01*
X185197265Y-91383712D01*
X185155208Y-91394982D01*
X185029792Y-91467390D01*
X184927390Y-91569792D01*
X184854982Y-91695208D01*
X184843712Y-91737265D01*
X183787383Y-90680936D01*
X183787382Y-90680937D01*
X183680696Y-90823453D01*
X183680691Y-90823461D01*
X183543591Y-91074541D01*
X183443609Y-91342604D01*
X183382800Y-91622137D01*
X183362391Y-91907498D01*
X183362391Y-91907501D01*
X183382800Y-92192862D01*
X183443609Y-92472395D01*
X183543591Y-92740458D01*
X183680691Y-92991538D01*
X183680696Y-92991546D01*
X183787382Y-93134061D01*
X183787383Y-93134062D01*
X184843712Y-92077733D01*
X184854982Y-92119792D01*
X184927390Y-92245208D01*
X185029792Y-92347610D01*
X185155208Y-92420018D01*
X185197265Y-92431287D01*
X184140936Y-93487615D01*
X184283460Y-93594307D01*
X184283461Y-93594308D01*
X184534542Y-93731408D01*
X184534541Y-93731408D01*
X184802604Y-93831390D01*
X185082137Y-93892199D01*
X185367499Y-93912609D01*
X185367501Y-93912609D01*
X185652862Y-93892199D01*
X185932395Y-93831390D01*
X186200458Y-93731408D01*
X186451547Y-93594303D01*
X186594061Y-93487616D01*
X186594062Y-93487615D01*
X185537735Y-92431287D01*
X185579792Y-92420018D01*
X185705208Y-92347610D01*
X185807610Y-92245208D01*
X185880018Y-92119792D01*
X185891287Y-92077734D01*
X186947615Y-93134062D01*
X186947616Y-93134061D01*
X187054303Y-92991547D01*
X187191408Y-92740458D01*
X187291390Y-92472395D01*
X187353142Y-92188530D01*
X187354235Y-92188767D01*
X187381141Y-92129839D01*
X187439915Y-92092059D01*
X187509784Y-92092051D01*
X187562543Y-92123351D01*
X190359672Y-94920480D01*
X190450997Y-94973207D01*
X190552858Y-95000500D01*
X190658312Y-95000500D01*
X201443420Y-95000500D01*
X201510459Y-95020185D01*
X201518907Y-95026124D01*
X201521716Y-95028279D01*
X201521718Y-95028282D01*
X201647159Y-95124536D01*
X201793238Y-95185044D01*
X201815965Y-95188036D01*
X201949999Y-95205682D01*
X201950000Y-95205682D01*
X201950001Y-95205682D01*
X202002254Y-95198802D01*
X202106762Y-95185044D01*
X202252841Y-95124536D01*
X202284820Y-95099998D01*
X208194318Y-95099998D01*
X208194318Y-95100001D01*
X208214955Y-95256760D01*
X208214956Y-95256762D01*
X208259375Y-95364000D01*
X208275464Y-95402841D01*
X208371718Y-95528282D01*
X208497159Y-95624536D01*
X208643238Y-95685044D01*
X208688851Y-95691049D01*
X208799999Y-95705682D01*
X208800000Y-95705682D01*
X208800001Y-95705682D01*
X208852254Y-95698802D01*
X208956762Y-95685044D01*
X209017370Y-95659938D01*
X209064823Y-95650500D01*
X213893420Y-95650500D01*
X213960459Y-95670185D01*
X213968907Y-95676124D01*
X213971716Y-95678279D01*
X213971718Y-95678282D01*
X214097159Y-95774536D01*
X214243238Y-95835044D01*
X214400000Y-95855682D01*
X214400001Y-95855681D01*
X214403513Y-95856144D01*
X214467410Y-95884410D01*
X214475009Y-95891402D01*
X215863181Y-97279573D01*
X215896666Y-97340896D01*
X215899500Y-97367254D01*
X215899500Y-103193419D01*
X215879815Y-103260458D01*
X215873876Y-103268905D01*
X215775464Y-103397157D01*
X215714956Y-103543237D01*
X215714955Y-103543239D01*
X215694318Y-103699998D01*
X215694318Y-103700001D01*
X215714955Y-103856760D01*
X215714956Y-103856762D01*
X215775464Y-104002841D01*
X215871718Y-104128282D01*
X215997159Y-104224536D01*
X216143238Y-104285044D01*
X216221619Y-104295363D01*
X216299999Y-104305682D01*
X216300000Y-104305682D01*
X216300001Y-104305682D01*
X216352254Y-104298802D01*
X216456762Y-104285044D01*
X216602841Y-104224536D01*
X216728282Y-104128282D01*
X216824536Y-104002841D01*
X216885044Y-103856762D01*
X216902452Y-103724536D01*
X216905682Y-103700001D01*
X216905682Y-103699998D01*
X216887252Y-103560008D01*
X216885044Y-103543238D01*
X216824536Y-103397159D01*
X216824535Y-103397158D01*
X216824535Y-103397157D01*
X216726124Y-103268905D01*
X216700930Y-103203736D01*
X216700500Y-103193419D01*
X216700500Y-97097274D01*
X216700499Y-97097270D01*
X216696613Y-97082765D01*
X216694152Y-97073580D01*
X216673207Y-96995412D01*
X216646843Y-96949750D01*
X216620480Y-96904087D01*
X216545913Y-96829520D01*
X216545912Y-96829519D01*
X216541582Y-96825189D01*
X216541571Y-96825179D01*
X215041402Y-95325009D01*
X215007917Y-95263686D01*
X215006144Y-95253513D01*
X215004986Y-95244718D01*
X214985044Y-95093238D01*
X214924536Y-94947159D01*
X214828282Y-94821718D01*
X214702841Y-94725464D01*
X214662673Y-94708826D01*
X214556762Y-94664956D01*
X214556760Y-94664955D01*
X214400001Y-94644318D01*
X214399999Y-94644318D01*
X214243239Y-94664955D01*
X214243237Y-94664956D01*
X214097160Y-94725463D01*
X214097159Y-94725464D01*
X213971718Y-94821718D01*
X213971716Y-94821720D01*
X213968907Y-94823876D01*
X213903737Y-94849070D01*
X213893420Y-94849500D01*
X209425849Y-94849500D01*
X209358810Y-94829815D01*
X209327473Y-94800987D01*
X209324536Y-94797159D01*
X209228282Y-94671718D01*
X209102841Y-94575464D01*
X209099770Y-94574192D01*
X208956762Y-94514956D01*
X208956760Y-94514955D01*
X208800001Y-94494318D01*
X208799999Y-94494318D01*
X208643239Y-94514955D01*
X208643237Y-94514956D01*
X208497160Y-94575463D01*
X208371718Y-94671718D01*
X208275463Y-94797160D01*
X208214956Y-94943237D01*
X208214955Y-94943239D01*
X208194318Y-95099998D01*
X202284820Y-95099998D01*
X202378282Y-95028282D01*
X202474536Y-94902841D01*
X202535044Y-94756762D01*
X202553534Y-94616315D01*
X202555682Y-94600001D01*
X202555682Y-94599998D01*
X202540235Y-94482668D01*
X202535044Y-94443238D01*
X202474536Y-94297159D01*
X202378282Y-94171718D01*
X202252841Y-94075464D01*
X202106762Y-94014956D01*
X202106760Y-94014955D01*
X201950001Y-93994318D01*
X201949999Y-93994318D01*
X201793239Y-94014955D01*
X201793237Y-94014956D01*
X201647160Y-94075463D01*
X201647159Y-94075464D01*
X201521718Y-94171718D01*
X201521716Y-94171720D01*
X201518907Y-94173876D01*
X201453737Y-94199070D01*
X201443420Y-94199500D01*
X190822840Y-94199500D01*
X190755801Y-94179815D01*
X190735159Y-94163181D01*
X186198755Y-89626777D01*
X186198753Y-89626775D01*
X186135054Y-89589998D01*
X186107429Y-89574048D01*
X186050729Y-89558856D01*
X186005567Y-89546755D01*
X186005566Y-89546755D01*
X178335243Y-89546755D01*
X178268204Y-89527070D01*
X178222449Y-89474266D01*
X178211243Y-89422755D01*
X178211243Y-89358016D01*
X178192314Y-89287374D01*
X178183949Y-89256155D01*
X178166997Y-89226793D01*
X178131222Y-89164829D01*
X178056655Y-89090262D01*
X178056654Y-89090261D01*
X178052324Y-89085931D01*
X178052313Y-89085921D01*
X177445913Y-88479520D01*
X177441402Y-88475009D01*
X177407917Y-88413686D01*
X177406144Y-88403513D01*
X177392214Y-88297705D01*
X177385044Y-88243238D01*
X177324536Y-88097159D01*
X177228282Y-87971718D01*
X177102841Y-87875464D01*
X177102457Y-87875305D01*
X176956762Y-87814956D01*
X176956760Y-87814955D01*
X176800001Y-87794318D01*
X176799999Y-87794318D01*
X176643239Y-87814955D01*
X176643237Y-87814956D01*
X176497160Y-87875463D01*
X176371718Y-87971718D01*
X176275462Y-88097161D01*
X176264780Y-88122952D01*
X176220939Y-88177356D01*
X176154645Y-88199421D01*
X176150219Y-88199500D01*
X173065784Y-88199500D01*
X172998745Y-88179815D01*
X172978103Y-88163181D01*
X172234044Y-87419122D01*
X172200559Y-87357799D01*
X172198788Y-87347640D01*
X172185044Y-87243238D01*
X172171069Y-87209499D01*
X172151582Y-87162452D01*
X172144113Y-87092983D01*
X172175389Y-87030504D01*
X172235478Y-86994852D01*
X172266143Y-86991000D01*
X208949915Y-86991000D01*
X208982008Y-86995225D01*
X208995423Y-86998819D01*
X209052078Y-87014000D01*
X209052080Y-87014000D01*
X221960367Y-87014000D01*
X221960370Y-87014000D01*
X222052947Y-86989194D01*
X222135949Y-86941273D01*
X230876903Y-78200319D01*
X230938226Y-78166834D01*
X230964584Y-78164000D01*
X231561243Y-78164000D01*
X231628282Y-78183685D01*
X231659615Y-78212510D01*
X231671718Y-78228282D01*
X231797159Y-78324536D01*
X231943238Y-78385044D01*
X232021619Y-78395363D01*
X232099999Y-78405682D01*
X232100000Y-78405682D01*
X232100001Y-78405682D01*
X232172813Y-78396096D01*
X232256762Y-78385044D01*
X232402841Y-78324536D01*
X232528282Y-78228282D01*
X232624536Y-78102841D01*
X232685044Y-77956762D01*
X232705682Y-77800000D01*
X232685044Y-77643238D01*
X232624536Y-77497159D01*
X232528282Y-77371718D01*
X232402841Y-77275464D01*
X232295005Y-77230797D01*
X232256762Y-77214956D01*
X232256760Y-77214955D01*
X232100001Y-77194318D01*
X232099999Y-77194318D01*
X231943239Y-77214955D01*
X231943237Y-77214956D01*
X231797160Y-77275463D01*
X231797159Y-77275464D01*
X231671718Y-77371718D01*
X231659616Y-77387488D01*
X231603191Y-77428689D01*
X231561243Y-77436000D01*
X231478136Y-77436000D01*
X231411097Y-77416315D01*
X231365342Y-77363511D01*
X231355398Y-77294353D01*
X231384423Y-77230797D01*
X231390455Y-77224319D01*
X231567190Y-77047584D01*
X232126429Y-76488343D01*
X232187750Y-76454860D01*
X232230290Y-76453087D01*
X232250000Y-76455682D01*
X232406762Y-76435044D01*
X232552841Y-76374536D01*
X232678282Y-76278282D01*
X232774536Y-76152841D01*
X232835044Y-76006762D01*
X232855682Y-75850000D01*
X232835044Y-75693238D01*
X232774536Y-75547159D01*
X232678282Y-75421718D01*
X232552841Y-75325464D01*
X232406762Y-75264956D01*
X232406760Y-75264955D01*
X232250001Y-75244318D01*
X232249999Y-75244318D01*
X232093239Y-75264955D01*
X232093237Y-75264956D01*
X231947160Y-75325463D01*
X231821718Y-75421718D01*
X231725463Y-75547160D01*
X231664956Y-75693237D01*
X231664955Y-75693239D01*
X231644318Y-75849998D01*
X231644318Y-75850000D01*
X231646912Y-75869710D01*
X231636143Y-75938745D01*
X231611653Y-75973571D01*
X221685545Y-85899681D01*
X221624222Y-85933166D01*
X221597864Y-85936000D01*
X169547922Y-85936000D01*
X169452078Y-85936000D01*
X169359501Y-85960806D01*
X169359499Y-85960807D01*
X169359498Y-85960807D01*
X169276502Y-86008724D01*
X169276497Y-86008728D01*
X168158728Y-87126497D01*
X168158724Y-87126502D01*
X168110807Y-87209498D01*
X168110807Y-87209499D01*
X168110806Y-87209501D01*
X168086000Y-87302078D01*
X168086000Y-87302080D01*
X168086000Y-90684863D01*
X168066315Y-90751902D01*
X168049681Y-90772544D01*
X163262180Y-95560044D01*
X163200857Y-95593529D01*
X163131165Y-95588545D01*
X163075232Y-95546673D01*
X163050815Y-95481209D01*
X163050499Y-95472384D01*
X163050499Y-94695136D01*
X163049391Y-94685578D01*
X163047586Y-94670012D01*
X163047585Y-94670010D01*
X163047585Y-94670009D01*
X163018919Y-94605086D01*
X163009847Y-94535808D01*
X163018919Y-94504913D01*
X163028578Y-94483039D01*
X163047585Y-94439991D01*
X163050500Y-94414865D01*
X163050499Y-93425136D01*
X163050497Y-93425117D01*
X163047586Y-93400012D01*
X163047585Y-93400010D01*
X163047585Y-93400009D01*
X163002206Y-93297235D01*
X162922765Y-93217794D01*
X162922763Y-93217793D01*
X162819992Y-93172415D01*
X162794865Y-93169500D01*
X161205143Y-93169500D01*
X161205117Y-93169502D01*
X161180012Y-93172413D01*
X161180008Y-93172415D01*
X161077235Y-93217793D01*
X160997794Y-93297234D01*
X160952415Y-93400006D01*
X160952415Y-93400008D01*
X160949500Y-93425131D01*
X160949500Y-93432000D01*
X160929815Y-93499039D01*
X160877011Y-93544794D01*
X160825500Y-93556000D01*
X159649500Y-93556000D01*
X159582461Y-93536315D01*
X159536706Y-93483511D01*
X159525500Y-93432000D01*
X159525499Y-93077130D01*
X159525498Y-93077123D01*
X159524700Y-93069700D01*
X159519091Y-93017517D01*
X159509404Y-92991546D01*
X159468797Y-92882671D01*
X159468793Y-92882664D01*
X159382547Y-92767455D01*
X159382544Y-92767452D01*
X159267335Y-92681206D01*
X159267328Y-92681202D01*
X159132486Y-92630910D01*
X159132485Y-92630909D01*
X159132483Y-92630909D01*
X159072873Y-92624500D01*
X159072863Y-92624500D01*
X158577129Y-92624500D01*
X158577123Y-92624501D01*
X158517516Y-92630908D01*
X158382671Y-92681202D01*
X158382664Y-92681206D01*
X158267455Y-92767452D01*
X158267452Y-92767455D01*
X158181206Y-92882664D01*
X158181202Y-92882671D01*
X158130910Y-93017513D01*
X158130909Y-93017517D01*
X158124500Y-93077127D01*
X158124500Y-93077134D01*
X158124500Y-93077135D01*
X158124500Y-93722870D01*
X158124501Y-93722876D01*
X158130908Y-93782483D01*
X158181202Y-93917328D01*
X158181206Y-93917335D01*
X158267452Y-94032544D01*
X158267455Y-94032547D01*
X158358540Y-94100734D01*
X158400411Y-94156668D01*
X158405395Y-94226359D01*
X158371909Y-94287682D01*
X158358540Y-94299266D01*
X158267455Y-94367452D01*
X158267452Y-94367455D01*
X158181206Y-94482664D01*
X158181202Y-94482671D01*
X158135546Y-94605084D01*
X158130909Y-94617517D01*
X158124500Y-94677127D01*
X158124500Y-94677134D01*
X158124500Y-94677135D01*
X158124500Y-95322870D01*
X158124501Y-95322876D01*
X158130908Y-95382483D01*
X158181202Y-95517328D01*
X158181206Y-95517335D01*
X158267452Y-95632544D01*
X158267455Y-95632547D01*
X158382664Y-95718793D01*
X158382671Y-95718797D01*
X158427618Y-95735561D01*
X158517517Y-95769091D01*
X158577127Y-95775500D01*
X159072872Y-95775499D01*
X159132483Y-95769091D01*
X159267331Y-95718796D01*
X159382546Y-95632546D01*
X159468796Y-95517331D01*
X159482975Y-95479313D01*
X159495898Y-95444667D01*
X159537769Y-95388733D01*
X159603233Y-95364316D01*
X159612080Y-95364000D01*
X160247919Y-95364000D01*
X160247922Y-95364000D01*
X160340499Y-95339194D01*
X160423501Y-95291273D01*
X160514455Y-95200319D01*
X160575778Y-95166834D01*
X160602136Y-95164000D01*
X160797864Y-95164000D01*
X160864903Y-95183685D01*
X160885545Y-95200319D01*
X160913181Y-95227955D01*
X160946666Y-95289278D01*
X160949500Y-95315636D01*
X160949500Y-95684856D01*
X160949502Y-95684882D01*
X160952413Y-95709987D01*
X160952414Y-95709988D01*
X160952414Y-95709990D01*
X160952415Y-95709991D01*
X160956303Y-95718796D01*
X160981081Y-95774914D01*
X160990152Y-95844192D01*
X160981081Y-95875084D01*
X160952415Y-95940006D01*
X160952415Y-95940008D01*
X160949500Y-95965131D01*
X160949500Y-96954856D01*
X160949502Y-96954882D01*
X160952413Y-96979987D01*
X160952414Y-96979988D01*
X160981081Y-97044914D01*
X160990152Y-97114192D01*
X160981081Y-97145084D01*
X160952415Y-97210006D01*
X160952415Y-97210008D01*
X160949500Y-97235131D01*
X160949500Y-97713284D01*
X160929815Y-97780323D01*
X160877011Y-97826078D01*
X160807853Y-97836022D01*
X160750015Y-97811661D01*
X160702841Y-97775464D01*
X160556762Y-97714956D01*
X160556760Y-97714955D01*
X160400001Y-97694318D01*
X160399999Y-97694318D01*
X160243239Y-97714955D01*
X160243237Y-97714956D01*
X160097158Y-97775464D01*
X160050485Y-97811277D01*
X159985316Y-97836470D01*
X159916871Y-97822431D01*
X159899515Y-97811277D01*
X159852841Y-97775464D01*
X159706762Y-97714956D01*
X159706760Y-97714955D01*
X159550001Y-97694318D01*
X159549999Y-97694318D01*
X159393239Y-97714955D01*
X159393237Y-97714956D01*
X159247158Y-97775464D01*
X159170878Y-97833995D01*
X159105709Y-97859188D01*
X159037264Y-97845149D01*
X158987275Y-97796335D01*
X158980832Y-97783070D01*
X158924537Y-97647161D01*
X158924536Y-97647160D01*
X158924536Y-97647159D01*
X158828282Y-97521718D01*
X158702841Y-97425464D01*
X158654257Y-97405340D01*
X158556762Y-97364956D01*
X158556760Y-97364955D01*
X158400001Y-97344318D01*
X158399999Y-97344318D01*
X158243239Y-97364955D01*
X158243237Y-97364956D01*
X158097160Y-97425463D01*
X157971718Y-97521718D01*
X157875463Y-97647160D01*
X157814956Y-97793237D01*
X157814955Y-97793239D01*
X157794318Y-97949998D01*
X157794318Y-97950001D01*
X157814955Y-98106760D01*
X157814957Y-98106765D01*
X157875461Y-98252836D01*
X157879526Y-98259876D01*
X157877783Y-98260882D01*
X157899069Y-98315932D01*
X157899500Y-98326257D01*
X157899500Y-98347273D01*
X157899500Y-98452727D01*
X157906810Y-98480008D01*
X157926793Y-98554589D01*
X157952828Y-98599681D01*
X157979520Y-98645913D01*
X157979522Y-98645915D01*
X158513181Y-99179574D01*
X158546666Y-99240897D01*
X158549500Y-99267255D01*
X158549500Y-100794723D01*
X158529815Y-100861762D01*
X158477011Y-100907517D01*
X158407853Y-100917461D01*
X158344297Y-100888436D01*
X158332833Y-100876269D01*
X158328286Y-100871722D01*
X158328283Y-100871720D01*
X158328282Y-100871718D01*
X158202841Y-100775464D01*
X158177250Y-100764864D01*
X158056762Y-100714956D01*
X158056760Y-100714955D01*
X157900001Y-100694318D01*
X157899999Y-100694318D01*
X157743239Y-100714955D01*
X157743237Y-100714956D01*
X157597157Y-100775464D01*
X157479982Y-100865376D01*
X157414813Y-100890570D01*
X157404496Y-100891000D01*
X157193106Y-100891000D01*
X157126067Y-100871315D01*
X157080312Y-100818511D01*
X157079672Y-100817087D01*
X157061293Y-100775463D01*
X157051699Y-100753736D01*
X157042628Y-100684460D01*
X157072451Y-100621275D01*
X157090823Y-100604384D01*
X157147190Y-100562186D01*
X157233350Y-100447093D01*
X157233354Y-100447086D01*
X157283596Y-100312379D01*
X157283598Y-100312372D01*
X157289999Y-100252844D01*
X157290000Y-100252827D01*
X157290000Y-99955000D01*
X155090000Y-99955000D01*
X155090000Y-100252844D01*
X155096401Y-100312372D01*
X155096403Y-100312379D01*
X155146645Y-100447086D01*
X155146646Y-100447088D01*
X155203305Y-100522774D01*
X155227722Y-100588238D01*
X155212871Y-100656511D01*
X155163466Y-100705917D01*
X155150451Y-100711133D01*
X155150747Y-100711846D01*
X155143239Y-100714955D01*
X155143238Y-100714956D01*
X155101523Y-100732235D01*
X154997160Y-100775463D01*
X154871718Y-100871718D01*
X154775463Y-100997160D01*
X154714956Y-101143237D01*
X154714955Y-101143239D01*
X154694318Y-101299998D01*
X154694318Y-101300001D01*
X154714955Y-101456760D01*
X154714956Y-101456762D01*
X154764382Y-101576088D01*
X154775464Y-101602841D01*
X154871718Y-101728282D01*
X154902140Y-101751625D01*
X154943341Y-101808052D01*
X154947496Y-101877798D01*
X154913283Y-101938719D01*
X154902146Y-101948369D01*
X154871718Y-101971718D01*
X154775463Y-102097160D01*
X154714956Y-102243237D01*
X154714955Y-102243239D01*
X154694318Y-102399998D01*
X154694318Y-102400001D01*
X154714955Y-102556760D01*
X154714956Y-102556762D01*
X154732490Y-102599094D01*
X154775464Y-102702841D01*
X154871718Y-102828282D01*
X154871720Y-102828283D01*
X154876666Y-102834729D01*
X154873850Y-102836889D01*
X154899547Y-102883949D01*
X154894563Y-102953641D01*
X154853869Y-103008681D01*
X154783555Y-103062635D01*
X154771718Y-103071718D01*
X154675463Y-103197160D01*
X154614955Y-103343240D01*
X154614774Y-103343917D01*
X154614465Y-103344423D01*
X154611846Y-103350747D01*
X154610859Y-103350338D01*
X154578408Y-103403577D01*
X154515560Y-103434105D01*
X154446185Y-103425808D01*
X154392308Y-103381322D01*
X154378314Y-103350680D01*
X154378154Y-103350747D01*
X154376289Y-103346246D01*
X154375226Y-103343917D01*
X154375044Y-103343240D01*
X154375044Y-103343239D01*
X154375044Y-103343238D01*
X154314536Y-103197159D01*
X154218282Y-103071718D01*
X154092841Y-102975464D01*
X153946762Y-102914956D01*
X153946760Y-102914955D01*
X153790001Y-102894318D01*
X153789999Y-102894318D01*
X153633239Y-102914955D01*
X153633237Y-102914956D01*
X153487160Y-102975463D01*
X153361718Y-103071718D01*
X153265463Y-103197160D01*
X153204956Y-103343237D01*
X153204955Y-103343239D01*
X153184318Y-103499998D01*
X153184318Y-103500001D01*
X153204955Y-103656760D01*
X153204956Y-103656762D01*
X153265464Y-103802841D01*
X153361718Y-103928282D01*
X153361720Y-103928283D01*
X153363876Y-103931093D01*
X153389070Y-103996263D01*
X153389500Y-104006580D01*
X153389500Y-104030500D01*
X153369815Y-104097539D01*
X153317011Y-104143294D01*
X153265500Y-104154500D01*
X152307273Y-104154500D01*
X152205410Y-104181793D01*
X152114087Y-104234520D01*
X152114084Y-104234522D01*
X151565008Y-104783597D01*
X151503685Y-104817082D01*
X151493513Y-104818855D01*
X151376158Y-104834305D01*
X151333238Y-104839956D01*
X151333237Y-104839956D01*
X151330186Y-104840358D01*
X151261150Y-104829593D01*
X151208894Y-104783213D01*
X151190000Y-104717419D01*
X151190000Y-100755000D01*
X149608503Y-100755000D01*
X149541464Y-100735315D01*
X149495709Y-100682511D01*
X149485565Y-100647190D01*
X149485045Y-100643244D01*
X149485044Y-100643239D01*
X149485044Y-100643238D01*
X149424536Y-100497159D01*
X149424535Y-100497158D01*
X149424535Y-100497157D01*
X149326124Y-100368905D01*
X149300930Y-100303736D01*
X149300500Y-100293419D01*
X149300500Y-99157155D01*
X155090000Y-99157155D01*
X155090000Y-99455000D01*
X155940000Y-99455000D01*
X156440000Y-99455000D01*
X157290000Y-99455000D01*
X157290000Y-99157172D01*
X157289999Y-99157155D01*
X157283598Y-99097627D01*
X157283596Y-99097620D01*
X157233354Y-98962913D01*
X157233350Y-98962906D01*
X157147190Y-98847812D01*
X157147187Y-98847809D01*
X157032093Y-98761649D01*
X157032086Y-98761645D01*
X156897379Y-98711403D01*
X156897372Y-98711401D01*
X156837844Y-98705000D01*
X156440000Y-98705000D01*
X156440000Y-99455000D01*
X155940000Y-99455000D01*
X155940000Y-98705000D01*
X155542155Y-98705000D01*
X155482627Y-98711401D01*
X155482620Y-98711403D01*
X155347913Y-98761645D01*
X155347906Y-98761649D01*
X155232812Y-98847809D01*
X155232809Y-98847812D01*
X155146649Y-98962906D01*
X155146645Y-98962913D01*
X155096403Y-99097620D01*
X155096401Y-99097627D01*
X155090000Y-99157155D01*
X149300500Y-99157155D01*
X149300500Y-91672275D01*
X149300500Y-91672273D01*
X149273207Y-91570413D01*
X149273207Y-91570412D01*
X149259849Y-91547277D01*
X149246843Y-91524750D01*
X149246841Y-91524747D01*
X149220480Y-91479087D01*
X149145913Y-91404520D01*
X149145912Y-91404519D01*
X149141582Y-91400189D01*
X149141571Y-91400179D01*
X147811819Y-90070426D01*
X147778334Y-90009103D01*
X147775500Y-89982745D01*
X147775500Y-89558862D01*
X147775500Y-89558856D01*
X147765359Y-89474410D01*
X147712364Y-89340025D01*
X147712363Y-89340024D01*
X147709252Y-89332134D01*
X147711530Y-89331235D01*
X147698690Y-89275534D01*
X147722296Y-89209773D01*
X147777707Y-89167213D01*
X147822474Y-89158850D01*
X148552508Y-89158850D01*
X148619547Y-89178535D01*
X148640189Y-89195169D01*
X154037146Y-94592126D01*
X154105508Y-94660488D01*
X154189235Y-94708827D01*
X154282620Y-94733850D01*
X155625723Y-94733850D01*
X155692762Y-94753535D01*
X155713404Y-94770169D01*
X156168686Y-95225451D01*
X156237048Y-95293813D01*
X156320775Y-95342152D01*
X156414160Y-95367175D01*
X156414163Y-95367175D01*
X156420228Y-95368800D01*
X156479888Y-95405165D01*
X156504316Y-95445242D01*
X156531202Y-95517328D01*
X156531206Y-95517335D01*
X156617452Y-95632544D01*
X156617455Y-95632547D01*
X156732664Y-95718793D01*
X156732671Y-95718797D01*
X156777618Y-95735561D01*
X156867517Y-95769091D01*
X156927127Y-95775500D01*
X157422872Y-95775499D01*
X157482483Y-95769091D01*
X157617331Y-95718796D01*
X157732546Y-95632546D01*
X157818796Y-95517331D01*
X157869091Y-95382483D01*
X157875500Y-95322873D01*
X157875499Y-94677128D01*
X157869091Y-94617517D01*
X157856979Y-94585044D01*
X157818797Y-94482671D01*
X157818793Y-94482664D01*
X157732547Y-94367456D01*
X157732548Y-94367456D01*
X157732546Y-94367454D01*
X157641457Y-94299265D01*
X157599588Y-94243333D01*
X157594604Y-94173641D01*
X157628089Y-94112318D01*
X157641452Y-94100738D01*
X157732546Y-94032546D01*
X157818796Y-93917331D01*
X157869091Y-93782483D01*
X157875500Y-93722873D01*
X157875499Y-93077128D01*
X157869091Y-93017517D01*
X157859404Y-92991546D01*
X157818797Y-92882671D01*
X157818793Y-92882664D01*
X157732547Y-92767455D01*
X157732544Y-92767452D01*
X157617335Y-92681206D01*
X157617328Y-92681202D01*
X157482486Y-92630910D01*
X157482485Y-92630909D01*
X157482483Y-92630909D01*
X157422873Y-92624500D01*
X157422863Y-92624500D01*
X156927129Y-92624500D01*
X156927123Y-92624501D01*
X156867516Y-92630908D01*
X156732671Y-92681202D01*
X156732664Y-92681206D01*
X156617455Y-92767452D01*
X156617452Y-92767455D01*
X156531206Y-92882664D01*
X156531203Y-92882669D01*
X156504316Y-92954758D01*
X156462444Y-93010691D01*
X156420229Y-93031198D01*
X156320779Y-93057846D01*
X156320774Y-93057848D01*
X156237048Y-93106186D01*
X156237046Y-93106188D01*
X155713404Y-93629831D01*
X155652081Y-93663316D01*
X155625723Y-93666150D01*
X154672492Y-93666150D01*
X154605453Y-93646465D01*
X154584811Y-93629831D01*
X149119491Y-88164511D01*
X149035765Y-88116173D01*
X149035766Y-88116173D01*
X149004636Y-88107832D01*
X148942380Y-88091150D01*
X148942378Y-88091150D01*
X145899277Y-88091150D01*
X145832238Y-88071465D01*
X145811596Y-88054831D01*
X145762951Y-88006186D01*
X145679225Y-87957848D01*
X145679220Y-87957846D01*
X145588830Y-87933625D01*
X145529170Y-87897259D01*
X145498642Y-87834412D01*
X145498452Y-87794451D01*
X145499048Y-87790682D01*
X145500500Y-87781519D01*
X145500499Y-87605758D01*
X145520183Y-87538720D01*
X145526123Y-87530272D01*
X145624100Y-87402586D01*
X145684555Y-87256631D01*
X145692012Y-87200000D01*
X145325033Y-87200000D01*
X145268738Y-87186485D01*
X145225301Y-87164352D01*
X145131524Y-87149500D01*
X143918482Y-87149500D01*
X143824695Y-87164354D01*
X143781261Y-87186485D01*
X143724967Y-87200000D01*
X143357990Y-87200000D01*
X143357988Y-87200001D01*
X143359281Y-87209816D01*
X143348515Y-87278851D01*
X143302134Y-87331107D01*
X143236342Y-87350000D01*
X142100000Y-87350000D01*
X142100000Y-89250000D01*
X143299999Y-89250000D01*
X143299999Y-88750028D01*
X143299998Y-88750013D01*
X143289505Y-88647302D01*
X143234358Y-88480880D01*
X143234356Y-88480875D01*
X143162943Y-88365097D01*
X143144503Y-88297705D01*
X143162943Y-88234903D01*
X143234356Y-88119124D01*
X143234358Y-88119119D01*
X143289505Y-87952697D01*
X143289506Y-87952690D01*
X143299999Y-87849986D01*
X143300000Y-87849973D01*
X143300000Y-87603802D01*
X143319685Y-87536763D01*
X143372489Y-87491008D01*
X143441647Y-87481064D01*
X143505203Y-87510089D01*
X143522397Y-87528344D01*
X143523897Y-87530300D01*
X143549073Y-87595476D01*
X143549500Y-87605757D01*
X143549500Y-87781517D01*
X143564354Y-87875305D01*
X143586468Y-87918705D01*
X143599364Y-87987374D01*
X143586468Y-88031294D01*
X143564354Y-88074696D01*
X143564352Y-88074700D01*
X143549500Y-88168475D01*
X143549500Y-88431517D01*
X143564354Y-88525305D01*
X143586468Y-88568705D01*
X143599364Y-88637374D01*
X143586468Y-88681294D01*
X143564354Y-88724696D01*
X143564352Y-88724700D01*
X143549500Y-88818475D01*
X143549500Y-89081517D01*
X143564354Y-89175305D01*
X143586468Y-89218705D01*
X143599364Y-89287374D01*
X143586468Y-89331294D01*
X143564354Y-89374696D01*
X143564352Y-89374700D01*
X143549500Y-89468475D01*
X143549500Y-89731517D01*
X143558841Y-89790492D01*
X143564354Y-89825304D01*
X143621950Y-89938342D01*
X143621952Y-89938344D01*
X143621954Y-89938347D01*
X143702967Y-90019360D01*
X143736452Y-90080683D01*
X143731468Y-90150375D01*
X143689596Y-90206308D01*
X143654291Y-90224747D01*
X143530878Y-90265642D01*
X143530871Y-90265645D01*
X143489096Y-90291413D01*
X143421704Y-90309853D01*
X143355040Y-90288930D01*
X143310271Y-90235288D01*
X143300000Y-90185874D01*
X143300000Y-89750000D01*
X142100000Y-89750000D01*
X142100000Y-91350000D01*
X141600000Y-91350000D01*
X141600000Y-85250000D01*
X142100000Y-85250000D01*
X142100000Y-86850000D01*
X143299999Y-86850000D01*
X143313680Y-86836319D01*
X143375003Y-86802834D01*
X143401361Y-86800000D01*
X145692010Y-86800000D01*
X145692011Y-86799998D01*
X145684557Y-86743372D01*
X145684555Y-86743366D01*
X145624100Y-86597414D01*
X145527924Y-86472075D01*
X145433992Y-86399998D01*
X161944318Y-86399998D01*
X161944318Y-86400001D01*
X161964955Y-86556760D01*
X161964956Y-86556762D01*
X162000775Y-86643238D01*
X162025464Y-86702841D01*
X162121718Y-86828282D01*
X162247159Y-86924536D01*
X162393238Y-86985044D01*
X162424761Y-86989194D01*
X162549999Y-87005682D01*
X162550000Y-87005682D01*
X162550001Y-87005682D01*
X162632262Y-86994852D01*
X162706762Y-86985044D01*
X162852841Y-86924536D01*
X162978282Y-86828282D01*
X162994137Y-86807618D01*
X163050565Y-86766417D01*
X163092512Y-86759107D01*
X164918420Y-86759107D01*
X164985459Y-86778792D01*
X164993907Y-86784731D01*
X164996716Y-86786886D01*
X164996718Y-86786889D01*
X165122159Y-86883143D01*
X165268238Y-86943651D01*
X165425000Y-86964289D01*
X165425001Y-86964288D01*
X165428513Y-86964751D01*
X165492410Y-86993017D01*
X165500009Y-87000009D01*
X165620480Y-87120480D01*
X165711805Y-87173207D01*
X165813666Y-87200500D01*
X165919120Y-87200500D01*
X166643420Y-87200500D01*
X166710459Y-87220185D01*
X166718907Y-87226124D01*
X166721716Y-87228279D01*
X166721718Y-87228282D01*
X166847159Y-87324536D01*
X166993238Y-87385044D01*
X167026014Y-87389359D01*
X167149999Y-87405682D01*
X167150000Y-87405682D01*
X167150001Y-87405682D01*
X167202254Y-87398802D01*
X167306762Y-87385044D01*
X167452841Y-87324536D01*
X167578282Y-87228282D01*
X167674536Y-87102841D01*
X167735044Y-86956762D01*
X167755682Y-86800000D01*
X167750298Y-86759107D01*
X167735044Y-86643239D01*
X167735044Y-86643238D01*
X167674536Y-86497159D01*
X167578282Y-86371718D01*
X167452841Y-86275464D01*
X167306762Y-86214956D01*
X167306760Y-86214955D01*
X167150001Y-86194318D01*
X167149999Y-86194318D01*
X166993239Y-86214955D01*
X166993237Y-86214956D01*
X166847160Y-86275463D01*
X166847159Y-86275464D01*
X166721718Y-86371718D01*
X166721716Y-86371720D01*
X166718907Y-86373876D01*
X166653737Y-86399070D01*
X166643420Y-86399500D01*
X166144811Y-86399500D01*
X166077772Y-86379815D01*
X166032017Y-86327011D01*
X166021872Y-86291686D01*
X166019354Y-86272567D01*
X166010044Y-86201845D01*
X165949536Y-86055766D01*
X165853282Y-85930325D01*
X165727841Y-85834071D01*
X165681693Y-85814956D01*
X165581762Y-85773563D01*
X165581760Y-85773562D01*
X165425001Y-85752925D01*
X165424999Y-85752925D01*
X165268239Y-85773562D01*
X165268237Y-85773563D01*
X165122160Y-85834070D01*
X165122159Y-85834071D01*
X164996718Y-85930325D01*
X164996716Y-85930327D01*
X164993907Y-85932483D01*
X164928737Y-85957677D01*
X164918420Y-85958107D01*
X163002636Y-85958107D01*
X162935597Y-85938422D01*
X162927150Y-85932483D01*
X162852842Y-85875464D01*
X162706762Y-85814956D01*
X162706760Y-85814955D01*
X162550001Y-85794318D01*
X162549999Y-85794318D01*
X162393239Y-85814955D01*
X162393237Y-85814956D01*
X162247160Y-85875463D01*
X162121718Y-85971718D01*
X162025463Y-86097160D01*
X161964956Y-86243237D01*
X161964955Y-86243239D01*
X161944318Y-86399998D01*
X145433992Y-86399998D01*
X145402586Y-86375899D01*
X145349302Y-86353829D01*
X145294898Y-86309989D01*
X145272833Y-86243695D01*
X145290112Y-86175995D01*
X145309074Y-86151586D01*
X145342315Y-86118344D01*
X145434356Y-85969124D01*
X145434358Y-85969119D01*
X145489505Y-85802697D01*
X145489506Y-85802690D01*
X145499999Y-85699986D01*
X145500000Y-85699973D01*
X145500000Y-85350000D01*
X143181000Y-85350000D01*
X143113961Y-85330315D01*
X143068206Y-85277511D01*
X143063672Y-85256672D01*
X143057000Y-85250000D01*
X142249728Y-85250000D01*
X142341614Y-85211940D01*
X142411940Y-85141614D01*
X142450000Y-85049728D01*
X142450000Y-84950272D01*
X142411940Y-84858386D01*
X142341614Y-84788060D01*
X142249728Y-84750000D01*
X143069000Y-84750000D01*
X143136039Y-84769685D01*
X143181794Y-84822489D01*
X143186327Y-84843327D01*
X143193000Y-84850000D01*
X144050000Y-84850000D01*
X144550000Y-84850000D01*
X145499999Y-84850000D01*
X145499999Y-84500028D01*
X145499998Y-84500013D01*
X145489505Y-84397302D01*
X145434358Y-84230880D01*
X145434356Y-84230875D01*
X145342315Y-84081654D01*
X145218345Y-83957684D01*
X145069124Y-83865643D01*
X145069119Y-83865641D01*
X144902697Y-83810494D01*
X144902690Y-83810493D01*
X144799986Y-83800000D01*
X144550000Y-83800000D01*
X144550000Y-84850000D01*
X144050000Y-84850000D01*
X144050000Y-83800000D01*
X143800029Y-83800000D01*
X143800012Y-83800001D01*
X143697302Y-83810494D01*
X143530880Y-83865641D01*
X143530875Y-83865643D01*
X143381654Y-83957684D01*
X143257684Y-84081654D01*
X143165643Y-84230875D01*
X143165641Y-84230880D01*
X143131495Y-84333927D01*
X143091722Y-84391372D01*
X143027206Y-84418195D01*
X142958430Y-84405880D01*
X142926108Y-84382604D01*
X142805593Y-84262089D01*
X142805589Y-84262086D01*
X142650000Y-84158124D01*
X142649991Y-84158119D01*
X142477105Y-84086508D01*
X142477097Y-84086506D01*
X142293570Y-84050000D01*
X142100000Y-84050000D01*
X142100000Y-84750000D01*
X141600000Y-84750000D01*
X141600000Y-84050000D01*
X141406430Y-84050000D01*
X141222902Y-84086506D01*
X141222894Y-84086508D01*
X141050008Y-84158119D01*
X141049999Y-84158124D01*
X140894410Y-84262086D01*
X140894406Y-84262089D01*
X140762089Y-84394406D01*
X140762086Y-84394410D01*
X140658124Y-84549999D01*
X140658119Y-84550009D01*
X140638561Y-84597227D01*
X140594720Y-84651630D01*
X140528425Y-84673695D01*
X140460726Y-84656416D01*
X140413116Y-84605278D01*
X140400000Y-84549774D01*
X140400000Y-79424500D01*
X140419685Y-79357461D01*
X140472489Y-79311706D01*
X140524000Y-79300500D01*
X158763103Y-79300500D01*
X158830142Y-79320185D01*
X158875897Y-79372989D01*
X158885841Y-79442147D01*
X158869220Y-79488650D01*
X158804487Y-79595732D01*
X158804485Y-79595736D01*
X158755687Y-79752335D01*
X158755685Y-79752343D01*
X158749500Y-79820406D01*
X158749500Y-82179594D01*
X158755685Y-82247657D01*
X158755686Y-82247662D01*
X158755687Y-82247664D01*
X158804485Y-82404263D01*
X158804488Y-82404272D01*
X158889348Y-82544648D01*
X158889351Y-82544652D01*
X159005347Y-82660648D01*
X159005351Y-82660651D01*
X159145727Y-82745511D01*
X159145730Y-82745512D01*
X159302343Y-82794315D01*
X159370406Y-82800500D01*
X159370409Y-82800500D01*
X160229591Y-82800500D01*
X160229594Y-82800500D01*
X160297657Y-82794315D01*
X160454270Y-82745512D01*
X160594653Y-82660648D01*
X160710648Y-82544653D01*
X160795512Y-82404270D01*
X160844315Y-82247657D01*
X160850500Y-82179594D01*
X160850500Y-79820406D01*
X160844315Y-79752343D01*
X160795512Y-79595730D01*
X160730779Y-79488649D01*
X160712944Y-79421095D01*
X160734462Y-79354621D01*
X160788502Y-79310334D01*
X160836897Y-79300500D01*
X161303103Y-79300500D01*
X161370142Y-79320185D01*
X161415897Y-79372989D01*
X161425841Y-79442147D01*
X161409220Y-79488650D01*
X161344487Y-79595732D01*
X161344485Y-79595736D01*
X161295687Y-79752335D01*
X161295685Y-79752343D01*
X161289500Y-79820406D01*
X161289500Y-82179594D01*
X161295685Y-82247657D01*
X161295686Y-82247662D01*
X161295687Y-82247664D01*
X161344485Y-82404263D01*
X161344488Y-82404272D01*
X161429348Y-82544648D01*
X161429351Y-82544652D01*
X161545347Y-82660648D01*
X161545351Y-82660651D01*
X161685727Y-82745511D01*
X161685730Y-82745512D01*
X161842343Y-82794315D01*
X161910406Y-82800500D01*
X161910409Y-82800500D01*
X162769591Y-82800500D01*
X162769594Y-82800500D01*
X162837657Y-82794315D01*
X162994270Y-82745512D01*
X163134653Y-82660648D01*
X163250648Y-82544653D01*
X163335512Y-82404270D01*
X163384315Y-82247657D01*
X163390500Y-82179594D01*
X163390500Y-79820406D01*
X163384315Y-79752343D01*
X163335512Y-79595730D01*
X163270779Y-79488649D01*
X163252944Y-79421095D01*
X163274462Y-79354621D01*
X163328502Y-79310334D01*
X163376897Y-79300500D01*
X163843103Y-79300500D01*
X163910142Y-79320185D01*
X163955897Y-79372989D01*
X163965841Y-79442147D01*
X163949220Y-79488650D01*
X163884487Y-79595732D01*
X163884485Y-79595736D01*
X163835687Y-79752335D01*
X163835685Y-79752343D01*
X163829500Y-79820406D01*
X163829500Y-82179594D01*
X163835685Y-82247657D01*
X163835686Y-82247662D01*
X163835687Y-82247664D01*
X163884485Y-82404263D01*
X163884488Y-82404272D01*
X163969348Y-82544648D01*
X163969351Y-82544652D01*
X164085347Y-82660648D01*
X164085351Y-82660651D01*
X164225727Y-82745511D01*
X164225730Y-82745512D01*
X164382343Y-82794315D01*
X164450406Y-82800500D01*
X164450409Y-82800500D01*
X165309591Y-82800500D01*
X165309594Y-82800500D01*
X165377657Y-82794315D01*
X165534270Y-82745512D01*
X165674653Y-82660648D01*
X165790648Y-82544653D01*
X165875512Y-82404270D01*
X165924315Y-82247657D01*
X165930500Y-82179594D01*
X165930500Y-79820406D01*
X165924315Y-79752343D01*
X165875512Y-79595730D01*
X165810779Y-79488649D01*
X165792944Y-79421095D01*
X165814462Y-79354621D01*
X165868502Y-79310334D01*
X165916897Y-79300500D01*
X166383103Y-79300500D01*
X166450142Y-79320185D01*
X166495897Y-79372989D01*
X166505841Y-79442147D01*
X166489220Y-79488650D01*
X166424487Y-79595732D01*
X166424485Y-79595736D01*
X166375687Y-79752335D01*
X166375685Y-79752343D01*
X166369500Y-79820406D01*
X166369500Y-82179594D01*
X166375685Y-82247657D01*
X166375686Y-82247662D01*
X166375687Y-82247664D01*
X166424485Y-82404263D01*
X166424488Y-82404272D01*
X166509348Y-82544648D01*
X166509351Y-82544652D01*
X166625347Y-82660648D01*
X166625351Y-82660651D01*
X166765727Y-82745511D01*
X166765730Y-82745512D01*
X166922343Y-82794315D01*
X166990406Y-82800500D01*
X166990409Y-82800500D01*
X167849591Y-82800500D01*
X167849594Y-82800500D01*
X167917657Y-82794315D01*
X168074270Y-82745512D01*
X168214653Y-82660648D01*
X168330648Y-82544653D01*
X168415512Y-82404270D01*
X168464315Y-82247657D01*
X168470500Y-82179594D01*
X168470500Y-79820406D01*
X168464315Y-79752343D01*
X168415512Y-79595730D01*
X168350779Y-79488649D01*
X168332944Y-79421095D01*
X168354462Y-79354621D01*
X168408502Y-79310334D01*
X168456897Y-79300500D01*
X169039560Y-79300500D01*
X169039562Y-79300500D01*
X169115989Y-79280021D01*
X169184511Y-79240460D01*
X169240460Y-79184511D01*
X169280021Y-79115989D01*
X169300500Y-79039562D01*
X169300500Y-78145118D01*
X169320185Y-78078079D01*
X169372989Y-78032324D01*
X169442147Y-78022380D01*
X169505703Y-78051405D01*
X169540682Y-78101786D01*
X169556644Y-78144584D01*
X169556649Y-78144593D01*
X169642809Y-78259687D01*
X169642812Y-78259690D01*
X169757906Y-78345850D01*
X169757913Y-78345854D01*
X169892620Y-78396096D01*
X169892627Y-78396098D01*
X169952155Y-78402499D01*
X169952172Y-78402500D01*
X170500000Y-78402500D01*
X171000000Y-78402500D01*
X171547828Y-78402500D01*
X171547844Y-78402499D01*
X171607372Y-78396098D01*
X171607379Y-78396096D01*
X171742086Y-78345854D01*
X171742093Y-78345850D01*
X171857187Y-78259690D01*
X171857190Y-78259687D01*
X171943350Y-78144593D01*
X171943354Y-78144586D01*
X171993596Y-78009879D01*
X171993598Y-78009872D01*
X171999999Y-77950344D01*
X178000000Y-77950344D01*
X178006401Y-78009872D01*
X178006403Y-78009879D01*
X178056645Y-78144586D01*
X178056649Y-78144593D01*
X178142809Y-78259687D01*
X178142812Y-78259690D01*
X178257906Y-78345850D01*
X178257913Y-78345854D01*
X178392620Y-78396096D01*
X178392627Y-78396098D01*
X178452155Y-78402499D01*
X178452172Y-78402500D01*
X179000000Y-78402500D01*
X179500000Y-78402500D01*
X180047828Y-78402500D01*
X180047844Y-78402499D01*
X180107372Y-78396098D01*
X180107379Y-78396096D01*
X180242086Y-78345854D01*
X180242093Y-78345850D01*
X180357187Y-78259690D01*
X180357190Y-78259687D01*
X180443350Y-78144593D01*
X180443354Y-78144586D01*
X180493596Y-78009879D01*
X180493598Y-78009872D01*
X180499999Y-77950344D01*
X180500000Y-77950327D01*
X180500000Y-75612500D01*
X179500000Y-75612500D01*
X179500000Y-78402500D01*
X179000000Y-78402500D01*
X179000000Y-75612500D01*
X178000000Y-75612500D01*
X178000000Y-77950344D01*
X171999999Y-77950344D01*
X172000000Y-77950327D01*
X172000000Y-75612500D01*
X171000000Y-75612500D01*
X171000000Y-78402500D01*
X170500000Y-78402500D01*
X170500000Y-75236500D01*
X170509211Y-75205131D01*
X173949500Y-75205131D01*
X173949500Y-76794856D01*
X173949502Y-76794882D01*
X173952413Y-76819987D01*
X173952415Y-76819991D01*
X173997793Y-76922764D01*
X173997794Y-76922765D01*
X174077235Y-77002206D01*
X174180009Y-77047585D01*
X174205135Y-77050500D01*
X175794864Y-77050499D01*
X175794879Y-77050497D01*
X175794882Y-77050497D01*
X175819987Y-77047586D01*
X175819988Y-77047585D01*
X175819991Y-77047585D01*
X175922765Y-77002206D01*
X176002206Y-76922765D01*
X176047585Y-76819991D01*
X176050500Y-76794865D01*
X176050499Y-75205136D01*
X176050497Y-75205117D01*
X176047586Y-75180012D01*
X176047585Y-75180010D01*
X176047585Y-75180009D01*
X176002206Y-75077235D01*
X175922765Y-74997794D01*
X175922763Y-74997793D01*
X175819992Y-74952415D01*
X175794865Y-74949500D01*
X174205143Y-74949500D01*
X174205117Y-74949502D01*
X174180012Y-74952413D01*
X174180008Y-74952415D01*
X174077235Y-74997793D01*
X173997794Y-75077234D01*
X173952415Y-75180006D01*
X173952415Y-75180008D01*
X173949500Y-75205131D01*
X170509211Y-75205131D01*
X170519685Y-75169461D01*
X170572489Y-75123706D01*
X170624000Y-75112500D01*
X172000000Y-75112500D01*
X172000000Y-73424500D01*
X172019685Y-73357461D01*
X172072489Y-73311706D01*
X172124000Y-73300500D01*
X177876000Y-73300500D01*
X177943039Y-73320185D01*
G37*
%TD.AperFunction*%
%TA.AperFunction,Conductor*%
G36*
X159555703Y-100067923D02*
G01*
X159562181Y-100073955D01*
X160913181Y-101424955D01*
X160946666Y-101486278D01*
X160949500Y-101512636D01*
X160949500Y-102034856D01*
X160949502Y-102034882D01*
X160952413Y-102059987D01*
X160952414Y-102059988D01*
X160981081Y-102124914D01*
X160990152Y-102194192D01*
X160981081Y-102225084D01*
X160952415Y-102290006D01*
X160952415Y-102290008D01*
X160949500Y-102315131D01*
X160949500Y-103304856D01*
X160949502Y-103304882D01*
X160952413Y-103329987D01*
X160952414Y-103329988D01*
X160952414Y-103329990D01*
X160952415Y-103329991D01*
X160959592Y-103346246D01*
X160981081Y-103394914D01*
X160990152Y-103464192D01*
X160981081Y-103495084D01*
X160952415Y-103560006D01*
X160952415Y-103560008D01*
X160949500Y-103585131D01*
X160949500Y-104574856D01*
X160949502Y-104574882D01*
X160952413Y-104599987D01*
X160952414Y-104599988D01*
X160981081Y-104664914D01*
X160990152Y-104734192D01*
X160981081Y-104765084D01*
X160952415Y-104830006D01*
X160952415Y-104830008D01*
X160949500Y-104855131D01*
X160949500Y-105844856D01*
X160949502Y-105844882D01*
X160952413Y-105869987D01*
X160952414Y-105869988D01*
X160981081Y-105934914D01*
X160990152Y-106004192D01*
X160981081Y-106035084D01*
X160952415Y-106100006D01*
X160952415Y-106100008D01*
X160949500Y-106125131D01*
X160949500Y-107114856D01*
X160949502Y-107114882D01*
X160952413Y-107139987D01*
X160952414Y-107139988D01*
X160981081Y-107204914D01*
X160990152Y-107274192D01*
X160981081Y-107305084D01*
X160952415Y-107370006D01*
X160952415Y-107370008D01*
X160949500Y-107395131D01*
X160949500Y-108384856D01*
X160949502Y-108384882D01*
X160952413Y-108409987D01*
X160952414Y-108409988D01*
X160952414Y-108409990D01*
X160952415Y-108409991D01*
X160965111Y-108438745D01*
X160981081Y-108474914D01*
X160990152Y-108544192D01*
X160981081Y-108575084D01*
X160952415Y-108640006D01*
X160952415Y-108640008D01*
X160951280Y-108649792D01*
X160923999Y-108714116D01*
X160866273Y-108753480D01*
X160828106Y-108759500D01*
X160683308Y-108759500D01*
X160616269Y-108739815D01*
X160570514Y-108687011D01*
X160567953Y-108680990D01*
X160565359Y-108674412D01*
X160565359Y-108674410D01*
X160512364Y-108540025D01*
X160512363Y-108540024D01*
X160512363Y-108540023D01*
X160425078Y-108424921D01*
X160309973Y-108337634D01*
X160279010Y-108325424D01*
X160223866Y-108282518D01*
X160200673Y-108216610D01*
X160200500Y-108210070D01*
X160200500Y-105262729D01*
X160200501Y-105262716D01*
X160200501Y-105147274D01*
X160196472Y-105132235D01*
X160173207Y-105045412D01*
X160132265Y-104974500D01*
X160132265Y-104974499D01*
X160132263Y-104974497D01*
X160120480Y-104954087D01*
X160120479Y-104954086D01*
X160120476Y-104954082D01*
X160041594Y-104875200D01*
X160041571Y-104875179D01*
X159400913Y-104234520D01*
X159386819Y-104220426D01*
X159353334Y-104159103D01*
X159350500Y-104132745D01*
X159350500Y-100161636D01*
X159370185Y-100094597D01*
X159422989Y-100048842D01*
X159492147Y-100038898D01*
X159555703Y-100067923D01*
G37*
%TD.AperFunction*%
%TA.AperFunction,Conductor*%
G36*
X167255334Y-98061954D02*
G01*
X167311267Y-98103826D01*
X167335684Y-98169290D01*
X167336000Y-98178136D01*
X167336000Y-98397864D01*
X167316315Y-98464903D01*
X167299681Y-98485545D01*
X163375545Y-102409681D01*
X163314222Y-102443166D01*
X163287864Y-102446000D01*
X163174499Y-102446000D01*
X163107460Y-102426315D01*
X163061705Y-102373511D01*
X163050499Y-102322000D01*
X163050499Y-102315143D01*
X163050499Y-102315136D01*
X163050497Y-102315117D01*
X163047586Y-102290012D01*
X163047585Y-102290010D01*
X163047585Y-102290009D01*
X163018919Y-102225086D01*
X163009847Y-102155808D01*
X163018919Y-102124913D01*
X163026934Y-102106762D01*
X163047585Y-102059991D01*
X163050500Y-102034865D01*
X163050499Y-101045136D01*
X163050497Y-101045117D01*
X163047586Y-101020012D01*
X163047585Y-101020010D01*
X163047585Y-101020009D01*
X163018919Y-100955086D01*
X163009847Y-100885808D01*
X163018919Y-100854913D01*
X163027708Y-100835009D01*
X163047585Y-100789991D01*
X163050500Y-100764865D01*
X163050499Y-99775136D01*
X163050497Y-99775117D01*
X163047586Y-99750012D01*
X163047585Y-99750010D01*
X163047585Y-99750009D01*
X163018919Y-99685086D01*
X163009847Y-99615808D01*
X163018919Y-99584913D01*
X163047584Y-99519993D01*
X163047585Y-99519991D01*
X163050500Y-99494865D01*
X163050500Y-99488000D01*
X163070185Y-99420961D01*
X163122989Y-99375206D01*
X163174500Y-99364000D01*
X165747919Y-99364000D01*
X165747922Y-99364000D01*
X165840499Y-99339194D01*
X165923501Y-99291273D01*
X167124319Y-98090455D01*
X167185642Y-98056970D01*
X167255334Y-98061954D01*
G37*
%TD.AperFunction*%
%TA.AperFunction,Conductor*%
G36*
X177521903Y-98440685D02*
G01*
X177542545Y-98457319D01*
X178376499Y-99291273D01*
X178376500Y-99291274D01*
X178376502Y-99291275D01*
X178387496Y-99297622D01*
X178435714Y-99348187D01*
X178449500Y-99405010D01*
X178449500Y-99494856D01*
X178449502Y-99494881D01*
X178452414Y-99519988D01*
X178481081Y-99584914D01*
X178490152Y-99654192D01*
X178481081Y-99685084D01*
X178452415Y-99750006D01*
X178452415Y-99750008D01*
X178449500Y-99775131D01*
X178449500Y-99782000D01*
X178429815Y-99849039D01*
X178377011Y-99894794D01*
X178325500Y-99906000D01*
X173672136Y-99906000D01*
X173605097Y-99886315D01*
X173584455Y-99869681D01*
X173566874Y-99852100D01*
X173533389Y-99790777D01*
X173538373Y-99721085D01*
X173579067Y-99666045D01*
X173628282Y-99628282D01*
X173724536Y-99502841D01*
X173785044Y-99356762D01*
X173805682Y-99200000D01*
X173803087Y-99180293D01*
X173813851Y-99111261D01*
X173838342Y-99076430D01*
X174457455Y-98457319D01*
X174518778Y-98423834D01*
X174545136Y-98421000D01*
X177454864Y-98421000D01*
X177521903Y-98440685D01*
G37*
%TD.AperFunction*%
%TA.AperFunction,Conductor*%
G36*
X171000896Y-87010685D02*
G01*
X171046651Y-87063489D01*
X171056595Y-87132647D01*
X171048418Y-87162452D01*
X171014957Y-87243234D01*
X171014955Y-87243239D01*
X170994318Y-87399998D01*
X170994318Y-87400001D01*
X171014955Y-87556760D01*
X171014956Y-87556762D01*
X171075464Y-87702841D01*
X171171718Y-87828282D01*
X171297159Y-87924536D01*
X171443238Y-87985044D01*
X171600000Y-88005682D01*
X171616973Y-88003447D01*
X171686008Y-88014212D01*
X171720841Y-88038705D01*
X172602616Y-88920480D01*
X172693941Y-88973207D01*
X172795802Y-89000500D01*
X172795804Y-89000500D01*
X176652726Y-89000500D01*
X176652727Y-89000500D01*
X176664449Y-88997358D01*
X176712730Y-88994192D01*
X176800000Y-89005682D01*
X176800002Y-89005681D01*
X176803514Y-89006144D01*
X176867410Y-89034411D01*
X176875009Y-89041402D01*
X176879519Y-89045912D01*
X176879520Y-89045913D01*
X177120981Y-89287374D01*
X177292592Y-89458984D01*
X177326077Y-89520307D01*
X177321093Y-89589998D01*
X177303290Y-89622148D01*
X177286206Y-89644413D01*
X177225698Y-89790492D01*
X177225698Y-89790493D01*
X177204597Y-89950768D01*
X177176330Y-90014664D01*
X177169339Y-90022263D01*
X176629522Y-90562081D01*
X176629520Y-90562084D01*
X176576793Y-90653408D01*
X176576793Y-90653409D01*
X176571488Y-90673207D01*
X176571488Y-90673208D01*
X176571487Y-90673207D01*
X176549500Y-90755268D01*
X176549500Y-91882744D01*
X176529815Y-91949783D01*
X176513181Y-91970425D01*
X175015518Y-93468087D01*
X174954195Y-93501572D01*
X174884503Y-93496588D01*
X174848941Y-93473733D01*
X174848229Y-93474661D01*
X174841783Y-93469715D01*
X174841782Y-93469713D01*
X174716341Y-93373459D01*
X174714460Y-93372680D01*
X174570262Y-93312951D01*
X174570260Y-93312950D01*
X174413501Y-93292313D01*
X174413499Y-93292313D01*
X174256739Y-93312950D01*
X174256737Y-93312951D01*
X174110660Y-93373458D01*
X173985218Y-93469713D01*
X173888962Y-93595156D01*
X173862331Y-93659452D01*
X173818491Y-93713856D01*
X173752196Y-93735921D01*
X173747770Y-93736000D01*
X173242548Y-93736000D01*
X173175509Y-93716315D01*
X173129754Y-93663511D01*
X173119810Y-93594353D01*
X173148835Y-93530797D01*
X173167057Y-93513627D01*
X173278282Y-93428282D01*
X173374536Y-93302841D01*
X173435044Y-93156762D01*
X173455682Y-93000000D01*
X173435044Y-92843238D01*
X173374536Y-92697159D01*
X173278282Y-92571718D01*
X173152841Y-92475464D01*
X173143901Y-92471761D01*
X173006762Y-92414956D01*
X173006760Y-92414955D01*
X172850001Y-92394318D01*
X172849999Y-92394318D01*
X172693239Y-92414955D01*
X172693237Y-92414956D01*
X172547160Y-92475463D01*
X172421718Y-92571718D01*
X172325463Y-92697160D01*
X172264956Y-92843237D01*
X172264955Y-92843239D01*
X172244318Y-92999998D01*
X172244318Y-93000001D01*
X172264955Y-93156760D01*
X172264957Y-93156765D01*
X172281139Y-93195832D01*
X172288608Y-93265301D01*
X172257333Y-93327780D01*
X172254260Y-93330964D01*
X172212545Y-93372680D01*
X172151223Y-93406166D01*
X172124863Y-93409000D01*
X169466630Y-93409000D01*
X169374053Y-93433806D01*
X169374051Y-93433807D01*
X169374050Y-93433807D01*
X169314676Y-93468087D01*
X169311860Y-93469713D01*
X169305677Y-93473282D01*
X169291051Y-93481726D01*
X167081728Y-95691049D01*
X167081724Y-95691054D01*
X167033807Y-95774050D01*
X167033807Y-95774051D01*
X167033806Y-95774053D01*
X167009000Y-95866630D01*
X167009000Y-95866632D01*
X167009000Y-97124864D01*
X166989315Y-97191903D01*
X166972681Y-97212545D01*
X165585545Y-98599681D01*
X165524222Y-98633166D01*
X165497864Y-98636000D01*
X163174499Y-98636000D01*
X163107460Y-98616315D01*
X163061705Y-98563511D01*
X163050499Y-98512000D01*
X163050499Y-98505143D01*
X163050499Y-98505136D01*
X163049741Y-98498596D01*
X163047586Y-98480012D01*
X163047585Y-98480010D01*
X163047585Y-98480009D01*
X163026686Y-98432677D01*
X163018919Y-98415086D01*
X163009847Y-98345808D01*
X163018919Y-98314913D01*
X163023044Y-98305572D01*
X163047585Y-98249991D01*
X163050500Y-98224865D01*
X163050499Y-98120789D01*
X163070183Y-98053752D01*
X163094765Y-98027031D01*
X163094754Y-98027020D01*
X163095037Y-98026736D01*
X163099017Y-98022411D01*
X163100493Y-98021277D01*
X163100501Y-98021273D01*
X163491273Y-97630501D01*
X163539194Y-97547499D01*
X163564000Y-97454922D01*
X163564000Y-97359078D01*
X163564000Y-96801584D01*
X163583685Y-96734545D01*
X163600319Y-96713903D01*
X166333889Y-93980333D01*
X169068273Y-91245949D01*
X169116194Y-91162947D01*
X169141000Y-91070370D01*
X169141000Y-90974526D01*
X169141000Y-90855266D01*
X174173285Y-90855266D01*
X174332056Y-90910824D01*
X174499996Y-90929746D01*
X174500004Y-90929746D01*
X174667943Y-90910824D01*
X174826713Y-90855267D01*
X174826714Y-90855266D01*
X175173285Y-90855266D01*
X175332056Y-90910824D01*
X175499996Y-90929746D01*
X175500004Y-90929746D01*
X175667943Y-90910824D01*
X175826713Y-90855267D01*
X175826714Y-90855266D01*
X175500001Y-90528553D01*
X175500000Y-90528553D01*
X175173285Y-90855266D01*
X174826714Y-90855266D01*
X174500001Y-90528553D01*
X174500000Y-90528553D01*
X174173285Y-90855266D01*
X169141000Y-90855266D01*
X169141000Y-90174996D01*
X173745254Y-90174996D01*
X173745254Y-90175003D01*
X173764175Y-90342938D01*
X173764176Y-90342943D01*
X173819732Y-90501714D01*
X174146447Y-90175000D01*
X174116610Y-90145163D01*
X174350000Y-90145163D01*
X174350000Y-90204837D01*
X174372836Y-90259968D01*
X174415032Y-90302164D01*
X174470163Y-90325000D01*
X174529837Y-90325000D01*
X174584968Y-90302164D01*
X174627164Y-90259968D01*
X174650000Y-90204837D01*
X174650000Y-90175000D01*
X174853553Y-90175000D01*
X175000000Y-90321447D01*
X175146447Y-90175000D01*
X175116610Y-90145163D01*
X175350000Y-90145163D01*
X175350000Y-90204837D01*
X175372836Y-90259968D01*
X175415032Y-90302164D01*
X175470163Y-90325000D01*
X175529837Y-90325000D01*
X175584968Y-90302164D01*
X175627164Y-90259968D01*
X175650000Y-90204837D01*
X175650000Y-90174999D01*
X175853553Y-90174999D01*
X175853553Y-90175001D01*
X176180266Y-90501714D01*
X176180267Y-90501713D01*
X176235824Y-90342943D01*
X176254746Y-90175003D01*
X176254746Y-90174996D01*
X176235824Y-90007056D01*
X176180266Y-89848285D01*
X175853553Y-90174999D01*
X175650000Y-90174999D01*
X175650000Y-90145163D01*
X175627164Y-90090032D01*
X175584968Y-90047836D01*
X175529837Y-90025000D01*
X175470163Y-90025000D01*
X175415032Y-90047836D01*
X175372836Y-90090032D01*
X175350000Y-90145163D01*
X175116610Y-90145163D01*
X175000000Y-90028553D01*
X174853553Y-90175000D01*
X174650000Y-90175000D01*
X174650000Y-90145163D01*
X174627164Y-90090032D01*
X174584968Y-90047836D01*
X174529837Y-90025000D01*
X174470163Y-90025000D01*
X174415032Y-90047836D01*
X174372836Y-90090032D01*
X174350000Y-90145163D01*
X174116610Y-90145163D01*
X173819732Y-89848285D01*
X173764176Y-90007053D01*
X173764175Y-90007058D01*
X173745254Y-90174996D01*
X169141000Y-90174996D01*
X169141000Y-89494732D01*
X174173285Y-89494732D01*
X174500000Y-89821447D01*
X174500001Y-89821447D01*
X174826714Y-89494732D01*
X175173285Y-89494732D01*
X175500000Y-89821447D01*
X175500001Y-89821447D01*
X175826714Y-89494732D01*
X175667943Y-89439176D01*
X175667938Y-89439175D01*
X175500004Y-89420254D01*
X175499996Y-89420254D01*
X175332058Y-89439175D01*
X175332053Y-89439176D01*
X175173285Y-89494732D01*
X174826714Y-89494732D01*
X174667943Y-89439176D01*
X174667938Y-89439175D01*
X174500004Y-89420254D01*
X174499996Y-89420254D01*
X174332058Y-89439175D01*
X174332053Y-89439176D01*
X174173285Y-89494732D01*
X169141000Y-89494732D01*
X169141000Y-87687584D01*
X169160685Y-87620545D01*
X169177319Y-87599903D01*
X169749903Y-87027319D01*
X169811226Y-86993834D01*
X169837584Y-86991000D01*
X170933857Y-86991000D01*
X171000896Y-87010685D01*
G37*
%TD.AperFunction*%
%TA.AperFunction,Conductor*%
G36*
X178392540Y-95573685D02*
G01*
X178438295Y-95626489D01*
X178449501Y-95678000D01*
X178449501Y-95684856D01*
X178449502Y-95684882D01*
X178452413Y-95709987D01*
X178452414Y-95709988D01*
X178452414Y-95709990D01*
X178452415Y-95709991D01*
X178456303Y-95718796D01*
X178481081Y-95774914D01*
X178490152Y-95844192D01*
X178481081Y-95875084D01*
X178452415Y-95940006D01*
X178452415Y-95940008D01*
X178449500Y-95965131D01*
X178449500Y-95972000D01*
X178429815Y-96039039D01*
X178377011Y-96084794D01*
X178325500Y-96096000D01*
X177118136Y-96096000D01*
X177051097Y-96076315D01*
X177005342Y-96023511D01*
X176995398Y-95954353D01*
X177024423Y-95890797D01*
X177030455Y-95884319D01*
X177324455Y-95590319D01*
X177385778Y-95556834D01*
X177412136Y-95554000D01*
X178325501Y-95554000D01*
X178392540Y-95573685D01*
G37*
%TD.AperFunction*%
%TD*%
M02*
