M48
; DRILL file {KiCad 8.0.6-8.0.6-0~ubuntu22.04.1} date 2024-10-27T10:41:59+0100
; FORMAT={-:-/ absolute / inch / decimal}
; #@! TF.CreationDate,2024-10-27T10:41:59+01:00
; #@! TF.GenerationSoftware,Kicad,Pcbnew,8.0.6-8.0.6-0~ubuntu22.04.1
; #@! TF.FileFunction,Plated,1,2,PTH
FMAT,2
INCH
; #@! TA.AperFunction,Plated,PTH,ViaDrill
T1C0.0118
; #@! TA.AperFunction,Plated,PTH,ComponentDrill
T2C0.0118
; #@! TA.AperFunction,Plated,PTH,ComponentDrill
T3C0.0197
; #@! TA.AperFunction,Plated,PTH,ComponentDrill
T4C0.0276
; #@! TA.AperFunction,Plated,PTH,ComponentDrill
T5C0.0315
; #@! TA.AperFunction,Plated,PTH,ComponentDrill
T6C0.0433
%
G90
G05
T1
X5.7756Y-4.378
X5.8622Y-3.9685
X5.9642Y-4.1506
X6.0472Y-4.1575
X6.0547Y-4.0748
X6.1102Y-4.0748
X6.1142Y-3.9882
X6.1142Y-4.0315
X6.1142Y-4.248
X6.1142Y-4.2913
X6.19Y-4.2886
X6.2047Y-4.063
X6.2087Y-4.1614
X6.2126Y-4.2441
X6.2146Y-4.0236
X6.2165Y-3.9882
X6.2362Y-3.8563
X6.2815Y-3.8701
X6.315Y-3.8701
X6.315Y-4.0866
X6.3346Y-3.4429
X6.3346Y-3.5118
X6.3346Y-3.5748
X6.3996Y-3.4016
X6.435Y-4.2047
X6.4528Y-3.9783
X6.4528Y-4.1673
X6.498Y-3.937
X6.5128Y-3.3999
X6.5157Y-3.5433
X6.5807Y-3.4173
X6.5906Y-3.5433
X6.687Y-3.7888
X6.6929Y-3.1496
X6.6929Y-3.2283
X6.6929Y-3.3071
X6.6929Y-3.374
X6.6929Y-3.4882
X6.7126Y-3.7667
X6.7559Y-3.4409
X6.7717Y-3.1496
X6.7717Y-3.2283
X6.7717Y-3.3071
X6.7717Y-3.374
X6.7717Y-3.4882
X6.8051Y-3.6614
X6.8189Y-3.811
X6.8189Y-3.8425
X6.8189Y-3.874
X6.8189Y-3.9055
X6.8336Y-3.7269
X6.8667Y-3.6968
X6.8799Y-3.9075
X6.8917Y-3.7382
X6.8996Y-3.7776
X6.9331Y-3.9075
X6.9606Y-3.4803
X6.9758Y-3.6634
X6.9823Y-3.7224
X6.9961Y-3.7736
X6.9961Y-4.1949
X7.0004Y-3.5412
X7.0335Y-4.1949
X7.1024Y-3.7008
X7.152Y-3.6417
X7.1555Y-4.3425
X7.1693Y-3.5551
X7.2165Y-4.2185
X7.2343Y-4.3425
X7.2835Y-4.2185
X7.3248Y-4.3425
X7.3898Y-4.3425
X7.9508Y-3.7244
X7.9547Y-4.0138
X8.0256Y-4.0098
X8.1152Y-4.0098
X8.2047Y-4.0098
X8.2205Y-3.7441
X8.3858Y-4.2657
X8.4409Y-3.75
X8.4626Y-3.9685
X8.5157Y-4.0827
X9.1378Y-3.063
X9.1437Y-2.9862
T2
X6.8701Y-3.5502
X6.9094Y-3.5502
T4
X6.8898Y-2.9921
T5
X6.2913Y-3.189
X6.3913Y-3.189
X6.4913Y-3.189
X6.5913Y-3.189
X7.1457Y-3.7953
X7.1457Y-3.8953
T6
X7.2979Y-3.6184
X7.2979Y-4.1184
T3
G00X5.5709Y-3.3465
M15
G01X5.5984Y-3.3465
M16
G05
G00X5.5709Y-3.6063
M15
G01X5.5984Y-3.6063
M16
G05
M30
