%TF.GenerationSoftware,KiCad,Pcbnew,8.0.6-8.0.6-0~ubuntu22.04.1*%
%TF.CreationDate,2024-10-27T10:41:46+01:00*%
%TF.ProjectId,hackbat,6861636b-6261-4742-9e6b-696361645f70,rev?*%
%TF.SameCoordinates,Original*%
%TF.FileFunction,Soldermask,Bot*%
%TF.FilePolarity,Negative*%
%FSLAX46Y46*%
G04 Gerber Fmt 4.6, Leading zero omitted, Abs format (unit mm)*
G04 Created by KiCad (PCBNEW 8.0.6-8.0.6-0~ubuntu22.04.1) date 2024-10-27 10:41:46*
%MOMM*%
%LPD*%
G01*
G04 APERTURE LIST*
G04 Aperture macros list*
%AMRoundRect*
0 Rectangle with rounded corners*
0 $1 Rounding radius*
0 $2 $3 $4 $5 $6 $7 $8 $9 X,Y pos of 4 corners*
0 Add a 4 corners polygon primitive as box body*
4,1,4,$2,$3,$4,$5,$6,$7,$8,$9,$2,$3,0*
0 Add four circle primitives for the rounded corners*
1,1,$1+$1,$2,$3*
1,1,$1+$1,$4,$5*
1,1,$1+$1,$6,$7*
1,1,$1+$1,$8,$9*
0 Add four rect primitives between the rounded corners*
20,1,$1+$1,$2,$3,$4,$5,0*
20,1,$1+$1,$4,$5,$6,$7,0*
20,1,$1+$1,$6,$7,$8,$9,0*
20,1,$1+$1,$8,$9,$2,$3,0*%
G04 Aperture macros list end*
%ADD10C,1.400000*%
%ADD11RoundRect,0.375000X0.375000X-1.125000X0.375000X1.125000X-0.375000X1.125000X-0.375000X-1.125000X0*%
%ADD12R,1.500000X5.080000*%
%ADD13R,1.500000X1.500000*%
%ADD14C,0.900000*%
%ADD15RoundRect,0.200000X-0.200000X-0.275000X0.200000X-0.275000X0.200000X0.275000X-0.200000X0.275000X0*%
%ADD16RoundRect,0.100000X0.575000X-0.100000X0.575000X0.100000X-0.575000X0.100000X-0.575000X-0.100000X0*%
%ADD17O,1.600000X0.900000*%
%ADD18RoundRect,0.250000X0.450000X-0.550000X0.450000X0.550000X-0.450000X0.550000X-0.450000X-0.550000X0*%
%ADD19RoundRect,0.250000X0.700000X-0.700000X0.700000X0.700000X-0.700000X0.700000X-0.700000X-0.700000X0*%
%ADD20R,3.000000X3.000000*%
%ADD21C,3.000000*%
%ADD22R,1.500000X0.900000*%
%ADD23R,0.800000X0.800000*%
%ADD24RoundRect,0.200000X0.275000X-0.200000X0.275000X0.200000X-0.275000X0.200000X-0.275000X-0.200000X0*%
%ADD25R,1.900000X1.300000*%
%ADD26R,1.200000X1.000000*%
%ADD27R,2.800000X1.000000*%
%ADD28R,0.800000X1.000000*%
%ADD29R,1.200000X0.700000*%
%ADD30RoundRect,0.225000X0.250000X-0.225000X0.250000X0.225000X-0.250000X0.225000X-0.250000X-0.225000X0*%
G04 APERTURE END LIST*
D10*
%TO.C,BOOT*%
X181500000Y-98940000D03*
X181500000Y-96400000D03*
%TD*%
D11*
%TO.C,U3*%
X159800000Y-81000000D03*
X162340000Y-81000000D03*
X164880000Y-81000000D03*
X167420000Y-81000000D03*
%TD*%
D12*
%TO.C,J2*%
X170750000Y-75362500D03*
X179250000Y-75362500D03*
%TD*%
D13*
%TO.C,AE1*%
X175000000Y-76000000D03*
%TD*%
D14*
%TO.C,SW6*%
X189600000Y-111000000D03*
X196400000Y-111000000D03*
%TD*%
D15*
%TO.C,R1*%
X157175000Y-93400000D03*
X158825000Y-93400000D03*
%TD*%
%TO.C,R2*%
X157175000Y-95000000D03*
X158825000Y-95000000D03*
%TD*%
D16*
%TO.C,J1*%
X144525000Y-89600000D03*
X144525000Y-88950000D03*
X144525000Y-88300000D03*
X144525000Y-87650000D03*
X144525000Y-87000000D03*
D17*
X141850000Y-91600000D03*
D18*
X144300000Y-91500000D03*
D19*
X141850000Y-89500000D03*
X141850000Y-87100000D03*
D18*
X144300000Y-85100000D03*
D17*
X141850000Y-85000000D03*
%TD*%
D20*
%TO.C,BT1*%
X185367500Y-104607500D03*
D21*
X185367500Y-91907500D03*
%TD*%
D22*
%TO.C,U5*%
X162000000Y-110430000D03*
X162000000Y-109160000D03*
X162000000Y-107890000D03*
X162000000Y-106620000D03*
X162000000Y-105350000D03*
X162000000Y-104080000D03*
X162000000Y-102810000D03*
X162000000Y-101540000D03*
X162000000Y-100270000D03*
X162000000Y-99000000D03*
X162000000Y-97730000D03*
X162000000Y-96460000D03*
X162000000Y-95190000D03*
X162000000Y-93920000D03*
X179500000Y-93920000D03*
X179500000Y-95190000D03*
X179500000Y-96460000D03*
X179500000Y-97730000D03*
X179500000Y-99000000D03*
X179500000Y-100270000D03*
X179500000Y-101540000D03*
X179500000Y-102810000D03*
X179500000Y-104080000D03*
X179500000Y-105350000D03*
X179500000Y-106620000D03*
X179500000Y-107890000D03*
X179500000Y-109160000D03*
X179500000Y-110430000D03*
D23*
X167995000Y-103460000D03*
X167995000Y-104710000D03*
X167995000Y-105960000D03*
X169245000Y-103460000D03*
X169245000Y-104710000D03*
X169245000Y-105960000D03*
X170495000Y-103460000D03*
X170495000Y-104710000D03*
X170495000Y-105960000D03*
%TD*%
D24*
%TO.C,R19*%
X158200000Y-110625000D03*
X158200000Y-108975000D03*
%TD*%
D25*
%TO.C,J3*%
X141090000Y-97355000D03*
D26*
X156190000Y-99705000D03*
X151890000Y-110855000D03*
D27*
X141540000Y-110855000D03*
D28*
X145690000Y-110855000D03*
D29*
X156190000Y-109905000D03*
X156190000Y-108955000D03*
X156190000Y-107855000D03*
X156190000Y-106755000D03*
X156190000Y-105655000D03*
X156190000Y-104555000D03*
X156190000Y-103455000D03*
X156190000Y-102355000D03*
X156190000Y-101255000D03*
%TD*%
D30*
%TO.C,C1*%
X159800000Y-110575000D03*
X159800000Y-109025000D03*
%TD*%
%TO.C,C2*%
X147000000Y-91375000D03*
X147000000Y-89825000D03*
%TD*%
M02*
