%TF.GenerationSoftware,KiCad,Pcbnew,8.0.6-8.0.6-0~ubuntu22.04.1*%
%TF.CreationDate,2024-10-27T10:41:58+01:00*%
%TF.ProjectId,hackbat,6861636b-6261-4742-9e6b-696361645f70,rev?*%
%TF.SameCoordinates,Original*%
%TF.FileFunction,Drillmap*%
%TF.FilePolarity,Positive*%
%FSLAX45Y45*%
G04 Gerber Fmt 4.5, Leading zero omitted, Abs format (unit mm)*
G04 Created by KiCad (PCBNEW 8.0.6-8.0.6-0~ubuntu22.04.1) date 2024-10-27 10:41:58*
%MOMM*%
%LPD*%
G01*
G04 APERTURE LIST*
%ADD10C,0.050000*%
%ADD11C,0.200000*%
%ADD12C,0.100000*%
%ADD13C,0.110000*%
G04 APERTURE END LIST*
D10*
X23995000Y-7300000D02*
X16900000Y-7300000D01*
X14000000Y-11300000D02*
X23595000Y-11300000D01*
X16900000Y-7300000D02*
X16900000Y-7900000D01*
X23995000Y-10900000D02*
G75*
G02*
X23595000Y-11300000I-400000J0D01*
G01*
X23995000Y-10900000D02*
X23995000Y-7300000D01*
X14000000Y-7900000D02*
X14000000Y-11300000D01*
X16900000Y-7900000D02*
X14000000Y-7900000D01*
D11*
D12*
X14655000Y-11105000D02*
X14685000Y-11135000D01*
X14685000Y-11105000D02*
X14655000Y-11135000D01*
X14875000Y-10065000D02*
X14905000Y-10095000D01*
X14905000Y-10065000D02*
X14875000Y-10095000D01*
X15134000Y-10527500D02*
X15164000Y-10557500D01*
X15164000Y-10527500D02*
X15134000Y-10557500D01*
X15345000Y-10545000D02*
X15375000Y-10575000D01*
X15375000Y-10545000D02*
X15345000Y-10575000D01*
X15364000Y-10335000D02*
X15394000Y-10365000D01*
X15394000Y-10335000D02*
X15364000Y-10365000D01*
X15505000Y-10335000D02*
X15535000Y-10365000D01*
X15535000Y-10335000D02*
X15505000Y-10365000D01*
X15515000Y-10115000D02*
X15545000Y-10145000D01*
X15545000Y-10115000D02*
X15515000Y-10145000D01*
X15515000Y-10225000D02*
X15545000Y-10255000D01*
X15545000Y-10225000D02*
X15515000Y-10255000D01*
X15515000Y-10775000D02*
X15545000Y-10805000D01*
X15545000Y-10775000D02*
X15515000Y-10805000D01*
X15515000Y-10885000D02*
X15545000Y-10915000D01*
X15545000Y-10885000D02*
X15515000Y-10915000D01*
X15707500Y-10877986D02*
X15737500Y-10907986D01*
X15737500Y-10877986D02*
X15707500Y-10907986D01*
X15745000Y-10305000D02*
X15775000Y-10335000D01*
X15775000Y-10305000D02*
X15745000Y-10335000D01*
X15755000Y-10555000D02*
X15785000Y-10585000D01*
X15785000Y-10555000D02*
X15755000Y-10585000D01*
X15765000Y-10765000D02*
X15795000Y-10795000D01*
X15795000Y-10765000D02*
X15765000Y-10795000D01*
X15770000Y-10205000D02*
X15800000Y-10235000D01*
X15800000Y-10205000D02*
X15770000Y-10235000D01*
X15775000Y-10115000D02*
X15805000Y-10145000D01*
X15805000Y-10115000D02*
X15775000Y-10145000D01*
X15825000Y-9780000D02*
X15855000Y-9810000D01*
X15855000Y-9780000D02*
X15825000Y-9810000D01*
X15940000Y-9815000D02*
X15970000Y-9845000D01*
X15970000Y-9815000D02*
X15940000Y-9845000D01*
X16025000Y-9815000D02*
X16055000Y-9845000D01*
X16055000Y-9815000D02*
X16025000Y-9845000D01*
X16025000Y-10365000D02*
X16055000Y-10395000D01*
X16055000Y-10365000D02*
X16025000Y-10395000D01*
X16075000Y-8730000D02*
X16105000Y-8760000D01*
X16105000Y-8730000D02*
X16075000Y-8760000D01*
X16075000Y-8905000D02*
X16105000Y-8935000D01*
X16105000Y-8905000D02*
X16075000Y-8935000D01*
X16075000Y-9065000D02*
X16105000Y-9095000D01*
X16105000Y-9065000D02*
X16075000Y-9095000D01*
X16240000Y-8625000D02*
X16270000Y-8655000D01*
X16270000Y-8625000D02*
X16240000Y-8655000D01*
X16330000Y-10665000D02*
X16360000Y-10695000D01*
X16360000Y-10665000D02*
X16330000Y-10695000D01*
X16375000Y-10090000D02*
X16405000Y-10120000D01*
X16405000Y-10090000D02*
X16375000Y-10120000D01*
X16375000Y-10570000D02*
X16405000Y-10600000D01*
X16405000Y-10570000D02*
X16375000Y-10600000D01*
X16490000Y-9985000D02*
X16520000Y-10015000D01*
X16520000Y-9985000D02*
X16490000Y-10015000D01*
X16527500Y-8620861D02*
X16557500Y-8650861D01*
X16557500Y-8620861D02*
X16527500Y-8650861D01*
X16535000Y-8985000D02*
X16565000Y-9015000D01*
X16565000Y-8985000D02*
X16535000Y-9015000D01*
X16700000Y-8665000D02*
X16730000Y-8695000D01*
X16730000Y-8665000D02*
X16700000Y-8695000D01*
X16725000Y-8985000D02*
X16755000Y-9015000D01*
X16755000Y-8985000D02*
X16725000Y-9015000D01*
X16970000Y-9608650D02*
X17000000Y-9638650D01*
X17000000Y-9608650D02*
X16970000Y-9638650D01*
X16985000Y-7985000D02*
X17015000Y-8015000D01*
X17015000Y-7985000D02*
X16985000Y-8015000D01*
X16985000Y-8185000D02*
X17015000Y-8215000D01*
X17015000Y-8185000D02*
X16985000Y-8215000D01*
X16985000Y-8385000D02*
X17015000Y-8415000D01*
X17015000Y-8385000D02*
X16985000Y-8415000D01*
X16985000Y-8555000D02*
X17015000Y-8585000D01*
X17015000Y-8555000D02*
X16985000Y-8585000D01*
X16985000Y-8845000D02*
X17015000Y-8875000D01*
X17015000Y-8845000D02*
X16985000Y-8875000D01*
X17035000Y-9552300D02*
X17065000Y-9582300D01*
X17065000Y-9552300D02*
X17035000Y-9582300D01*
X17145000Y-8725000D02*
X17175000Y-8755000D01*
X17175000Y-8725000D02*
X17145000Y-8755000D01*
X17185000Y-7985000D02*
X17215000Y-8015000D01*
X17215000Y-7985000D02*
X17185000Y-8015000D01*
X17185000Y-8185000D02*
X17215000Y-8215000D01*
X17215000Y-8185000D02*
X17185000Y-8215000D01*
X17185000Y-8385000D02*
X17215000Y-8415000D01*
X17215000Y-8385000D02*
X17185000Y-8415000D01*
X17185000Y-8555000D02*
X17215000Y-8585000D01*
X17215000Y-8555000D02*
X17185000Y-8585000D01*
X17185000Y-8845000D02*
X17215000Y-8875000D01*
X17215000Y-8845000D02*
X17185000Y-8875000D01*
X17270000Y-9285000D02*
X17300000Y-9315000D01*
X17300000Y-9285000D02*
X17270000Y-9315000D01*
X17305000Y-9665000D02*
X17335000Y-9695000D01*
X17335000Y-9665000D02*
X17305000Y-9695000D01*
X17305000Y-9745000D02*
X17335000Y-9775000D01*
X17335000Y-9745000D02*
X17305000Y-9775000D01*
X17305000Y-9825000D02*
X17335000Y-9855000D01*
X17335000Y-9825000D02*
X17305000Y-9855000D01*
X17305000Y-9905000D02*
X17335000Y-9935000D01*
X17335000Y-9905000D02*
X17305000Y-9935000D01*
X17342238Y-9451350D02*
X17372238Y-9481350D01*
X17372238Y-9451350D02*
X17342238Y-9481350D01*
X17426350Y-9374800D02*
X17456350Y-9404800D01*
X17456350Y-9374800D02*
X17426350Y-9404800D01*
X17460000Y-9910000D02*
X17490000Y-9940000D01*
X17490000Y-9910000D02*
X17460000Y-9940000D01*
X17490000Y-9480000D02*
X17520000Y-9510000D01*
X17520000Y-9480000D02*
X17490000Y-9510000D01*
X17510000Y-9580000D02*
X17540000Y-9610000D01*
X17540000Y-9580000D02*
X17510000Y-9610000D01*
X17595000Y-9910000D02*
X17625000Y-9940000D01*
X17625000Y-9910000D02*
X17595000Y-9940000D01*
X17665000Y-8825000D02*
X17695000Y-8855000D01*
X17695000Y-8825000D02*
X17665000Y-8855000D01*
X17703650Y-9290000D02*
X17733650Y-9320000D01*
X17733650Y-9290000D02*
X17703650Y-9320000D01*
X17720000Y-9440000D02*
X17750000Y-9470000D01*
X17750000Y-9440000D02*
X17720000Y-9470000D01*
X17755000Y-9570000D02*
X17785000Y-9600000D01*
X17785000Y-9570000D02*
X17755000Y-9600000D01*
X17755000Y-10640000D02*
X17785000Y-10670000D01*
X17785000Y-10640000D02*
X17755000Y-10670000D01*
X17766074Y-8979726D02*
X17796074Y-9009726D01*
X17796074Y-8979726D02*
X17766074Y-9009726D01*
X17850000Y-10640000D02*
X17880000Y-10670000D01*
X17880000Y-10640000D02*
X17850000Y-10670000D01*
X18025000Y-9385000D02*
X18055000Y-9415000D01*
X18055000Y-9385000D02*
X18025000Y-9415000D01*
X18151000Y-9235000D02*
X18181000Y-9265000D01*
X18181000Y-9235000D02*
X18151000Y-9265000D01*
X18160000Y-11015000D02*
X18190000Y-11045000D01*
X18190000Y-11015000D02*
X18160000Y-11045000D01*
X18195000Y-9015000D02*
X18225000Y-9045000D01*
X18225000Y-9015000D02*
X18195000Y-9045000D01*
X18315000Y-10700000D02*
X18345000Y-10730000D01*
X18345000Y-10700000D02*
X18315000Y-10730000D01*
X18360000Y-11015000D02*
X18390000Y-11045000D01*
X18390000Y-11015000D02*
X18360000Y-11045000D01*
X18485000Y-10700000D02*
X18515000Y-10730000D01*
X18515000Y-10700000D02*
X18485000Y-10730000D01*
X18590000Y-11015000D02*
X18620000Y-11045000D01*
X18620000Y-11015000D02*
X18590000Y-11045000D01*
X18755000Y-11015000D02*
X18785000Y-11045000D01*
X18785000Y-11015000D02*
X18755000Y-11045000D01*
X20180000Y-9445000D02*
X20210000Y-9475000D01*
X20210000Y-9445000D02*
X20180000Y-9475000D01*
X20190000Y-10180000D02*
X20220000Y-10210000D01*
X20220000Y-10180000D02*
X20190000Y-10210000D01*
X20370000Y-10170000D02*
X20400000Y-10200000D01*
X20400000Y-10170000D02*
X20370000Y-10200000D01*
X20597500Y-10170000D02*
X20627500Y-10200000D01*
X20627500Y-10170000D02*
X20597500Y-10200000D01*
X20825000Y-10170000D02*
X20855000Y-10200000D01*
X20855000Y-10170000D02*
X20825000Y-10200000D01*
X20865000Y-9495000D02*
X20895000Y-9525000D01*
X20895000Y-9495000D02*
X20865000Y-9525000D01*
X21285000Y-10820000D02*
X21315000Y-10850000D01*
X21315000Y-10820000D02*
X21285000Y-10850000D01*
X21425000Y-9510000D02*
X21455000Y-9540000D01*
X21455000Y-9510000D02*
X21425000Y-9540000D01*
X21480000Y-10065000D02*
X21510000Y-10095000D01*
X21510000Y-10065000D02*
X21480000Y-10095000D01*
X21615000Y-10355000D02*
X21645000Y-10385000D01*
X21645000Y-10355000D02*
X21615000Y-10385000D01*
X23195000Y-7765000D02*
X23225000Y-7795000D01*
X23225000Y-7765000D02*
X23195000Y-7795000D01*
X23210000Y-7570000D02*
X23240000Y-7600000D01*
X23240000Y-7570000D02*
X23210000Y-7600000D01*
X17465000Y-9017500D02*
G75*
G02*
X17435000Y-9017500I-15000J0D01*
G01*
X17435000Y-9017500D02*
G75*
G02*
X17465000Y-9017500I15000J0D01*
G01*
X17565000Y-9017500D02*
G75*
G02*
X17535000Y-9017500I-15000J0D01*
G01*
X17535000Y-9017500D02*
G75*
G02*
X17565000Y-9017500I15000J0D01*
G01*
X14185000Y-8475000D02*
X14185000Y-8525000D01*
X14160000Y-8500000D02*
X14210000Y-8500000D01*
X14150000Y-8525000D02*
X14220000Y-8525000D01*
X14220000Y-8475000D02*
G75*
G02*
X14220000Y-8525000I0J-25000D01*
G01*
X14220000Y-8475000D02*
X14150000Y-8475000D01*
X14150000Y-8475000D02*
G75*
G03*
X14150000Y-8525000I0J-25000D01*
G01*
X14185000Y-9135000D02*
X14185000Y-9185000D01*
X14160000Y-9160000D02*
X14210000Y-9160000D01*
X14150000Y-9185000D02*
X14220000Y-9185000D01*
X14220000Y-9135000D02*
G75*
G02*
X14220000Y-9185000I0J-25000D01*
G01*
X14220000Y-9135000D02*
X14150000Y-9135000D01*
X14150000Y-9135000D02*
G75*
G03*
X14150000Y-9185000I0J-25000D01*
G01*
X17524749Y-7624749D02*
X17524749Y-7575251D01*
X17475251Y-7575251D01*
X17475251Y-7624749D01*
X17524749Y-7624749D01*
X15980000Y-8140000D02*
X16020000Y-8100000D01*
X15980000Y-8060000D01*
X15940000Y-8100000D01*
X15980000Y-8140000D01*
X16234000Y-8140000D02*
X16274000Y-8100000D01*
X16234000Y-8060000D01*
X16194000Y-8100000D01*
X16234000Y-8140000D01*
X16488000Y-8140000D02*
X16528000Y-8100000D01*
X16488000Y-8060000D01*
X16448000Y-8100000D01*
X16488000Y-8140000D01*
X16742000Y-8140000D02*
X16782000Y-8100000D01*
X16742000Y-8060000D01*
X16702000Y-8100000D01*
X16742000Y-8140000D01*
X18150000Y-9680000D02*
X18190000Y-9640000D01*
X18150000Y-9600000D01*
X18110000Y-9640000D01*
X18150000Y-9680000D01*
X18150000Y-9934000D02*
X18190000Y-9894000D01*
X18150000Y-9854000D01*
X18110000Y-9894000D01*
X18150000Y-9934000D01*
D13*
X18481750Y-9135750D02*
X18591750Y-9245750D01*
X18591750Y-9135750D02*
X18481750Y-9245750D01*
X18591750Y-9190750D02*
G75*
G02*
X18481750Y-9190750I-55000J0D01*
G01*
X18481750Y-9190750D02*
G75*
G02*
X18591750Y-9190750I55000J0D01*
G01*
X18481750Y-10405750D02*
X18591750Y-10515750D01*
X18591750Y-10405750D02*
X18481750Y-10515750D01*
X18591750Y-10460750D02*
G75*
G02*
X18481750Y-10460750I-55000J0D01*
G01*
X18481750Y-10460750D02*
G75*
G02*
X18591750Y-10460750I55000J0D01*
G01*
D11*
X14258277Y-11613984D02*
X14258277Y-11413984D01*
X14258277Y-11413984D02*
X14305896Y-11413984D01*
X14305896Y-11413984D02*
X14334467Y-11423508D01*
X14334467Y-11423508D02*
X14353515Y-11442555D01*
X14353515Y-11442555D02*
X14363039Y-11461603D01*
X14363039Y-11461603D02*
X14372562Y-11499698D01*
X14372562Y-11499698D02*
X14372562Y-11528269D01*
X14372562Y-11528269D02*
X14363039Y-11566365D01*
X14363039Y-11566365D02*
X14353515Y-11585412D01*
X14353515Y-11585412D02*
X14334467Y-11604460D01*
X14334467Y-11604460D02*
X14305896Y-11613984D01*
X14305896Y-11613984D02*
X14258277Y-11613984D01*
X14458277Y-11613984D02*
X14458277Y-11480650D01*
X14458277Y-11518746D02*
X14467801Y-11499698D01*
X14467801Y-11499698D02*
X14477324Y-11490174D01*
X14477324Y-11490174D02*
X14496372Y-11480650D01*
X14496372Y-11480650D02*
X14515420Y-11480650D01*
X14582086Y-11613984D02*
X14582086Y-11480650D01*
X14582086Y-11413984D02*
X14572562Y-11423508D01*
X14572562Y-11423508D02*
X14582086Y-11433031D01*
X14582086Y-11433031D02*
X14591610Y-11423508D01*
X14591610Y-11423508D02*
X14582086Y-11413984D01*
X14582086Y-11413984D02*
X14582086Y-11433031D01*
X14705896Y-11613984D02*
X14686848Y-11604460D01*
X14686848Y-11604460D02*
X14677324Y-11585412D01*
X14677324Y-11585412D02*
X14677324Y-11413984D01*
X14810658Y-11613984D02*
X14791610Y-11604460D01*
X14791610Y-11604460D02*
X14782086Y-11585412D01*
X14782086Y-11585412D02*
X14782086Y-11413984D01*
X15039229Y-11613984D02*
X15039229Y-11413984D01*
X15039229Y-11413984D02*
X15105896Y-11556841D01*
X15105896Y-11556841D02*
X15172562Y-11413984D01*
X15172562Y-11413984D02*
X15172562Y-11613984D01*
X15353515Y-11613984D02*
X15353515Y-11509222D01*
X15353515Y-11509222D02*
X15343991Y-11490174D01*
X15343991Y-11490174D02*
X15324943Y-11480650D01*
X15324943Y-11480650D02*
X15286848Y-11480650D01*
X15286848Y-11480650D02*
X15267801Y-11490174D01*
X15353515Y-11604460D02*
X15334467Y-11613984D01*
X15334467Y-11613984D02*
X15286848Y-11613984D01*
X15286848Y-11613984D02*
X15267801Y-11604460D01*
X15267801Y-11604460D02*
X15258277Y-11585412D01*
X15258277Y-11585412D02*
X15258277Y-11566365D01*
X15258277Y-11566365D02*
X15267801Y-11547317D01*
X15267801Y-11547317D02*
X15286848Y-11537793D01*
X15286848Y-11537793D02*
X15334467Y-11537793D01*
X15334467Y-11537793D02*
X15353515Y-11528269D01*
X15448753Y-11480650D02*
X15448753Y-11680650D01*
X15448753Y-11490174D02*
X15467801Y-11480650D01*
X15467801Y-11480650D02*
X15505896Y-11480650D01*
X15505896Y-11480650D02*
X15524943Y-11490174D01*
X15524943Y-11490174D02*
X15534467Y-11499698D01*
X15534467Y-11499698D02*
X15543991Y-11518746D01*
X15543991Y-11518746D02*
X15543991Y-11575888D01*
X15543991Y-11575888D02*
X15534467Y-11594936D01*
X15534467Y-11594936D02*
X15524943Y-11604460D01*
X15524943Y-11604460D02*
X15505896Y-11613984D01*
X15505896Y-11613984D02*
X15467801Y-11613984D01*
X15467801Y-11613984D02*
X15448753Y-11604460D01*
X15629705Y-11594936D02*
X15639229Y-11604460D01*
X15639229Y-11604460D02*
X15629705Y-11613984D01*
X15629705Y-11613984D02*
X15620182Y-11604460D01*
X15620182Y-11604460D02*
X15629705Y-11594936D01*
X15629705Y-11594936D02*
X15629705Y-11613984D01*
X15629705Y-11490174D02*
X15639229Y-11499698D01*
X15639229Y-11499698D02*
X15629705Y-11509222D01*
X15629705Y-11509222D02*
X15620182Y-11499698D01*
X15620182Y-11499698D02*
X15629705Y-11490174D01*
X15629705Y-11490174D02*
X15629705Y-11509222D01*
D12*
X13967500Y-11927500D02*
X13997500Y-11957500D01*
X13997500Y-11927500D02*
X13967500Y-11957500D01*
D11*
X14296372Y-11833984D02*
X14315420Y-11833984D01*
X14315420Y-11833984D02*
X14334467Y-11843508D01*
X14334467Y-11843508D02*
X14343991Y-11853031D01*
X14343991Y-11853031D02*
X14353515Y-11872079D01*
X14353515Y-11872079D02*
X14363039Y-11910174D01*
X14363039Y-11910174D02*
X14363039Y-11957793D01*
X14363039Y-11957793D02*
X14353515Y-11995888D01*
X14353515Y-11995888D02*
X14343991Y-12014936D01*
X14343991Y-12014936D02*
X14334467Y-12024460D01*
X14334467Y-12024460D02*
X14315420Y-12033984D01*
X14315420Y-12033984D02*
X14296372Y-12033984D01*
X14296372Y-12033984D02*
X14277324Y-12024460D01*
X14277324Y-12024460D02*
X14267801Y-12014936D01*
X14267801Y-12014936D02*
X14258277Y-11995888D01*
X14258277Y-11995888D02*
X14248753Y-11957793D01*
X14248753Y-11957793D02*
X14248753Y-11910174D01*
X14248753Y-11910174D02*
X14258277Y-11872079D01*
X14258277Y-11872079D02*
X14267801Y-11853031D01*
X14267801Y-11853031D02*
X14277324Y-11843508D01*
X14277324Y-11843508D02*
X14296372Y-11833984D01*
X14448753Y-12014936D02*
X14458277Y-12024460D01*
X14458277Y-12024460D02*
X14448753Y-12033984D01*
X14448753Y-12033984D02*
X14439229Y-12024460D01*
X14439229Y-12024460D02*
X14448753Y-12014936D01*
X14448753Y-12014936D02*
X14448753Y-12033984D01*
X14524943Y-11833984D02*
X14648753Y-11833984D01*
X14648753Y-11833984D02*
X14582086Y-11910174D01*
X14582086Y-11910174D02*
X14610658Y-11910174D01*
X14610658Y-11910174D02*
X14629705Y-11919698D01*
X14629705Y-11919698D02*
X14639229Y-11929222D01*
X14639229Y-11929222D02*
X14648753Y-11948269D01*
X14648753Y-11948269D02*
X14648753Y-11995888D01*
X14648753Y-11995888D02*
X14639229Y-12014936D01*
X14639229Y-12014936D02*
X14629705Y-12024460D01*
X14629705Y-12024460D02*
X14610658Y-12033984D01*
X14610658Y-12033984D02*
X14553515Y-12033984D01*
X14553515Y-12033984D02*
X14534467Y-12024460D01*
X14534467Y-12024460D02*
X14524943Y-12014936D01*
X14772562Y-11833984D02*
X14791610Y-11833984D01*
X14791610Y-11833984D02*
X14810658Y-11843508D01*
X14810658Y-11843508D02*
X14820182Y-11853031D01*
X14820182Y-11853031D02*
X14829705Y-11872079D01*
X14829705Y-11872079D02*
X14839229Y-11910174D01*
X14839229Y-11910174D02*
X14839229Y-11957793D01*
X14839229Y-11957793D02*
X14829705Y-11995888D01*
X14829705Y-11995888D02*
X14820182Y-12014936D01*
X14820182Y-12014936D02*
X14810658Y-12024460D01*
X14810658Y-12024460D02*
X14791610Y-12033984D01*
X14791610Y-12033984D02*
X14772562Y-12033984D01*
X14772562Y-12033984D02*
X14753515Y-12024460D01*
X14753515Y-12024460D02*
X14743991Y-12014936D01*
X14743991Y-12014936D02*
X14734467Y-11995888D01*
X14734467Y-11995888D02*
X14724943Y-11957793D01*
X14724943Y-11957793D02*
X14724943Y-11910174D01*
X14724943Y-11910174D02*
X14734467Y-11872079D01*
X14734467Y-11872079D02*
X14743991Y-11853031D01*
X14743991Y-11853031D02*
X14753515Y-11843508D01*
X14753515Y-11843508D02*
X14772562Y-11833984D01*
X14963039Y-11833984D02*
X14982086Y-11833984D01*
X14982086Y-11833984D02*
X15001134Y-11843508D01*
X15001134Y-11843508D02*
X15010658Y-11853031D01*
X15010658Y-11853031D02*
X15020182Y-11872079D01*
X15020182Y-11872079D02*
X15029705Y-11910174D01*
X15029705Y-11910174D02*
X15029705Y-11957793D01*
X15029705Y-11957793D02*
X15020182Y-11995888D01*
X15020182Y-11995888D02*
X15010658Y-12014936D01*
X15010658Y-12014936D02*
X15001134Y-12024460D01*
X15001134Y-12024460D02*
X14982086Y-12033984D01*
X14982086Y-12033984D02*
X14963039Y-12033984D01*
X14963039Y-12033984D02*
X14943991Y-12024460D01*
X14943991Y-12024460D02*
X14934467Y-12014936D01*
X14934467Y-12014936D02*
X14924943Y-11995888D01*
X14924943Y-11995888D02*
X14915420Y-11957793D01*
X14915420Y-11957793D02*
X14915420Y-11910174D01*
X14915420Y-11910174D02*
X14924943Y-11872079D01*
X14924943Y-11872079D02*
X14934467Y-11853031D01*
X14934467Y-11853031D02*
X14943991Y-11843508D01*
X14943991Y-11843508D02*
X14963039Y-11833984D01*
X15115420Y-12033984D02*
X15115420Y-11900650D01*
X15115420Y-11919698D02*
X15124943Y-11910174D01*
X15124943Y-11910174D02*
X15143991Y-11900650D01*
X15143991Y-11900650D02*
X15172563Y-11900650D01*
X15172563Y-11900650D02*
X15191610Y-11910174D01*
X15191610Y-11910174D02*
X15201134Y-11929222D01*
X15201134Y-11929222D02*
X15201134Y-12033984D01*
X15201134Y-11929222D02*
X15210658Y-11910174D01*
X15210658Y-11910174D02*
X15229705Y-11900650D01*
X15229705Y-11900650D02*
X15258277Y-11900650D01*
X15258277Y-11900650D02*
X15277324Y-11910174D01*
X15277324Y-11910174D02*
X15286848Y-11929222D01*
X15286848Y-11929222D02*
X15286848Y-12033984D01*
X15382086Y-12033984D02*
X15382086Y-11900650D01*
X15382086Y-11919698D02*
X15391610Y-11910174D01*
X15391610Y-11910174D02*
X15410658Y-11900650D01*
X15410658Y-11900650D02*
X15439229Y-11900650D01*
X15439229Y-11900650D02*
X15458277Y-11910174D01*
X15458277Y-11910174D02*
X15467801Y-11929222D01*
X15467801Y-11929222D02*
X15467801Y-12033984D01*
X15467801Y-11929222D02*
X15477324Y-11910174D01*
X15477324Y-11910174D02*
X15496372Y-11900650D01*
X15496372Y-11900650D02*
X15524943Y-11900650D01*
X15524943Y-11900650D02*
X15543991Y-11910174D01*
X15543991Y-11910174D02*
X15553515Y-11929222D01*
X15553515Y-11929222D02*
X15553515Y-12033984D01*
X15943991Y-11824460D02*
X15772563Y-12081603D01*
X16201134Y-11833984D02*
X16220182Y-11833984D01*
X16220182Y-11833984D02*
X16239229Y-11843508D01*
X16239229Y-11843508D02*
X16248753Y-11853031D01*
X16248753Y-11853031D02*
X16258277Y-11872079D01*
X16258277Y-11872079D02*
X16267801Y-11910174D01*
X16267801Y-11910174D02*
X16267801Y-11957793D01*
X16267801Y-11957793D02*
X16258277Y-11995888D01*
X16258277Y-11995888D02*
X16248753Y-12014936D01*
X16248753Y-12014936D02*
X16239229Y-12024460D01*
X16239229Y-12024460D02*
X16220182Y-12033984D01*
X16220182Y-12033984D02*
X16201134Y-12033984D01*
X16201134Y-12033984D02*
X16182086Y-12024460D01*
X16182086Y-12024460D02*
X16172563Y-12014936D01*
X16172563Y-12014936D02*
X16163039Y-11995888D01*
X16163039Y-11995888D02*
X16153515Y-11957793D01*
X16153515Y-11957793D02*
X16153515Y-11910174D01*
X16153515Y-11910174D02*
X16163039Y-11872079D01*
X16163039Y-11872079D02*
X16172563Y-11853031D01*
X16172563Y-11853031D02*
X16182086Y-11843508D01*
X16182086Y-11843508D02*
X16201134Y-11833984D01*
X16353515Y-12014936D02*
X16363039Y-12024460D01*
X16363039Y-12024460D02*
X16353515Y-12033984D01*
X16353515Y-12033984D02*
X16343991Y-12024460D01*
X16343991Y-12024460D02*
X16353515Y-12014936D01*
X16353515Y-12014936D02*
X16353515Y-12033984D01*
X16486848Y-11833984D02*
X16505896Y-11833984D01*
X16505896Y-11833984D02*
X16524944Y-11843508D01*
X16524944Y-11843508D02*
X16534467Y-11853031D01*
X16534467Y-11853031D02*
X16543991Y-11872079D01*
X16543991Y-11872079D02*
X16553515Y-11910174D01*
X16553515Y-11910174D02*
X16553515Y-11957793D01*
X16553515Y-11957793D02*
X16543991Y-11995888D01*
X16543991Y-11995888D02*
X16534467Y-12014936D01*
X16534467Y-12014936D02*
X16524944Y-12024460D01*
X16524944Y-12024460D02*
X16505896Y-12033984D01*
X16505896Y-12033984D02*
X16486848Y-12033984D01*
X16486848Y-12033984D02*
X16467801Y-12024460D01*
X16467801Y-12024460D02*
X16458277Y-12014936D01*
X16458277Y-12014936D02*
X16448753Y-11995888D01*
X16448753Y-11995888D02*
X16439229Y-11957793D01*
X16439229Y-11957793D02*
X16439229Y-11910174D01*
X16439229Y-11910174D02*
X16448753Y-11872079D01*
X16448753Y-11872079D02*
X16458277Y-11853031D01*
X16458277Y-11853031D02*
X16467801Y-11843508D01*
X16467801Y-11843508D02*
X16486848Y-11833984D01*
X16743991Y-12033984D02*
X16629706Y-12033984D01*
X16686848Y-12033984D02*
X16686848Y-11833984D01*
X16686848Y-11833984D02*
X16667801Y-11862555D01*
X16667801Y-11862555D02*
X16648753Y-11881603D01*
X16648753Y-11881603D02*
X16629706Y-11891127D01*
X16934468Y-12033984D02*
X16820182Y-12033984D01*
X16877325Y-12033984D02*
X16877325Y-11833984D01*
X16877325Y-11833984D02*
X16858277Y-11862555D01*
X16858277Y-11862555D02*
X16839229Y-11881603D01*
X16839229Y-11881603D02*
X16820182Y-11891127D01*
X17048753Y-11919698D02*
X17029706Y-11910174D01*
X17029706Y-11910174D02*
X17020182Y-11900650D01*
X17020182Y-11900650D02*
X17010658Y-11881603D01*
X17010658Y-11881603D02*
X17010658Y-11872079D01*
X17010658Y-11872079D02*
X17020182Y-11853031D01*
X17020182Y-11853031D02*
X17029706Y-11843508D01*
X17029706Y-11843508D02*
X17048753Y-11833984D01*
X17048753Y-11833984D02*
X17086849Y-11833984D01*
X17086849Y-11833984D02*
X17105896Y-11843508D01*
X17105896Y-11843508D02*
X17115420Y-11853031D01*
X17115420Y-11853031D02*
X17124944Y-11872079D01*
X17124944Y-11872079D02*
X17124944Y-11881603D01*
X17124944Y-11881603D02*
X17115420Y-11900650D01*
X17115420Y-11900650D02*
X17105896Y-11910174D01*
X17105896Y-11910174D02*
X17086849Y-11919698D01*
X17086849Y-11919698D02*
X17048753Y-11919698D01*
X17048753Y-11919698D02*
X17029706Y-11929222D01*
X17029706Y-11929222D02*
X17020182Y-11938746D01*
X17020182Y-11938746D02*
X17010658Y-11957793D01*
X17010658Y-11957793D02*
X17010658Y-11995888D01*
X17010658Y-11995888D02*
X17020182Y-12014936D01*
X17020182Y-12014936D02*
X17029706Y-12024460D01*
X17029706Y-12024460D02*
X17048753Y-12033984D01*
X17048753Y-12033984D02*
X17086849Y-12033984D01*
X17086849Y-12033984D02*
X17105896Y-12024460D01*
X17105896Y-12024460D02*
X17115420Y-12014936D01*
X17115420Y-12014936D02*
X17124944Y-11995888D01*
X17124944Y-11995888D02*
X17124944Y-11957793D01*
X17124944Y-11957793D02*
X17115420Y-11938746D01*
X17115420Y-11938746D02*
X17105896Y-11929222D01*
X17105896Y-11929222D02*
X17086849Y-11919698D01*
X17201134Y-11833984D02*
X17201134Y-11872079D01*
X17277325Y-11833984D02*
X17277325Y-11872079D01*
X17572563Y-12110174D02*
X17563039Y-12100650D01*
X17563039Y-12100650D02*
X17543991Y-12072079D01*
X17543991Y-12072079D02*
X17534468Y-12053031D01*
X17534468Y-12053031D02*
X17524944Y-12024460D01*
X17524944Y-12024460D02*
X17515420Y-11976841D01*
X17515420Y-11976841D02*
X17515420Y-11938746D01*
X17515420Y-11938746D02*
X17524944Y-11891127D01*
X17524944Y-11891127D02*
X17534468Y-11862555D01*
X17534468Y-11862555D02*
X17543991Y-11843508D01*
X17543991Y-11843508D02*
X17563039Y-11814936D01*
X17563039Y-11814936D02*
X17572563Y-11805412D01*
X17677325Y-11919698D02*
X17658277Y-11910174D01*
X17658277Y-11910174D02*
X17648753Y-11900650D01*
X17648753Y-11900650D02*
X17639230Y-11881603D01*
X17639230Y-11881603D02*
X17639230Y-11872079D01*
X17639230Y-11872079D02*
X17648753Y-11853031D01*
X17648753Y-11853031D02*
X17658277Y-11843508D01*
X17658277Y-11843508D02*
X17677325Y-11833984D01*
X17677325Y-11833984D02*
X17715420Y-11833984D01*
X17715420Y-11833984D02*
X17734468Y-11843508D01*
X17734468Y-11843508D02*
X17743991Y-11853031D01*
X17743991Y-11853031D02*
X17753515Y-11872079D01*
X17753515Y-11872079D02*
X17753515Y-11881603D01*
X17753515Y-11881603D02*
X17743991Y-11900650D01*
X17743991Y-11900650D02*
X17734468Y-11910174D01*
X17734468Y-11910174D02*
X17715420Y-11919698D01*
X17715420Y-11919698D02*
X17677325Y-11919698D01*
X17677325Y-11919698D02*
X17658277Y-11929222D01*
X17658277Y-11929222D02*
X17648753Y-11938746D01*
X17648753Y-11938746D02*
X17639230Y-11957793D01*
X17639230Y-11957793D02*
X17639230Y-11995888D01*
X17639230Y-11995888D02*
X17648753Y-12014936D01*
X17648753Y-12014936D02*
X17658277Y-12024460D01*
X17658277Y-12024460D02*
X17677325Y-12033984D01*
X17677325Y-12033984D02*
X17715420Y-12033984D01*
X17715420Y-12033984D02*
X17734468Y-12024460D01*
X17734468Y-12024460D02*
X17743991Y-12014936D01*
X17743991Y-12014936D02*
X17753515Y-11995888D01*
X17753515Y-11995888D02*
X17753515Y-11957793D01*
X17753515Y-11957793D02*
X17743991Y-11938746D01*
X17743991Y-11938746D02*
X17734468Y-11929222D01*
X17734468Y-11929222D02*
X17715420Y-11919698D01*
X17924944Y-11900650D02*
X17924944Y-12033984D01*
X17877325Y-11824460D02*
X17829706Y-11967317D01*
X17829706Y-11967317D02*
X17953515Y-11967317D01*
X18182087Y-12033984D02*
X18182087Y-11833984D01*
X18267801Y-12033984D02*
X18267801Y-11929222D01*
X18267801Y-11929222D02*
X18258277Y-11910174D01*
X18258277Y-11910174D02*
X18239230Y-11900650D01*
X18239230Y-11900650D02*
X18210658Y-11900650D01*
X18210658Y-11900650D02*
X18191611Y-11910174D01*
X18191611Y-11910174D02*
X18182087Y-11919698D01*
X18391611Y-12033984D02*
X18372563Y-12024460D01*
X18372563Y-12024460D02*
X18363039Y-12014936D01*
X18363039Y-12014936D02*
X18353515Y-11995888D01*
X18353515Y-11995888D02*
X18353515Y-11938746D01*
X18353515Y-11938746D02*
X18363039Y-11919698D01*
X18363039Y-11919698D02*
X18372563Y-11910174D01*
X18372563Y-11910174D02*
X18391611Y-11900650D01*
X18391611Y-11900650D02*
X18420182Y-11900650D01*
X18420182Y-11900650D02*
X18439230Y-11910174D01*
X18439230Y-11910174D02*
X18448753Y-11919698D01*
X18448753Y-11919698D02*
X18458277Y-11938746D01*
X18458277Y-11938746D02*
X18458277Y-11995888D01*
X18458277Y-11995888D02*
X18448753Y-12014936D01*
X18448753Y-12014936D02*
X18439230Y-12024460D01*
X18439230Y-12024460D02*
X18420182Y-12033984D01*
X18420182Y-12033984D02*
X18391611Y-12033984D01*
X18572563Y-12033984D02*
X18553515Y-12024460D01*
X18553515Y-12024460D02*
X18543992Y-12005412D01*
X18543992Y-12005412D02*
X18543992Y-11833984D01*
X18724944Y-12024460D02*
X18705896Y-12033984D01*
X18705896Y-12033984D02*
X18667801Y-12033984D01*
X18667801Y-12033984D02*
X18648753Y-12024460D01*
X18648753Y-12024460D02*
X18639230Y-12005412D01*
X18639230Y-12005412D02*
X18639230Y-11929222D01*
X18639230Y-11929222D02*
X18648753Y-11910174D01*
X18648753Y-11910174D02*
X18667801Y-11900650D01*
X18667801Y-11900650D02*
X18705896Y-11900650D01*
X18705896Y-11900650D02*
X18724944Y-11910174D01*
X18724944Y-11910174D02*
X18734468Y-11929222D01*
X18734468Y-11929222D02*
X18734468Y-11948269D01*
X18734468Y-11948269D02*
X18639230Y-11967317D01*
X18810658Y-12024460D02*
X18829706Y-12033984D01*
X18829706Y-12033984D02*
X18867801Y-12033984D01*
X18867801Y-12033984D02*
X18886849Y-12024460D01*
X18886849Y-12024460D02*
X18896373Y-12005412D01*
X18896373Y-12005412D02*
X18896373Y-11995888D01*
X18896373Y-11995888D02*
X18886849Y-11976841D01*
X18886849Y-11976841D02*
X18867801Y-11967317D01*
X18867801Y-11967317D02*
X18839230Y-11967317D01*
X18839230Y-11967317D02*
X18820182Y-11957793D01*
X18820182Y-11957793D02*
X18810658Y-11938746D01*
X18810658Y-11938746D02*
X18810658Y-11929222D01*
X18810658Y-11929222D02*
X18820182Y-11910174D01*
X18820182Y-11910174D02*
X18839230Y-11900650D01*
X18839230Y-11900650D02*
X18867801Y-11900650D01*
X18867801Y-11900650D02*
X18886849Y-11910174D01*
X18963039Y-12110174D02*
X18972563Y-12100650D01*
X18972563Y-12100650D02*
X18991611Y-12072079D01*
X18991611Y-12072079D02*
X19001134Y-12053031D01*
X19001134Y-12053031D02*
X19010658Y-12024460D01*
X19010658Y-12024460D02*
X19020182Y-11976841D01*
X19020182Y-11976841D02*
X19020182Y-11938746D01*
X19020182Y-11938746D02*
X19010658Y-11891127D01*
X19010658Y-11891127D02*
X19001134Y-11862555D01*
X19001134Y-11862555D02*
X18991611Y-11843508D01*
X18991611Y-11843508D02*
X18972563Y-11814936D01*
X18972563Y-11814936D02*
X18963039Y-11805412D01*
D12*
X13997500Y-12206500D02*
G75*
G02*
X13967500Y-12206500I-15000J0D01*
G01*
X13967500Y-12206500D02*
G75*
G02*
X13997500Y-12206500I15000J0D01*
G01*
D11*
X14296372Y-12097984D02*
X14315420Y-12097984D01*
X14315420Y-12097984D02*
X14334467Y-12107508D01*
X14334467Y-12107508D02*
X14343991Y-12117031D01*
X14343991Y-12117031D02*
X14353515Y-12136079D01*
X14353515Y-12136079D02*
X14363039Y-12174174D01*
X14363039Y-12174174D02*
X14363039Y-12221793D01*
X14363039Y-12221793D02*
X14353515Y-12259888D01*
X14353515Y-12259888D02*
X14343991Y-12278936D01*
X14343991Y-12278936D02*
X14334467Y-12288460D01*
X14334467Y-12288460D02*
X14315420Y-12297984D01*
X14315420Y-12297984D02*
X14296372Y-12297984D01*
X14296372Y-12297984D02*
X14277324Y-12288460D01*
X14277324Y-12288460D02*
X14267801Y-12278936D01*
X14267801Y-12278936D02*
X14258277Y-12259888D01*
X14258277Y-12259888D02*
X14248753Y-12221793D01*
X14248753Y-12221793D02*
X14248753Y-12174174D01*
X14248753Y-12174174D02*
X14258277Y-12136079D01*
X14258277Y-12136079D02*
X14267801Y-12117031D01*
X14267801Y-12117031D02*
X14277324Y-12107508D01*
X14277324Y-12107508D02*
X14296372Y-12097984D01*
X14448753Y-12278936D02*
X14458277Y-12288460D01*
X14458277Y-12288460D02*
X14448753Y-12297984D01*
X14448753Y-12297984D02*
X14439229Y-12288460D01*
X14439229Y-12288460D02*
X14448753Y-12278936D01*
X14448753Y-12278936D02*
X14448753Y-12297984D01*
X14524943Y-12097984D02*
X14648753Y-12097984D01*
X14648753Y-12097984D02*
X14582086Y-12174174D01*
X14582086Y-12174174D02*
X14610658Y-12174174D01*
X14610658Y-12174174D02*
X14629705Y-12183698D01*
X14629705Y-12183698D02*
X14639229Y-12193222D01*
X14639229Y-12193222D02*
X14648753Y-12212269D01*
X14648753Y-12212269D02*
X14648753Y-12259888D01*
X14648753Y-12259888D02*
X14639229Y-12278936D01*
X14639229Y-12278936D02*
X14629705Y-12288460D01*
X14629705Y-12288460D02*
X14610658Y-12297984D01*
X14610658Y-12297984D02*
X14553515Y-12297984D01*
X14553515Y-12297984D02*
X14534467Y-12288460D01*
X14534467Y-12288460D02*
X14524943Y-12278936D01*
X14772562Y-12097984D02*
X14791610Y-12097984D01*
X14791610Y-12097984D02*
X14810658Y-12107508D01*
X14810658Y-12107508D02*
X14820182Y-12117031D01*
X14820182Y-12117031D02*
X14829705Y-12136079D01*
X14829705Y-12136079D02*
X14839229Y-12174174D01*
X14839229Y-12174174D02*
X14839229Y-12221793D01*
X14839229Y-12221793D02*
X14829705Y-12259888D01*
X14829705Y-12259888D02*
X14820182Y-12278936D01*
X14820182Y-12278936D02*
X14810658Y-12288460D01*
X14810658Y-12288460D02*
X14791610Y-12297984D01*
X14791610Y-12297984D02*
X14772562Y-12297984D01*
X14772562Y-12297984D02*
X14753515Y-12288460D01*
X14753515Y-12288460D02*
X14743991Y-12278936D01*
X14743991Y-12278936D02*
X14734467Y-12259888D01*
X14734467Y-12259888D02*
X14724943Y-12221793D01*
X14724943Y-12221793D02*
X14724943Y-12174174D01*
X14724943Y-12174174D02*
X14734467Y-12136079D01*
X14734467Y-12136079D02*
X14743991Y-12117031D01*
X14743991Y-12117031D02*
X14753515Y-12107508D01*
X14753515Y-12107508D02*
X14772562Y-12097984D01*
X14963039Y-12097984D02*
X14982086Y-12097984D01*
X14982086Y-12097984D02*
X15001134Y-12107508D01*
X15001134Y-12107508D02*
X15010658Y-12117031D01*
X15010658Y-12117031D02*
X15020182Y-12136079D01*
X15020182Y-12136079D02*
X15029705Y-12174174D01*
X15029705Y-12174174D02*
X15029705Y-12221793D01*
X15029705Y-12221793D02*
X15020182Y-12259888D01*
X15020182Y-12259888D02*
X15010658Y-12278936D01*
X15010658Y-12278936D02*
X15001134Y-12288460D01*
X15001134Y-12288460D02*
X14982086Y-12297984D01*
X14982086Y-12297984D02*
X14963039Y-12297984D01*
X14963039Y-12297984D02*
X14943991Y-12288460D01*
X14943991Y-12288460D02*
X14934467Y-12278936D01*
X14934467Y-12278936D02*
X14924943Y-12259888D01*
X14924943Y-12259888D02*
X14915420Y-12221793D01*
X14915420Y-12221793D02*
X14915420Y-12174174D01*
X14915420Y-12174174D02*
X14924943Y-12136079D01*
X14924943Y-12136079D02*
X14934467Y-12117031D01*
X14934467Y-12117031D02*
X14943991Y-12107508D01*
X14943991Y-12107508D02*
X14963039Y-12097984D01*
X15115420Y-12297984D02*
X15115420Y-12164650D01*
X15115420Y-12183698D02*
X15124943Y-12174174D01*
X15124943Y-12174174D02*
X15143991Y-12164650D01*
X15143991Y-12164650D02*
X15172563Y-12164650D01*
X15172563Y-12164650D02*
X15191610Y-12174174D01*
X15191610Y-12174174D02*
X15201134Y-12193222D01*
X15201134Y-12193222D02*
X15201134Y-12297984D01*
X15201134Y-12193222D02*
X15210658Y-12174174D01*
X15210658Y-12174174D02*
X15229705Y-12164650D01*
X15229705Y-12164650D02*
X15258277Y-12164650D01*
X15258277Y-12164650D02*
X15277324Y-12174174D01*
X15277324Y-12174174D02*
X15286848Y-12193222D01*
X15286848Y-12193222D02*
X15286848Y-12297984D01*
X15382086Y-12297984D02*
X15382086Y-12164650D01*
X15382086Y-12183698D02*
X15391610Y-12174174D01*
X15391610Y-12174174D02*
X15410658Y-12164650D01*
X15410658Y-12164650D02*
X15439229Y-12164650D01*
X15439229Y-12164650D02*
X15458277Y-12174174D01*
X15458277Y-12174174D02*
X15467801Y-12193222D01*
X15467801Y-12193222D02*
X15467801Y-12297984D01*
X15467801Y-12193222D02*
X15477324Y-12174174D01*
X15477324Y-12174174D02*
X15496372Y-12164650D01*
X15496372Y-12164650D02*
X15524943Y-12164650D01*
X15524943Y-12164650D02*
X15543991Y-12174174D01*
X15543991Y-12174174D02*
X15553515Y-12193222D01*
X15553515Y-12193222D02*
X15553515Y-12297984D01*
X15943991Y-12088460D02*
X15772563Y-12345603D01*
X16201134Y-12097984D02*
X16220182Y-12097984D01*
X16220182Y-12097984D02*
X16239229Y-12107508D01*
X16239229Y-12107508D02*
X16248753Y-12117031D01*
X16248753Y-12117031D02*
X16258277Y-12136079D01*
X16258277Y-12136079D02*
X16267801Y-12174174D01*
X16267801Y-12174174D02*
X16267801Y-12221793D01*
X16267801Y-12221793D02*
X16258277Y-12259888D01*
X16258277Y-12259888D02*
X16248753Y-12278936D01*
X16248753Y-12278936D02*
X16239229Y-12288460D01*
X16239229Y-12288460D02*
X16220182Y-12297984D01*
X16220182Y-12297984D02*
X16201134Y-12297984D01*
X16201134Y-12297984D02*
X16182086Y-12288460D01*
X16182086Y-12288460D02*
X16172563Y-12278936D01*
X16172563Y-12278936D02*
X16163039Y-12259888D01*
X16163039Y-12259888D02*
X16153515Y-12221793D01*
X16153515Y-12221793D02*
X16153515Y-12174174D01*
X16153515Y-12174174D02*
X16163039Y-12136079D01*
X16163039Y-12136079D02*
X16172563Y-12117031D01*
X16172563Y-12117031D02*
X16182086Y-12107508D01*
X16182086Y-12107508D02*
X16201134Y-12097984D01*
X16353515Y-12278936D02*
X16363039Y-12288460D01*
X16363039Y-12288460D02*
X16353515Y-12297984D01*
X16353515Y-12297984D02*
X16343991Y-12288460D01*
X16343991Y-12288460D02*
X16353515Y-12278936D01*
X16353515Y-12278936D02*
X16353515Y-12297984D01*
X16486848Y-12097984D02*
X16505896Y-12097984D01*
X16505896Y-12097984D02*
X16524944Y-12107508D01*
X16524944Y-12107508D02*
X16534467Y-12117031D01*
X16534467Y-12117031D02*
X16543991Y-12136079D01*
X16543991Y-12136079D02*
X16553515Y-12174174D01*
X16553515Y-12174174D02*
X16553515Y-12221793D01*
X16553515Y-12221793D02*
X16543991Y-12259888D01*
X16543991Y-12259888D02*
X16534467Y-12278936D01*
X16534467Y-12278936D02*
X16524944Y-12288460D01*
X16524944Y-12288460D02*
X16505896Y-12297984D01*
X16505896Y-12297984D02*
X16486848Y-12297984D01*
X16486848Y-12297984D02*
X16467801Y-12288460D01*
X16467801Y-12288460D02*
X16458277Y-12278936D01*
X16458277Y-12278936D02*
X16448753Y-12259888D01*
X16448753Y-12259888D02*
X16439229Y-12221793D01*
X16439229Y-12221793D02*
X16439229Y-12174174D01*
X16439229Y-12174174D02*
X16448753Y-12136079D01*
X16448753Y-12136079D02*
X16458277Y-12117031D01*
X16458277Y-12117031D02*
X16467801Y-12107508D01*
X16467801Y-12107508D02*
X16486848Y-12097984D01*
X16743991Y-12297984D02*
X16629706Y-12297984D01*
X16686848Y-12297984D02*
X16686848Y-12097984D01*
X16686848Y-12097984D02*
X16667801Y-12126555D01*
X16667801Y-12126555D02*
X16648753Y-12145603D01*
X16648753Y-12145603D02*
X16629706Y-12155127D01*
X16934468Y-12297984D02*
X16820182Y-12297984D01*
X16877325Y-12297984D02*
X16877325Y-12097984D01*
X16877325Y-12097984D02*
X16858277Y-12126555D01*
X16858277Y-12126555D02*
X16839229Y-12145603D01*
X16839229Y-12145603D02*
X16820182Y-12155127D01*
X17048753Y-12183698D02*
X17029706Y-12174174D01*
X17029706Y-12174174D02*
X17020182Y-12164650D01*
X17020182Y-12164650D02*
X17010658Y-12145603D01*
X17010658Y-12145603D02*
X17010658Y-12136079D01*
X17010658Y-12136079D02*
X17020182Y-12117031D01*
X17020182Y-12117031D02*
X17029706Y-12107508D01*
X17029706Y-12107508D02*
X17048753Y-12097984D01*
X17048753Y-12097984D02*
X17086849Y-12097984D01*
X17086849Y-12097984D02*
X17105896Y-12107508D01*
X17105896Y-12107508D02*
X17115420Y-12117031D01*
X17115420Y-12117031D02*
X17124944Y-12136079D01*
X17124944Y-12136079D02*
X17124944Y-12145603D01*
X17124944Y-12145603D02*
X17115420Y-12164650D01*
X17115420Y-12164650D02*
X17105896Y-12174174D01*
X17105896Y-12174174D02*
X17086849Y-12183698D01*
X17086849Y-12183698D02*
X17048753Y-12183698D01*
X17048753Y-12183698D02*
X17029706Y-12193222D01*
X17029706Y-12193222D02*
X17020182Y-12202746D01*
X17020182Y-12202746D02*
X17010658Y-12221793D01*
X17010658Y-12221793D02*
X17010658Y-12259888D01*
X17010658Y-12259888D02*
X17020182Y-12278936D01*
X17020182Y-12278936D02*
X17029706Y-12288460D01*
X17029706Y-12288460D02*
X17048753Y-12297984D01*
X17048753Y-12297984D02*
X17086849Y-12297984D01*
X17086849Y-12297984D02*
X17105896Y-12288460D01*
X17105896Y-12288460D02*
X17115420Y-12278936D01*
X17115420Y-12278936D02*
X17124944Y-12259888D01*
X17124944Y-12259888D02*
X17124944Y-12221793D01*
X17124944Y-12221793D02*
X17115420Y-12202746D01*
X17115420Y-12202746D02*
X17105896Y-12193222D01*
X17105896Y-12193222D02*
X17086849Y-12183698D01*
X17201134Y-12097984D02*
X17201134Y-12136079D01*
X17277325Y-12097984D02*
X17277325Y-12136079D01*
X17572563Y-12374174D02*
X17563039Y-12364650D01*
X17563039Y-12364650D02*
X17543991Y-12336079D01*
X17543991Y-12336079D02*
X17534468Y-12317031D01*
X17534468Y-12317031D02*
X17524944Y-12288460D01*
X17524944Y-12288460D02*
X17515420Y-12240841D01*
X17515420Y-12240841D02*
X17515420Y-12202746D01*
X17515420Y-12202746D02*
X17524944Y-12155127D01*
X17524944Y-12155127D02*
X17534468Y-12126555D01*
X17534468Y-12126555D02*
X17543991Y-12107508D01*
X17543991Y-12107508D02*
X17563039Y-12078936D01*
X17563039Y-12078936D02*
X17572563Y-12069412D01*
X17639230Y-12117031D02*
X17648753Y-12107508D01*
X17648753Y-12107508D02*
X17667801Y-12097984D01*
X17667801Y-12097984D02*
X17715420Y-12097984D01*
X17715420Y-12097984D02*
X17734468Y-12107508D01*
X17734468Y-12107508D02*
X17743991Y-12117031D01*
X17743991Y-12117031D02*
X17753515Y-12136079D01*
X17753515Y-12136079D02*
X17753515Y-12155127D01*
X17753515Y-12155127D02*
X17743991Y-12183698D01*
X17743991Y-12183698D02*
X17629706Y-12297984D01*
X17629706Y-12297984D02*
X17753515Y-12297984D01*
X17991611Y-12297984D02*
X17991611Y-12097984D01*
X18077325Y-12297984D02*
X18077325Y-12193222D01*
X18077325Y-12193222D02*
X18067801Y-12174174D01*
X18067801Y-12174174D02*
X18048753Y-12164650D01*
X18048753Y-12164650D02*
X18020182Y-12164650D01*
X18020182Y-12164650D02*
X18001134Y-12174174D01*
X18001134Y-12174174D02*
X17991611Y-12183698D01*
X18201134Y-12297984D02*
X18182087Y-12288460D01*
X18182087Y-12288460D02*
X18172563Y-12278936D01*
X18172563Y-12278936D02*
X18163039Y-12259888D01*
X18163039Y-12259888D02*
X18163039Y-12202746D01*
X18163039Y-12202746D02*
X18172563Y-12183698D01*
X18172563Y-12183698D02*
X18182087Y-12174174D01*
X18182087Y-12174174D02*
X18201134Y-12164650D01*
X18201134Y-12164650D02*
X18229706Y-12164650D01*
X18229706Y-12164650D02*
X18248753Y-12174174D01*
X18248753Y-12174174D02*
X18258277Y-12183698D01*
X18258277Y-12183698D02*
X18267801Y-12202746D01*
X18267801Y-12202746D02*
X18267801Y-12259888D01*
X18267801Y-12259888D02*
X18258277Y-12278936D01*
X18258277Y-12278936D02*
X18248753Y-12288460D01*
X18248753Y-12288460D02*
X18229706Y-12297984D01*
X18229706Y-12297984D02*
X18201134Y-12297984D01*
X18382087Y-12297984D02*
X18363039Y-12288460D01*
X18363039Y-12288460D02*
X18353515Y-12269412D01*
X18353515Y-12269412D02*
X18353515Y-12097984D01*
X18534468Y-12288460D02*
X18515420Y-12297984D01*
X18515420Y-12297984D02*
X18477325Y-12297984D01*
X18477325Y-12297984D02*
X18458277Y-12288460D01*
X18458277Y-12288460D02*
X18448753Y-12269412D01*
X18448753Y-12269412D02*
X18448753Y-12193222D01*
X18448753Y-12193222D02*
X18458277Y-12174174D01*
X18458277Y-12174174D02*
X18477325Y-12164650D01*
X18477325Y-12164650D02*
X18515420Y-12164650D01*
X18515420Y-12164650D02*
X18534468Y-12174174D01*
X18534468Y-12174174D02*
X18543992Y-12193222D01*
X18543992Y-12193222D02*
X18543992Y-12212269D01*
X18543992Y-12212269D02*
X18448753Y-12231317D01*
X18620182Y-12288460D02*
X18639230Y-12297984D01*
X18639230Y-12297984D02*
X18677325Y-12297984D01*
X18677325Y-12297984D02*
X18696373Y-12288460D01*
X18696373Y-12288460D02*
X18705896Y-12269412D01*
X18705896Y-12269412D02*
X18705896Y-12259888D01*
X18705896Y-12259888D02*
X18696373Y-12240841D01*
X18696373Y-12240841D02*
X18677325Y-12231317D01*
X18677325Y-12231317D02*
X18648753Y-12231317D01*
X18648753Y-12231317D02*
X18629706Y-12221793D01*
X18629706Y-12221793D02*
X18620182Y-12202746D01*
X18620182Y-12202746D02*
X18620182Y-12193222D01*
X18620182Y-12193222D02*
X18629706Y-12174174D01*
X18629706Y-12174174D02*
X18648753Y-12164650D01*
X18648753Y-12164650D02*
X18677325Y-12164650D01*
X18677325Y-12164650D02*
X18696373Y-12174174D01*
X18772563Y-12374174D02*
X18782087Y-12364650D01*
X18782087Y-12364650D02*
X18801134Y-12336079D01*
X18801134Y-12336079D02*
X18810658Y-12317031D01*
X18810658Y-12317031D02*
X18820182Y-12288460D01*
X18820182Y-12288460D02*
X18829706Y-12240841D01*
X18829706Y-12240841D02*
X18829706Y-12202746D01*
X18829706Y-12202746D02*
X18820182Y-12155127D01*
X18820182Y-12155127D02*
X18810658Y-12126555D01*
X18810658Y-12126555D02*
X18801134Y-12107508D01*
X18801134Y-12107508D02*
X18782087Y-12078936D01*
X18782087Y-12078936D02*
X18772563Y-12069412D01*
D12*
X13972500Y-12445500D02*
X13972500Y-12495500D01*
X13947500Y-12470500D02*
X13997500Y-12470500D01*
D11*
X14296372Y-12361984D02*
X14315420Y-12361984D01*
X14315420Y-12361984D02*
X14334467Y-12371508D01*
X14334467Y-12371508D02*
X14343991Y-12381031D01*
X14343991Y-12381031D02*
X14353515Y-12400079D01*
X14353515Y-12400079D02*
X14363039Y-12438174D01*
X14363039Y-12438174D02*
X14363039Y-12485793D01*
X14363039Y-12485793D02*
X14353515Y-12523888D01*
X14353515Y-12523888D02*
X14343991Y-12542936D01*
X14343991Y-12542936D02*
X14334467Y-12552460D01*
X14334467Y-12552460D02*
X14315420Y-12561984D01*
X14315420Y-12561984D02*
X14296372Y-12561984D01*
X14296372Y-12561984D02*
X14277324Y-12552460D01*
X14277324Y-12552460D02*
X14267801Y-12542936D01*
X14267801Y-12542936D02*
X14258277Y-12523888D01*
X14258277Y-12523888D02*
X14248753Y-12485793D01*
X14248753Y-12485793D02*
X14248753Y-12438174D01*
X14248753Y-12438174D02*
X14258277Y-12400079D01*
X14258277Y-12400079D02*
X14267801Y-12381031D01*
X14267801Y-12381031D02*
X14277324Y-12371508D01*
X14277324Y-12371508D02*
X14296372Y-12361984D01*
X14448753Y-12542936D02*
X14458277Y-12552460D01*
X14458277Y-12552460D02*
X14448753Y-12561984D01*
X14448753Y-12561984D02*
X14439229Y-12552460D01*
X14439229Y-12552460D02*
X14448753Y-12542936D01*
X14448753Y-12542936D02*
X14448753Y-12561984D01*
X14639229Y-12361984D02*
X14543991Y-12361984D01*
X14543991Y-12361984D02*
X14534467Y-12457222D01*
X14534467Y-12457222D02*
X14543991Y-12447698D01*
X14543991Y-12447698D02*
X14563039Y-12438174D01*
X14563039Y-12438174D02*
X14610658Y-12438174D01*
X14610658Y-12438174D02*
X14629705Y-12447698D01*
X14629705Y-12447698D02*
X14639229Y-12457222D01*
X14639229Y-12457222D02*
X14648753Y-12476269D01*
X14648753Y-12476269D02*
X14648753Y-12523888D01*
X14648753Y-12523888D02*
X14639229Y-12542936D01*
X14639229Y-12542936D02*
X14629705Y-12552460D01*
X14629705Y-12552460D02*
X14610658Y-12561984D01*
X14610658Y-12561984D02*
X14563039Y-12561984D01*
X14563039Y-12561984D02*
X14543991Y-12552460D01*
X14543991Y-12552460D02*
X14534467Y-12542936D01*
X14772562Y-12361984D02*
X14791610Y-12361984D01*
X14791610Y-12361984D02*
X14810658Y-12371508D01*
X14810658Y-12371508D02*
X14820182Y-12381031D01*
X14820182Y-12381031D02*
X14829705Y-12400079D01*
X14829705Y-12400079D02*
X14839229Y-12438174D01*
X14839229Y-12438174D02*
X14839229Y-12485793D01*
X14839229Y-12485793D02*
X14829705Y-12523888D01*
X14829705Y-12523888D02*
X14820182Y-12542936D01*
X14820182Y-12542936D02*
X14810658Y-12552460D01*
X14810658Y-12552460D02*
X14791610Y-12561984D01*
X14791610Y-12561984D02*
X14772562Y-12561984D01*
X14772562Y-12561984D02*
X14753515Y-12552460D01*
X14753515Y-12552460D02*
X14743991Y-12542936D01*
X14743991Y-12542936D02*
X14734467Y-12523888D01*
X14734467Y-12523888D02*
X14724943Y-12485793D01*
X14724943Y-12485793D02*
X14724943Y-12438174D01*
X14724943Y-12438174D02*
X14734467Y-12400079D01*
X14734467Y-12400079D02*
X14743991Y-12381031D01*
X14743991Y-12381031D02*
X14753515Y-12371508D01*
X14753515Y-12371508D02*
X14772562Y-12361984D01*
X14963039Y-12361984D02*
X14982086Y-12361984D01*
X14982086Y-12361984D02*
X15001134Y-12371508D01*
X15001134Y-12371508D02*
X15010658Y-12381031D01*
X15010658Y-12381031D02*
X15020182Y-12400079D01*
X15020182Y-12400079D02*
X15029705Y-12438174D01*
X15029705Y-12438174D02*
X15029705Y-12485793D01*
X15029705Y-12485793D02*
X15020182Y-12523888D01*
X15020182Y-12523888D02*
X15010658Y-12542936D01*
X15010658Y-12542936D02*
X15001134Y-12552460D01*
X15001134Y-12552460D02*
X14982086Y-12561984D01*
X14982086Y-12561984D02*
X14963039Y-12561984D01*
X14963039Y-12561984D02*
X14943991Y-12552460D01*
X14943991Y-12552460D02*
X14934467Y-12542936D01*
X14934467Y-12542936D02*
X14924943Y-12523888D01*
X14924943Y-12523888D02*
X14915420Y-12485793D01*
X14915420Y-12485793D02*
X14915420Y-12438174D01*
X14915420Y-12438174D02*
X14924943Y-12400079D01*
X14924943Y-12400079D02*
X14934467Y-12381031D01*
X14934467Y-12381031D02*
X14943991Y-12371508D01*
X14943991Y-12371508D02*
X14963039Y-12361984D01*
X15115420Y-12561984D02*
X15115420Y-12428650D01*
X15115420Y-12447698D02*
X15124943Y-12438174D01*
X15124943Y-12438174D02*
X15143991Y-12428650D01*
X15143991Y-12428650D02*
X15172563Y-12428650D01*
X15172563Y-12428650D02*
X15191610Y-12438174D01*
X15191610Y-12438174D02*
X15201134Y-12457222D01*
X15201134Y-12457222D02*
X15201134Y-12561984D01*
X15201134Y-12457222D02*
X15210658Y-12438174D01*
X15210658Y-12438174D02*
X15229705Y-12428650D01*
X15229705Y-12428650D02*
X15258277Y-12428650D01*
X15258277Y-12428650D02*
X15277324Y-12438174D01*
X15277324Y-12438174D02*
X15286848Y-12457222D01*
X15286848Y-12457222D02*
X15286848Y-12561984D01*
X15382086Y-12561984D02*
X15382086Y-12428650D01*
X15382086Y-12447698D02*
X15391610Y-12438174D01*
X15391610Y-12438174D02*
X15410658Y-12428650D01*
X15410658Y-12428650D02*
X15439229Y-12428650D01*
X15439229Y-12428650D02*
X15458277Y-12438174D01*
X15458277Y-12438174D02*
X15467801Y-12457222D01*
X15467801Y-12457222D02*
X15467801Y-12561984D01*
X15467801Y-12457222D02*
X15477324Y-12438174D01*
X15477324Y-12438174D02*
X15496372Y-12428650D01*
X15496372Y-12428650D02*
X15524943Y-12428650D01*
X15524943Y-12428650D02*
X15543991Y-12438174D01*
X15543991Y-12438174D02*
X15553515Y-12457222D01*
X15553515Y-12457222D02*
X15553515Y-12561984D01*
X15943991Y-12352460D02*
X15772563Y-12609603D01*
X16201134Y-12361984D02*
X16220182Y-12361984D01*
X16220182Y-12361984D02*
X16239229Y-12371508D01*
X16239229Y-12371508D02*
X16248753Y-12381031D01*
X16248753Y-12381031D02*
X16258277Y-12400079D01*
X16258277Y-12400079D02*
X16267801Y-12438174D01*
X16267801Y-12438174D02*
X16267801Y-12485793D01*
X16267801Y-12485793D02*
X16258277Y-12523888D01*
X16258277Y-12523888D02*
X16248753Y-12542936D01*
X16248753Y-12542936D02*
X16239229Y-12552460D01*
X16239229Y-12552460D02*
X16220182Y-12561984D01*
X16220182Y-12561984D02*
X16201134Y-12561984D01*
X16201134Y-12561984D02*
X16182086Y-12552460D01*
X16182086Y-12552460D02*
X16172563Y-12542936D01*
X16172563Y-12542936D02*
X16163039Y-12523888D01*
X16163039Y-12523888D02*
X16153515Y-12485793D01*
X16153515Y-12485793D02*
X16153515Y-12438174D01*
X16153515Y-12438174D02*
X16163039Y-12400079D01*
X16163039Y-12400079D02*
X16172563Y-12381031D01*
X16172563Y-12381031D02*
X16182086Y-12371508D01*
X16182086Y-12371508D02*
X16201134Y-12361984D01*
X16353515Y-12542936D02*
X16363039Y-12552460D01*
X16363039Y-12552460D02*
X16353515Y-12561984D01*
X16353515Y-12561984D02*
X16343991Y-12552460D01*
X16343991Y-12552460D02*
X16353515Y-12542936D01*
X16353515Y-12542936D02*
X16353515Y-12561984D01*
X16486848Y-12361984D02*
X16505896Y-12361984D01*
X16505896Y-12361984D02*
X16524944Y-12371508D01*
X16524944Y-12371508D02*
X16534467Y-12381031D01*
X16534467Y-12381031D02*
X16543991Y-12400079D01*
X16543991Y-12400079D02*
X16553515Y-12438174D01*
X16553515Y-12438174D02*
X16553515Y-12485793D01*
X16553515Y-12485793D02*
X16543991Y-12523888D01*
X16543991Y-12523888D02*
X16534467Y-12542936D01*
X16534467Y-12542936D02*
X16524944Y-12552460D01*
X16524944Y-12552460D02*
X16505896Y-12561984D01*
X16505896Y-12561984D02*
X16486848Y-12561984D01*
X16486848Y-12561984D02*
X16467801Y-12552460D01*
X16467801Y-12552460D02*
X16458277Y-12542936D01*
X16458277Y-12542936D02*
X16448753Y-12523888D01*
X16448753Y-12523888D02*
X16439229Y-12485793D01*
X16439229Y-12485793D02*
X16439229Y-12438174D01*
X16439229Y-12438174D02*
X16448753Y-12400079D01*
X16448753Y-12400079D02*
X16458277Y-12381031D01*
X16458277Y-12381031D02*
X16467801Y-12371508D01*
X16467801Y-12371508D02*
X16486848Y-12361984D01*
X16743991Y-12561984D02*
X16629706Y-12561984D01*
X16686848Y-12561984D02*
X16686848Y-12361984D01*
X16686848Y-12361984D02*
X16667801Y-12390555D01*
X16667801Y-12390555D02*
X16648753Y-12409603D01*
X16648753Y-12409603D02*
X16629706Y-12419127D01*
X16839229Y-12561984D02*
X16877325Y-12561984D01*
X16877325Y-12561984D02*
X16896372Y-12552460D01*
X16896372Y-12552460D02*
X16905896Y-12542936D01*
X16905896Y-12542936D02*
X16924944Y-12514365D01*
X16924944Y-12514365D02*
X16934468Y-12476269D01*
X16934468Y-12476269D02*
X16934468Y-12400079D01*
X16934468Y-12400079D02*
X16924944Y-12381031D01*
X16924944Y-12381031D02*
X16915420Y-12371508D01*
X16915420Y-12371508D02*
X16896372Y-12361984D01*
X16896372Y-12361984D02*
X16858277Y-12361984D01*
X16858277Y-12361984D02*
X16839229Y-12371508D01*
X16839229Y-12371508D02*
X16829706Y-12381031D01*
X16829706Y-12381031D02*
X16820182Y-12400079D01*
X16820182Y-12400079D02*
X16820182Y-12447698D01*
X16820182Y-12447698D02*
X16829706Y-12466746D01*
X16829706Y-12466746D02*
X16839229Y-12476269D01*
X16839229Y-12476269D02*
X16858277Y-12485793D01*
X16858277Y-12485793D02*
X16896372Y-12485793D01*
X16896372Y-12485793D02*
X16915420Y-12476269D01*
X16915420Y-12476269D02*
X16924944Y-12466746D01*
X16924944Y-12466746D02*
X16934468Y-12447698D01*
X17001134Y-12361984D02*
X17134468Y-12361984D01*
X17134468Y-12361984D02*
X17048753Y-12561984D01*
X17201134Y-12361984D02*
X17201134Y-12400079D01*
X17277325Y-12361984D02*
X17277325Y-12400079D01*
X17572563Y-12638174D02*
X17563039Y-12628650D01*
X17563039Y-12628650D02*
X17543991Y-12600079D01*
X17543991Y-12600079D02*
X17534468Y-12581031D01*
X17534468Y-12581031D02*
X17524944Y-12552460D01*
X17524944Y-12552460D02*
X17515420Y-12504841D01*
X17515420Y-12504841D02*
X17515420Y-12466746D01*
X17515420Y-12466746D02*
X17524944Y-12419127D01*
X17524944Y-12419127D02*
X17534468Y-12390555D01*
X17534468Y-12390555D02*
X17543991Y-12371508D01*
X17543991Y-12371508D02*
X17563039Y-12342936D01*
X17563039Y-12342936D02*
X17572563Y-12333412D01*
X17686849Y-12361984D02*
X17705896Y-12361984D01*
X17705896Y-12361984D02*
X17724944Y-12371508D01*
X17724944Y-12371508D02*
X17734468Y-12381031D01*
X17734468Y-12381031D02*
X17743991Y-12400079D01*
X17743991Y-12400079D02*
X17753515Y-12438174D01*
X17753515Y-12438174D02*
X17753515Y-12485793D01*
X17753515Y-12485793D02*
X17743991Y-12523888D01*
X17743991Y-12523888D02*
X17734468Y-12542936D01*
X17734468Y-12542936D02*
X17724944Y-12552460D01*
X17724944Y-12552460D02*
X17705896Y-12561984D01*
X17705896Y-12561984D02*
X17686849Y-12561984D01*
X17686849Y-12561984D02*
X17667801Y-12552460D01*
X17667801Y-12552460D02*
X17658277Y-12542936D01*
X17658277Y-12542936D02*
X17648753Y-12523888D01*
X17648753Y-12523888D02*
X17639230Y-12485793D01*
X17639230Y-12485793D02*
X17639230Y-12438174D01*
X17639230Y-12438174D02*
X17648753Y-12400079D01*
X17648753Y-12400079D02*
X17658277Y-12381031D01*
X17658277Y-12381031D02*
X17667801Y-12371508D01*
X17667801Y-12371508D02*
X17686849Y-12361984D01*
X17991611Y-12561984D02*
X17991611Y-12361984D01*
X18077325Y-12561984D02*
X18077325Y-12457222D01*
X18077325Y-12457222D02*
X18067801Y-12438174D01*
X18067801Y-12438174D02*
X18048753Y-12428650D01*
X18048753Y-12428650D02*
X18020182Y-12428650D01*
X18020182Y-12428650D02*
X18001134Y-12438174D01*
X18001134Y-12438174D02*
X17991611Y-12447698D01*
X18201134Y-12561984D02*
X18182087Y-12552460D01*
X18182087Y-12552460D02*
X18172563Y-12542936D01*
X18172563Y-12542936D02*
X18163039Y-12523888D01*
X18163039Y-12523888D02*
X18163039Y-12466746D01*
X18163039Y-12466746D02*
X18172563Y-12447698D01*
X18172563Y-12447698D02*
X18182087Y-12438174D01*
X18182087Y-12438174D02*
X18201134Y-12428650D01*
X18201134Y-12428650D02*
X18229706Y-12428650D01*
X18229706Y-12428650D02*
X18248753Y-12438174D01*
X18248753Y-12438174D02*
X18258277Y-12447698D01*
X18258277Y-12447698D02*
X18267801Y-12466746D01*
X18267801Y-12466746D02*
X18267801Y-12523888D01*
X18267801Y-12523888D02*
X18258277Y-12542936D01*
X18258277Y-12542936D02*
X18248753Y-12552460D01*
X18248753Y-12552460D02*
X18229706Y-12561984D01*
X18229706Y-12561984D02*
X18201134Y-12561984D01*
X18382087Y-12561984D02*
X18363039Y-12552460D01*
X18363039Y-12552460D02*
X18353515Y-12533412D01*
X18353515Y-12533412D02*
X18353515Y-12361984D01*
X18534468Y-12552460D02*
X18515420Y-12561984D01*
X18515420Y-12561984D02*
X18477325Y-12561984D01*
X18477325Y-12561984D02*
X18458277Y-12552460D01*
X18458277Y-12552460D02*
X18448753Y-12533412D01*
X18448753Y-12533412D02*
X18448753Y-12457222D01*
X18448753Y-12457222D02*
X18458277Y-12438174D01*
X18458277Y-12438174D02*
X18477325Y-12428650D01*
X18477325Y-12428650D02*
X18515420Y-12428650D01*
X18515420Y-12428650D02*
X18534468Y-12438174D01*
X18534468Y-12438174D02*
X18543992Y-12457222D01*
X18543992Y-12457222D02*
X18543992Y-12476269D01*
X18543992Y-12476269D02*
X18448753Y-12495317D01*
X18620182Y-12552460D02*
X18639230Y-12561984D01*
X18639230Y-12561984D02*
X18677325Y-12561984D01*
X18677325Y-12561984D02*
X18696373Y-12552460D01*
X18696373Y-12552460D02*
X18705896Y-12533412D01*
X18705896Y-12533412D02*
X18705896Y-12523888D01*
X18705896Y-12523888D02*
X18696373Y-12504841D01*
X18696373Y-12504841D02*
X18677325Y-12495317D01*
X18677325Y-12495317D02*
X18648753Y-12495317D01*
X18648753Y-12495317D02*
X18629706Y-12485793D01*
X18629706Y-12485793D02*
X18620182Y-12466746D01*
X18620182Y-12466746D02*
X18620182Y-12457222D01*
X18620182Y-12457222D02*
X18629706Y-12438174D01*
X18629706Y-12438174D02*
X18648753Y-12428650D01*
X18648753Y-12428650D02*
X18677325Y-12428650D01*
X18677325Y-12428650D02*
X18696373Y-12438174D01*
X18943992Y-12485793D02*
X19096373Y-12485793D01*
X19020182Y-12561984D02*
X19020182Y-12409603D01*
X19334468Y-12381031D02*
X19343992Y-12371508D01*
X19343992Y-12371508D02*
X19363039Y-12361984D01*
X19363039Y-12361984D02*
X19410658Y-12361984D01*
X19410658Y-12361984D02*
X19429706Y-12371508D01*
X19429706Y-12371508D02*
X19439230Y-12381031D01*
X19439230Y-12381031D02*
X19448754Y-12400079D01*
X19448754Y-12400079D02*
X19448754Y-12419127D01*
X19448754Y-12419127D02*
X19439230Y-12447698D01*
X19439230Y-12447698D02*
X19324944Y-12561984D01*
X19324944Y-12561984D02*
X19448754Y-12561984D01*
X19677325Y-12552460D02*
X19696373Y-12561984D01*
X19696373Y-12561984D02*
X19734468Y-12561984D01*
X19734468Y-12561984D02*
X19753516Y-12552460D01*
X19753516Y-12552460D02*
X19763039Y-12533412D01*
X19763039Y-12533412D02*
X19763039Y-12523888D01*
X19763039Y-12523888D02*
X19753516Y-12504841D01*
X19753516Y-12504841D02*
X19734468Y-12495317D01*
X19734468Y-12495317D02*
X19705896Y-12495317D01*
X19705896Y-12495317D02*
X19686849Y-12485793D01*
X19686849Y-12485793D02*
X19677325Y-12466746D01*
X19677325Y-12466746D02*
X19677325Y-12457222D01*
X19677325Y-12457222D02*
X19686849Y-12438174D01*
X19686849Y-12438174D02*
X19705896Y-12428650D01*
X19705896Y-12428650D02*
X19734468Y-12428650D01*
X19734468Y-12428650D02*
X19753516Y-12438174D01*
X19877325Y-12561984D02*
X19858277Y-12552460D01*
X19858277Y-12552460D02*
X19848754Y-12533412D01*
X19848754Y-12533412D02*
X19848754Y-12361984D01*
X19982087Y-12561984D02*
X19963039Y-12552460D01*
X19963039Y-12552460D02*
X19953516Y-12542936D01*
X19953516Y-12542936D02*
X19943992Y-12523888D01*
X19943992Y-12523888D02*
X19943992Y-12466746D01*
X19943992Y-12466746D02*
X19953516Y-12447698D01*
X19953516Y-12447698D02*
X19963039Y-12438174D01*
X19963039Y-12438174D02*
X19982087Y-12428650D01*
X19982087Y-12428650D02*
X20010658Y-12428650D01*
X20010658Y-12428650D02*
X20029706Y-12438174D01*
X20029706Y-12438174D02*
X20039230Y-12447698D01*
X20039230Y-12447698D02*
X20048754Y-12466746D01*
X20048754Y-12466746D02*
X20048754Y-12523888D01*
X20048754Y-12523888D02*
X20039230Y-12542936D01*
X20039230Y-12542936D02*
X20029706Y-12552460D01*
X20029706Y-12552460D02*
X20010658Y-12561984D01*
X20010658Y-12561984D02*
X19982087Y-12561984D01*
X20105897Y-12428650D02*
X20182087Y-12428650D01*
X20134468Y-12361984D02*
X20134468Y-12533412D01*
X20134468Y-12533412D02*
X20143992Y-12552460D01*
X20143992Y-12552460D02*
X20163039Y-12561984D01*
X20163039Y-12561984D02*
X20182087Y-12561984D01*
X20239230Y-12552460D02*
X20258277Y-12561984D01*
X20258277Y-12561984D02*
X20296373Y-12561984D01*
X20296373Y-12561984D02*
X20315420Y-12552460D01*
X20315420Y-12552460D02*
X20324944Y-12533412D01*
X20324944Y-12533412D02*
X20324944Y-12523888D01*
X20324944Y-12523888D02*
X20315420Y-12504841D01*
X20315420Y-12504841D02*
X20296373Y-12495317D01*
X20296373Y-12495317D02*
X20267801Y-12495317D01*
X20267801Y-12495317D02*
X20248754Y-12485793D01*
X20248754Y-12485793D02*
X20239230Y-12466746D01*
X20239230Y-12466746D02*
X20239230Y-12457222D01*
X20239230Y-12457222D02*
X20248754Y-12438174D01*
X20248754Y-12438174D02*
X20267801Y-12428650D01*
X20267801Y-12428650D02*
X20296373Y-12428650D01*
X20296373Y-12428650D02*
X20315420Y-12438174D01*
X20391611Y-12638174D02*
X20401135Y-12628650D01*
X20401135Y-12628650D02*
X20420182Y-12600079D01*
X20420182Y-12600079D02*
X20429706Y-12581031D01*
X20429706Y-12581031D02*
X20439230Y-12552460D01*
X20439230Y-12552460D02*
X20448754Y-12504841D01*
X20448754Y-12504841D02*
X20448754Y-12466746D01*
X20448754Y-12466746D02*
X20439230Y-12419127D01*
X20439230Y-12419127D02*
X20429706Y-12390555D01*
X20429706Y-12390555D02*
X20420182Y-12371508D01*
X20420182Y-12371508D02*
X20401135Y-12342936D01*
X20401135Y-12342936D02*
X20391611Y-12333412D01*
D12*
X13987249Y-12759249D02*
X13987249Y-12709751D01*
X13937751Y-12709751D01*
X13937751Y-12759249D01*
X13987249Y-12759249D01*
D11*
X14296372Y-12625984D02*
X14315420Y-12625984D01*
X14315420Y-12625984D02*
X14334467Y-12635508D01*
X14334467Y-12635508D02*
X14343991Y-12645031D01*
X14343991Y-12645031D02*
X14353515Y-12664079D01*
X14353515Y-12664079D02*
X14363039Y-12702174D01*
X14363039Y-12702174D02*
X14363039Y-12749793D01*
X14363039Y-12749793D02*
X14353515Y-12787888D01*
X14353515Y-12787888D02*
X14343991Y-12806936D01*
X14343991Y-12806936D02*
X14334467Y-12816460D01*
X14334467Y-12816460D02*
X14315420Y-12825984D01*
X14315420Y-12825984D02*
X14296372Y-12825984D01*
X14296372Y-12825984D02*
X14277324Y-12816460D01*
X14277324Y-12816460D02*
X14267801Y-12806936D01*
X14267801Y-12806936D02*
X14258277Y-12787888D01*
X14258277Y-12787888D02*
X14248753Y-12749793D01*
X14248753Y-12749793D02*
X14248753Y-12702174D01*
X14248753Y-12702174D02*
X14258277Y-12664079D01*
X14258277Y-12664079D02*
X14267801Y-12645031D01*
X14267801Y-12645031D02*
X14277324Y-12635508D01*
X14277324Y-12635508D02*
X14296372Y-12625984D01*
X14448753Y-12806936D02*
X14458277Y-12816460D01*
X14458277Y-12816460D02*
X14448753Y-12825984D01*
X14448753Y-12825984D02*
X14439229Y-12816460D01*
X14439229Y-12816460D02*
X14448753Y-12806936D01*
X14448753Y-12806936D02*
X14448753Y-12825984D01*
X14524943Y-12625984D02*
X14658277Y-12625984D01*
X14658277Y-12625984D02*
X14572562Y-12825984D01*
X14772562Y-12625984D02*
X14791610Y-12625984D01*
X14791610Y-12625984D02*
X14810658Y-12635508D01*
X14810658Y-12635508D02*
X14820182Y-12645031D01*
X14820182Y-12645031D02*
X14829705Y-12664079D01*
X14829705Y-12664079D02*
X14839229Y-12702174D01*
X14839229Y-12702174D02*
X14839229Y-12749793D01*
X14839229Y-12749793D02*
X14829705Y-12787888D01*
X14829705Y-12787888D02*
X14820182Y-12806936D01*
X14820182Y-12806936D02*
X14810658Y-12816460D01*
X14810658Y-12816460D02*
X14791610Y-12825984D01*
X14791610Y-12825984D02*
X14772562Y-12825984D01*
X14772562Y-12825984D02*
X14753515Y-12816460D01*
X14753515Y-12816460D02*
X14743991Y-12806936D01*
X14743991Y-12806936D02*
X14734467Y-12787888D01*
X14734467Y-12787888D02*
X14724943Y-12749793D01*
X14724943Y-12749793D02*
X14724943Y-12702174D01*
X14724943Y-12702174D02*
X14734467Y-12664079D01*
X14734467Y-12664079D02*
X14743991Y-12645031D01*
X14743991Y-12645031D02*
X14753515Y-12635508D01*
X14753515Y-12635508D02*
X14772562Y-12625984D01*
X14963039Y-12625984D02*
X14982086Y-12625984D01*
X14982086Y-12625984D02*
X15001134Y-12635508D01*
X15001134Y-12635508D02*
X15010658Y-12645031D01*
X15010658Y-12645031D02*
X15020182Y-12664079D01*
X15020182Y-12664079D02*
X15029705Y-12702174D01*
X15029705Y-12702174D02*
X15029705Y-12749793D01*
X15029705Y-12749793D02*
X15020182Y-12787888D01*
X15020182Y-12787888D02*
X15010658Y-12806936D01*
X15010658Y-12806936D02*
X15001134Y-12816460D01*
X15001134Y-12816460D02*
X14982086Y-12825984D01*
X14982086Y-12825984D02*
X14963039Y-12825984D01*
X14963039Y-12825984D02*
X14943991Y-12816460D01*
X14943991Y-12816460D02*
X14934467Y-12806936D01*
X14934467Y-12806936D02*
X14924943Y-12787888D01*
X14924943Y-12787888D02*
X14915420Y-12749793D01*
X14915420Y-12749793D02*
X14915420Y-12702174D01*
X14915420Y-12702174D02*
X14924943Y-12664079D01*
X14924943Y-12664079D02*
X14934467Y-12645031D01*
X14934467Y-12645031D02*
X14943991Y-12635508D01*
X14943991Y-12635508D02*
X14963039Y-12625984D01*
X15115420Y-12825984D02*
X15115420Y-12692650D01*
X15115420Y-12711698D02*
X15124943Y-12702174D01*
X15124943Y-12702174D02*
X15143991Y-12692650D01*
X15143991Y-12692650D02*
X15172563Y-12692650D01*
X15172563Y-12692650D02*
X15191610Y-12702174D01*
X15191610Y-12702174D02*
X15201134Y-12721222D01*
X15201134Y-12721222D02*
X15201134Y-12825984D01*
X15201134Y-12721222D02*
X15210658Y-12702174D01*
X15210658Y-12702174D02*
X15229705Y-12692650D01*
X15229705Y-12692650D02*
X15258277Y-12692650D01*
X15258277Y-12692650D02*
X15277324Y-12702174D01*
X15277324Y-12702174D02*
X15286848Y-12721222D01*
X15286848Y-12721222D02*
X15286848Y-12825984D01*
X15382086Y-12825984D02*
X15382086Y-12692650D01*
X15382086Y-12711698D02*
X15391610Y-12702174D01*
X15391610Y-12702174D02*
X15410658Y-12692650D01*
X15410658Y-12692650D02*
X15439229Y-12692650D01*
X15439229Y-12692650D02*
X15458277Y-12702174D01*
X15458277Y-12702174D02*
X15467801Y-12721222D01*
X15467801Y-12721222D02*
X15467801Y-12825984D01*
X15467801Y-12721222D02*
X15477324Y-12702174D01*
X15477324Y-12702174D02*
X15496372Y-12692650D01*
X15496372Y-12692650D02*
X15524943Y-12692650D01*
X15524943Y-12692650D02*
X15543991Y-12702174D01*
X15543991Y-12702174D02*
X15553515Y-12721222D01*
X15553515Y-12721222D02*
X15553515Y-12825984D01*
X15943991Y-12616460D02*
X15772563Y-12873603D01*
X16201134Y-12625984D02*
X16220182Y-12625984D01*
X16220182Y-12625984D02*
X16239229Y-12635508D01*
X16239229Y-12635508D02*
X16248753Y-12645031D01*
X16248753Y-12645031D02*
X16258277Y-12664079D01*
X16258277Y-12664079D02*
X16267801Y-12702174D01*
X16267801Y-12702174D02*
X16267801Y-12749793D01*
X16267801Y-12749793D02*
X16258277Y-12787888D01*
X16258277Y-12787888D02*
X16248753Y-12806936D01*
X16248753Y-12806936D02*
X16239229Y-12816460D01*
X16239229Y-12816460D02*
X16220182Y-12825984D01*
X16220182Y-12825984D02*
X16201134Y-12825984D01*
X16201134Y-12825984D02*
X16182086Y-12816460D01*
X16182086Y-12816460D02*
X16172563Y-12806936D01*
X16172563Y-12806936D02*
X16163039Y-12787888D01*
X16163039Y-12787888D02*
X16153515Y-12749793D01*
X16153515Y-12749793D02*
X16153515Y-12702174D01*
X16153515Y-12702174D02*
X16163039Y-12664079D01*
X16163039Y-12664079D02*
X16172563Y-12645031D01*
X16172563Y-12645031D02*
X16182086Y-12635508D01*
X16182086Y-12635508D02*
X16201134Y-12625984D01*
X16353515Y-12806936D02*
X16363039Y-12816460D01*
X16363039Y-12816460D02*
X16353515Y-12825984D01*
X16353515Y-12825984D02*
X16343991Y-12816460D01*
X16343991Y-12816460D02*
X16353515Y-12806936D01*
X16353515Y-12806936D02*
X16353515Y-12825984D01*
X16486848Y-12625984D02*
X16505896Y-12625984D01*
X16505896Y-12625984D02*
X16524944Y-12635508D01*
X16524944Y-12635508D02*
X16534467Y-12645031D01*
X16534467Y-12645031D02*
X16543991Y-12664079D01*
X16543991Y-12664079D02*
X16553515Y-12702174D01*
X16553515Y-12702174D02*
X16553515Y-12749793D01*
X16553515Y-12749793D02*
X16543991Y-12787888D01*
X16543991Y-12787888D02*
X16534467Y-12806936D01*
X16534467Y-12806936D02*
X16524944Y-12816460D01*
X16524944Y-12816460D02*
X16505896Y-12825984D01*
X16505896Y-12825984D02*
X16486848Y-12825984D01*
X16486848Y-12825984D02*
X16467801Y-12816460D01*
X16467801Y-12816460D02*
X16458277Y-12806936D01*
X16458277Y-12806936D02*
X16448753Y-12787888D01*
X16448753Y-12787888D02*
X16439229Y-12749793D01*
X16439229Y-12749793D02*
X16439229Y-12702174D01*
X16439229Y-12702174D02*
X16448753Y-12664079D01*
X16448753Y-12664079D02*
X16458277Y-12645031D01*
X16458277Y-12645031D02*
X16467801Y-12635508D01*
X16467801Y-12635508D02*
X16486848Y-12625984D01*
X16629706Y-12645031D02*
X16639229Y-12635508D01*
X16639229Y-12635508D02*
X16658277Y-12625984D01*
X16658277Y-12625984D02*
X16705896Y-12625984D01*
X16705896Y-12625984D02*
X16724944Y-12635508D01*
X16724944Y-12635508D02*
X16734467Y-12645031D01*
X16734467Y-12645031D02*
X16743991Y-12664079D01*
X16743991Y-12664079D02*
X16743991Y-12683127D01*
X16743991Y-12683127D02*
X16734467Y-12711698D01*
X16734467Y-12711698D02*
X16620182Y-12825984D01*
X16620182Y-12825984D02*
X16743991Y-12825984D01*
X16810658Y-12625984D02*
X16943991Y-12625984D01*
X16943991Y-12625984D02*
X16858277Y-12825984D01*
X17105896Y-12625984D02*
X17067801Y-12625984D01*
X17067801Y-12625984D02*
X17048753Y-12635508D01*
X17048753Y-12635508D02*
X17039229Y-12645031D01*
X17039229Y-12645031D02*
X17020182Y-12673603D01*
X17020182Y-12673603D02*
X17010658Y-12711698D01*
X17010658Y-12711698D02*
X17010658Y-12787888D01*
X17010658Y-12787888D02*
X17020182Y-12806936D01*
X17020182Y-12806936D02*
X17029706Y-12816460D01*
X17029706Y-12816460D02*
X17048753Y-12825984D01*
X17048753Y-12825984D02*
X17086849Y-12825984D01*
X17086849Y-12825984D02*
X17105896Y-12816460D01*
X17105896Y-12816460D02*
X17115420Y-12806936D01*
X17115420Y-12806936D02*
X17124944Y-12787888D01*
X17124944Y-12787888D02*
X17124944Y-12740269D01*
X17124944Y-12740269D02*
X17115420Y-12721222D01*
X17115420Y-12721222D02*
X17105896Y-12711698D01*
X17105896Y-12711698D02*
X17086849Y-12702174D01*
X17086849Y-12702174D02*
X17048753Y-12702174D01*
X17048753Y-12702174D02*
X17029706Y-12711698D01*
X17029706Y-12711698D02*
X17020182Y-12721222D01*
X17020182Y-12721222D02*
X17010658Y-12740269D01*
X17201134Y-12625984D02*
X17201134Y-12664079D01*
X17277325Y-12625984D02*
X17277325Y-12664079D01*
X17572563Y-12902174D02*
X17563039Y-12892650D01*
X17563039Y-12892650D02*
X17543991Y-12864079D01*
X17543991Y-12864079D02*
X17534468Y-12845031D01*
X17534468Y-12845031D02*
X17524944Y-12816460D01*
X17524944Y-12816460D02*
X17515420Y-12768841D01*
X17515420Y-12768841D02*
X17515420Y-12730746D01*
X17515420Y-12730746D02*
X17524944Y-12683127D01*
X17524944Y-12683127D02*
X17534468Y-12654555D01*
X17534468Y-12654555D02*
X17543991Y-12635508D01*
X17543991Y-12635508D02*
X17563039Y-12606936D01*
X17563039Y-12606936D02*
X17572563Y-12597412D01*
X17753515Y-12825984D02*
X17639230Y-12825984D01*
X17696372Y-12825984D02*
X17696372Y-12625984D01*
X17696372Y-12625984D02*
X17677325Y-12654555D01*
X17677325Y-12654555D02*
X17658277Y-12673603D01*
X17658277Y-12673603D02*
X17639230Y-12683127D01*
X17991611Y-12825984D02*
X17991611Y-12625984D01*
X18077325Y-12825984D02*
X18077325Y-12721222D01*
X18077325Y-12721222D02*
X18067801Y-12702174D01*
X18067801Y-12702174D02*
X18048753Y-12692650D01*
X18048753Y-12692650D02*
X18020182Y-12692650D01*
X18020182Y-12692650D02*
X18001134Y-12702174D01*
X18001134Y-12702174D02*
X17991611Y-12711698D01*
X18201134Y-12825984D02*
X18182087Y-12816460D01*
X18182087Y-12816460D02*
X18172563Y-12806936D01*
X18172563Y-12806936D02*
X18163039Y-12787888D01*
X18163039Y-12787888D02*
X18163039Y-12730746D01*
X18163039Y-12730746D02*
X18172563Y-12711698D01*
X18172563Y-12711698D02*
X18182087Y-12702174D01*
X18182087Y-12702174D02*
X18201134Y-12692650D01*
X18201134Y-12692650D02*
X18229706Y-12692650D01*
X18229706Y-12692650D02*
X18248753Y-12702174D01*
X18248753Y-12702174D02*
X18258277Y-12711698D01*
X18258277Y-12711698D02*
X18267801Y-12730746D01*
X18267801Y-12730746D02*
X18267801Y-12787888D01*
X18267801Y-12787888D02*
X18258277Y-12806936D01*
X18258277Y-12806936D02*
X18248753Y-12816460D01*
X18248753Y-12816460D02*
X18229706Y-12825984D01*
X18229706Y-12825984D02*
X18201134Y-12825984D01*
X18382087Y-12825984D02*
X18363039Y-12816460D01*
X18363039Y-12816460D02*
X18353515Y-12797412D01*
X18353515Y-12797412D02*
X18353515Y-12625984D01*
X18534468Y-12816460D02*
X18515420Y-12825984D01*
X18515420Y-12825984D02*
X18477325Y-12825984D01*
X18477325Y-12825984D02*
X18458277Y-12816460D01*
X18458277Y-12816460D02*
X18448753Y-12797412D01*
X18448753Y-12797412D02*
X18448753Y-12721222D01*
X18448753Y-12721222D02*
X18458277Y-12702174D01*
X18458277Y-12702174D02*
X18477325Y-12692650D01*
X18477325Y-12692650D02*
X18515420Y-12692650D01*
X18515420Y-12692650D02*
X18534468Y-12702174D01*
X18534468Y-12702174D02*
X18543992Y-12721222D01*
X18543992Y-12721222D02*
X18543992Y-12740269D01*
X18543992Y-12740269D02*
X18448753Y-12759317D01*
X18610658Y-12902174D02*
X18620182Y-12892650D01*
X18620182Y-12892650D02*
X18639230Y-12864079D01*
X18639230Y-12864079D02*
X18648753Y-12845031D01*
X18648753Y-12845031D02*
X18658277Y-12816460D01*
X18658277Y-12816460D02*
X18667801Y-12768841D01*
X18667801Y-12768841D02*
X18667801Y-12730746D01*
X18667801Y-12730746D02*
X18658277Y-12683127D01*
X18658277Y-12683127D02*
X18648753Y-12654555D01*
X18648753Y-12654555D02*
X18639230Y-12635508D01*
X18639230Y-12635508D02*
X18620182Y-12606936D01*
X18620182Y-12606936D02*
X18610658Y-12597412D01*
D12*
X13957500Y-13038500D02*
X13997500Y-12998500D01*
X13957500Y-12958500D01*
X13917500Y-12998500D01*
X13957500Y-13038500D01*
D11*
X14296372Y-12889984D02*
X14315420Y-12889984D01*
X14315420Y-12889984D02*
X14334467Y-12899508D01*
X14334467Y-12899508D02*
X14343991Y-12909031D01*
X14343991Y-12909031D02*
X14353515Y-12928079D01*
X14353515Y-12928079D02*
X14363039Y-12966174D01*
X14363039Y-12966174D02*
X14363039Y-13013793D01*
X14363039Y-13013793D02*
X14353515Y-13051888D01*
X14353515Y-13051888D02*
X14343991Y-13070936D01*
X14343991Y-13070936D02*
X14334467Y-13080460D01*
X14334467Y-13080460D02*
X14315420Y-13089984D01*
X14315420Y-13089984D02*
X14296372Y-13089984D01*
X14296372Y-13089984D02*
X14277324Y-13080460D01*
X14277324Y-13080460D02*
X14267801Y-13070936D01*
X14267801Y-13070936D02*
X14258277Y-13051888D01*
X14258277Y-13051888D02*
X14248753Y-13013793D01*
X14248753Y-13013793D02*
X14248753Y-12966174D01*
X14248753Y-12966174D02*
X14258277Y-12928079D01*
X14258277Y-12928079D02*
X14267801Y-12909031D01*
X14267801Y-12909031D02*
X14277324Y-12899508D01*
X14277324Y-12899508D02*
X14296372Y-12889984D01*
X14448753Y-13070936D02*
X14458277Y-13080460D01*
X14458277Y-13080460D02*
X14448753Y-13089984D01*
X14448753Y-13089984D02*
X14439229Y-13080460D01*
X14439229Y-13080460D02*
X14448753Y-13070936D01*
X14448753Y-13070936D02*
X14448753Y-13089984D01*
X14572562Y-12975698D02*
X14553515Y-12966174D01*
X14553515Y-12966174D02*
X14543991Y-12956650D01*
X14543991Y-12956650D02*
X14534467Y-12937603D01*
X14534467Y-12937603D02*
X14534467Y-12928079D01*
X14534467Y-12928079D02*
X14543991Y-12909031D01*
X14543991Y-12909031D02*
X14553515Y-12899508D01*
X14553515Y-12899508D02*
X14572562Y-12889984D01*
X14572562Y-12889984D02*
X14610658Y-12889984D01*
X14610658Y-12889984D02*
X14629705Y-12899508D01*
X14629705Y-12899508D02*
X14639229Y-12909031D01*
X14639229Y-12909031D02*
X14648753Y-12928079D01*
X14648753Y-12928079D02*
X14648753Y-12937603D01*
X14648753Y-12937603D02*
X14639229Y-12956650D01*
X14639229Y-12956650D02*
X14629705Y-12966174D01*
X14629705Y-12966174D02*
X14610658Y-12975698D01*
X14610658Y-12975698D02*
X14572562Y-12975698D01*
X14572562Y-12975698D02*
X14553515Y-12985222D01*
X14553515Y-12985222D02*
X14543991Y-12994746D01*
X14543991Y-12994746D02*
X14534467Y-13013793D01*
X14534467Y-13013793D02*
X14534467Y-13051888D01*
X14534467Y-13051888D02*
X14543991Y-13070936D01*
X14543991Y-13070936D02*
X14553515Y-13080460D01*
X14553515Y-13080460D02*
X14572562Y-13089984D01*
X14572562Y-13089984D02*
X14610658Y-13089984D01*
X14610658Y-13089984D02*
X14629705Y-13080460D01*
X14629705Y-13080460D02*
X14639229Y-13070936D01*
X14639229Y-13070936D02*
X14648753Y-13051888D01*
X14648753Y-13051888D02*
X14648753Y-13013793D01*
X14648753Y-13013793D02*
X14639229Y-12994746D01*
X14639229Y-12994746D02*
X14629705Y-12985222D01*
X14629705Y-12985222D02*
X14610658Y-12975698D01*
X14772562Y-12889984D02*
X14791610Y-12889984D01*
X14791610Y-12889984D02*
X14810658Y-12899508D01*
X14810658Y-12899508D02*
X14820182Y-12909031D01*
X14820182Y-12909031D02*
X14829705Y-12928079D01*
X14829705Y-12928079D02*
X14839229Y-12966174D01*
X14839229Y-12966174D02*
X14839229Y-13013793D01*
X14839229Y-13013793D02*
X14829705Y-13051888D01*
X14829705Y-13051888D02*
X14820182Y-13070936D01*
X14820182Y-13070936D02*
X14810658Y-13080460D01*
X14810658Y-13080460D02*
X14791610Y-13089984D01*
X14791610Y-13089984D02*
X14772562Y-13089984D01*
X14772562Y-13089984D02*
X14753515Y-13080460D01*
X14753515Y-13080460D02*
X14743991Y-13070936D01*
X14743991Y-13070936D02*
X14734467Y-13051888D01*
X14734467Y-13051888D02*
X14724943Y-13013793D01*
X14724943Y-13013793D02*
X14724943Y-12966174D01*
X14724943Y-12966174D02*
X14734467Y-12928079D01*
X14734467Y-12928079D02*
X14743991Y-12909031D01*
X14743991Y-12909031D02*
X14753515Y-12899508D01*
X14753515Y-12899508D02*
X14772562Y-12889984D01*
X14963039Y-12889984D02*
X14982086Y-12889984D01*
X14982086Y-12889984D02*
X15001134Y-12899508D01*
X15001134Y-12899508D02*
X15010658Y-12909031D01*
X15010658Y-12909031D02*
X15020182Y-12928079D01*
X15020182Y-12928079D02*
X15029705Y-12966174D01*
X15029705Y-12966174D02*
X15029705Y-13013793D01*
X15029705Y-13013793D02*
X15020182Y-13051888D01*
X15020182Y-13051888D02*
X15010658Y-13070936D01*
X15010658Y-13070936D02*
X15001134Y-13080460D01*
X15001134Y-13080460D02*
X14982086Y-13089984D01*
X14982086Y-13089984D02*
X14963039Y-13089984D01*
X14963039Y-13089984D02*
X14943991Y-13080460D01*
X14943991Y-13080460D02*
X14934467Y-13070936D01*
X14934467Y-13070936D02*
X14924943Y-13051888D01*
X14924943Y-13051888D02*
X14915420Y-13013793D01*
X14915420Y-13013793D02*
X14915420Y-12966174D01*
X14915420Y-12966174D02*
X14924943Y-12928079D01*
X14924943Y-12928079D02*
X14934467Y-12909031D01*
X14934467Y-12909031D02*
X14943991Y-12899508D01*
X14943991Y-12899508D02*
X14963039Y-12889984D01*
X15115420Y-13089984D02*
X15115420Y-12956650D01*
X15115420Y-12975698D02*
X15124943Y-12966174D01*
X15124943Y-12966174D02*
X15143991Y-12956650D01*
X15143991Y-12956650D02*
X15172563Y-12956650D01*
X15172563Y-12956650D02*
X15191610Y-12966174D01*
X15191610Y-12966174D02*
X15201134Y-12985222D01*
X15201134Y-12985222D02*
X15201134Y-13089984D01*
X15201134Y-12985222D02*
X15210658Y-12966174D01*
X15210658Y-12966174D02*
X15229705Y-12956650D01*
X15229705Y-12956650D02*
X15258277Y-12956650D01*
X15258277Y-12956650D02*
X15277324Y-12966174D01*
X15277324Y-12966174D02*
X15286848Y-12985222D01*
X15286848Y-12985222D02*
X15286848Y-13089984D01*
X15382086Y-13089984D02*
X15382086Y-12956650D01*
X15382086Y-12975698D02*
X15391610Y-12966174D01*
X15391610Y-12966174D02*
X15410658Y-12956650D01*
X15410658Y-12956650D02*
X15439229Y-12956650D01*
X15439229Y-12956650D02*
X15458277Y-12966174D01*
X15458277Y-12966174D02*
X15467801Y-12985222D01*
X15467801Y-12985222D02*
X15467801Y-13089984D01*
X15467801Y-12985222D02*
X15477324Y-12966174D01*
X15477324Y-12966174D02*
X15496372Y-12956650D01*
X15496372Y-12956650D02*
X15524943Y-12956650D01*
X15524943Y-12956650D02*
X15543991Y-12966174D01*
X15543991Y-12966174D02*
X15553515Y-12985222D01*
X15553515Y-12985222D02*
X15553515Y-13089984D01*
X15943991Y-12880460D02*
X15772563Y-13137603D01*
X16201134Y-12889984D02*
X16220182Y-12889984D01*
X16220182Y-12889984D02*
X16239229Y-12899508D01*
X16239229Y-12899508D02*
X16248753Y-12909031D01*
X16248753Y-12909031D02*
X16258277Y-12928079D01*
X16258277Y-12928079D02*
X16267801Y-12966174D01*
X16267801Y-12966174D02*
X16267801Y-13013793D01*
X16267801Y-13013793D02*
X16258277Y-13051888D01*
X16258277Y-13051888D02*
X16248753Y-13070936D01*
X16248753Y-13070936D02*
X16239229Y-13080460D01*
X16239229Y-13080460D02*
X16220182Y-13089984D01*
X16220182Y-13089984D02*
X16201134Y-13089984D01*
X16201134Y-13089984D02*
X16182086Y-13080460D01*
X16182086Y-13080460D02*
X16172563Y-13070936D01*
X16172563Y-13070936D02*
X16163039Y-13051888D01*
X16163039Y-13051888D02*
X16153515Y-13013793D01*
X16153515Y-13013793D02*
X16153515Y-12966174D01*
X16153515Y-12966174D02*
X16163039Y-12928079D01*
X16163039Y-12928079D02*
X16172563Y-12909031D01*
X16172563Y-12909031D02*
X16182086Y-12899508D01*
X16182086Y-12899508D02*
X16201134Y-12889984D01*
X16353515Y-13070936D02*
X16363039Y-13080460D01*
X16363039Y-13080460D02*
X16353515Y-13089984D01*
X16353515Y-13089984D02*
X16343991Y-13080460D01*
X16343991Y-13080460D02*
X16353515Y-13070936D01*
X16353515Y-13070936D02*
X16353515Y-13089984D01*
X16486848Y-12889984D02*
X16505896Y-12889984D01*
X16505896Y-12889984D02*
X16524944Y-12899508D01*
X16524944Y-12899508D02*
X16534467Y-12909031D01*
X16534467Y-12909031D02*
X16543991Y-12928079D01*
X16543991Y-12928079D02*
X16553515Y-12966174D01*
X16553515Y-12966174D02*
X16553515Y-13013793D01*
X16553515Y-13013793D02*
X16543991Y-13051888D01*
X16543991Y-13051888D02*
X16534467Y-13070936D01*
X16534467Y-13070936D02*
X16524944Y-13080460D01*
X16524944Y-13080460D02*
X16505896Y-13089984D01*
X16505896Y-13089984D02*
X16486848Y-13089984D01*
X16486848Y-13089984D02*
X16467801Y-13080460D01*
X16467801Y-13080460D02*
X16458277Y-13070936D01*
X16458277Y-13070936D02*
X16448753Y-13051888D01*
X16448753Y-13051888D02*
X16439229Y-13013793D01*
X16439229Y-13013793D02*
X16439229Y-12966174D01*
X16439229Y-12966174D02*
X16448753Y-12928079D01*
X16448753Y-12928079D02*
X16458277Y-12909031D01*
X16458277Y-12909031D02*
X16467801Y-12899508D01*
X16467801Y-12899508D02*
X16486848Y-12889984D01*
X16620182Y-12889984D02*
X16743991Y-12889984D01*
X16743991Y-12889984D02*
X16677325Y-12966174D01*
X16677325Y-12966174D02*
X16705896Y-12966174D01*
X16705896Y-12966174D02*
X16724944Y-12975698D01*
X16724944Y-12975698D02*
X16734467Y-12985222D01*
X16734467Y-12985222D02*
X16743991Y-13004269D01*
X16743991Y-13004269D02*
X16743991Y-13051888D01*
X16743991Y-13051888D02*
X16734467Y-13070936D01*
X16734467Y-13070936D02*
X16724944Y-13080460D01*
X16724944Y-13080460D02*
X16705896Y-13089984D01*
X16705896Y-13089984D02*
X16648753Y-13089984D01*
X16648753Y-13089984D02*
X16629706Y-13080460D01*
X16629706Y-13080460D02*
X16620182Y-13070936D01*
X16934468Y-13089984D02*
X16820182Y-13089984D01*
X16877325Y-13089984D02*
X16877325Y-12889984D01*
X16877325Y-12889984D02*
X16858277Y-12918555D01*
X16858277Y-12918555D02*
X16839229Y-12937603D01*
X16839229Y-12937603D02*
X16820182Y-12947127D01*
X17115420Y-12889984D02*
X17020182Y-12889984D01*
X17020182Y-12889984D02*
X17010658Y-12985222D01*
X17010658Y-12985222D02*
X17020182Y-12975698D01*
X17020182Y-12975698D02*
X17039229Y-12966174D01*
X17039229Y-12966174D02*
X17086849Y-12966174D01*
X17086849Y-12966174D02*
X17105896Y-12975698D01*
X17105896Y-12975698D02*
X17115420Y-12985222D01*
X17115420Y-12985222D02*
X17124944Y-13004269D01*
X17124944Y-13004269D02*
X17124944Y-13051888D01*
X17124944Y-13051888D02*
X17115420Y-13070936D01*
X17115420Y-13070936D02*
X17105896Y-13080460D01*
X17105896Y-13080460D02*
X17086849Y-13089984D01*
X17086849Y-13089984D02*
X17039229Y-13089984D01*
X17039229Y-13089984D02*
X17020182Y-13080460D01*
X17020182Y-13080460D02*
X17010658Y-13070936D01*
X17201134Y-12889984D02*
X17201134Y-12928079D01*
X17277325Y-12889984D02*
X17277325Y-12928079D01*
X17572563Y-13166174D02*
X17563039Y-13156650D01*
X17563039Y-13156650D02*
X17543991Y-13128079D01*
X17543991Y-13128079D02*
X17534468Y-13109031D01*
X17534468Y-13109031D02*
X17524944Y-13080460D01*
X17524944Y-13080460D02*
X17515420Y-13032841D01*
X17515420Y-13032841D02*
X17515420Y-12994746D01*
X17515420Y-12994746D02*
X17524944Y-12947127D01*
X17524944Y-12947127D02*
X17534468Y-12918555D01*
X17534468Y-12918555D02*
X17543991Y-12899508D01*
X17543991Y-12899508D02*
X17563039Y-12870936D01*
X17563039Y-12870936D02*
X17572563Y-12861412D01*
X17734468Y-12889984D02*
X17696372Y-12889984D01*
X17696372Y-12889984D02*
X17677325Y-12899508D01*
X17677325Y-12899508D02*
X17667801Y-12909031D01*
X17667801Y-12909031D02*
X17648753Y-12937603D01*
X17648753Y-12937603D02*
X17639230Y-12975698D01*
X17639230Y-12975698D02*
X17639230Y-13051888D01*
X17639230Y-13051888D02*
X17648753Y-13070936D01*
X17648753Y-13070936D02*
X17658277Y-13080460D01*
X17658277Y-13080460D02*
X17677325Y-13089984D01*
X17677325Y-13089984D02*
X17715420Y-13089984D01*
X17715420Y-13089984D02*
X17734468Y-13080460D01*
X17734468Y-13080460D02*
X17743991Y-13070936D01*
X17743991Y-13070936D02*
X17753515Y-13051888D01*
X17753515Y-13051888D02*
X17753515Y-13004269D01*
X17753515Y-13004269D02*
X17743991Y-12985222D01*
X17743991Y-12985222D02*
X17734468Y-12975698D01*
X17734468Y-12975698D02*
X17715420Y-12966174D01*
X17715420Y-12966174D02*
X17677325Y-12966174D01*
X17677325Y-12966174D02*
X17658277Y-12975698D01*
X17658277Y-12975698D02*
X17648753Y-12985222D01*
X17648753Y-12985222D02*
X17639230Y-13004269D01*
X17991611Y-13089984D02*
X17991611Y-12889984D01*
X18077325Y-13089984D02*
X18077325Y-12985222D01*
X18077325Y-12985222D02*
X18067801Y-12966174D01*
X18067801Y-12966174D02*
X18048753Y-12956650D01*
X18048753Y-12956650D02*
X18020182Y-12956650D01*
X18020182Y-12956650D02*
X18001134Y-12966174D01*
X18001134Y-12966174D02*
X17991611Y-12975698D01*
X18201134Y-13089984D02*
X18182087Y-13080460D01*
X18182087Y-13080460D02*
X18172563Y-13070936D01*
X18172563Y-13070936D02*
X18163039Y-13051888D01*
X18163039Y-13051888D02*
X18163039Y-12994746D01*
X18163039Y-12994746D02*
X18172563Y-12975698D01*
X18172563Y-12975698D02*
X18182087Y-12966174D01*
X18182087Y-12966174D02*
X18201134Y-12956650D01*
X18201134Y-12956650D02*
X18229706Y-12956650D01*
X18229706Y-12956650D02*
X18248753Y-12966174D01*
X18248753Y-12966174D02*
X18258277Y-12975698D01*
X18258277Y-12975698D02*
X18267801Y-12994746D01*
X18267801Y-12994746D02*
X18267801Y-13051888D01*
X18267801Y-13051888D02*
X18258277Y-13070936D01*
X18258277Y-13070936D02*
X18248753Y-13080460D01*
X18248753Y-13080460D02*
X18229706Y-13089984D01*
X18229706Y-13089984D02*
X18201134Y-13089984D01*
X18382087Y-13089984D02*
X18363039Y-13080460D01*
X18363039Y-13080460D02*
X18353515Y-13061412D01*
X18353515Y-13061412D02*
X18353515Y-12889984D01*
X18534468Y-13080460D02*
X18515420Y-13089984D01*
X18515420Y-13089984D02*
X18477325Y-13089984D01*
X18477325Y-13089984D02*
X18458277Y-13080460D01*
X18458277Y-13080460D02*
X18448753Y-13061412D01*
X18448753Y-13061412D02*
X18448753Y-12985222D01*
X18448753Y-12985222D02*
X18458277Y-12966174D01*
X18458277Y-12966174D02*
X18477325Y-12956650D01*
X18477325Y-12956650D02*
X18515420Y-12956650D01*
X18515420Y-12956650D02*
X18534468Y-12966174D01*
X18534468Y-12966174D02*
X18543992Y-12985222D01*
X18543992Y-12985222D02*
X18543992Y-13004269D01*
X18543992Y-13004269D02*
X18448753Y-13023317D01*
X18620182Y-13080460D02*
X18639230Y-13089984D01*
X18639230Y-13089984D02*
X18677325Y-13089984D01*
X18677325Y-13089984D02*
X18696373Y-13080460D01*
X18696373Y-13080460D02*
X18705896Y-13061412D01*
X18705896Y-13061412D02*
X18705896Y-13051888D01*
X18705896Y-13051888D02*
X18696373Y-13032841D01*
X18696373Y-13032841D02*
X18677325Y-13023317D01*
X18677325Y-13023317D02*
X18648753Y-13023317D01*
X18648753Y-13023317D02*
X18629706Y-13013793D01*
X18629706Y-13013793D02*
X18620182Y-12994746D01*
X18620182Y-12994746D02*
X18620182Y-12985222D01*
X18620182Y-12985222D02*
X18629706Y-12966174D01*
X18629706Y-12966174D02*
X18648753Y-12956650D01*
X18648753Y-12956650D02*
X18677325Y-12956650D01*
X18677325Y-12956650D02*
X18696373Y-12966174D01*
X18772563Y-13166174D02*
X18782087Y-13156650D01*
X18782087Y-13156650D02*
X18801134Y-13128079D01*
X18801134Y-13128079D02*
X18810658Y-13109031D01*
X18810658Y-13109031D02*
X18820182Y-13080460D01*
X18820182Y-13080460D02*
X18829706Y-13032841D01*
X18829706Y-13032841D02*
X18829706Y-12994746D01*
X18829706Y-12994746D02*
X18820182Y-12947127D01*
X18820182Y-12947127D02*
X18810658Y-12918555D01*
X18810658Y-12918555D02*
X18801134Y-12899508D01*
X18801134Y-12899508D02*
X18782087Y-12870936D01*
X18782087Y-12870936D02*
X18772563Y-12861412D01*
D13*
X13887500Y-13207500D02*
X13997500Y-13317500D01*
X13997500Y-13207500D02*
X13887500Y-13317500D01*
X13997500Y-13262500D02*
G75*
G02*
X13887500Y-13262500I-55000J0D01*
G01*
X13887500Y-13262500D02*
G75*
G02*
X13997500Y-13262500I55000J0D01*
G01*
D11*
X14363039Y-13353984D02*
X14248753Y-13353984D01*
X14305896Y-13353984D02*
X14305896Y-13153984D01*
X14305896Y-13153984D02*
X14286848Y-13182555D01*
X14286848Y-13182555D02*
X14267801Y-13201603D01*
X14267801Y-13201603D02*
X14248753Y-13211127D01*
X14448753Y-13334936D02*
X14458277Y-13344460D01*
X14458277Y-13344460D02*
X14448753Y-13353984D01*
X14448753Y-13353984D02*
X14439229Y-13344460D01*
X14439229Y-13344460D02*
X14448753Y-13334936D01*
X14448753Y-13334936D02*
X14448753Y-13353984D01*
X14648753Y-13353984D02*
X14534467Y-13353984D01*
X14591610Y-13353984D02*
X14591610Y-13153984D01*
X14591610Y-13153984D02*
X14572562Y-13182555D01*
X14572562Y-13182555D02*
X14553515Y-13201603D01*
X14553515Y-13201603D02*
X14534467Y-13211127D01*
X14772562Y-13153984D02*
X14791610Y-13153984D01*
X14791610Y-13153984D02*
X14810658Y-13163508D01*
X14810658Y-13163508D02*
X14820182Y-13173031D01*
X14820182Y-13173031D02*
X14829705Y-13192079D01*
X14829705Y-13192079D02*
X14839229Y-13230174D01*
X14839229Y-13230174D02*
X14839229Y-13277793D01*
X14839229Y-13277793D02*
X14829705Y-13315888D01*
X14829705Y-13315888D02*
X14820182Y-13334936D01*
X14820182Y-13334936D02*
X14810658Y-13344460D01*
X14810658Y-13344460D02*
X14791610Y-13353984D01*
X14791610Y-13353984D02*
X14772562Y-13353984D01*
X14772562Y-13353984D02*
X14753515Y-13344460D01*
X14753515Y-13344460D02*
X14743991Y-13334936D01*
X14743991Y-13334936D02*
X14734467Y-13315888D01*
X14734467Y-13315888D02*
X14724943Y-13277793D01*
X14724943Y-13277793D02*
X14724943Y-13230174D01*
X14724943Y-13230174D02*
X14734467Y-13192079D01*
X14734467Y-13192079D02*
X14743991Y-13173031D01*
X14743991Y-13173031D02*
X14753515Y-13163508D01*
X14753515Y-13163508D02*
X14772562Y-13153984D01*
X14963039Y-13153984D02*
X14982086Y-13153984D01*
X14982086Y-13153984D02*
X15001134Y-13163508D01*
X15001134Y-13163508D02*
X15010658Y-13173031D01*
X15010658Y-13173031D02*
X15020182Y-13192079D01*
X15020182Y-13192079D02*
X15029705Y-13230174D01*
X15029705Y-13230174D02*
X15029705Y-13277793D01*
X15029705Y-13277793D02*
X15020182Y-13315888D01*
X15020182Y-13315888D02*
X15010658Y-13334936D01*
X15010658Y-13334936D02*
X15001134Y-13344460D01*
X15001134Y-13344460D02*
X14982086Y-13353984D01*
X14982086Y-13353984D02*
X14963039Y-13353984D01*
X14963039Y-13353984D02*
X14943991Y-13344460D01*
X14943991Y-13344460D02*
X14934467Y-13334936D01*
X14934467Y-13334936D02*
X14924943Y-13315888D01*
X14924943Y-13315888D02*
X14915420Y-13277793D01*
X14915420Y-13277793D02*
X14915420Y-13230174D01*
X14915420Y-13230174D02*
X14924943Y-13192079D01*
X14924943Y-13192079D02*
X14934467Y-13173031D01*
X14934467Y-13173031D02*
X14943991Y-13163508D01*
X14943991Y-13163508D02*
X14963039Y-13153984D01*
X15115420Y-13353984D02*
X15115420Y-13220650D01*
X15115420Y-13239698D02*
X15124943Y-13230174D01*
X15124943Y-13230174D02*
X15143991Y-13220650D01*
X15143991Y-13220650D02*
X15172563Y-13220650D01*
X15172563Y-13220650D02*
X15191610Y-13230174D01*
X15191610Y-13230174D02*
X15201134Y-13249222D01*
X15201134Y-13249222D02*
X15201134Y-13353984D01*
X15201134Y-13249222D02*
X15210658Y-13230174D01*
X15210658Y-13230174D02*
X15229705Y-13220650D01*
X15229705Y-13220650D02*
X15258277Y-13220650D01*
X15258277Y-13220650D02*
X15277324Y-13230174D01*
X15277324Y-13230174D02*
X15286848Y-13249222D01*
X15286848Y-13249222D02*
X15286848Y-13353984D01*
X15382086Y-13353984D02*
X15382086Y-13220650D01*
X15382086Y-13239698D02*
X15391610Y-13230174D01*
X15391610Y-13230174D02*
X15410658Y-13220650D01*
X15410658Y-13220650D02*
X15439229Y-13220650D01*
X15439229Y-13220650D02*
X15458277Y-13230174D01*
X15458277Y-13230174D02*
X15467801Y-13249222D01*
X15467801Y-13249222D02*
X15467801Y-13353984D01*
X15467801Y-13249222D02*
X15477324Y-13230174D01*
X15477324Y-13230174D02*
X15496372Y-13220650D01*
X15496372Y-13220650D02*
X15524943Y-13220650D01*
X15524943Y-13220650D02*
X15543991Y-13230174D01*
X15543991Y-13230174D02*
X15553515Y-13249222D01*
X15553515Y-13249222D02*
X15553515Y-13353984D01*
X15943991Y-13144460D02*
X15772563Y-13401603D01*
X16201134Y-13153984D02*
X16220182Y-13153984D01*
X16220182Y-13153984D02*
X16239229Y-13163508D01*
X16239229Y-13163508D02*
X16248753Y-13173031D01*
X16248753Y-13173031D02*
X16258277Y-13192079D01*
X16258277Y-13192079D02*
X16267801Y-13230174D01*
X16267801Y-13230174D02*
X16267801Y-13277793D01*
X16267801Y-13277793D02*
X16258277Y-13315888D01*
X16258277Y-13315888D02*
X16248753Y-13334936D01*
X16248753Y-13334936D02*
X16239229Y-13344460D01*
X16239229Y-13344460D02*
X16220182Y-13353984D01*
X16220182Y-13353984D02*
X16201134Y-13353984D01*
X16201134Y-13353984D02*
X16182086Y-13344460D01*
X16182086Y-13344460D02*
X16172563Y-13334936D01*
X16172563Y-13334936D02*
X16163039Y-13315888D01*
X16163039Y-13315888D02*
X16153515Y-13277793D01*
X16153515Y-13277793D02*
X16153515Y-13230174D01*
X16153515Y-13230174D02*
X16163039Y-13192079D01*
X16163039Y-13192079D02*
X16172563Y-13173031D01*
X16172563Y-13173031D02*
X16182086Y-13163508D01*
X16182086Y-13163508D02*
X16201134Y-13153984D01*
X16353515Y-13334936D02*
X16363039Y-13344460D01*
X16363039Y-13344460D02*
X16353515Y-13353984D01*
X16353515Y-13353984D02*
X16343991Y-13344460D01*
X16343991Y-13344460D02*
X16353515Y-13334936D01*
X16353515Y-13334936D02*
X16353515Y-13353984D01*
X16486848Y-13153984D02*
X16505896Y-13153984D01*
X16505896Y-13153984D02*
X16524944Y-13163508D01*
X16524944Y-13163508D02*
X16534467Y-13173031D01*
X16534467Y-13173031D02*
X16543991Y-13192079D01*
X16543991Y-13192079D02*
X16553515Y-13230174D01*
X16553515Y-13230174D02*
X16553515Y-13277793D01*
X16553515Y-13277793D02*
X16543991Y-13315888D01*
X16543991Y-13315888D02*
X16534467Y-13334936D01*
X16534467Y-13334936D02*
X16524944Y-13344460D01*
X16524944Y-13344460D02*
X16505896Y-13353984D01*
X16505896Y-13353984D02*
X16486848Y-13353984D01*
X16486848Y-13353984D02*
X16467801Y-13344460D01*
X16467801Y-13344460D02*
X16458277Y-13334936D01*
X16458277Y-13334936D02*
X16448753Y-13315888D01*
X16448753Y-13315888D02*
X16439229Y-13277793D01*
X16439229Y-13277793D02*
X16439229Y-13230174D01*
X16439229Y-13230174D02*
X16448753Y-13192079D01*
X16448753Y-13192079D02*
X16458277Y-13173031D01*
X16458277Y-13173031D02*
X16467801Y-13163508D01*
X16467801Y-13163508D02*
X16486848Y-13153984D01*
X16724944Y-13220650D02*
X16724944Y-13353984D01*
X16677325Y-13144460D02*
X16629706Y-13287317D01*
X16629706Y-13287317D02*
X16753515Y-13287317D01*
X16810658Y-13153984D02*
X16934468Y-13153984D01*
X16934468Y-13153984D02*
X16867801Y-13230174D01*
X16867801Y-13230174D02*
X16896372Y-13230174D01*
X16896372Y-13230174D02*
X16915420Y-13239698D01*
X16915420Y-13239698D02*
X16924944Y-13249222D01*
X16924944Y-13249222D02*
X16934468Y-13268269D01*
X16934468Y-13268269D02*
X16934468Y-13315888D01*
X16934468Y-13315888D02*
X16924944Y-13334936D01*
X16924944Y-13334936D02*
X16915420Y-13344460D01*
X16915420Y-13344460D02*
X16896372Y-13353984D01*
X16896372Y-13353984D02*
X16839229Y-13353984D01*
X16839229Y-13353984D02*
X16820182Y-13344460D01*
X16820182Y-13344460D02*
X16810658Y-13334936D01*
X17001134Y-13153984D02*
X17124944Y-13153984D01*
X17124944Y-13153984D02*
X17058277Y-13230174D01*
X17058277Y-13230174D02*
X17086849Y-13230174D01*
X17086849Y-13230174D02*
X17105896Y-13239698D01*
X17105896Y-13239698D02*
X17115420Y-13249222D01*
X17115420Y-13249222D02*
X17124944Y-13268269D01*
X17124944Y-13268269D02*
X17124944Y-13315888D01*
X17124944Y-13315888D02*
X17115420Y-13334936D01*
X17115420Y-13334936D02*
X17105896Y-13344460D01*
X17105896Y-13344460D02*
X17086849Y-13353984D01*
X17086849Y-13353984D02*
X17029706Y-13353984D01*
X17029706Y-13353984D02*
X17010658Y-13344460D01*
X17010658Y-13344460D02*
X17001134Y-13334936D01*
X17201134Y-13153984D02*
X17201134Y-13192079D01*
X17277325Y-13153984D02*
X17277325Y-13192079D01*
X17572563Y-13430174D02*
X17563039Y-13420650D01*
X17563039Y-13420650D02*
X17543991Y-13392079D01*
X17543991Y-13392079D02*
X17534468Y-13373031D01*
X17534468Y-13373031D02*
X17524944Y-13344460D01*
X17524944Y-13344460D02*
X17515420Y-13296841D01*
X17515420Y-13296841D02*
X17515420Y-13258746D01*
X17515420Y-13258746D02*
X17524944Y-13211127D01*
X17524944Y-13211127D02*
X17534468Y-13182555D01*
X17534468Y-13182555D02*
X17543991Y-13163508D01*
X17543991Y-13163508D02*
X17563039Y-13134936D01*
X17563039Y-13134936D02*
X17572563Y-13125412D01*
X17639230Y-13173031D02*
X17648753Y-13163508D01*
X17648753Y-13163508D02*
X17667801Y-13153984D01*
X17667801Y-13153984D02*
X17715420Y-13153984D01*
X17715420Y-13153984D02*
X17734468Y-13163508D01*
X17734468Y-13163508D02*
X17743991Y-13173031D01*
X17743991Y-13173031D02*
X17753515Y-13192079D01*
X17753515Y-13192079D02*
X17753515Y-13211127D01*
X17753515Y-13211127D02*
X17743991Y-13239698D01*
X17743991Y-13239698D02*
X17629706Y-13353984D01*
X17629706Y-13353984D02*
X17753515Y-13353984D01*
X17991611Y-13353984D02*
X17991611Y-13153984D01*
X18077325Y-13353984D02*
X18077325Y-13249222D01*
X18077325Y-13249222D02*
X18067801Y-13230174D01*
X18067801Y-13230174D02*
X18048753Y-13220650D01*
X18048753Y-13220650D02*
X18020182Y-13220650D01*
X18020182Y-13220650D02*
X18001134Y-13230174D01*
X18001134Y-13230174D02*
X17991611Y-13239698D01*
X18201134Y-13353984D02*
X18182087Y-13344460D01*
X18182087Y-13344460D02*
X18172563Y-13334936D01*
X18172563Y-13334936D02*
X18163039Y-13315888D01*
X18163039Y-13315888D02*
X18163039Y-13258746D01*
X18163039Y-13258746D02*
X18172563Y-13239698D01*
X18172563Y-13239698D02*
X18182087Y-13230174D01*
X18182087Y-13230174D02*
X18201134Y-13220650D01*
X18201134Y-13220650D02*
X18229706Y-13220650D01*
X18229706Y-13220650D02*
X18248753Y-13230174D01*
X18248753Y-13230174D02*
X18258277Y-13239698D01*
X18258277Y-13239698D02*
X18267801Y-13258746D01*
X18267801Y-13258746D02*
X18267801Y-13315888D01*
X18267801Y-13315888D02*
X18258277Y-13334936D01*
X18258277Y-13334936D02*
X18248753Y-13344460D01*
X18248753Y-13344460D02*
X18229706Y-13353984D01*
X18229706Y-13353984D02*
X18201134Y-13353984D01*
X18382087Y-13353984D02*
X18363039Y-13344460D01*
X18363039Y-13344460D02*
X18353515Y-13325412D01*
X18353515Y-13325412D02*
X18353515Y-13153984D01*
X18534468Y-13344460D02*
X18515420Y-13353984D01*
X18515420Y-13353984D02*
X18477325Y-13353984D01*
X18477325Y-13353984D02*
X18458277Y-13344460D01*
X18458277Y-13344460D02*
X18448753Y-13325412D01*
X18448753Y-13325412D02*
X18448753Y-13249222D01*
X18448753Y-13249222D02*
X18458277Y-13230174D01*
X18458277Y-13230174D02*
X18477325Y-13220650D01*
X18477325Y-13220650D02*
X18515420Y-13220650D01*
X18515420Y-13220650D02*
X18534468Y-13230174D01*
X18534468Y-13230174D02*
X18543992Y-13249222D01*
X18543992Y-13249222D02*
X18543992Y-13268269D01*
X18543992Y-13268269D02*
X18448753Y-13287317D01*
X18620182Y-13344460D02*
X18639230Y-13353984D01*
X18639230Y-13353984D02*
X18677325Y-13353984D01*
X18677325Y-13353984D02*
X18696373Y-13344460D01*
X18696373Y-13344460D02*
X18705896Y-13325412D01*
X18705896Y-13325412D02*
X18705896Y-13315888D01*
X18705896Y-13315888D02*
X18696373Y-13296841D01*
X18696373Y-13296841D02*
X18677325Y-13287317D01*
X18677325Y-13287317D02*
X18648753Y-13287317D01*
X18648753Y-13287317D02*
X18629706Y-13277793D01*
X18629706Y-13277793D02*
X18620182Y-13258746D01*
X18620182Y-13258746D02*
X18620182Y-13249222D01*
X18620182Y-13249222D02*
X18629706Y-13230174D01*
X18629706Y-13230174D02*
X18648753Y-13220650D01*
X18648753Y-13220650D02*
X18677325Y-13220650D01*
X18677325Y-13220650D02*
X18696373Y-13230174D01*
X18772563Y-13430174D02*
X18782087Y-13420650D01*
X18782087Y-13420650D02*
X18801134Y-13392079D01*
X18801134Y-13392079D02*
X18810658Y-13373031D01*
X18810658Y-13373031D02*
X18820182Y-13344460D01*
X18820182Y-13344460D02*
X18829706Y-13296841D01*
X18829706Y-13296841D02*
X18829706Y-13258746D01*
X18829706Y-13258746D02*
X18820182Y-13211127D01*
X18820182Y-13211127D02*
X18810658Y-13182555D01*
X18810658Y-13182555D02*
X18801134Y-13163508D01*
X18801134Y-13163508D02*
X18782087Y-13134936D01*
X18782087Y-13134936D02*
X18772563Y-13125412D01*
M02*
