%TF.GenerationSoftware,KiCad,Pcbnew,8.0.6-8.0.6-0~ubuntu22.04.1*%
%TF.CreationDate,2024-10-27T10:41:28+01:00*%
%TF.ProjectId,hackbat,6861636b-6261-4742-9e6b-696361645f70,rev?*%
%TF.SameCoordinates,Original*%
%TF.FileFunction,Copper,L1,Top*%
%TF.FilePolarity,Positive*%
%FSLAX46Y46*%
G04 Gerber Fmt 4.6, Leading zero omitted, Abs format (unit mm)*
G04 Created by KiCad (PCBNEW 8.0.6-8.0.6-0~ubuntu22.04.1) date 2024-10-27 10:41:28*
%MOMM*%
%LPD*%
G01*
G04 APERTURE LIST*
G04 Aperture macros list*
%AMRoundRect*
0 Rectangle with rounded corners*
0 $1 Rounding radius*
0 $2 $3 $4 $5 $6 $7 $8 $9 X,Y pos of 4 corners*
0 Add a 4 corners polygon primitive as box body*
4,1,4,$2,$3,$4,$5,$6,$7,$8,$9,$2,$3,0*
0 Add four circle primitives for the rounded corners*
1,1,$1+$1,$2,$3*
1,1,$1+$1,$4,$5*
1,1,$1+$1,$6,$7*
1,1,$1+$1,$8,$9*
0 Add four rect primitives between the rounded corners*
20,1,$1+$1,$2,$3,$4,$5,0*
20,1,$1+$1,$4,$5,$6,$7,0*
20,1,$1+$1,$6,$7,$8,$9,0*
20,1,$1+$1,$8,$9,$2,$3,0*%
G04 Aperture macros list end*
%TA.AperFunction,SMDPad,CuDef*%
%ADD10RoundRect,0.135000X0.135000X0.185000X-0.135000X0.185000X-0.135000X-0.185000X0.135000X-0.185000X0*%
%TD*%
%TA.AperFunction,ComponentPad*%
%ADD11C,1.400000*%
%TD*%
%TA.AperFunction,SMDPad,CuDef*%
%ADD12RoundRect,0.135000X-0.135000X-0.185000X0.135000X-0.185000X0.135000X0.185000X-0.135000X0.185000X0*%
%TD*%
%TA.AperFunction,SMDPad,CuDef*%
%ADD13RoundRect,0.062500X0.062500X-0.362500X0.062500X0.362500X-0.062500X0.362500X-0.062500X-0.362500X0*%
%TD*%
%TA.AperFunction,SMDPad,CuDef*%
%ADD14RoundRect,0.062500X0.362500X-0.062500X0.362500X0.062500X-0.362500X0.062500X-0.362500X-0.062500X0*%
%TD*%
%TA.AperFunction,HeatsinkPad*%
%ADD15R,2.600000X2.600000*%
%TD*%
%TA.AperFunction,HeatsinkPad*%
%ADD16C,0.500000*%
%TD*%
%TA.AperFunction,ComponentPad*%
%ADD17RoundRect,0.375000X0.375000X-1.125000X0.375000X1.125000X-0.375000X1.125000X-0.375000X-1.125000X0*%
%TD*%
%TA.AperFunction,SMDPad,CuDef*%
%ADD18R,1.200000X1.400000*%
%TD*%
%TA.AperFunction,SMDPad,CuDef*%
%ADD19RoundRect,0.140000X0.140000X0.170000X-0.140000X0.170000X-0.140000X-0.170000X0.140000X-0.170000X0*%
%TD*%
%TA.AperFunction,SMDPad,CuDef*%
%ADD20RoundRect,0.147500X0.147500X0.172500X-0.147500X0.172500X-0.147500X-0.172500X0.147500X-0.172500X0*%
%TD*%
%TA.AperFunction,SMDPad,CuDef*%
%ADD21RoundRect,0.200000X-0.200000X-0.275000X0.200000X-0.275000X0.200000X0.275000X-0.200000X0.275000X0*%
%TD*%
%TA.AperFunction,SMDPad,CuDef*%
%ADD22RoundRect,0.140000X-0.140000X-0.170000X0.140000X-0.170000X0.140000X0.170000X-0.140000X0.170000X0*%
%TD*%
%TA.AperFunction,SMDPad,CuDef*%
%ADD23RoundRect,0.200000X-0.275000X0.200000X-0.275000X-0.200000X0.275000X-0.200000X0.275000X0.200000X0*%
%TD*%
%TA.AperFunction,SMDPad,CuDef*%
%ADD24R,1.550000X1.300000*%
%TD*%
%TA.AperFunction,SMDPad,CuDef*%
%ADD25RoundRect,0.200000X0.200000X0.275000X-0.200000X0.275000X-0.200000X-0.275000X0.200000X-0.275000X0*%
%TD*%
%TA.AperFunction,SMDPad,CuDef*%
%ADD26RoundRect,0.147500X0.172500X-0.147500X0.172500X0.147500X-0.172500X0.147500X-0.172500X-0.147500X0*%
%TD*%
%TA.AperFunction,SMDPad,CuDef*%
%ADD27RoundRect,0.140000X-0.170000X0.140000X-0.170000X-0.140000X0.170000X-0.140000X0.170000X0.140000X0*%
%TD*%
%TA.AperFunction,SMDPad,CuDef*%
%ADD28RoundRect,0.140000X0.170000X-0.140000X0.170000X0.140000X-0.170000X0.140000X-0.170000X-0.140000X0*%
%TD*%
%TA.AperFunction,SMDPad,CuDef*%
%ADD29RoundRect,0.375000X0.625000X0.375000X-0.625000X0.375000X-0.625000X-0.375000X0.625000X-0.375000X0*%
%TD*%
%TA.AperFunction,SMDPad,CuDef*%
%ADD30RoundRect,0.500000X0.500000X1.400000X-0.500000X1.400000X-0.500000X-1.400000X0.500000X-1.400000X0*%
%TD*%
%TA.AperFunction,SMDPad,CuDef*%
%ADD31R,1.500000X5.080000*%
%TD*%
%TA.AperFunction,SMDPad,CuDef*%
%ADD32R,1.200000X1.200000*%
%TD*%
%TA.AperFunction,SMDPad,CuDef*%
%ADD33RoundRect,0.225000X0.250000X-0.225000X0.250000X0.225000X-0.250000X0.225000X-0.250000X-0.225000X0*%
%TD*%
%TA.AperFunction,ComponentPad*%
%ADD34R,1.500000X1.500000*%
%TD*%
%TA.AperFunction,SMDPad,CuDef*%
%ADD35RoundRect,0.218750X0.218750X0.256250X-0.218750X0.256250X-0.218750X-0.256250X0.218750X-0.256250X0*%
%TD*%
%TA.AperFunction,SMDPad,CuDef*%
%ADD36RoundRect,0.250000X-0.375000X-1.000000X0.375000X-1.000000X0.375000X1.000000X-0.375000X1.000000X0*%
%TD*%
%TA.AperFunction,ComponentPad*%
%ADD37O,1.600000X0.900000*%
%TD*%
%TA.AperFunction,ComponentPad*%
%ADD38R,3.000000X3.000000*%
%TD*%
%TA.AperFunction,ComponentPad*%
%ADD39C,3.000000*%
%TD*%
%TA.AperFunction,ViaPad*%
%ADD40C,0.600000*%
%TD*%
%TA.AperFunction,Conductor*%
%ADD41C,0.127000*%
%TD*%
%TA.AperFunction,Conductor*%
%ADD42C,0.200000*%
%TD*%
G04 APERTURE END LIST*
D10*
%TO.P,R23,1*%
%TO.N,+3V3*%
X181710000Y-94400000D03*
%TO.P,R23,2*%
%TO.N,RF_GD0*%
X180690000Y-94400000D03*
%TD*%
D11*
%TO.P,BOOT,1,A*%
%TO.N,GND*%
X181500000Y-98940000D03*
%TO.P,BOOT,2,B*%
%TO.N,RF_GD0*%
X181500000Y-96400000D03*
%TD*%
D12*
%TO.P,R22,1*%
%TO.N,+3V3*%
X153790000Y-102300000D03*
%TO.P,R22,2*%
%TO.N,SD_DATA3*%
X154810000Y-102300000D03*
%TD*%
%TO.P,R21,1*%
%TO.N,+3V3*%
X153790000Y-101300000D03*
%TO.P,R21,2*%
%TO.N,SD_DATA2*%
X154810000Y-101300000D03*
%TD*%
%TO.P,R20,1*%
%TO.N,+3V3*%
X153890000Y-109000000D03*
%TO.P,R20,2*%
%TO.N,SD_DATA1*%
X154910000Y-109000000D03*
%TD*%
%TO.P,R18,1*%
%TO.N,+3V3*%
X153890000Y-107900000D03*
%TO.P,R18,2*%
%TO.N,SD_DATA0*%
X154910000Y-107900000D03*
%TD*%
%TO.P,R17,1*%
%TO.N,+3V3*%
X153790000Y-103500000D03*
%TO.P,R17,2*%
%TO.N,SD_CMD*%
X154810000Y-103500000D03*
%TD*%
D13*
%TO.P,U2,1,SCLK*%
%TO.N,RF_SPICLK*%
X174000000Y-92600000D03*
%TO.P,U2,2,SO(GDO1)*%
%TO.N,RF_SPID*%
X174500000Y-92600000D03*
%TO.P,U2,3,GDO2*%
%TO.N,RF_GD2*%
X175000000Y-92600000D03*
%TO.P,U2,4,DVDD*%
%TO.N,+3V3*%
X175500000Y-92600000D03*
%TO.P,U2,5,DCOUPL*%
%TO.N,Net-(U2-DCOUPL)*%
X176000000Y-92600000D03*
D14*
%TO.P,U2,6,GDO0*%
%TO.N,RF_GD0*%
X176925000Y-91675000D03*
%TO.P,U2,7,CSn*%
%TO.N,RF_SPICS*%
X176925000Y-91175000D03*
%TO.P,U2,8,XOSC_Q1*%
%TO.N,Net-(U2-XOSC_Q1)*%
X176925000Y-90675000D03*
%TO.P,U2,9,AVDD*%
%TO.N,+3V3*%
X176925000Y-90175000D03*
%TO.P,U2,10,XOSC_Q2*%
%TO.N,Net-(U2-XOSC_Q2)*%
X176925000Y-89675000D03*
D13*
%TO.P,U2,11,AVDD*%
%TO.N,+3V3*%
X176000000Y-88750000D03*
%TO.P,U2,12,RF_P*%
%TO.N,Net-(U2-RF_P)*%
X175500000Y-88750000D03*
%TO.P,U2,13,RF_N*%
%TO.N,Net-(U2-RF_N)*%
X175000000Y-88750000D03*
%TO.P,U2,14,AVDD*%
%TO.N,+3V3*%
X174500000Y-88750000D03*
%TO.P,U2,15,AVDD*%
X174000000Y-88750000D03*
D14*
%TO.P,U2,16,GND*%
%TO.N,GND*%
X173075000Y-89675000D03*
%TO.P,U2,17,RBIAS*%
%TO.N,Net-(U2-RBIAS)*%
X173075000Y-90175000D03*
%TO.P,U2,18,DGUARD*%
%TO.N,+3V3*%
X173075000Y-90675000D03*
%TO.P,U2,19,GND*%
%TO.N,GND*%
X173075000Y-91175000D03*
%TO.P,U2,20,SI*%
%TO.N,RF_SPIQ*%
X173075000Y-91675000D03*
D15*
%TO.P,U2,21,GND*%
%TO.N,GND*%
X175000000Y-90675000D03*
D16*
X174500000Y-90175000D03*
X175500000Y-90175000D03*
%TD*%
D17*
%TO.P,U3,1,VCC_IN*%
%TO.N,Net-(U3-VCC_IN)*%
X159800000Y-81000000D03*
%TO.P,U3,2,GND*%
%TO.N,Net-(U3-GND)*%
X162340000Y-81000000D03*
%TO.P,U3,3,SCL*%
%TO.N,OLED_SCL*%
X164880000Y-81000000D03*
%TO.P,U3,4,SDA*%
%TO.N,OLED_SDA*%
X167420000Y-81000000D03*
%TD*%
D18*
%TO.P,Y1,1,1*%
%TO.N,Net-(U2-XOSC_Q2)*%
X179150000Y-89100000D03*
%TO.P,Y1,2,2*%
%TO.N,unconnected-(Y1-Pad2)*%
X179150000Y-91300000D03*
%TO.P,Y1,3,3*%
%TO.N,Net-(U2-XOSC_Q1)*%
X180850000Y-91300000D03*
%TO.P,Y1,4,4*%
%TO.N,unconnected-(Y1-Pad4)*%
X180850000Y-89100000D03*
%TD*%
D19*
%TO.P,C4,1*%
%TO.N,GND*%
X178880000Y-87200000D03*
%TO.P,C4,2*%
%TO.N,Net-(C4-Pad2)*%
X177920000Y-87200000D03*
%TD*%
D20*
%TO.P,L1,1*%
%TO.N,Net-(C4-Pad2)*%
X176885000Y-87200000D03*
%TO.P,L1,2*%
%TO.N,Net-(U2-RF_P)*%
X175915000Y-87200000D03*
%TD*%
D21*
%TO.P,R8,1*%
%TO.N,GND*%
X212775000Y-100800000D03*
%TO.P,R8,2*%
%TO.N,BUT_ENTER*%
X214425000Y-100800000D03*
%TD*%
D22*
%TO.P,C7,1*%
%TO.N,Net-(C7-Pad1)*%
X176640000Y-82600000D03*
%TO.P,C7,2*%
%TO.N,GND*%
X177600000Y-82600000D03*
%TD*%
D23*
%TO.P,R15,1*%
%TO.N,OLED_SCL*%
X165600000Y-84175000D03*
%TO.P,R15,2*%
%TO.N,+3V3*%
X165600000Y-85825000D03*
%TD*%
D10*
%TO.P,R10,1*%
%TO.N,Net-(U2-RBIAS)*%
X171510000Y-89800000D03*
%TO.P,R10,2*%
%TO.N,GND*%
X170490000Y-89800000D03*
%TD*%
D23*
%TO.P,R12,1*%
%TO.N,Net-(U3-VCC_IN)*%
X159800000Y-84200000D03*
%TO.P,R12,2*%
%TO.N,+3V3*%
X159800000Y-85850000D03*
%TD*%
D24*
%TO.P,SW2,1,1*%
%TO.N,+3V3*%
X214525000Y-85250000D03*
X222475000Y-85250000D03*
%TO.P,SW2,2,2*%
%TO.N,BUT_UP*%
X214525000Y-89750000D03*
X222475000Y-89750000D03*
%TD*%
D25*
%TO.P,R3,1*%
%TO.N,GND*%
X238387500Y-77800000D03*
%TO.P,R3,2*%
%TO.N,Net-(D1-K)*%
X236737500Y-77800000D03*
%TD*%
D26*
%TO.P,L2,1*%
%TO.N,Net-(U2-RF_N)*%
X174800000Y-86085000D03*
%TO.P,L2,2*%
%TO.N,Net-(C6-Pad2)*%
X174800000Y-85115000D03*
%TD*%
D21*
%TO.P,R7,1*%
%TO.N,GND*%
X225375000Y-100800000D03*
%TO.P,R7,2*%
%TO.N,BUT_RIGHT*%
X227025000Y-100800000D03*
%TD*%
D27*
%TO.P,C3,1*%
%TO.N,Net-(U2-DCOUPL)*%
X176000000Y-93920000D03*
%TO.P,C3,2*%
%TO.N,GND*%
X176000000Y-94880000D03*
%TD*%
D25*
%TO.P,R4,1*%
%TO.N,GND*%
X238400000Y-75750000D03*
%TO.P,R4,2*%
%TO.N,Net-(D2-K)*%
X236750000Y-75750000D03*
%TD*%
D28*
%TO.P,C6,1*%
%TO.N,Net-(U2-RF_P)*%
X175800000Y-86080000D03*
%TO.P,C6,2*%
%TO.N,Net-(C6-Pad2)*%
X175800000Y-85120000D03*
%TD*%
D23*
%TO.P,R11,1*%
%TO.N,Net-(U3-GND)*%
X164000000Y-84175000D03*
%TO.P,R11,2*%
%TO.N,GND*%
X164000000Y-85825000D03*
%TD*%
%TO.P,R16,1*%
%TO.N,OLED_SDA*%
X167200000Y-84175000D03*
%TO.P,R16,2*%
%TO.N,+3V3*%
X167200000Y-85825000D03*
%TD*%
D22*
%TO.P,C9,1*%
%TO.N,Net-(U2-XOSC_Q2)*%
X180120000Y-87200000D03*
%TO.P,C9,2*%
%TO.N,GND*%
X181080000Y-87200000D03*
%TD*%
D23*
%TO.P,R13,1*%
%TO.N,Net-(U3-GND)*%
X162400000Y-84175000D03*
%TO.P,R13,2*%
%TO.N,+3V3*%
X162400000Y-85825000D03*
%TD*%
D29*
%TO.P,U4,1,GND*%
%TO.N,GND*%
X148750000Y-107300000D03*
%TO.P,U4,2,VO*%
%TO.N,+3V3*%
X148750000Y-105000000D03*
D30*
X142450000Y-105000000D03*
D29*
%TO.P,U4,3,VI*%
%TO.N,+5V*%
X148750000Y-102700000D03*
%TD*%
D31*
%TO.P,J2,1,In*%
%TO.N,Net-(AE1-A)*%
X175000000Y-75362500D03*
%TO.P,J2,2,Ext*%
%TO.N,GND*%
X179250000Y-75362500D03*
%TD*%
D21*
%TO.P,R6,1*%
%TO.N,GND*%
X212775000Y-91600000D03*
%TO.P,R6,2*%
%TO.N,BUT_UP*%
X214425000Y-91600000D03*
%TD*%
D32*
%TO.P,D3,1,K*%
%TO.N,+5V*%
X190000000Y-105000000D03*
%TO.P,D3,2,A*%
%TO.N,Net-(D3-A)*%
X192800000Y-105000000D03*
%TD*%
D26*
%TO.P,L4,1*%
%TO.N,Net-(C7-Pad1)*%
X175400000Y-82170000D03*
%TO.P,L4,2*%
%TO.N,Net-(C10-Pad1)*%
X175400000Y-81200000D03*
%TD*%
D21*
%TO.P,R5,1*%
%TO.N,GND*%
X212975000Y-110400000D03*
%TO.P,R5,2*%
%TO.N,BUT_DOWN*%
X214625000Y-110400000D03*
%TD*%
D24*
%TO.P,SW4,1,1*%
%TO.N,+3V3*%
X214550000Y-94500000D03*
X222500000Y-94500000D03*
%TO.P,SW4,2,2*%
%TO.N,BUT_ENTER*%
X214550000Y-99000000D03*
X222500000Y-99000000D03*
%TD*%
D23*
%TO.P,R14,1*%
%TO.N,Net-(U3-VCC_IN)*%
X158135000Y-84200000D03*
%TO.P,R14,2*%
%TO.N,GND*%
X158135000Y-85850000D03*
%TD*%
D24*
%TO.P,SW5,1,1*%
%TO.N,+3V3*%
X202050000Y-94500000D03*
X210000000Y-94500000D03*
%TO.P,SW5,2,2*%
%TO.N,BUT_LEFT*%
X202050000Y-99000000D03*
X210000000Y-99000000D03*
%TD*%
D28*
%TO.P,C11,1*%
%TO.N,Net-(C10-Pad1)*%
X175400000Y-79880000D03*
%TO.P,C11,2*%
%TO.N,Net-(AE1-A)*%
X175400000Y-78920000D03*
%TD*%
D19*
%TO.P,C5,1*%
%TO.N,Net-(U2-RF_N)*%
X174480000Y-87200000D03*
%TO.P,C5,2*%
%TO.N,GND*%
X173520000Y-87200000D03*
%TD*%
D22*
%TO.P,C8,1*%
%TO.N,Net-(U2-XOSC_Q1)*%
X180720000Y-93200000D03*
%TO.P,C8,2*%
%TO.N,GND*%
X181680000Y-93200000D03*
%TD*%
D26*
%TO.P,L3,1*%
%TO.N,Net-(C6-Pad2)*%
X175400000Y-84085000D03*
%TO.P,L3,2*%
%TO.N,Net-(C7-Pad1)*%
X175400000Y-83115000D03*
%TD*%
D24*
%TO.P,SW1,1,1*%
%TO.N,+3V3*%
X214550000Y-104000000D03*
X222500000Y-104000000D03*
%TO.P,SW1,2,2*%
%TO.N,BUT_DOWN*%
X214550000Y-108500000D03*
X222500000Y-108500000D03*
%TD*%
D21*
%TO.P,R9,1*%
%TO.N,GND*%
X200375000Y-100800000D03*
%TO.P,R9,2*%
%TO.N,BUT_LEFT*%
X202025000Y-100800000D03*
%TD*%
D22*
%TO.P,C10,1*%
%TO.N,Net-(C10-Pad1)*%
X176520000Y-80600000D03*
%TO.P,C10,2*%
%TO.N,GND*%
X177480000Y-80600000D03*
%TD*%
D33*
%TO.P,C12,1*%
%TO.N,GND*%
X151000000Y-106975000D03*
%TO.P,C12,2*%
%TO.N,+3V3*%
X151000000Y-105425000D03*
%TD*%
D34*
%TO.P,AE1,1,A*%
%TO.N,Net-(AE1-A)*%
X175000000Y-76000000D03*
%TD*%
D35*
%TO.P,D1,1,K*%
%TO.N,Net-(D1-K)*%
X235125000Y-77800000D03*
%TO.P,D1,2,A*%
%TO.N,LED1*%
X233550000Y-77800000D03*
%TD*%
D24*
%TO.P,SW3,1,1*%
%TO.N,+3V3*%
X227050000Y-94500000D03*
X235000000Y-94500000D03*
%TO.P,SW3,2,2*%
%TO.N,BUT_RIGHT*%
X227050000Y-99000000D03*
X235000000Y-99000000D03*
%TD*%
D35*
%TO.P,D2,1,K*%
%TO.N,Net-(D2-K)*%
X235162500Y-75750000D03*
%TO.P,D2,2,A*%
%TO.N,LED2*%
X233587500Y-75750000D03*
%TD*%
D36*
%TO.P,SW6,1,A*%
%TO.N,Net-(BT1-+)*%
X190500000Y-108250000D03*
%TO.P,SW6,2,B*%
%TO.N,Net-(D3-A)*%
X193000000Y-108250000D03*
%TO.P,SW6,3*%
%TO.N,N/C*%
X195500000Y-108250000D03*
%TD*%
D37*
%TO.P,J1,6,Shield*%
%TO.N,GND*%
X141850000Y-91600000D03*
X141850000Y-85000000D03*
%TD*%
D38*
%TO.P,BT1,1,+*%
%TO.N,Net-(BT1-+)*%
X185367500Y-104607500D03*
D39*
%TO.P,BT1,2,-*%
%TO.N,GND*%
X185367500Y-91907500D03*
%TD*%
D40*
%TO.N,GND*%
X181660000Y-92500000D03*
%TO.N,+3V3*%
X182100000Y-90300000D03*
%TO.N,RF_GD0*%
X180400000Y-94000000D03*
%TO.N,SD_DATA1*%
X155300000Y-109000000D03*
%TO.N,SD_DATA0*%
X155300000Y-107900000D03*
%TO.N,+3V3*%
X153600000Y-105600000D03*
%TO.N,SD_DATA2*%
X155300000Y-101300000D03*
%TO.N,SD_DATA3*%
X155300000Y-102400000D03*
%TO.N,SD_CMD*%
X155200000Y-103500000D03*
%TO.N,+3V3*%
X153790000Y-103500000D03*
X214400000Y-95250000D03*
X208800000Y-95100000D03*
X146700000Y-111200000D03*
X175050000Y-94950000D03*
X167150000Y-86800000D03*
X158400000Y-97950000D03*
X171600000Y-87400000D03*
X151490000Y-105425000D03*
X176800000Y-88400000D03*
X165425000Y-86358607D03*
X216300000Y-103700000D03*
X201950000Y-94600000D03*
X177810742Y-89947255D03*
X162550000Y-86400000D03*
%TO.N,GND*%
X170000000Y-85700000D03*
X165050000Y-100000000D03*
X170000000Y-82000000D03*
X170000000Y-88600000D03*
X183300000Y-107150000D03*
X183750000Y-110300000D03*
X175250000Y-95950000D03*
X176100000Y-99250000D03*
X172000000Y-88600000D03*
X177700000Y-95850000D03*
X177350000Y-94550000D03*
X167400000Y-90000000D03*
X165500000Y-90000000D03*
X185000000Y-107150000D03*
X160900000Y-87450000D03*
X172000000Y-82000000D03*
X170000000Y-80000000D03*
X206125000Y-101850000D03*
X172000000Y-84000000D03*
X160900000Y-90800000D03*
X187700000Y-110300000D03*
X160900000Y-89200000D03*
X203850000Y-101850000D03*
X181750000Y-110300000D03*
X172000000Y-80000000D03*
X186050000Y-110300000D03*
X160400000Y-103800000D03*
X163900000Y-101050000D03*
X172000000Y-85700000D03*
X208400000Y-101850000D03*
X170000000Y-84000000D03*
X174750000Y-99250000D03*
%TO.N,+5V*%
X148900000Y-100800000D03*
%TO.N,LED1*%
X232100000Y-77800000D03*
%TO.N,LED2*%
X232250000Y-75850000D03*
%TO.N,SD_DATA0*%
X157800000Y-107800000D03*
X173200000Y-98400000D03*
%TO.N,SD_CLK*%
X157700000Y-105700000D03*
X173200000Y-97600000D03*
%TO.N,SD_DATA3*%
X157850000Y-102200000D03*
X169850000Y-96236500D03*
%TO.N,SD_CMD*%
X157600000Y-103200000D03*
X173200000Y-96800000D03*
%TO.N,SD_DATA2*%
X157900000Y-101300000D03*
X170500000Y-95673000D03*
%TO.N,SD_DATA1*%
X173200000Y-99200000D03*
X157225000Y-108929861D03*
%TO.N,BUT_DOWN*%
X213000000Y-108350000D03*
%TO.N,BUT_UP*%
X163900000Y-105850000D03*
%TO.N,BUT_RIGHT*%
X163450000Y-106800000D03*
%TO.N,BUT_ENTER*%
X214950000Y-100800000D03*
%TO.N,BUT_LEFT*%
X202050000Y-101950000D03*
%TO.N,OLED_SCL*%
X159550000Y-98300000D03*
%TO.N,OLED_SDA*%
X160400000Y-98300000D03*
%TO.N,RF_GD0*%
X177186500Y-93050000D03*
%TO.N,RF_SPID*%
X174413500Y-93897995D03*
%TO.N,RF_GD2*%
X177700000Y-106550000D03*
%TO.N,RF_SPICS*%
X178650000Y-106550000D03*
%TO.N,RF_SPIQ*%
X172850000Y-93000000D03*
%TO.N,RF_SPICLK*%
X173572378Y-94663500D03*
%TD*%
D41*
%TO.N,GND*%
X181680000Y-92520000D02*
X181660000Y-92500000D01*
X181680000Y-93200000D02*
X181680000Y-92520000D01*
D42*
%TO.N,+3V3*%
X182260000Y-90460000D02*
X182100000Y-90300000D01*
X182260000Y-93850000D02*
X182260000Y-90460000D01*
X181710000Y-94400000D02*
X182260000Y-93850000D01*
D41*
%TO.N,RF_GD0*%
X181500000Y-96400000D02*
X181500000Y-95500000D01*
X181500000Y-95500000D02*
X180690000Y-94690000D01*
X180690000Y-94690000D02*
X180690000Y-94400000D01*
X180690000Y-94290000D02*
X180400000Y-94000000D01*
X180690000Y-94400000D02*
X180690000Y-94290000D01*
%TO.N,Net-(AE1-A)*%
X175400000Y-78920000D02*
X175400000Y-75762500D01*
X175400000Y-75762500D02*
X175000000Y-75362500D01*
%TO.N,Net-(D1-K)*%
X236737500Y-77800000D02*
X235125000Y-77800000D01*
%TO.N,Net-(D2-K)*%
X235162500Y-75750000D02*
X236750000Y-75750000D01*
%TO.N,SD_DATA1*%
X154910000Y-109000000D02*
X155300000Y-109000000D01*
%TO.N,SD_DATA0*%
X154910000Y-107900000D02*
X155300000Y-107900000D01*
D42*
%TO.N,+3V3*%
X153890000Y-105890000D02*
X153600000Y-105600000D01*
X153890000Y-107900000D02*
X153890000Y-105890000D01*
X153890000Y-109000000D02*
X153890000Y-107900000D01*
D41*
%TO.N,SD_DATA2*%
X154810000Y-101300000D02*
X155300000Y-101300000D01*
%TO.N,SD_DATA3*%
X155200000Y-102300000D02*
X155300000Y-102400000D01*
X154810000Y-102300000D02*
X155200000Y-102300000D01*
%TO.N,SD_CMD*%
X154810000Y-103500000D02*
X155200000Y-103500000D01*
D42*
%TO.N,+3V3*%
X153790000Y-101300000D02*
X153790000Y-103500000D01*
X167226471Y-90675000D02*
X166800000Y-90248529D01*
X172800000Y-88000000D02*
X169000000Y-88000000D01*
X174500000Y-88750000D02*
X174000000Y-88750000D01*
X169000000Y-88000000D02*
X167200000Y-86200000D01*
X162550000Y-85975000D02*
X162400000Y-85825000D01*
X166800000Y-87150000D02*
X167175000Y-86775000D01*
X166800000Y-90248529D02*
X166800000Y-87150000D01*
X174000000Y-88750000D02*
X174000000Y-88400000D01*
X214550000Y-94500000D02*
X222500000Y-94500000D01*
X177582997Y-90175000D02*
X177810742Y-89947255D01*
X176450000Y-88750000D02*
X176800000Y-88400000D01*
X222475000Y-85250000D02*
X214525000Y-85250000D01*
X162375000Y-85850000D02*
X162400000Y-85825000D01*
X208800000Y-95100000D02*
X209400000Y-95100000D01*
X146700000Y-107050000D02*
X148750000Y-105000000D01*
X227050000Y-94500000D02*
X235000000Y-94500000D01*
X173600000Y-88000000D02*
X172800000Y-88000000D01*
X167200000Y-86750000D02*
X167150000Y-86800000D01*
X173075000Y-90675000D02*
X167226471Y-90675000D01*
X210000000Y-89775000D02*
X210000000Y-94500000D01*
X176925000Y-90175000D02*
X177582997Y-90175000D01*
X222500000Y-104000000D02*
X214550000Y-104000000D01*
X172200000Y-88000000D02*
X171600000Y-87400000D01*
X142450000Y-105000000D02*
X148750000Y-105000000D01*
X162550000Y-86400000D02*
X162550000Y-85975000D01*
X222500000Y-94500000D02*
X227050000Y-94500000D01*
X216000000Y-104000000D02*
X216300000Y-103700000D01*
X172800000Y-88000000D02*
X172200000Y-88000000D01*
X214525000Y-85250000D02*
X210000000Y-89775000D01*
X165425000Y-86000000D02*
X165600000Y-85825000D01*
X151000000Y-105425000D02*
X151490000Y-105425000D01*
X165425000Y-86358607D02*
X165425000Y-86000000D01*
X149175000Y-105425000D02*
X148750000Y-105000000D01*
X175390000Y-94610000D02*
X175390000Y-93593866D01*
X176000000Y-88750000D02*
X176450000Y-88750000D01*
X174000000Y-88400000D02*
X173600000Y-88000000D01*
X158400000Y-97950000D02*
X158400000Y-87250000D01*
X214550000Y-95100000D02*
X214400000Y-95250000D01*
X202050000Y-94500000D02*
X210000000Y-94500000D01*
X158400000Y-87250000D02*
X159800000Y-85850000D01*
X214550000Y-104000000D02*
X216000000Y-104000000D01*
X175500000Y-93483866D02*
X175500000Y-92600000D01*
X175390000Y-93593866D02*
X175500000Y-93483866D01*
X151000000Y-105425000D02*
X149175000Y-105425000D01*
X167200000Y-86200000D02*
X167200000Y-85825000D01*
X159800000Y-85850000D02*
X162375000Y-85850000D01*
X209400000Y-95100000D02*
X210000000Y-94500000D01*
X175050000Y-94950000D02*
X175390000Y-94610000D01*
X167200000Y-85825000D02*
X167200000Y-86750000D01*
X146700000Y-111200000D02*
X146700000Y-107050000D01*
X214550000Y-94500000D02*
X214550000Y-95100000D01*
D41*
%TO.N,GND*%
X173075000Y-91175000D02*
X171625000Y-91175000D01*
X171625000Y-91175000D02*
X171600000Y-91200000D01*
D42*
%TO.N,+5V*%
X140800000Y-110000000D02*
X140800000Y-103400000D01*
X184600000Y-111000000D02*
X161200000Y-111000000D01*
X140800000Y-103400000D02*
X141500000Y-102700000D01*
X148900000Y-102550000D02*
X148750000Y-102700000D01*
X185600000Y-112000000D02*
X184600000Y-111000000D01*
X148900000Y-100800000D02*
X148900000Y-102550000D01*
X141500000Y-102700000D02*
X148750000Y-102700000D01*
X191425000Y-111375000D02*
X190800000Y-112000000D01*
X190000000Y-105000000D02*
X191425000Y-106425000D01*
X161200000Y-111000000D02*
X160400000Y-111800000D01*
X142600000Y-111800000D02*
X140800000Y-110000000D01*
X191425000Y-106425000D02*
X191425000Y-111375000D01*
X160400000Y-111800000D02*
X142600000Y-111800000D01*
X190800000Y-112000000D02*
X185600000Y-112000000D01*
D41*
%TO.N,Net-(U2-DCOUPL)*%
X176000000Y-92600000D02*
X176000000Y-93920000D01*
%TO.N,Net-(C4-Pad2)*%
X176885000Y-87200000D02*
X177920000Y-87200000D01*
%TO.N,Net-(U2-RF_N)*%
X175000000Y-87720000D02*
X174480000Y-87200000D01*
X174800000Y-86085000D02*
X174800000Y-86880000D01*
X174800000Y-86880000D02*
X174480000Y-87200000D01*
X175000000Y-88750000D02*
X175000000Y-87720000D01*
%TO.N,Net-(C6-Pad2)*%
X175800000Y-85120000D02*
X175400000Y-85120000D01*
X175400000Y-85120000D02*
X174805000Y-85120000D01*
X175400000Y-84085000D02*
X175400000Y-85120000D01*
X174805000Y-85120000D02*
X174800000Y-85115000D01*
%TO.N,Net-(U2-RF_P)*%
X175500000Y-88750000D02*
X175500000Y-87615000D01*
X175800000Y-87085000D02*
X175915000Y-87200000D01*
X175500000Y-87615000D02*
X175915000Y-87200000D01*
X175800000Y-86080000D02*
X175800000Y-87085000D01*
%TO.N,Net-(C7-Pad1)*%
X175400000Y-83115000D02*
X175400000Y-82170000D01*
X175830000Y-82600000D02*
X175400000Y-82170000D01*
X176640000Y-82600000D02*
X175830000Y-82600000D01*
%TO.N,Net-(U2-XOSC_Q1)*%
X178286500Y-90336500D02*
X179886500Y-90336500D01*
X179886500Y-90336500D02*
X180850000Y-91300000D01*
X176925000Y-90675000D02*
X177948000Y-90675000D01*
X180720000Y-91430000D02*
X180850000Y-91300000D01*
X177948000Y-90675000D02*
X178286500Y-90336500D01*
X180720000Y-93200000D02*
X180720000Y-91430000D01*
%TO.N,Net-(U2-XOSC_Q2)*%
X177600000Y-89000000D02*
X178000000Y-89000000D01*
X180120000Y-87880000D02*
X180120000Y-87200000D01*
X178100000Y-89100000D02*
X179150000Y-89100000D01*
X176925000Y-89675000D02*
X177600000Y-89000000D01*
X179150000Y-89100000D02*
X179150000Y-88850000D01*
X179150000Y-88850000D02*
X180120000Y-87880000D01*
X178000000Y-89000000D02*
X178100000Y-89100000D01*
%TO.N,Net-(C10-Pad1)*%
X175400000Y-81200000D02*
X175400000Y-80400000D01*
X175600000Y-80600000D02*
X175400000Y-80400000D01*
X176520000Y-80600000D02*
X175600000Y-80600000D01*
X175400000Y-80400000D02*
X175400000Y-79880000D01*
%TO.N,LED1*%
X232100000Y-77800000D02*
X233550000Y-77800000D01*
%TO.N,LED2*%
X233587500Y-75750000D02*
X232350000Y-75750000D01*
X232350000Y-75750000D02*
X232250000Y-75850000D01*
%TO.N,SD_DATA0*%
X158927000Y-106673000D02*
X157800000Y-107800000D01*
X172254000Y-97454000D02*
X172000000Y-97454000D01*
X165070896Y-97454000D02*
X163062448Y-99462448D01*
X173200000Y-98400000D02*
X172254000Y-97454000D01*
X172000000Y-97454000D02*
X165070896Y-97454000D01*
X163062448Y-99462448D02*
X158927000Y-103597896D01*
X158927000Y-104600000D02*
X158927000Y-106673000D01*
X158927000Y-103597896D02*
X158927000Y-104600000D01*
%TO.N,SD_CLK*%
X157700000Y-105700000D02*
X158600000Y-104800000D01*
X158600000Y-104800000D02*
X158600000Y-103462448D01*
X172727000Y-97127000D02*
X173200000Y-97600000D01*
X164935448Y-97127000D02*
X172727000Y-97127000D01*
X158600000Y-103462448D02*
X164935448Y-97127000D01*
%TO.N,SD_DATA3*%
X169613500Y-96473000D02*
X164664552Y-96473000D01*
X158937552Y-102200000D02*
X157850000Y-102200000D01*
X164664552Y-96473000D02*
X158937552Y-102200000D01*
X169850000Y-96236500D02*
X169613500Y-96473000D01*
%TO.N,SD_CMD*%
X173200000Y-96800000D02*
X164800000Y-96800000D01*
X164800000Y-96800000D02*
X158400000Y-103200000D01*
X158400000Y-103200000D02*
X157600000Y-103200000D01*
%TO.N,SD_DATA2*%
X159375104Y-101300000D02*
X157900000Y-101300000D01*
X170500000Y-95673000D02*
X169277000Y-95673000D01*
X164529104Y-96146000D02*
X159375104Y-101300000D01*
X168804000Y-96146000D02*
X164529104Y-96146000D01*
X169277000Y-95673000D02*
X168804000Y-96146000D01*
%TO.N,SD_DATA1*%
X173200000Y-99200000D02*
X171800000Y-97800000D01*
X159254000Y-106600000D02*
X159254000Y-107146000D01*
X159254000Y-103733344D02*
X159254000Y-106600000D01*
X165206344Y-97781000D02*
X162593672Y-100393672D01*
X162593672Y-100393672D02*
X159254000Y-103733344D01*
X157470139Y-108929861D02*
X157225000Y-108929861D01*
X171781000Y-97781000D02*
X167600000Y-97781000D01*
X157800000Y-108600000D02*
X157470139Y-108929861D01*
X167600000Y-97781000D02*
X165206344Y-97781000D01*
X171800000Y-97800000D02*
X171781000Y-97781000D01*
X159254000Y-107146000D02*
X157800000Y-108600000D01*
%TO.N,BUT_DOWN*%
X213150000Y-108500000D02*
X214550000Y-108500000D01*
X214625000Y-108575000D02*
X214550000Y-108500000D01*
X214550000Y-108500000D02*
X222500000Y-108500000D01*
X214625000Y-110400000D02*
X214625000Y-108575000D01*
X213000000Y-108350000D02*
X213150000Y-108500000D01*
%TO.N,BUT_UP*%
X182123000Y-103964552D02*
X183837552Y-102250000D01*
X163900000Y-105850000D02*
X164013500Y-105963500D01*
X214425000Y-92225000D02*
X214425000Y-91600000D01*
X214425000Y-89850000D02*
X214525000Y-89750000D01*
X164013500Y-109013500D02*
X165309500Y-110309500D01*
X214525000Y-89750000D02*
X222475000Y-89750000D01*
X179628052Y-110309500D02*
X182123000Y-107814552D01*
X211600000Y-101100000D02*
X211600000Y-95050000D01*
X201816590Y-102513500D02*
X210186500Y-102513500D01*
X164013500Y-105963500D02*
X164013500Y-109013500D01*
X201553090Y-102250000D02*
X201816590Y-102513500D01*
X182123000Y-107814552D02*
X182123000Y-103964552D01*
X165309500Y-110309500D02*
X179628052Y-110309500D01*
X183837552Y-102250000D02*
X201553090Y-102250000D01*
X211600000Y-95050000D02*
X214425000Y-92225000D01*
X214425000Y-91600000D02*
X214425000Y-89850000D01*
X210186500Y-102513500D02*
X211600000Y-101100000D01*
%TO.N,BUT_RIGHT*%
X201417642Y-102577000D02*
X201681142Y-102840500D01*
X183973000Y-102577000D02*
X201417642Y-102577000D01*
X182450000Y-107950000D02*
X182450000Y-104100000D01*
X227025000Y-99025000D02*
X227050000Y-99000000D01*
X227025000Y-100800000D02*
X227025000Y-99025000D01*
X165136500Y-110636500D02*
X179763500Y-110636500D01*
X163450000Y-108950000D02*
X165136500Y-110636500D01*
X224984500Y-102840500D02*
X227025000Y-100800000D01*
X182450000Y-104100000D02*
X183973000Y-102577000D01*
X179763500Y-110636500D02*
X182450000Y-107950000D01*
X201681142Y-102840500D02*
X224984500Y-102840500D01*
X163450000Y-106800000D02*
X163450000Y-108950000D01*
X227050000Y-99000000D02*
X235000000Y-99000000D01*
%TO.N,BUT_ENTER*%
X214950000Y-100800000D02*
X214425000Y-100800000D01*
X214425000Y-99125000D02*
X214550000Y-99000000D01*
X214425000Y-100800000D02*
X214425000Y-99125000D01*
X214550000Y-99000000D02*
X222500000Y-99000000D01*
%TO.N,BUT_LEFT*%
X202050000Y-100825000D02*
X202025000Y-100800000D01*
X202050000Y-99000000D02*
X210000000Y-99000000D01*
X202025000Y-100800000D02*
X202025000Y-99025000D01*
X202025000Y-99025000D02*
X202050000Y-99000000D01*
X202050000Y-101950000D02*
X202050000Y-100825000D01*
%TO.N,Net-(U2-RBIAS)*%
X173075000Y-90175000D02*
X171885000Y-90175000D01*
X171885000Y-90175000D02*
X171510000Y-89800000D01*
%TO.N,Net-(U3-GND)*%
X162400000Y-83600000D02*
X162340000Y-83540000D01*
X162340000Y-83540000D02*
X162340000Y-81000000D01*
X164000000Y-84175000D02*
X162400000Y-84175000D01*
X162400000Y-84175000D02*
X162400000Y-83600000D01*
%TO.N,Net-(U3-VCC_IN)*%
X158135000Y-84200000D02*
X159800000Y-84200000D01*
X159800000Y-84200000D02*
X159800000Y-81000000D01*
%TO.N,OLED_SCL*%
X165600000Y-84175000D02*
X164861500Y-84913500D01*
X163823000Y-89200000D02*
X163823000Y-92264552D01*
X164861500Y-87256567D02*
X164584033Y-87534034D01*
X160073000Y-96014552D02*
X160000000Y-96087552D01*
X163568776Y-92518776D02*
X160073000Y-96014552D01*
X160000000Y-97850000D02*
X159550000Y-98300000D01*
X164584033Y-87534034D02*
X163823000Y-88295067D01*
X165600000Y-81720000D02*
X164880000Y-81000000D01*
X164861500Y-84913500D02*
X164861500Y-87256567D01*
X165600000Y-84175000D02*
X165600000Y-81720000D01*
X160000000Y-96087552D02*
X160000000Y-96850000D01*
X163823000Y-88295067D02*
X163823000Y-89200000D01*
X163823000Y-92264552D02*
X163568776Y-92518776D01*
X160000000Y-96850000D02*
X160000000Y-97850000D01*
%TO.N,OLED_SDA*%
X167200000Y-84175000D02*
X166461500Y-84913500D01*
X167200000Y-81220000D02*
X167420000Y-81000000D01*
X167200000Y-84175000D02*
X167200000Y-81220000D01*
X166461500Y-84913500D02*
X166461500Y-86119015D01*
X164150000Y-92400000D02*
X160400000Y-96150000D01*
X160400000Y-96150000D02*
X160400000Y-98300000D01*
X166461500Y-86119015D02*
X164150000Y-88430515D01*
X164150000Y-88430515D02*
X164150000Y-92400000D01*
%TO.N,RF_GD0*%
X177186500Y-93050000D02*
X177186500Y-91936500D01*
X177186500Y-91936500D02*
X176925000Y-91675000D01*
%TO.N,RF_SPID*%
X174413500Y-93897995D02*
X174500000Y-93811495D01*
X174500000Y-93811495D02*
X174500000Y-92600000D01*
%TO.N,RF_GD2*%
X177700000Y-106550000D02*
X177700000Y-105350000D01*
X178136500Y-97739590D02*
X176983410Y-96586500D01*
X174786500Y-96586500D02*
X174450000Y-96250000D01*
X174450000Y-94658405D02*
X175000000Y-94108405D01*
X177700000Y-105350000D02*
X178136500Y-104913500D01*
X174450000Y-96250000D02*
X174450000Y-94658405D01*
X178136500Y-104913500D02*
X178136500Y-97739590D01*
X175000000Y-94108405D02*
X175000000Y-92600000D01*
X176983410Y-96586500D02*
X174786500Y-96586500D01*
%TO.N,RF_SPICS*%
X177750000Y-91575001D02*
X177750000Y-93900000D01*
X178650000Y-106050000D02*
X178650000Y-106550000D01*
X177750000Y-93900000D02*
X178463500Y-94613500D01*
X176925000Y-91175000D02*
X177349999Y-91175000D01*
X177349999Y-91175000D02*
X177750000Y-91575001D01*
X178550000Y-105950000D02*
X178650000Y-106050000D01*
X178463500Y-94613500D02*
X178463500Y-105863500D01*
X178463500Y-105863500D02*
X178550000Y-105950000D01*
%TO.N,RF_SPIQ*%
X173075000Y-91675000D02*
X172850000Y-91900000D01*
X172850000Y-91900000D02*
X172850000Y-93000000D01*
%TO.N,RF_SPICLK*%
X173850000Y-94150000D02*
X173850000Y-94385878D01*
X173850000Y-94385878D02*
X173572378Y-94663500D01*
X173850000Y-92750000D02*
X173850000Y-94150000D01*
X174000000Y-92600000D02*
X173850000Y-92750000D01*
D42*
%TO.N,Net-(BT1-+)*%
X190500000Y-108250000D02*
X187250000Y-108250000D01*
X187250000Y-108250000D02*
X185367500Y-106367500D01*
X185367500Y-106367500D02*
X185367500Y-104607500D01*
%TO.N,Net-(D3-A)*%
X193000000Y-108250000D02*
X193000000Y-105200000D01*
X193000000Y-105200000D02*
X192800000Y-105000000D01*
%TD*%
%TA.AperFunction,Conductor*%
%TO.N,GND*%
G36*
X177943039Y-73320185D02*
G01*
X177988794Y-73372989D01*
X178000000Y-73424500D01*
X178000000Y-75112500D01*
X180500000Y-75112500D01*
X180500000Y-73424500D01*
X180519685Y-73357461D01*
X180572489Y-73311706D01*
X180624000Y-73300500D01*
X239525500Y-73300500D01*
X239592539Y-73320185D01*
X239638294Y-73372989D01*
X239649500Y-73424500D01*
X239649500Y-108996948D01*
X239649351Y-109003033D01*
X239631984Y-109356531D01*
X239630791Y-109368640D01*
X239579308Y-109715712D01*
X239576934Y-109727648D01*
X239491680Y-110068001D01*
X239488147Y-110079646D01*
X239369945Y-110409996D01*
X239365289Y-110421237D01*
X239215270Y-110738429D01*
X239209533Y-110749162D01*
X239029156Y-111050102D01*
X239022396Y-111060220D01*
X238813377Y-111342049D01*
X238805657Y-111351455D01*
X238570033Y-111611428D01*
X238561428Y-111620033D01*
X238301455Y-111855657D01*
X238292049Y-111863377D01*
X238010220Y-112072396D01*
X238000102Y-112079156D01*
X237699162Y-112259533D01*
X237688429Y-112265270D01*
X237371237Y-112415289D01*
X237359996Y-112419945D01*
X237029646Y-112538147D01*
X237018001Y-112541680D01*
X236677648Y-112626934D01*
X236665712Y-112629308D01*
X236318640Y-112680791D01*
X236306531Y-112681984D01*
X235973016Y-112698369D01*
X235953031Y-112699351D01*
X235946949Y-112699500D01*
X179874000Y-112699500D01*
X179806961Y-112679815D01*
X179761206Y-112627011D01*
X179750000Y-112575500D01*
X179750000Y-111920000D01*
X161750000Y-111920000D01*
X161750000Y-112575500D01*
X161730315Y-112642539D01*
X161677511Y-112688294D01*
X161626000Y-112699500D01*
X140524000Y-112699500D01*
X140456961Y-112679815D01*
X140411206Y-112627011D01*
X140400000Y-112575500D01*
X140400000Y-110465755D01*
X140419685Y-110398716D01*
X140472489Y-110352961D01*
X140541647Y-110343017D01*
X140605203Y-110372042D01*
X140611681Y-110378074D01*
X142279519Y-112045912D01*
X142279520Y-112045913D01*
X142354087Y-112120480D01*
X142445413Y-112173207D01*
X142547273Y-112200500D01*
X142547275Y-112200500D01*
X160452725Y-112200500D01*
X160452727Y-112200500D01*
X160554588Y-112173207D01*
X160645913Y-112120480D01*
X161329574Y-111436819D01*
X161390897Y-111403334D01*
X161417255Y-111400500D01*
X184382745Y-111400500D01*
X184449784Y-111420185D01*
X184470426Y-111436819D01*
X185275179Y-112241571D01*
X185275189Y-112241582D01*
X185279519Y-112245912D01*
X185279520Y-112245913D01*
X185354087Y-112320480D01*
X185445413Y-112373207D01*
X185547273Y-112400501D01*
X185547275Y-112400501D01*
X185660323Y-112400501D01*
X185660339Y-112400500D01*
X190852725Y-112400500D01*
X190852727Y-112400500D01*
X190954588Y-112373207D01*
X191045913Y-112320480D01*
X191745480Y-111620913D01*
X191784062Y-111554087D01*
X191798207Y-111529587D01*
X191825500Y-111427727D01*
X191825500Y-111073920D01*
X195649499Y-111073920D01*
X195678340Y-111218907D01*
X195678343Y-111218917D01*
X195734912Y-111355488D01*
X195734919Y-111355501D01*
X195817048Y-111478415D01*
X195817051Y-111478419D01*
X195921580Y-111582948D01*
X195921584Y-111582951D01*
X196044498Y-111665080D01*
X196044511Y-111665087D01*
X196181082Y-111721656D01*
X196181087Y-111721658D01*
X196181091Y-111721658D01*
X196181092Y-111721659D01*
X196326079Y-111750500D01*
X196326082Y-111750500D01*
X196473920Y-111750500D01*
X196571462Y-111731096D01*
X196618913Y-111721658D01*
X196755495Y-111665084D01*
X196878416Y-111582951D01*
X196982951Y-111478416D01*
X197065084Y-111355495D01*
X197066758Y-111351455D01*
X197110676Y-111245426D01*
X197121658Y-111218913D01*
X197150500Y-111073918D01*
X197150500Y-110926082D01*
X197150500Y-110926079D01*
X197121659Y-110781092D01*
X197121658Y-110781091D01*
X197121658Y-110781087D01*
X197103989Y-110738429D01*
X197101153Y-110731582D01*
X212075001Y-110731582D01*
X212081408Y-110802102D01*
X212081409Y-110802107D01*
X212131981Y-110964396D01*
X212219927Y-111109877D01*
X212340122Y-111230072D01*
X212485604Y-111318019D01*
X212485603Y-111318019D01*
X212647894Y-111368590D01*
X212647893Y-111368590D01*
X212718408Y-111374998D01*
X212718426Y-111374999D01*
X212724999Y-111374998D01*
X212725000Y-111374998D01*
X212725000Y-110650000D01*
X212075001Y-110650000D01*
X212075001Y-110731582D01*
X197101153Y-110731582D01*
X197065087Y-110644511D01*
X197065080Y-110644498D01*
X196982951Y-110521584D01*
X196982948Y-110521580D01*
X196878419Y-110417051D01*
X196878415Y-110417048D01*
X196755501Y-110334919D01*
X196755488Y-110334912D01*
X196618917Y-110278343D01*
X196618907Y-110278340D01*
X196473920Y-110249500D01*
X196473918Y-110249500D01*
X196326082Y-110249500D01*
X196326080Y-110249500D01*
X196181092Y-110278340D01*
X196181082Y-110278343D01*
X196044511Y-110334912D01*
X196044498Y-110334919D01*
X195921584Y-110417048D01*
X195921580Y-110417051D01*
X195817051Y-110521580D01*
X195817048Y-110521584D01*
X195734919Y-110644498D01*
X195734912Y-110644511D01*
X195678343Y-110781082D01*
X195678340Y-110781092D01*
X195649500Y-110926079D01*
X195649500Y-110926082D01*
X195649500Y-111073918D01*
X195649500Y-111073920D01*
X195649499Y-111073920D01*
X191825500Y-111073920D01*
X191825500Y-110068427D01*
X212075000Y-110068427D01*
X212075000Y-110150000D01*
X212725000Y-110150000D01*
X212725000Y-109425000D01*
X212724999Y-109424999D01*
X212718436Y-109425000D01*
X212718417Y-109425001D01*
X212647897Y-109431408D01*
X212647892Y-109431409D01*
X212485603Y-109481981D01*
X212340122Y-109569927D01*
X212219927Y-109690122D01*
X212131980Y-109835604D01*
X212081409Y-109997893D01*
X212075000Y-110068427D01*
X191825500Y-110068427D01*
X191825500Y-106372273D01*
X191798207Y-106270413D01*
X191745480Y-106179087D01*
X191670913Y-106104520D01*
X190936818Y-105370425D01*
X190903333Y-105309102D01*
X190900499Y-105282744D01*
X190900499Y-104355143D01*
X190900499Y-104355136D01*
X190900498Y-104355131D01*
X191899500Y-104355131D01*
X191899500Y-105644856D01*
X191899502Y-105644882D01*
X191902413Y-105669987D01*
X191902415Y-105669991D01*
X191947793Y-105772764D01*
X191947794Y-105772765D01*
X192027235Y-105852206D01*
X192130009Y-105897585D01*
X192155135Y-105900500D01*
X192475500Y-105900499D01*
X192542539Y-105920183D01*
X192588294Y-105972987D01*
X192599500Y-106024499D01*
X192599500Y-106587385D01*
X192579815Y-106654424D01*
X192527011Y-106700179D01*
X192500977Y-106707497D01*
X192501148Y-106708173D01*
X192493443Y-106710120D01*
X192352656Y-106765639D01*
X192232077Y-106857077D01*
X192140639Y-106977656D01*
X192085122Y-107118438D01*
X192080650Y-107155682D01*
X192074500Y-107206898D01*
X192074500Y-109293102D01*
X192075670Y-109302841D01*
X192085122Y-109381561D01*
X192140639Y-109522343D01*
X192232077Y-109642922D01*
X192352656Y-109734360D01*
X192352657Y-109734360D01*
X192352658Y-109734361D01*
X192493436Y-109789877D01*
X192581898Y-109800500D01*
X192581903Y-109800500D01*
X193418097Y-109800500D01*
X193418102Y-109800500D01*
X193506564Y-109789877D01*
X193647342Y-109734361D01*
X193767922Y-109642922D01*
X193859361Y-109522342D01*
X193914877Y-109381564D01*
X193925500Y-109293102D01*
X193925500Y-107206898D01*
X194574500Y-107206898D01*
X194574500Y-109293102D01*
X194575670Y-109302841D01*
X194585122Y-109381561D01*
X194640639Y-109522343D01*
X194732077Y-109642922D01*
X194852656Y-109734360D01*
X194852657Y-109734360D01*
X194852658Y-109734361D01*
X194993436Y-109789877D01*
X195081898Y-109800500D01*
X195081903Y-109800500D01*
X195918097Y-109800500D01*
X195918102Y-109800500D01*
X196006564Y-109789877D01*
X196147342Y-109734361D01*
X196267922Y-109642922D01*
X196359361Y-109522342D01*
X196414877Y-109381564D01*
X196425500Y-109293102D01*
X196425500Y-108349998D01*
X212394318Y-108349998D01*
X212394318Y-108350001D01*
X212414955Y-108506760D01*
X212414956Y-108506762D01*
X212464768Y-108627020D01*
X212475464Y-108652841D01*
X212571718Y-108778282D01*
X212697159Y-108874536D01*
X212843238Y-108935044D01*
X212921619Y-108945363D01*
X212999999Y-108955682D01*
X213000000Y-108955682D01*
X213000001Y-108955682D01*
X213052254Y-108948802D01*
X213156762Y-108935044D01*
X213302841Y-108874536D01*
X213302841Y-108874535D01*
X213303048Y-108874450D01*
X213372518Y-108866981D01*
X213434997Y-108898256D01*
X213470649Y-108958345D01*
X213474501Y-108989011D01*
X213474501Y-109194856D01*
X213474502Y-109194882D01*
X213477413Y-109219987D01*
X213477415Y-109219991D01*
X213503389Y-109278817D01*
X213512461Y-109348095D01*
X213482637Y-109411280D01*
X213423388Y-109448311D01*
X213353524Y-109447431D01*
X213353066Y-109447289D01*
X213302103Y-109431409D01*
X213231572Y-109425000D01*
X213225000Y-109425000D01*
X213225000Y-111374999D01*
X213231581Y-111374999D01*
X213302102Y-111368591D01*
X213302107Y-111368590D01*
X213464396Y-111318018D01*
X213609877Y-111230072D01*
X213730071Y-111109878D01*
X213730074Y-111109874D01*
X213811508Y-110975166D01*
X213863035Y-110927978D01*
X213931895Y-110916139D01*
X213996224Y-110943407D01*
X214016891Y-110965003D01*
X214067455Y-111032547D01*
X214182664Y-111118793D01*
X214182671Y-111118797D01*
X214227618Y-111135561D01*
X214317517Y-111169091D01*
X214377127Y-111175500D01*
X214872872Y-111175499D01*
X214932483Y-111169091D01*
X215067331Y-111118796D01*
X215182546Y-111032546D01*
X215268796Y-110917331D01*
X215319091Y-110782483D01*
X215325500Y-110722873D01*
X215325499Y-110077128D01*
X215319091Y-110017517D01*
X215292230Y-109945500D01*
X215268797Y-109882671D01*
X215268793Y-109882664D01*
X215182547Y-109767455D01*
X215182544Y-109767452D01*
X215060231Y-109675888D01*
X215061752Y-109673856D01*
X215021822Y-109633926D01*
X215006970Y-109565653D01*
X215031387Y-109500189D01*
X215087320Y-109458317D01*
X215130654Y-109450499D01*
X215369856Y-109450499D01*
X215369864Y-109450499D01*
X215369879Y-109450497D01*
X215369882Y-109450497D01*
X215394987Y-109447586D01*
X215394988Y-109447585D01*
X215394991Y-109447585D01*
X215497765Y-109402206D01*
X215577206Y-109322765D01*
X215622585Y-109219991D01*
X215625500Y-109194865D01*
X215625500Y-108988000D01*
X215645185Y-108920961D01*
X215697989Y-108875206D01*
X215749500Y-108864000D01*
X221300501Y-108864000D01*
X221367540Y-108883685D01*
X221413295Y-108936489D01*
X221424501Y-108988000D01*
X221424501Y-109194856D01*
X221424502Y-109194882D01*
X221427413Y-109219987D01*
X221427415Y-109219991D01*
X221472793Y-109322764D01*
X221472794Y-109322765D01*
X221552235Y-109402206D01*
X221655009Y-109447585D01*
X221680135Y-109450500D01*
X223319864Y-109450499D01*
X223319879Y-109450497D01*
X223319882Y-109450497D01*
X223344987Y-109447586D01*
X223344988Y-109447585D01*
X223344991Y-109447585D01*
X223447765Y-109402206D01*
X223527206Y-109322765D01*
X223572585Y-109219991D01*
X223575500Y-109194865D01*
X223575499Y-107805136D01*
X223575497Y-107805117D01*
X223572586Y-107780012D01*
X223572585Y-107780010D01*
X223572585Y-107780009D01*
X223527206Y-107677235D01*
X223447765Y-107597794D01*
X223446327Y-107597159D01*
X223344992Y-107552415D01*
X223319865Y-107549500D01*
X221680143Y-107549500D01*
X221680117Y-107549502D01*
X221655012Y-107552413D01*
X221655008Y-107552415D01*
X221552235Y-107597793D01*
X221472794Y-107677234D01*
X221427415Y-107780006D01*
X221427415Y-107780008D01*
X221424500Y-107805131D01*
X221424500Y-108012000D01*
X221404815Y-108079039D01*
X221352011Y-108124794D01*
X221300500Y-108136000D01*
X215749499Y-108136000D01*
X215682460Y-108116315D01*
X215636705Y-108063511D01*
X215625499Y-108012000D01*
X215625499Y-107805143D01*
X215625499Y-107805136D01*
X215625497Y-107805117D01*
X215622586Y-107780012D01*
X215622585Y-107780010D01*
X215622585Y-107780009D01*
X215577206Y-107677235D01*
X215497765Y-107597794D01*
X215496327Y-107597159D01*
X215394992Y-107552415D01*
X215369865Y-107549500D01*
X213730143Y-107549500D01*
X213730117Y-107549502D01*
X213705012Y-107552413D01*
X213705008Y-107552415D01*
X213602235Y-107597793D01*
X213522794Y-107677234D01*
X213481757Y-107770174D01*
X213436671Y-107823550D01*
X213369885Y-107844077D01*
X213310366Y-107828530D01*
X213310349Y-107828574D01*
X213310035Y-107828444D01*
X213306325Y-107827475D01*
X213302843Y-107825465D01*
X213302838Y-107825463D01*
X213156762Y-107764956D01*
X213156760Y-107764955D01*
X213000001Y-107744318D01*
X212999999Y-107744318D01*
X212843239Y-107764955D01*
X212843237Y-107764956D01*
X212697160Y-107825463D01*
X212571718Y-107921718D01*
X212475463Y-108047160D01*
X212414956Y-108193237D01*
X212414955Y-108193239D01*
X212394318Y-108349998D01*
X196425500Y-108349998D01*
X196425500Y-107206898D01*
X196414877Y-107118436D01*
X196359361Y-106977658D01*
X196359360Y-106977657D01*
X196359360Y-106977656D01*
X196267922Y-106857077D01*
X196147343Y-106765639D01*
X196006561Y-106710122D01*
X195960926Y-106704642D01*
X195918102Y-106699500D01*
X195081898Y-106699500D01*
X195042853Y-106704188D01*
X194993438Y-106710122D01*
X194852656Y-106765639D01*
X194732077Y-106857077D01*
X194640639Y-106977656D01*
X194585122Y-107118438D01*
X194580650Y-107155682D01*
X194574500Y-107206898D01*
X193925500Y-107206898D01*
X193914877Y-107118436D01*
X193859361Y-106977658D01*
X193859360Y-106977657D01*
X193859360Y-106977656D01*
X193767922Y-106857077D01*
X193647343Y-106765639D01*
X193506556Y-106710120D01*
X193498852Y-106708173D01*
X193499382Y-106706072D01*
X193445490Y-106682954D01*
X193406364Y-106625067D01*
X193400500Y-106587385D01*
X193400500Y-106009066D01*
X193420185Y-105942027D01*
X193472989Y-105896272D01*
X193474285Y-105895688D01*
X193572765Y-105852206D01*
X193652206Y-105772765D01*
X193697585Y-105669991D01*
X193700500Y-105644865D01*
X193700499Y-104355136D01*
X193699409Y-104345736D01*
X193697586Y-104330012D01*
X193697585Y-104330010D01*
X193697585Y-104330009D01*
X193652206Y-104227235D01*
X193572765Y-104147794D01*
X193510948Y-104120499D01*
X193469992Y-104102415D01*
X193444865Y-104099500D01*
X192155143Y-104099500D01*
X192155117Y-104099502D01*
X192130012Y-104102413D01*
X192130008Y-104102415D01*
X192027235Y-104147793D01*
X191947794Y-104227234D01*
X191902415Y-104330006D01*
X191902415Y-104330008D01*
X191899500Y-104355131D01*
X190900498Y-104355131D01*
X190899409Y-104345736D01*
X190897586Y-104330012D01*
X190897585Y-104330010D01*
X190897585Y-104330009D01*
X190852206Y-104227235D01*
X190772765Y-104147794D01*
X190710948Y-104120499D01*
X190669992Y-104102415D01*
X190644865Y-104099500D01*
X189355143Y-104099500D01*
X189355117Y-104099502D01*
X189330012Y-104102413D01*
X189330008Y-104102415D01*
X189227235Y-104147793D01*
X189147794Y-104227234D01*
X189102415Y-104330006D01*
X189102415Y-104330008D01*
X189099500Y-104355131D01*
X189099500Y-105644856D01*
X189099502Y-105644882D01*
X189102413Y-105669987D01*
X189102415Y-105669991D01*
X189147793Y-105772764D01*
X189147794Y-105772765D01*
X189227235Y-105852206D01*
X189330009Y-105897585D01*
X189355135Y-105900500D01*
X190282744Y-105900499D01*
X190349783Y-105920183D01*
X190370425Y-105936818D01*
X190921426Y-106487819D01*
X190954911Y-106549142D01*
X190949927Y-106618834D01*
X190908055Y-106674767D01*
X190842591Y-106699184D01*
X190833745Y-106699500D01*
X190081898Y-106699500D01*
X190042853Y-106704188D01*
X189993438Y-106710122D01*
X189852656Y-106765639D01*
X189732077Y-106857077D01*
X189640639Y-106977656D01*
X189585122Y-107118438D01*
X189580650Y-107155682D01*
X189574500Y-107206898D01*
X189574500Y-107206903D01*
X189574500Y-107725500D01*
X189554815Y-107792539D01*
X189502011Y-107838294D01*
X189450500Y-107849500D01*
X187467255Y-107849500D01*
X187400216Y-107829815D01*
X187379574Y-107813181D01*
X186186073Y-106619680D01*
X186152588Y-106558357D01*
X186157572Y-106488665D01*
X186199444Y-106432732D01*
X186264908Y-106408315D01*
X186273754Y-106407999D01*
X186912356Y-106407999D01*
X186912364Y-106407999D01*
X186912379Y-106407997D01*
X186912382Y-106407997D01*
X186937487Y-106405086D01*
X186937488Y-106405085D01*
X186937491Y-106405085D01*
X187040265Y-106359706D01*
X187119706Y-106280265D01*
X187165085Y-106177491D01*
X187168000Y-106152365D01*
X187167999Y-103064999D01*
X187187684Y-102997961D01*
X187240488Y-102952206D01*
X187291999Y-102941000D01*
X201215506Y-102941000D01*
X201282545Y-102960685D01*
X201303187Y-102977319D01*
X201389869Y-103064001D01*
X201457641Y-103131773D01*
X201540643Y-103179694D01*
X201633220Y-103204500D01*
X213350500Y-103204500D01*
X213417539Y-103224185D01*
X213463294Y-103276989D01*
X213474500Y-103328500D01*
X213474500Y-104694856D01*
X213474502Y-104694882D01*
X213477413Y-104719987D01*
X213477415Y-104719991D01*
X213522793Y-104822764D01*
X213522794Y-104822765D01*
X213602235Y-104902206D01*
X213705009Y-104947585D01*
X213730135Y-104950500D01*
X215369864Y-104950499D01*
X215369879Y-104950497D01*
X215369882Y-104950497D01*
X215394987Y-104947586D01*
X215394988Y-104947585D01*
X215394991Y-104947585D01*
X215497765Y-104902206D01*
X215577206Y-104822765D01*
X215622585Y-104719991D01*
X215625500Y-104694865D01*
X215625500Y-104524500D01*
X215645185Y-104457461D01*
X215697989Y-104411706D01*
X215749500Y-104400500D01*
X215947273Y-104400500D01*
X216052727Y-104400500D01*
X221300501Y-104400500D01*
X221367540Y-104420185D01*
X221413295Y-104472989D01*
X221424501Y-104524500D01*
X221424501Y-104694856D01*
X221424502Y-104694882D01*
X221427413Y-104719987D01*
X221427415Y-104719991D01*
X221472793Y-104822764D01*
X221472794Y-104822765D01*
X221552235Y-104902206D01*
X221655009Y-104947585D01*
X221680135Y-104950500D01*
X223319864Y-104950499D01*
X223319879Y-104950497D01*
X223319882Y-104950497D01*
X223344987Y-104947586D01*
X223344988Y-104947585D01*
X223344991Y-104947585D01*
X223447765Y-104902206D01*
X223527206Y-104822765D01*
X223572585Y-104719991D01*
X223575500Y-104694865D01*
X223575499Y-103328499D01*
X223595184Y-103261461D01*
X223647987Y-103215706D01*
X223699499Y-103204500D01*
X225032419Y-103204500D01*
X225032422Y-103204500D01*
X225124999Y-103179694D01*
X225208001Y-103131773D01*
X226727956Y-101611816D01*
X226789277Y-101578333D01*
X226815626Y-101575499D01*
X227272872Y-101575499D01*
X227332483Y-101569091D01*
X227467331Y-101518796D01*
X227582546Y-101432546D01*
X227668796Y-101317331D01*
X227719091Y-101182483D01*
X227725500Y-101122873D01*
X227725499Y-100477128D01*
X227719091Y-100417517D01*
X227668796Y-100282669D01*
X227668795Y-100282668D01*
X227668793Y-100282664D01*
X227582547Y-100167455D01*
X227577272Y-100162180D01*
X227543787Y-100100857D01*
X227548771Y-100031165D01*
X227590643Y-99975232D01*
X227656107Y-99950815D01*
X227664953Y-99950499D01*
X227869856Y-99950499D01*
X227869864Y-99950499D01*
X227869879Y-99950497D01*
X227869882Y-99950497D01*
X227894987Y-99947586D01*
X227894988Y-99947585D01*
X227894991Y-99947585D01*
X227997765Y-99902206D01*
X228077206Y-99822765D01*
X228122585Y-99719991D01*
X228125500Y-99694865D01*
X228125500Y-99488000D01*
X228145185Y-99420961D01*
X228197989Y-99375206D01*
X228249500Y-99364000D01*
X233800501Y-99364000D01*
X233867540Y-99383685D01*
X233913295Y-99436489D01*
X233924501Y-99488000D01*
X233924501Y-99694856D01*
X233924502Y-99694882D01*
X233927413Y-99719987D01*
X233927415Y-99719991D01*
X233972793Y-99822764D01*
X233972794Y-99822765D01*
X234052235Y-99902206D01*
X234155009Y-99947585D01*
X234180135Y-99950500D01*
X235819864Y-99950499D01*
X235819879Y-99950497D01*
X235819882Y-99950497D01*
X235844987Y-99947586D01*
X235844988Y-99947585D01*
X235844991Y-99947585D01*
X235947765Y-99902206D01*
X236027206Y-99822765D01*
X236072585Y-99719991D01*
X236075500Y-99694865D01*
X236075499Y-98305136D01*
X236075497Y-98305117D01*
X236072586Y-98280012D01*
X236072585Y-98280010D01*
X236072585Y-98280009D01*
X236027206Y-98177235D01*
X235947765Y-98097794D01*
X235946327Y-98097159D01*
X235844992Y-98052415D01*
X235819865Y-98049500D01*
X234180143Y-98049500D01*
X234180117Y-98049502D01*
X234155012Y-98052413D01*
X234155008Y-98052415D01*
X234052235Y-98097793D01*
X233972794Y-98177234D01*
X233927415Y-98280006D01*
X233927415Y-98280008D01*
X233924500Y-98305131D01*
X233924500Y-98512000D01*
X233904815Y-98579039D01*
X233852011Y-98624794D01*
X233800500Y-98636000D01*
X228249499Y-98636000D01*
X228182460Y-98616315D01*
X228136705Y-98563511D01*
X228125499Y-98512000D01*
X228125499Y-98305143D01*
X228125499Y-98305136D01*
X228125497Y-98305117D01*
X228122586Y-98280012D01*
X228122585Y-98280010D01*
X228122585Y-98280009D01*
X228077206Y-98177235D01*
X227997765Y-98097794D01*
X227996327Y-98097159D01*
X227894992Y-98052415D01*
X227869865Y-98049500D01*
X226230143Y-98049500D01*
X226230117Y-98049502D01*
X226205012Y-98052413D01*
X226205008Y-98052415D01*
X226102235Y-98097793D01*
X226022794Y-98177234D01*
X225977415Y-98280006D01*
X225977415Y-98280008D01*
X225974500Y-98305131D01*
X225974500Y-99694856D01*
X225974502Y-99694882D01*
X225978489Y-99729258D01*
X225976423Y-99729497D01*
X225975275Y-99787101D01*
X225936336Y-99845115D01*
X225872214Y-99872866D01*
X225820128Y-99868186D01*
X225702105Y-99831409D01*
X225702106Y-99831409D01*
X225631572Y-99825000D01*
X225625000Y-99825000D01*
X225625000Y-100926000D01*
X225605315Y-100993039D01*
X225552511Y-101038794D01*
X225501000Y-101050000D01*
X224475001Y-101050000D01*
X224475001Y-101131582D01*
X224481408Y-101202102D01*
X224481409Y-101202107D01*
X224531981Y-101364396D01*
X224619927Y-101509877D01*
X224740122Y-101630072D01*
X224885604Y-101718019D01*
X224885603Y-101718019D01*
X225047894Y-101768590D01*
X225047893Y-101768590D01*
X225118427Y-101774999D01*
X225235862Y-101774999D01*
X225302902Y-101794683D01*
X225348657Y-101847487D01*
X225358601Y-101916645D01*
X225329577Y-101980201D01*
X225323544Y-101986680D01*
X224870045Y-102440181D01*
X224808722Y-102473666D01*
X224782364Y-102476500D01*
X211037636Y-102476500D01*
X210970597Y-102456815D01*
X210924842Y-102404011D01*
X210914898Y-102334853D01*
X210943923Y-102271297D01*
X210949955Y-102264819D01*
X211367287Y-101847487D01*
X211789321Y-101425452D01*
X211850642Y-101391969D01*
X211920333Y-101396953D01*
X211976267Y-101438825D01*
X211983117Y-101448985D01*
X212019927Y-101509877D01*
X212140122Y-101630072D01*
X212285604Y-101718019D01*
X212285603Y-101718019D01*
X212447894Y-101768590D01*
X212447893Y-101768590D01*
X212518408Y-101774998D01*
X212518426Y-101774999D01*
X212524999Y-101774998D01*
X212525000Y-101774998D01*
X212525000Y-99825000D01*
X213025000Y-99825000D01*
X213025000Y-101774999D01*
X213031581Y-101774999D01*
X213102102Y-101768591D01*
X213102107Y-101768590D01*
X213264396Y-101718018D01*
X213409877Y-101630072D01*
X213530071Y-101509878D01*
X213530074Y-101509874D01*
X213611508Y-101375166D01*
X213663035Y-101327978D01*
X213731895Y-101316139D01*
X213796224Y-101343407D01*
X213816891Y-101365003D01*
X213867453Y-101432545D01*
X213867455Y-101432547D01*
X213982664Y-101518793D01*
X213982671Y-101518797D01*
X213990503Y-101521718D01*
X214117517Y-101569091D01*
X214177127Y-101575500D01*
X214672872Y-101575499D01*
X214732483Y-101569091D01*
X214867331Y-101518796D01*
X214982546Y-101432546D01*
X214982548Y-101432542D01*
X214988646Y-101426445D01*
X215049966Y-101392955D01*
X215060130Y-101391182D01*
X215106762Y-101385044D01*
X215252841Y-101324536D01*
X215378282Y-101228282D01*
X215474536Y-101102841D01*
X215535044Y-100956762D01*
X215555682Y-100800000D01*
X215545889Y-100725618D01*
X215535044Y-100643239D01*
X215535044Y-100643238D01*
X215474536Y-100497159D01*
X215452489Y-100468427D01*
X224475000Y-100468427D01*
X224475000Y-100550000D01*
X225125000Y-100550000D01*
X225125000Y-99825000D01*
X225124999Y-99824999D01*
X225118436Y-99825000D01*
X225118417Y-99825001D01*
X225047897Y-99831408D01*
X225047892Y-99831409D01*
X224885603Y-99881981D01*
X224740122Y-99969927D01*
X224619927Y-100090122D01*
X224531980Y-100235604D01*
X224481409Y-100397893D01*
X224475000Y-100468427D01*
X215452489Y-100468427D01*
X215378282Y-100371718D01*
X215252841Y-100275464D01*
X215106762Y-100214956D01*
X215080160Y-100211453D01*
X215060148Y-100208819D01*
X214996251Y-100180552D01*
X214988653Y-100173561D01*
X214977272Y-100162180D01*
X214943787Y-100100857D01*
X214948771Y-100031165D01*
X214990643Y-99975232D01*
X215056107Y-99950815D01*
X215064953Y-99950499D01*
X215369856Y-99950499D01*
X215369864Y-99950499D01*
X215369879Y-99950497D01*
X215369882Y-99950497D01*
X215394987Y-99947586D01*
X215394988Y-99947585D01*
X215394991Y-99947585D01*
X215497765Y-99902206D01*
X215577206Y-99822765D01*
X215622585Y-99719991D01*
X215625500Y-99694865D01*
X215625500Y-99488000D01*
X215645185Y-99420961D01*
X215697989Y-99375206D01*
X215749500Y-99364000D01*
X221300501Y-99364000D01*
X221367540Y-99383685D01*
X221413295Y-99436489D01*
X221424501Y-99488000D01*
X221424501Y-99694856D01*
X221424502Y-99694882D01*
X221427413Y-99719987D01*
X221427415Y-99719991D01*
X221472793Y-99822764D01*
X221472794Y-99822765D01*
X221552235Y-99902206D01*
X221655009Y-99947585D01*
X221680135Y-99950500D01*
X223319864Y-99950499D01*
X223319879Y-99950497D01*
X223319882Y-99950497D01*
X223344987Y-99947586D01*
X223344988Y-99947585D01*
X223344991Y-99947585D01*
X223447765Y-99902206D01*
X223527206Y-99822765D01*
X223572585Y-99719991D01*
X223575500Y-99694865D01*
X223575499Y-98305136D01*
X223575497Y-98305117D01*
X223572586Y-98280012D01*
X223572585Y-98280010D01*
X223572585Y-98280009D01*
X223527206Y-98177235D01*
X223447765Y-98097794D01*
X223446327Y-98097159D01*
X223344992Y-98052415D01*
X223319865Y-98049500D01*
X221680143Y-98049500D01*
X221680117Y-98049502D01*
X221655012Y-98052413D01*
X221655008Y-98052415D01*
X221552235Y-98097793D01*
X221472794Y-98177234D01*
X221427415Y-98280006D01*
X221427415Y-98280008D01*
X221424500Y-98305131D01*
X221424500Y-98512000D01*
X221404815Y-98579039D01*
X221352011Y-98624794D01*
X221300500Y-98636000D01*
X215749499Y-98636000D01*
X215682460Y-98616315D01*
X215636705Y-98563511D01*
X215625499Y-98512000D01*
X215625499Y-98305143D01*
X215625499Y-98305136D01*
X215625497Y-98305117D01*
X215622586Y-98280012D01*
X215622585Y-98280010D01*
X215622585Y-98280009D01*
X215577206Y-98177235D01*
X215497765Y-98097794D01*
X215496327Y-98097159D01*
X215394992Y-98052415D01*
X215369865Y-98049500D01*
X213730143Y-98049500D01*
X213730117Y-98049502D01*
X213705012Y-98052413D01*
X213705008Y-98052415D01*
X213602235Y-98097793D01*
X213522794Y-98177234D01*
X213477415Y-98280006D01*
X213477415Y-98280008D01*
X213474500Y-98305131D01*
X213474500Y-99694856D01*
X213474502Y-99694882D01*
X213477413Y-99719986D01*
X213477414Y-99719990D01*
X213477415Y-99719991D01*
X213493803Y-99757107D01*
X213502874Y-99826383D01*
X213473050Y-99889568D01*
X213413801Y-99926599D01*
X213343937Y-99925718D01*
X213316218Y-99913308D01*
X213264396Y-99881980D01*
X213102105Y-99831409D01*
X213102106Y-99831409D01*
X213031572Y-99825000D01*
X213025000Y-99825000D01*
X212525000Y-99825000D01*
X212524999Y-99824999D01*
X212518436Y-99825000D01*
X212518417Y-99825001D01*
X212447897Y-99831408D01*
X212447892Y-99831409D01*
X212285602Y-99881981D01*
X212152150Y-99962656D01*
X212084595Y-99980492D01*
X212018121Y-99958974D01*
X211973834Y-99904934D01*
X211964000Y-99856539D01*
X211964000Y-95252136D01*
X211983685Y-95185097D01*
X212000319Y-95164455D01*
X212630984Y-94533790D01*
X213262821Y-93901952D01*
X213324142Y-93868469D01*
X213393834Y-93873453D01*
X213449767Y-93915325D01*
X213474184Y-93980789D01*
X213474500Y-93989635D01*
X213474500Y-95194856D01*
X213474502Y-95194882D01*
X213477413Y-95219987D01*
X213477415Y-95219991D01*
X213522793Y-95322764D01*
X213522794Y-95322765D01*
X213602235Y-95402206D01*
X213705009Y-95447585D01*
X213730135Y-95450500D01*
X213750215Y-95450499D01*
X213817253Y-95470181D01*
X213863010Y-95522983D01*
X213864779Y-95527046D01*
X213875462Y-95552838D01*
X213875464Y-95552841D01*
X213967665Y-95673001D01*
X213971718Y-95678282D01*
X214097159Y-95774536D01*
X214243238Y-95835044D01*
X214291973Y-95841460D01*
X214399999Y-95855682D01*
X214400000Y-95855682D01*
X214400001Y-95855682D01*
X214452254Y-95848802D01*
X214556762Y-95835044D01*
X214702841Y-95774536D01*
X214828282Y-95678282D01*
X214924536Y-95552841D01*
X214935220Y-95527046D01*
X214979060Y-95472644D01*
X215045353Y-95450578D01*
X215049781Y-95450499D01*
X215369856Y-95450499D01*
X215369864Y-95450499D01*
X215369879Y-95450497D01*
X215369882Y-95450497D01*
X215394987Y-95447586D01*
X215394988Y-95447585D01*
X215394991Y-95447585D01*
X215497765Y-95402206D01*
X215577206Y-95322765D01*
X215622585Y-95219991D01*
X215625500Y-95194865D01*
X215625500Y-95024500D01*
X215645185Y-94957461D01*
X215697989Y-94911706D01*
X215749500Y-94900500D01*
X221300501Y-94900500D01*
X221367540Y-94920185D01*
X221413295Y-94972989D01*
X221424501Y-95024500D01*
X221424501Y-95194856D01*
X221424502Y-95194882D01*
X221427413Y-95219987D01*
X221427415Y-95219991D01*
X221472793Y-95322764D01*
X221472794Y-95322765D01*
X221552235Y-95402206D01*
X221655009Y-95447585D01*
X221680135Y-95450500D01*
X223319864Y-95450499D01*
X223319879Y-95450497D01*
X223319882Y-95450497D01*
X223344987Y-95447586D01*
X223344988Y-95447585D01*
X223344991Y-95447585D01*
X223447765Y-95402206D01*
X223527206Y-95322765D01*
X223572585Y-95219991D01*
X223575500Y-95194865D01*
X223575500Y-95024500D01*
X223595185Y-94957461D01*
X223647989Y-94911706D01*
X223699500Y-94900500D01*
X225850501Y-94900500D01*
X225917540Y-94920185D01*
X225963295Y-94972989D01*
X225974501Y-95024500D01*
X225974501Y-95194856D01*
X225974502Y-95194882D01*
X225977413Y-95219987D01*
X225977415Y-95219991D01*
X226022793Y-95322764D01*
X226022794Y-95322765D01*
X226102235Y-95402206D01*
X226205009Y-95447585D01*
X226230135Y-95450500D01*
X227869864Y-95450499D01*
X227869879Y-95450497D01*
X227869882Y-95450497D01*
X227894987Y-95447586D01*
X227894988Y-95447585D01*
X227894991Y-95447585D01*
X227997765Y-95402206D01*
X228077206Y-95322765D01*
X228122585Y-95219991D01*
X228125500Y-95194865D01*
X228125500Y-95024500D01*
X228145185Y-94957461D01*
X228197989Y-94911706D01*
X228249500Y-94900500D01*
X233800501Y-94900500D01*
X233867540Y-94920185D01*
X233913295Y-94972989D01*
X233924501Y-95024500D01*
X233924501Y-95194856D01*
X233924502Y-95194882D01*
X233927413Y-95219987D01*
X233927415Y-95219991D01*
X233972793Y-95322764D01*
X233972794Y-95322765D01*
X234052235Y-95402206D01*
X234155009Y-95447585D01*
X234180135Y-95450500D01*
X235819864Y-95450499D01*
X235819879Y-95450497D01*
X235819882Y-95450497D01*
X235844987Y-95447586D01*
X235844988Y-95447585D01*
X235844991Y-95447585D01*
X235947765Y-95402206D01*
X236027206Y-95322765D01*
X236072585Y-95219991D01*
X236075500Y-95194865D01*
X236075499Y-93805136D01*
X236075357Y-93803910D01*
X236072586Y-93780012D01*
X236072585Y-93780010D01*
X236072585Y-93780009D01*
X236027206Y-93677235D01*
X235947765Y-93597794D01*
X235918887Y-93585043D01*
X235844992Y-93552415D01*
X235819865Y-93549500D01*
X234180143Y-93549500D01*
X234180117Y-93549502D01*
X234155012Y-93552413D01*
X234155008Y-93552415D01*
X234052235Y-93597793D01*
X233972794Y-93677234D01*
X233927415Y-93780006D01*
X233927415Y-93780008D01*
X233924500Y-93805131D01*
X233924500Y-93975500D01*
X233904815Y-94042539D01*
X233852011Y-94088294D01*
X233800500Y-94099500D01*
X228249499Y-94099500D01*
X228182460Y-94079815D01*
X228136705Y-94027011D01*
X228125499Y-93975500D01*
X228125499Y-93805143D01*
X228125499Y-93805136D01*
X228125357Y-93803910D01*
X228122586Y-93780012D01*
X228122585Y-93780010D01*
X228122585Y-93780009D01*
X228077206Y-93677235D01*
X227997765Y-93597794D01*
X227968887Y-93585043D01*
X227894992Y-93552415D01*
X227869865Y-93549500D01*
X226230143Y-93549500D01*
X226230117Y-93549502D01*
X226205012Y-93552413D01*
X226205008Y-93552415D01*
X226102235Y-93597793D01*
X226022794Y-93677234D01*
X225977415Y-93780006D01*
X225977415Y-93780008D01*
X225974500Y-93805131D01*
X225974500Y-93975500D01*
X225954815Y-94042539D01*
X225902011Y-94088294D01*
X225850500Y-94099500D01*
X223699499Y-94099500D01*
X223632460Y-94079815D01*
X223586705Y-94027011D01*
X223575499Y-93975500D01*
X223575499Y-93805143D01*
X223575499Y-93805136D01*
X223575357Y-93803910D01*
X223572586Y-93780012D01*
X223572585Y-93780010D01*
X223572585Y-93780009D01*
X223527206Y-93677235D01*
X223447765Y-93597794D01*
X223418887Y-93585043D01*
X223344992Y-93552415D01*
X223319865Y-93549500D01*
X221680143Y-93549500D01*
X221680117Y-93549502D01*
X221655012Y-93552413D01*
X221655008Y-93552415D01*
X221552235Y-93597793D01*
X221472794Y-93677234D01*
X221427415Y-93780006D01*
X221427415Y-93780008D01*
X221424500Y-93805131D01*
X221424500Y-93975500D01*
X221404815Y-94042539D01*
X221352011Y-94088294D01*
X221300500Y-94099500D01*
X215749499Y-94099500D01*
X215682460Y-94079815D01*
X215636705Y-94027011D01*
X215625499Y-93975500D01*
X215625499Y-93805143D01*
X215625499Y-93805136D01*
X215625357Y-93803910D01*
X215622586Y-93780012D01*
X215622585Y-93780010D01*
X215622585Y-93780009D01*
X215577206Y-93677235D01*
X215497765Y-93597794D01*
X215468887Y-93585043D01*
X215394992Y-93552415D01*
X215369868Y-93549500D01*
X213914635Y-93549500D01*
X213847596Y-93529815D01*
X213801841Y-93477011D01*
X213791897Y-93407853D01*
X213820922Y-93344297D01*
X213826940Y-93337833D01*
X214716273Y-92448501D01*
X214747965Y-92393607D01*
X214798530Y-92345392D01*
X214812005Y-92339430D01*
X214867331Y-92318796D01*
X214982546Y-92232546D01*
X215068796Y-92117331D01*
X215119091Y-91982483D01*
X215125500Y-91922873D01*
X215125499Y-91277128D01*
X215119091Y-91217517D01*
X215114526Y-91205278D01*
X215068797Y-91082671D01*
X215068793Y-91082664D01*
X214982547Y-90967455D01*
X214982544Y-90967452D01*
X214924186Y-90923765D01*
X214882315Y-90867831D01*
X214877331Y-90798140D01*
X214910817Y-90736817D01*
X214972140Y-90703333D01*
X214998497Y-90700499D01*
X215344856Y-90700499D01*
X215344864Y-90700499D01*
X215344879Y-90700497D01*
X215344882Y-90700497D01*
X215369987Y-90697586D01*
X215369988Y-90697585D01*
X215369991Y-90697585D01*
X215472765Y-90652206D01*
X215552206Y-90572765D01*
X215597585Y-90469991D01*
X215600500Y-90444865D01*
X215600500Y-90238000D01*
X215620185Y-90170961D01*
X215672989Y-90125206D01*
X215724500Y-90114000D01*
X221275501Y-90114000D01*
X221342540Y-90133685D01*
X221388295Y-90186489D01*
X221399501Y-90238000D01*
X221399501Y-90444856D01*
X221399502Y-90444882D01*
X221402413Y-90469987D01*
X221402415Y-90469991D01*
X221447793Y-90572764D01*
X221447794Y-90572765D01*
X221527235Y-90652206D01*
X221630009Y-90697585D01*
X221655135Y-90700500D01*
X223294864Y-90700499D01*
X223294879Y-90700497D01*
X223294882Y-90700497D01*
X223319987Y-90697586D01*
X223319988Y-90697585D01*
X223319991Y-90697585D01*
X223422765Y-90652206D01*
X223502206Y-90572765D01*
X223547585Y-90469991D01*
X223550500Y-90444865D01*
X223550499Y-89055136D01*
X223550497Y-89055117D01*
X223547586Y-89030012D01*
X223547585Y-89030010D01*
X223547585Y-89030009D01*
X223502206Y-88927235D01*
X223422765Y-88847794D01*
X223422763Y-88847793D01*
X223319992Y-88802415D01*
X223294865Y-88799500D01*
X221655143Y-88799500D01*
X221655117Y-88799502D01*
X221630012Y-88802413D01*
X221630008Y-88802415D01*
X221527235Y-88847793D01*
X221447794Y-88927234D01*
X221402415Y-89030006D01*
X221402415Y-89030008D01*
X221399500Y-89055131D01*
X221399500Y-89262000D01*
X221379815Y-89329039D01*
X221327011Y-89374794D01*
X221275500Y-89386000D01*
X215724499Y-89386000D01*
X215657460Y-89366315D01*
X215611705Y-89313511D01*
X215600499Y-89262000D01*
X215600499Y-89055143D01*
X215600499Y-89055136D01*
X215600497Y-89055117D01*
X215597586Y-89030012D01*
X215597585Y-89030010D01*
X215597585Y-89030009D01*
X215552206Y-88927235D01*
X215472765Y-88847794D01*
X215472763Y-88847793D01*
X215369992Y-88802415D01*
X215344865Y-88799500D01*
X213705143Y-88799500D01*
X213705117Y-88799502D01*
X213680012Y-88802413D01*
X213680008Y-88802415D01*
X213577235Y-88847793D01*
X213497794Y-88927234D01*
X213452415Y-89030006D01*
X213452415Y-89030008D01*
X213449500Y-89055131D01*
X213449500Y-90444856D01*
X213449502Y-90444882D01*
X213452413Y-90469986D01*
X213452414Y-90469990D01*
X213452415Y-90469991D01*
X213489816Y-90554697D01*
X213498887Y-90623973D01*
X213469063Y-90687158D01*
X213409814Y-90724189D01*
X213339950Y-90723308D01*
X213312231Y-90710898D01*
X213264395Y-90681980D01*
X213264396Y-90681980D01*
X213102105Y-90631409D01*
X213102106Y-90631409D01*
X213031572Y-90625000D01*
X213025000Y-90625000D01*
X213025000Y-92574999D01*
X213031581Y-92574999D01*
X213102102Y-92568591D01*
X213102107Y-92568590D01*
X213264396Y-92518018D01*
X213282550Y-92507044D01*
X213350104Y-92489206D01*
X213416578Y-92510721D01*
X213460868Y-92564760D01*
X213468911Y-92634166D01*
X213438154Y-92696901D01*
X213434384Y-92700840D01*
X211376499Y-94758727D01*
X211308728Y-94826497D01*
X211308722Y-94826505D01*
X211306881Y-94829694D01*
X211304625Y-94831844D01*
X211303777Y-94832950D01*
X211303604Y-94832817D01*
X211256310Y-94877905D01*
X211187701Y-94891123D01*
X211122839Y-94865149D01*
X211082315Y-94808231D01*
X211075499Y-94767689D01*
X211075499Y-93805136D01*
X211075357Y-93803910D01*
X211072586Y-93780012D01*
X211072585Y-93780010D01*
X211072585Y-93780009D01*
X211027206Y-93677235D01*
X210947765Y-93597794D01*
X210918887Y-93585043D01*
X210844992Y-93552415D01*
X210819868Y-93549500D01*
X210819865Y-93549500D01*
X210524500Y-93549500D01*
X210457461Y-93529815D01*
X210411706Y-93477011D01*
X210400500Y-93425500D01*
X210400500Y-91931582D01*
X211875001Y-91931582D01*
X211881408Y-92002102D01*
X211881409Y-92002107D01*
X211931981Y-92164396D01*
X212019927Y-92309877D01*
X212140122Y-92430072D01*
X212285604Y-92518019D01*
X212285603Y-92518019D01*
X212447894Y-92568590D01*
X212447893Y-92568590D01*
X212518408Y-92574998D01*
X212518426Y-92574999D01*
X212524999Y-92574998D01*
X212525000Y-92574998D01*
X212525000Y-91850000D01*
X211875001Y-91850000D01*
X211875001Y-91931582D01*
X210400500Y-91931582D01*
X210400500Y-91268427D01*
X211875000Y-91268427D01*
X211875000Y-91350000D01*
X212525000Y-91350000D01*
X212525000Y-90625000D01*
X212524999Y-90624999D01*
X212518436Y-90625000D01*
X212518417Y-90625001D01*
X212447897Y-90631408D01*
X212447892Y-90631409D01*
X212285603Y-90681981D01*
X212140122Y-90769927D01*
X212019927Y-90890122D01*
X211931980Y-91035604D01*
X211881409Y-91197893D01*
X211875000Y-91268427D01*
X210400500Y-91268427D01*
X210400500Y-89992254D01*
X210420185Y-89925215D01*
X210436814Y-89904578D01*
X214104574Y-86236817D01*
X214165897Y-86203333D01*
X214192255Y-86200499D01*
X215344856Y-86200499D01*
X215344864Y-86200499D01*
X215344879Y-86200497D01*
X215344882Y-86200497D01*
X215369987Y-86197586D01*
X215369988Y-86197585D01*
X215369991Y-86197585D01*
X215472765Y-86152206D01*
X215552206Y-86072765D01*
X215597585Y-85969991D01*
X215600500Y-85944865D01*
X215600500Y-85774500D01*
X215620185Y-85707461D01*
X215672989Y-85661706D01*
X215724500Y-85650500D01*
X221275501Y-85650500D01*
X221342540Y-85670185D01*
X221388295Y-85722989D01*
X221399501Y-85774500D01*
X221399501Y-85944856D01*
X221399502Y-85944882D01*
X221402413Y-85969987D01*
X221402415Y-85969991D01*
X221447793Y-86072764D01*
X221447794Y-86072765D01*
X221527235Y-86152206D01*
X221630009Y-86197585D01*
X221655135Y-86200500D01*
X223294864Y-86200499D01*
X223294879Y-86200497D01*
X223294882Y-86200497D01*
X223319987Y-86197586D01*
X223319988Y-86197585D01*
X223319991Y-86197585D01*
X223422765Y-86152206D01*
X223502206Y-86072765D01*
X223547585Y-85969991D01*
X223550500Y-85944865D01*
X223550499Y-84555136D01*
X223550497Y-84555117D01*
X223547586Y-84530012D01*
X223547585Y-84530010D01*
X223547585Y-84530009D01*
X223502206Y-84427235D01*
X223422765Y-84347794D01*
X223352421Y-84316734D01*
X223319992Y-84302415D01*
X223294865Y-84299500D01*
X221655143Y-84299500D01*
X221655117Y-84299502D01*
X221630012Y-84302413D01*
X221630008Y-84302415D01*
X221527235Y-84347793D01*
X221447794Y-84427234D01*
X221402415Y-84530006D01*
X221402415Y-84530008D01*
X221399500Y-84555131D01*
X221399500Y-84725500D01*
X221379815Y-84792539D01*
X221327011Y-84838294D01*
X221275500Y-84849500D01*
X215724499Y-84849500D01*
X215657460Y-84829815D01*
X215611705Y-84777011D01*
X215600499Y-84725500D01*
X215600499Y-84555143D01*
X215600499Y-84555136D01*
X215600497Y-84555117D01*
X215597586Y-84530012D01*
X215597585Y-84530010D01*
X215597585Y-84530009D01*
X215552206Y-84427235D01*
X215472765Y-84347794D01*
X215402421Y-84316734D01*
X215369992Y-84302415D01*
X215344865Y-84299500D01*
X213705143Y-84299500D01*
X213705117Y-84299502D01*
X213680012Y-84302413D01*
X213680008Y-84302415D01*
X213577235Y-84347793D01*
X213497794Y-84427234D01*
X213452415Y-84530006D01*
X213452415Y-84530008D01*
X213449500Y-84555131D01*
X213449500Y-85707744D01*
X213429815Y-85774783D01*
X213413181Y-85795425D01*
X209679522Y-89529084D01*
X209679520Y-89529087D01*
X209636131Y-89604239D01*
X209626793Y-89620412D01*
X209606990Y-89694318D01*
X209605477Y-89699966D01*
X209599500Y-89722272D01*
X209599500Y-93425500D01*
X209579815Y-93492539D01*
X209527011Y-93538294D01*
X209475500Y-93549500D01*
X209180143Y-93549500D01*
X209180117Y-93549502D01*
X209155012Y-93552413D01*
X209155008Y-93552415D01*
X209052235Y-93597793D01*
X208972794Y-93677234D01*
X208927415Y-93780006D01*
X208927415Y-93780008D01*
X208924500Y-93805131D01*
X208924500Y-93975500D01*
X208904815Y-94042539D01*
X208852011Y-94088294D01*
X208800500Y-94099500D01*
X203249499Y-94099500D01*
X203182460Y-94079815D01*
X203136705Y-94027011D01*
X203125499Y-93975500D01*
X203125499Y-93805143D01*
X203125499Y-93805136D01*
X203125357Y-93803910D01*
X203122586Y-93780012D01*
X203122585Y-93780010D01*
X203122585Y-93780009D01*
X203077206Y-93677235D01*
X202997765Y-93597794D01*
X202968887Y-93585043D01*
X202894992Y-93552415D01*
X202869865Y-93549500D01*
X201230143Y-93549500D01*
X201230117Y-93549502D01*
X201205012Y-93552413D01*
X201205008Y-93552415D01*
X201102235Y-93597793D01*
X201022794Y-93677234D01*
X200977415Y-93780006D01*
X200977415Y-93780008D01*
X200974500Y-93805131D01*
X200974500Y-95194856D01*
X200974502Y-95194882D01*
X200977413Y-95219987D01*
X200977415Y-95219991D01*
X201022793Y-95322764D01*
X201022794Y-95322765D01*
X201102235Y-95402206D01*
X201205009Y-95447585D01*
X201230135Y-95450500D01*
X202869864Y-95450499D01*
X202869879Y-95450497D01*
X202869882Y-95450497D01*
X202894987Y-95447586D01*
X202894988Y-95447585D01*
X202894991Y-95447585D01*
X202997765Y-95402206D01*
X203077206Y-95322765D01*
X203122585Y-95219991D01*
X203125500Y-95194865D01*
X203125500Y-95024500D01*
X203145185Y-94957461D01*
X203197989Y-94911706D01*
X203249500Y-94900500D01*
X208079188Y-94900500D01*
X208146227Y-94920185D01*
X208191982Y-94972989D01*
X208202127Y-95040686D01*
X208194318Y-95100000D01*
X208194318Y-95100001D01*
X208214955Y-95256760D01*
X208214956Y-95256762D01*
X208275200Y-95402205D01*
X208275464Y-95402841D01*
X208371718Y-95528282D01*
X208497159Y-95624536D01*
X208643238Y-95685044D01*
X208674176Y-95689117D01*
X208799999Y-95705682D01*
X208800000Y-95705682D01*
X208800001Y-95705682D01*
X208852254Y-95698802D01*
X208956762Y-95685044D01*
X209102841Y-95624536D01*
X209228282Y-95528282D01*
X209228283Y-95528279D01*
X209231093Y-95526124D01*
X209296263Y-95500930D01*
X209306580Y-95500500D01*
X209452725Y-95500500D01*
X209452727Y-95500500D01*
X209554588Y-95473207D01*
X209559829Y-95470181D01*
X209565142Y-95467114D01*
X209627145Y-95450499D01*
X210819856Y-95450499D01*
X210819864Y-95450499D01*
X210819879Y-95450497D01*
X210819882Y-95450497D01*
X210844987Y-95447586D01*
X210844988Y-95447585D01*
X210844991Y-95447585D01*
X210947765Y-95402206D01*
X211024319Y-95325652D01*
X211085642Y-95292167D01*
X211155334Y-95297151D01*
X211211267Y-95339023D01*
X211235684Y-95404487D01*
X211236000Y-95413333D01*
X211236000Y-98086667D01*
X211216315Y-98153706D01*
X211163511Y-98199461D01*
X211094353Y-98209405D01*
X211030797Y-98180380D01*
X211024319Y-98174348D01*
X210947765Y-98097794D01*
X210844992Y-98052415D01*
X210819865Y-98049500D01*
X209180143Y-98049500D01*
X209180117Y-98049502D01*
X209155012Y-98052413D01*
X209155008Y-98052415D01*
X209052235Y-98097793D01*
X208972794Y-98177234D01*
X208927415Y-98280006D01*
X208927415Y-98280008D01*
X208924500Y-98305131D01*
X208924500Y-98512000D01*
X208904815Y-98579039D01*
X208852011Y-98624794D01*
X208800500Y-98636000D01*
X203249499Y-98636000D01*
X203182460Y-98616315D01*
X203136705Y-98563511D01*
X203125499Y-98512000D01*
X203125499Y-98305143D01*
X203125499Y-98305136D01*
X203125497Y-98305117D01*
X203122586Y-98280012D01*
X203122585Y-98280010D01*
X203122585Y-98280009D01*
X203077206Y-98177235D01*
X202997765Y-98097794D01*
X202996327Y-98097159D01*
X202894992Y-98052415D01*
X202869865Y-98049500D01*
X201230143Y-98049500D01*
X201230117Y-98049502D01*
X201205012Y-98052413D01*
X201205008Y-98052415D01*
X201102235Y-98097793D01*
X201022794Y-98177234D01*
X200977415Y-98280006D01*
X200977415Y-98280008D01*
X200974500Y-98305131D01*
X200974500Y-99694856D01*
X200974502Y-99694882D01*
X200978489Y-99729258D01*
X200976423Y-99729497D01*
X200975275Y-99787101D01*
X200936336Y-99845115D01*
X200872214Y-99872866D01*
X200820128Y-99868186D01*
X200702105Y-99831409D01*
X200702106Y-99831409D01*
X200631572Y-99825000D01*
X200625000Y-99825000D01*
X200625000Y-100926000D01*
X200605315Y-100993039D01*
X200552511Y-101038794D01*
X200501000Y-101050000D01*
X199475001Y-101050000D01*
X199475001Y-101131582D01*
X199481408Y-101202102D01*
X199481409Y-101202107D01*
X199531981Y-101364396D01*
X199619927Y-101509877D01*
X199740122Y-101630072D01*
X199782818Y-101655883D01*
X199830006Y-101707411D01*
X199841844Y-101776271D01*
X199814575Y-101840599D01*
X199756856Y-101879973D01*
X199718668Y-101886000D01*
X183789630Y-101886000D01*
X183697053Y-101910806D01*
X183697051Y-101910806D01*
X183697051Y-101910807D01*
X183653418Y-101935999D01*
X183653416Y-101936000D01*
X183614052Y-101958726D01*
X183614049Y-101958728D01*
X181831728Y-103741049D01*
X181831724Y-103741054D01*
X181783807Y-103824050D01*
X181783807Y-103824051D01*
X181783806Y-103824053D01*
X181759000Y-103916630D01*
X181759000Y-103916632D01*
X181759000Y-107612416D01*
X181739315Y-107679455D01*
X181722681Y-107700097D01*
X179513597Y-109909181D01*
X179452274Y-109942666D01*
X179425916Y-109945500D01*
X165511636Y-109945500D01*
X165444597Y-109925815D01*
X165423955Y-109909181D01*
X164413819Y-108899045D01*
X164380334Y-108837722D01*
X164377500Y-108811364D01*
X164377500Y-106256231D01*
X164397185Y-106189192D01*
X164403125Y-106180744D01*
X164424536Y-106152841D01*
X164485044Y-106006762D01*
X164505682Y-105850000D01*
X164504006Y-105837273D01*
X164485044Y-105693239D01*
X164485044Y-105693238D01*
X164424536Y-105547159D01*
X164328282Y-105421718D01*
X164202841Y-105325464D01*
X164146382Y-105302078D01*
X164056762Y-105264956D01*
X164056760Y-105264955D01*
X163900001Y-105244318D01*
X163899999Y-105244318D01*
X163743239Y-105264955D01*
X163743237Y-105264956D01*
X163597160Y-105325463D01*
X163471718Y-105421718D01*
X163375463Y-105547160D01*
X163314956Y-105693237D01*
X163314955Y-105693239D01*
X163294318Y-105849998D01*
X163294318Y-105850001D01*
X163314955Y-106006759D01*
X163314955Y-106006761D01*
X163314956Y-106006762D01*
X163323870Y-106028282D01*
X163337931Y-106062228D01*
X163345399Y-106131698D01*
X163314123Y-106194177D01*
X163270822Y-106224241D01*
X163147160Y-106275463D01*
X163021718Y-106371718D01*
X162925463Y-106497160D01*
X162864956Y-106643237D01*
X162864955Y-106643239D01*
X162844318Y-106799998D01*
X162844318Y-106800001D01*
X162864955Y-106956760D01*
X162864956Y-106956762D01*
X162916806Y-107081940D01*
X162925464Y-107102841D01*
X163021718Y-107228282D01*
X163037486Y-107240381D01*
X163078688Y-107296805D01*
X163086000Y-107338756D01*
X163086000Y-108902078D01*
X163086000Y-108997922D01*
X163110806Y-109090499D01*
X163110807Y-109090500D01*
X163110807Y-109090501D01*
X163158724Y-109173497D01*
X163158728Y-109173502D01*
X164373045Y-110387819D01*
X164406530Y-110449142D01*
X164401546Y-110518834D01*
X164359674Y-110574767D01*
X164294210Y-110599184D01*
X164285364Y-110599500D01*
X161147273Y-110599500D01*
X161045410Y-110626793D01*
X160954087Y-110679520D01*
X160954084Y-110679522D01*
X160270426Y-111363181D01*
X160209103Y-111396666D01*
X160182745Y-111399500D01*
X147420812Y-111399500D01*
X147353773Y-111379815D01*
X147308018Y-111327011D01*
X147297873Y-111259314D01*
X147299702Y-111245426D01*
X147305682Y-111200000D01*
X147302456Y-111175499D01*
X147285044Y-111043239D01*
X147285044Y-111043238D01*
X147224536Y-110897159D01*
X147224535Y-110897158D01*
X147224535Y-110897157D01*
X147126124Y-110768905D01*
X147100930Y-110703736D01*
X147100500Y-110693419D01*
X147100500Y-108107730D01*
X147120185Y-108040691D01*
X147172989Y-107994936D01*
X147242147Y-107984992D01*
X147305703Y-108014017D01*
X147335588Y-108052636D01*
X147383390Y-108149022D01*
X147383392Y-108149025D01*
X147502632Y-108297366D01*
X147502633Y-108297367D01*
X147650974Y-108416607D01*
X147650977Y-108416609D01*
X147821476Y-108501168D01*
X148006175Y-108547102D01*
X148048903Y-108550000D01*
X148500000Y-108550000D01*
X148500000Y-107174000D01*
X148519685Y-107106961D01*
X148572489Y-107061206D01*
X148624000Y-107050000D01*
X148876000Y-107050000D01*
X148943039Y-107069685D01*
X148988794Y-107122489D01*
X149000000Y-107174000D01*
X149000000Y-108550000D01*
X149451097Y-108550000D01*
X149493824Y-108547102D01*
X149678523Y-108501168D01*
X149849022Y-108416609D01*
X149849025Y-108416607D01*
X149997366Y-108297367D01*
X149997367Y-108297366D01*
X150116607Y-108149025D01*
X150116609Y-108149022D01*
X150201168Y-107978523D01*
X150201169Y-107978522D01*
X150217391Y-107913293D01*
X150252673Y-107852986D01*
X150314959Y-107821327D01*
X150384473Y-107828368D01*
X150402824Y-107837681D01*
X150441511Y-107861544D01*
X150441518Y-107861547D01*
X150602393Y-107914855D01*
X150701683Y-107924999D01*
X151250000Y-107924999D01*
X151298308Y-107924999D01*
X151298322Y-107924998D01*
X151397607Y-107914855D01*
X151558481Y-107861547D01*
X151558492Y-107861542D01*
X151702728Y-107772575D01*
X151702732Y-107772572D01*
X151822572Y-107652732D01*
X151822575Y-107652728D01*
X151911542Y-107508492D01*
X151911547Y-107508481D01*
X151964855Y-107347606D01*
X151974999Y-107248322D01*
X151975000Y-107248309D01*
X151975000Y-107225000D01*
X151250000Y-107225000D01*
X151250000Y-107924999D01*
X150701683Y-107924999D01*
X150749999Y-107924998D01*
X150750000Y-107924998D01*
X150750000Y-106849000D01*
X150769685Y-106781961D01*
X150822489Y-106736206D01*
X150874000Y-106725000D01*
X151974999Y-106725000D01*
X151974999Y-106701692D01*
X151974998Y-106701677D01*
X151964855Y-106602392D01*
X151911547Y-106441518D01*
X151911542Y-106441507D01*
X151822575Y-106297271D01*
X151822572Y-106297267D01*
X151699205Y-106173900D01*
X151665720Y-106112577D01*
X151670704Y-106042885D01*
X151712576Y-105986952D01*
X151739434Y-105971658D01*
X151750134Y-105967225D01*
X151792841Y-105949536D01*
X151918282Y-105853282D01*
X152014536Y-105727841D01*
X152067490Y-105599998D01*
X152994318Y-105599998D01*
X152994318Y-105600001D01*
X153014955Y-105756760D01*
X153014956Y-105756762D01*
X153072477Y-105895631D01*
X153075464Y-105902841D01*
X153171718Y-106028282D01*
X153297159Y-106124536D01*
X153297160Y-106124536D01*
X153297161Y-106124537D01*
X153412952Y-106172499D01*
X153467356Y-106216340D01*
X153489421Y-106282634D01*
X153489500Y-106287060D01*
X153489500Y-107307085D01*
X153469815Y-107374124D01*
X153449232Y-107396084D01*
X153450151Y-107397003D01*
X153443577Y-107403577D01*
X153365618Y-107509207D01*
X153322258Y-107633118D01*
X153322258Y-107633120D01*
X153319500Y-107662538D01*
X153319500Y-108137453D01*
X153322258Y-108166874D01*
X153322260Y-108166884D01*
X153355214Y-108261059D01*
X153365619Y-108290794D01*
X153404254Y-108343143D01*
X153428774Y-108376366D01*
X153452745Y-108441995D01*
X153437429Y-108510166D01*
X153428774Y-108523634D01*
X153365618Y-108609207D01*
X153322258Y-108733118D01*
X153322258Y-108733120D01*
X153319500Y-108762538D01*
X153319500Y-109237453D01*
X153322258Y-109266874D01*
X153322260Y-109266884D01*
X153355758Y-109362614D01*
X153365619Y-109390794D01*
X153390761Y-109424860D01*
X153443576Y-109496423D01*
X153496391Y-109535402D01*
X153549206Y-109574381D01*
X153579676Y-109585043D01*
X153673119Y-109617741D01*
X153680796Y-109618460D01*
X153702543Y-109620500D01*
X154077456Y-109620499D01*
X154106879Y-109617741D01*
X154230794Y-109574381D01*
X154326367Y-109503844D01*
X154391995Y-109479874D01*
X154460165Y-109495189D01*
X154473629Y-109503842D01*
X154569206Y-109574381D01*
X154599676Y-109585043D01*
X154693119Y-109617741D01*
X154700796Y-109618460D01*
X154722543Y-109620500D01*
X155097456Y-109620499D01*
X155126879Y-109617741D01*
X155171380Y-109602168D01*
X155228520Y-109596271D01*
X155255696Y-109599849D01*
X155299999Y-109605682D01*
X155300000Y-109605682D01*
X155300001Y-109605682D01*
X155371484Y-109596271D01*
X155456762Y-109585044D01*
X155602841Y-109524536D01*
X155728282Y-109428282D01*
X155824536Y-109302841D01*
X155885044Y-109156762D01*
X155905682Y-109000000D01*
X155905408Y-108997922D01*
X155896448Y-108929859D01*
X156619318Y-108929859D01*
X156619318Y-108929862D01*
X156639955Y-109086621D01*
X156639956Y-109086623D01*
X156684792Y-109194868D01*
X156700464Y-109232702D01*
X156796718Y-109358143D01*
X156922159Y-109454397D01*
X157068238Y-109514905D01*
X157124728Y-109522342D01*
X157224999Y-109535543D01*
X157225000Y-109535543D01*
X157225001Y-109535543D01*
X157277254Y-109528663D01*
X157381762Y-109514905D01*
X157527841Y-109454397D01*
X157653282Y-109358143D01*
X157749536Y-109232702D01*
X157787803Y-109140314D01*
X157814676Y-109100096D01*
X158091273Y-108823501D01*
X159545273Y-107369501D01*
X159593195Y-107286498D01*
X159618001Y-107193922D01*
X159618001Y-107098078D01*
X159618001Y-107090483D01*
X159618000Y-107090465D01*
X159618000Y-103935480D01*
X159637685Y-103868441D01*
X159654319Y-103847799D01*
X165320799Y-98181319D01*
X165382122Y-98147834D01*
X165408480Y-98145000D01*
X167552078Y-98145000D01*
X171578864Y-98145000D01*
X171645903Y-98164685D01*
X171666545Y-98181319D01*
X172561654Y-99076428D01*
X172595139Y-99137751D01*
X172596912Y-99180293D01*
X172594318Y-99199998D01*
X172594318Y-99200001D01*
X172614955Y-99356760D01*
X172614956Y-99356762D01*
X172669316Y-99488000D01*
X172675464Y-99502841D01*
X172771718Y-99628282D01*
X172897159Y-99724536D01*
X173043238Y-99785044D01*
X173058863Y-99787101D01*
X173199999Y-99805682D01*
X173200000Y-99805682D01*
X173200001Y-99805682D01*
X173252254Y-99798802D01*
X173356762Y-99785044D01*
X173502841Y-99724536D01*
X173628282Y-99628282D01*
X173724536Y-99502841D01*
X173785044Y-99356762D01*
X173805682Y-99200000D01*
X173800605Y-99161439D01*
X173791779Y-99094394D01*
X173785044Y-99043238D01*
X173742281Y-98939999D01*
X173724538Y-98897163D01*
X173724537Y-98897162D01*
X173724536Y-98897159D01*
X173707904Y-98875484D01*
X173682711Y-98810319D01*
X173696748Y-98741874D01*
X173707899Y-98724521D01*
X173724536Y-98702841D01*
X173785044Y-98556762D01*
X173805682Y-98400000D01*
X173793190Y-98305117D01*
X173785044Y-98243239D01*
X173785042Y-98243234D01*
X173724538Y-98097163D01*
X173724537Y-98097162D01*
X173724536Y-98097159D01*
X173707904Y-98075484D01*
X173682711Y-98010319D01*
X173696748Y-97941874D01*
X173707899Y-97924521D01*
X173724536Y-97902841D01*
X173785044Y-97756762D01*
X173805682Y-97600000D01*
X173785044Y-97443238D01*
X173724536Y-97297159D01*
X173707904Y-97275484D01*
X173682711Y-97210319D01*
X173696748Y-97141874D01*
X173707899Y-97124521D01*
X173724536Y-97102841D01*
X173785044Y-96956762D01*
X173804365Y-96810001D01*
X173805682Y-96800001D01*
X173805682Y-96799998D01*
X173785044Y-96643239D01*
X173785044Y-96643238D01*
X173724536Y-96497159D01*
X173628282Y-96371718D01*
X173502841Y-96275464D01*
X173460785Y-96258044D01*
X173356762Y-96214956D01*
X173356760Y-96214955D01*
X173200001Y-96194318D01*
X173199999Y-96194318D01*
X173043239Y-96214955D01*
X173043237Y-96214956D01*
X172897160Y-96275463D01*
X172897159Y-96275464D01*
X172771718Y-96371718D01*
X172759616Y-96387488D01*
X172703191Y-96428689D01*
X172661243Y-96436000D01*
X170850528Y-96436000D01*
X170783489Y-96416315D01*
X170737734Y-96363511D01*
X170727790Y-96294353D01*
X170756815Y-96230797D01*
X170796245Y-96202363D01*
X170795804Y-96201599D01*
X170802836Y-96197539D01*
X170802838Y-96197536D01*
X170802841Y-96197536D01*
X170928282Y-96101282D01*
X171024536Y-95975841D01*
X171085044Y-95829762D01*
X171103560Y-95689116D01*
X171105682Y-95673001D01*
X171105682Y-95672998D01*
X171089862Y-95552838D01*
X171085044Y-95516238D01*
X171024536Y-95370159D01*
X170928282Y-95244718D01*
X170802841Y-95148464D01*
X170656762Y-95087956D01*
X170656760Y-95087955D01*
X170500001Y-95067318D01*
X170499999Y-95067318D01*
X170343239Y-95087955D01*
X170343237Y-95087956D01*
X170197160Y-95148463D01*
X170107807Y-95217026D01*
X170071718Y-95244718D01*
X170059616Y-95260488D01*
X170003191Y-95301689D01*
X169961243Y-95309000D01*
X169324922Y-95309000D01*
X169229078Y-95309000D01*
X169136501Y-95333806D01*
X169136499Y-95333807D01*
X169136498Y-95333807D01*
X169053502Y-95381724D01*
X169053497Y-95381728D01*
X168689545Y-95745681D01*
X168628222Y-95779166D01*
X168601864Y-95782000D01*
X164481182Y-95782000D01*
X164388605Y-95806806D01*
X164388603Y-95806807D01*
X164388602Y-95806807D01*
X164339697Y-95835043D01*
X164332507Y-95839194D01*
X164328579Y-95841462D01*
X164305603Y-95854726D01*
X164305601Y-95854728D01*
X159260649Y-100899681D01*
X159199326Y-100933166D01*
X159172968Y-100936000D01*
X158438757Y-100936000D01*
X158371718Y-100916315D01*
X158340384Y-100887489D01*
X158328282Y-100871718D01*
X158202841Y-100775464D01*
X158056762Y-100714956D01*
X158056760Y-100714955D01*
X157900001Y-100694318D01*
X157899999Y-100694318D01*
X157743239Y-100714955D01*
X157743237Y-100714956D01*
X157597160Y-100775463D01*
X157471718Y-100871718D01*
X157375463Y-100997160D01*
X157314956Y-101143237D01*
X157314955Y-101143239D01*
X157294318Y-101299998D01*
X157294318Y-101300001D01*
X157314955Y-101456760D01*
X157314956Y-101456762D01*
X157375464Y-101602842D01*
X157405460Y-101641933D01*
X157430654Y-101707102D01*
X157416616Y-101775547D01*
X157405460Y-101792905D01*
X157325464Y-101897157D01*
X157264956Y-102043237D01*
X157264955Y-102043239D01*
X157244318Y-102199998D01*
X157244318Y-102200001D01*
X157264955Y-102356760D01*
X157264956Y-102356762D01*
X157325465Y-102502843D01*
X157329528Y-102509881D01*
X157327373Y-102511125D01*
X157348052Y-102564611D01*
X157334015Y-102633056D01*
X157299969Y-102673306D01*
X157171720Y-102771715D01*
X157075463Y-102897160D01*
X157014956Y-103043237D01*
X157014955Y-103043239D01*
X156994318Y-103199998D01*
X156994318Y-103200001D01*
X157014955Y-103356760D01*
X157014956Y-103356762D01*
X157074287Y-103500001D01*
X157075464Y-103502841D01*
X157171718Y-103628282D01*
X157297159Y-103724536D01*
X157443238Y-103785044D01*
X157521619Y-103795363D01*
X157599999Y-103805682D01*
X157600000Y-103805682D01*
X157600001Y-103805682D01*
X157668704Y-103796637D01*
X157756762Y-103785044D01*
X157902841Y-103724536D01*
X158028282Y-103628282D01*
X158028284Y-103628279D01*
X158034729Y-103623334D01*
X158036473Y-103625607D01*
X158085642Y-103598760D01*
X158155334Y-103603744D01*
X158211267Y-103645616D01*
X158235684Y-103711080D01*
X158236000Y-103719926D01*
X158236000Y-104597863D01*
X158216315Y-104664902D01*
X158199681Y-104685544D01*
X157823571Y-105061653D01*
X157762248Y-105095138D01*
X157719710Y-105096912D01*
X157700000Y-105094318D01*
X157699998Y-105094318D01*
X157543239Y-105114955D01*
X157543237Y-105114956D01*
X157397160Y-105175463D01*
X157271718Y-105271718D01*
X157175463Y-105397160D01*
X157114956Y-105543237D01*
X157114955Y-105543239D01*
X157094318Y-105699998D01*
X157094318Y-105700001D01*
X157114955Y-105856760D01*
X157114956Y-105856762D01*
X157168882Y-105986952D01*
X157175464Y-106002841D01*
X157271718Y-106128282D01*
X157397159Y-106224536D01*
X157543238Y-106285044D01*
X157621619Y-106295363D01*
X157699999Y-106305682D01*
X157700000Y-106305682D01*
X157700001Y-106305682D01*
X157763888Y-106297271D01*
X157856762Y-106285044D01*
X158002841Y-106224536D01*
X158128282Y-106128282D01*
X158224536Y-106002841D01*
X158285044Y-105856762D01*
X158305682Y-105700000D01*
X158303087Y-105680293D01*
X158313851Y-105611261D01*
X158338342Y-105576430D01*
X158351324Y-105563448D01*
X158412647Y-105529968D01*
X158482338Y-105534955D01*
X158538270Y-105576828D01*
X158562684Y-105642294D01*
X158563000Y-105651135D01*
X158563000Y-106470863D01*
X158543315Y-106537902D01*
X158526681Y-106558544D01*
X157923571Y-107161653D01*
X157862248Y-107195138D01*
X157819710Y-107196912D01*
X157800000Y-107194318D01*
X157799998Y-107194318D01*
X157643239Y-107214955D01*
X157643237Y-107214956D01*
X157497160Y-107275463D01*
X157371718Y-107371718D01*
X157275463Y-107497160D01*
X157214956Y-107643237D01*
X157214955Y-107643239D01*
X157194318Y-107799998D01*
X157194318Y-107800001D01*
X157214955Y-107956760D01*
X157214956Y-107956762D01*
X157275464Y-108102842D01*
X157294343Y-108127445D01*
X157319537Y-108192614D01*
X157305499Y-108261059D01*
X157256685Y-108311048D01*
X157212153Y-108325870D01*
X157068238Y-108344817D01*
X157068237Y-108344817D01*
X156922160Y-108405324D01*
X156796718Y-108501579D01*
X156700463Y-108627021D01*
X156639956Y-108773098D01*
X156639955Y-108773100D01*
X156619318Y-108929859D01*
X155896448Y-108929859D01*
X155885044Y-108843239D01*
X155885044Y-108843238D01*
X155824536Y-108697159D01*
X155728282Y-108571718D01*
X155697860Y-108548374D01*
X155656658Y-108491949D01*
X155652503Y-108422203D01*
X155686714Y-108361282D01*
X155697851Y-108351631D01*
X155728282Y-108328282D01*
X155824536Y-108202841D01*
X155885044Y-108056762D01*
X155905682Y-107900000D01*
X155893190Y-107805117D01*
X155885044Y-107743239D01*
X155885044Y-107743238D01*
X155824536Y-107597159D01*
X155728282Y-107471718D01*
X155602841Y-107375464D01*
X155593797Y-107371718D01*
X155456762Y-107314956D01*
X155456760Y-107314955D01*
X155300001Y-107294318D01*
X155299999Y-107294318D01*
X155228521Y-107303728D01*
X155171381Y-107297831D01*
X155161341Y-107294318D01*
X155126879Y-107282259D01*
X155126878Y-107282258D01*
X155126876Y-107282258D01*
X155097461Y-107279500D01*
X154722546Y-107279500D01*
X154693125Y-107282258D01*
X154693115Y-107282260D01*
X154569207Y-107325618D01*
X154488134Y-107385453D01*
X154422505Y-107409424D01*
X154354334Y-107394109D01*
X154305266Y-107344368D01*
X154290500Y-107285683D01*
X154290500Y-105837274D01*
X154290500Y-105837273D01*
X154287613Y-105826499D01*
X154263207Y-105735412D01*
X154257900Y-105726220D01*
X154222295Y-105664550D01*
X154207143Y-105608005D01*
X154206743Y-105608058D01*
X154206342Y-105605014D01*
X154205682Y-105602550D01*
X154205682Y-105599998D01*
X154185044Y-105443239D01*
X154185044Y-105443238D01*
X154124536Y-105297159D01*
X154028282Y-105171718D01*
X153902841Y-105075464D01*
X153869498Y-105061653D01*
X153756762Y-105014956D01*
X153756760Y-105014955D01*
X153600001Y-104994318D01*
X153599999Y-104994318D01*
X153443239Y-105014955D01*
X153443237Y-105014956D01*
X153297160Y-105075463D01*
X153171718Y-105171718D01*
X153075463Y-105297160D01*
X153014956Y-105443237D01*
X153014955Y-105443239D01*
X152994318Y-105599998D01*
X152067490Y-105599998D01*
X152075044Y-105581762D01*
X152090380Y-105465274D01*
X152095682Y-105425001D01*
X152095682Y-105424998D01*
X152078852Y-105297160D01*
X152075044Y-105268238D01*
X152014536Y-105122159D01*
X151918282Y-104996718D01*
X151792841Y-104900464D01*
X151764942Y-104888908D01*
X151750394Y-104882881D01*
X151657412Y-104844367D01*
X151629942Y-104828611D01*
X151625078Y-104824923D01*
X151625078Y-104824922D01*
X151543061Y-104762726D01*
X151509976Y-104737636D01*
X151375588Y-104684640D01*
X151332242Y-104679435D01*
X151291144Y-104674500D01*
X150708856Y-104674500D01*
X150670841Y-104679065D01*
X150624411Y-104684640D01*
X150490023Y-104737636D01*
X150374921Y-104824921D01*
X150287634Y-104940026D01*
X150283478Y-104947419D01*
X150280866Y-104945950D01*
X150246941Y-104989547D01*
X150181032Y-105012736D01*
X150113048Y-104996610D01*
X150064576Y-104946289D01*
X150050500Y-104888908D01*
X150050500Y-104570408D01*
X150050500Y-104570406D01*
X150044315Y-104502343D01*
X149998443Y-104355135D01*
X149995514Y-104345736D01*
X149995511Y-104345727D01*
X149910651Y-104205351D01*
X149910648Y-104205347D01*
X149794652Y-104089351D01*
X149794648Y-104089348D01*
X149654272Y-104004488D01*
X149654264Y-104004485D01*
X149538413Y-103968385D01*
X149480265Y-103929648D01*
X149452291Y-103865623D01*
X149463373Y-103796637D01*
X149509991Y-103744594D01*
X149538413Y-103731615D01*
X149654264Y-103695514D01*
X149654266Y-103695513D01*
X149654270Y-103695512D01*
X149686599Y-103675969D01*
X149794648Y-103610651D01*
X149794647Y-103610651D01*
X149794653Y-103610648D01*
X149905303Y-103499998D01*
X153184318Y-103499998D01*
X153184318Y-103500001D01*
X153204955Y-103656760D01*
X153204956Y-103656762D01*
X153210063Y-103669092D01*
X153219500Y-103716536D01*
X153219500Y-103737452D01*
X153222258Y-103766875D01*
X153222260Y-103766884D01*
X153242264Y-103824050D01*
X153265619Y-103890794D01*
X153280000Y-103910279D01*
X153343576Y-103996423D01*
X153396391Y-104035402D01*
X153449206Y-104074381D01*
X153479676Y-104085043D01*
X153573119Y-104117741D01*
X153580796Y-104118460D01*
X153602543Y-104120500D01*
X153977456Y-104120499D01*
X154006879Y-104117741D01*
X154130794Y-104074381D01*
X154226367Y-104003844D01*
X154291995Y-103979874D01*
X154360165Y-103995189D01*
X154373629Y-104003842D01*
X154469206Y-104074381D01*
X154499676Y-104085043D01*
X154593119Y-104117741D01*
X154600796Y-104118460D01*
X154622543Y-104120500D01*
X154997456Y-104120499D01*
X155026879Y-104117741D01*
X155071380Y-104102168D01*
X155128520Y-104096271D01*
X155153046Y-104099500D01*
X155199999Y-104105682D01*
X155200000Y-104105682D01*
X155200001Y-104105682D01*
X155271484Y-104096271D01*
X155356762Y-104085044D01*
X155502841Y-104024536D01*
X155628282Y-103928282D01*
X155724536Y-103802841D01*
X155785044Y-103656762D01*
X155805682Y-103500000D01*
X155804977Y-103494648D01*
X155785044Y-103343239D01*
X155785044Y-103343238D01*
X155724536Y-103197159D01*
X155628282Y-103071718D01*
X155628279Y-103071716D01*
X155623334Y-103065271D01*
X155626149Y-103063110D01*
X155600453Y-103016051D01*
X155605437Y-102946359D01*
X155646130Y-102891318D01*
X155728282Y-102828282D01*
X155824536Y-102702841D01*
X155885044Y-102556762D01*
X155905682Y-102400000D01*
X155899989Y-102356760D01*
X155887885Y-102264819D01*
X155885044Y-102243238D01*
X155824536Y-102097159D01*
X155728282Y-101971718D01*
X155697860Y-101948374D01*
X155656658Y-101891949D01*
X155652503Y-101822203D01*
X155686714Y-101761282D01*
X155697851Y-101751631D01*
X155728282Y-101728282D01*
X155824536Y-101602841D01*
X155885044Y-101456762D01*
X155903400Y-101317331D01*
X155905682Y-101300001D01*
X155905682Y-101299998D01*
X155885044Y-101143239D01*
X155885044Y-101143238D01*
X155824536Y-100997159D01*
X155728282Y-100871718D01*
X155602841Y-100775464D01*
X155456762Y-100714956D01*
X155456760Y-100714955D01*
X155300001Y-100694318D01*
X155299999Y-100694318D01*
X155155859Y-100713294D01*
X155098720Y-100707397D01*
X155026876Y-100682258D01*
X155026878Y-100682258D01*
X154997461Y-100679500D01*
X154622546Y-100679500D01*
X154593125Y-100682258D01*
X154593115Y-100682260D01*
X154469205Y-100725619D01*
X154469204Y-100725619D01*
X154373633Y-100796154D01*
X154308004Y-100820125D01*
X154239834Y-100804809D01*
X154226367Y-100796154D01*
X154130794Y-100725619D01*
X154006880Y-100682258D01*
X153977461Y-100679500D01*
X153602546Y-100679500D01*
X153573125Y-100682258D01*
X153573115Y-100682260D01*
X153449207Y-100725618D01*
X153343576Y-100803576D01*
X153265618Y-100909207D01*
X153222258Y-101033118D01*
X153222258Y-101033120D01*
X153219500Y-101062538D01*
X153219500Y-101537453D01*
X153222258Y-101566874D01*
X153222260Y-101566884D01*
X153253334Y-101655687D01*
X153265619Y-101690794D01*
X153275726Y-101704488D01*
X153291873Y-101726367D01*
X153315843Y-101791996D01*
X153300527Y-101860167D01*
X153291873Y-101873633D01*
X153265618Y-101909207D01*
X153222258Y-102033118D01*
X153222258Y-102033120D01*
X153219500Y-102062538D01*
X153219500Y-102537453D01*
X153222258Y-102566874D01*
X153222260Y-102566884D01*
X153265618Y-102690792D01*
X153343578Y-102796425D01*
X153350148Y-102802995D01*
X153348137Y-102805005D01*
X153381380Y-102848780D01*
X153389500Y-102892914D01*
X153389500Y-102907085D01*
X153369815Y-102974124D01*
X153349232Y-102996084D01*
X153350151Y-102997003D01*
X153343577Y-103003577D01*
X153265618Y-103109207D01*
X153222258Y-103233118D01*
X153222258Y-103233120D01*
X153219500Y-103262538D01*
X153219500Y-103283461D01*
X153210062Y-103330911D01*
X153204956Y-103343238D01*
X153184318Y-103499998D01*
X149905303Y-103499998D01*
X149910648Y-103494653D01*
X149995512Y-103354270D01*
X150044315Y-103197657D01*
X150050500Y-103129594D01*
X150050500Y-102270406D01*
X150044315Y-102202343D01*
X149995512Y-102045730D01*
X149995511Y-102045727D01*
X149910651Y-101905351D01*
X149910648Y-101905347D01*
X149794652Y-101789351D01*
X149794648Y-101789348D01*
X149654272Y-101704488D01*
X149654263Y-101704485D01*
X149497664Y-101655687D01*
X149497662Y-101655686D01*
X149497657Y-101655685D01*
X149429594Y-101649500D01*
X149429591Y-101649500D01*
X149424500Y-101649500D01*
X149357461Y-101629815D01*
X149311706Y-101577011D01*
X149300500Y-101525500D01*
X149300500Y-101306580D01*
X149320185Y-101239541D01*
X149326124Y-101231093D01*
X149328279Y-101228283D01*
X149328282Y-101228282D01*
X149424536Y-101102841D01*
X149485044Y-100956762D01*
X149505682Y-100800000D01*
X149495889Y-100725618D01*
X149485044Y-100643239D01*
X149485044Y-100643238D01*
X149424536Y-100497159D01*
X149328282Y-100371718D01*
X149202841Y-100275464D01*
X149056762Y-100214956D01*
X149056760Y-100214955D01*
X148900001Y-100194318D01*
X148899999Y-100194318D01*
X148743239Y-100214955D01*
X148743237Y-100214956D01*
X148597160Y-100275463D01*
X148471718Y-100371718D01*
X148375463Y-100497160D01*
X148314956Y-100643237D01*
X148314955Y-100643239D01*
X148294318Y-100799998D01*
X148294318Y-100800001D01*
X148314955Y-100956760D01*
X148314956Y-100956762D01*
X148353576Y-101050000D01*
X148375464Y-101102841D01*
X148471718Y-101228282D01*
X148471720Y-101228283D01*
X148473876Y-101231093D01*
X148499070Y-101296263D01*
X148499500Y-101306580D01*
X148499500Y-101525500D01*
X148479815Y-101592539D01*
X148427011Y-101638294D01*
X148375500Y-101649500D01*
X148070406Y-101649500D01*
X148002343Y-101655685D01*
X148002339Y-101655686D01*
X148002335Y-101655687D01*
X147845736Y-101704485D01*
X147845727Y-101704488D01*
X147705351Y-101789348D01*
X147705347Y-101789351D01*
X147589351Y-101905347D01*
X147589348Y-101905351D01*
X147504488Y-102045727D01*
X147504485Y-102045736D01*
X147453733Y-102208606D01*
X147451856Y-102208021D01*
X147423820Y-102261609D01*
X147363102Y-102296179D01*
X147334595Y-102299500D01*
X141447273Y-102299500D01*
X141345413Y-102326793D01*
X141345410Y-102326794D01*
X141301618Y-102352077D01*
X141301618Y-102352078D01*
X141254087Y-102379520D01*
X141254084Y-102379522D01*
X140611681Y-103021926D01*
X140550358Y-103055411D01*
X140480666Y-103050427D01*
X140424733Y-103008555D01*
X140400316Y-102943091D01*
X140400000Y-102934245D01*
X140400000Y-92050225D01*
X140419685Y-91983186D01*
X140472489Y-91937431D01*
X140541647Y-91927487D01*
X140605203Y-91956512D01*
X140638561Y-92002773D01*
X140658117Y-92049987D01*
X140658124Y-92050000D01*
X140762086Y-92205589D01*
X140762089Y-92205593D01*
X140894406Y-92337910D01*
X140894410Y-92337913D01*
X141049999Y-92441875D01*
X141050008Y-92441880D01*
X141222894Y-92513491D01*
X141222902Y-92513493D01*
X141406428Y-92549999D01*
X141406431Y-92550000D01*
X141600000Y-92550000D01*
X141600000Y-91850000D01*
X142100000Y-91850000D01*
X142100000Y-92550000D01*
X142293569Y-92550000D01*
X142293571Y-92549999D01*
X142477097Y-92513493D01*
X142477105Y-92513491D01*
X142649991Y-92441880D01*
X142650000Y-92441875D01*
X142805589Y-92337913D01*
X142805593Y-92337910D01*
X142937910Y-92205593D01*
X142937913Y-92205589D01*
X143041875Y-92050000D01*
X143041880Y-92049991D01*
X143113492Y-91877103D01*
X143113493Y-91877100D01*
X143118884Y-91850000D01*
X142249728Y-91850000D01*
X142341614Y-91811940D01*
X142411940Y-91741614D01*
X142450000Y-91649728D01*
X142450000Y-91550272D01*
X142411940Y-91458386D01*
X142341614Y-91388060D01*
X142249728Y-91350000D01*
X143118884Y-91350000D01*
X143118884Y-91349999D01*
X143113493Y-91322899D01*
X143113492Y-91322896D01*
X143041880Y-91150008D01*
X143041875Y-91149999D01*
X142937913Y-90994410D01*
X142937910Y-90994406D01*
X142805593Y-90862089D01*
X142805589Y-90862086D01*
X142650000Y-90758124D01*
X142649991Y-90758119D01*
X142477105Y-90686508D01*
X142477097Y-90686506D01*
X142293570Y-90650000D01*
X142100000Y-90650000D01*
X142100000Y-91350000D01*
X141600000Y-91350000D01*
X141600000Y-90650000D01*
X141406430Y-90650000D01*
X141222902Y-90686506D01*
X141222894Y-90686508D01*
X141050008Y-90758119D01*
X141049999Y-90758124D01*
X140894410Y-90862086D01*
X140894406Y-90862089D01*
X140762089Y-90994406D01*
X140762086Y-90994410D01*
X140658124Y-91149999D01*
X140658119Y-91150009D01*
X140638561Y-91197227D01*
X140594720Y-91251630D01*
X140528425Y-91273695D01*
X140460726Y-91256416D01*
X140413116Y-91205278D01*
X140400000Y-91149774D01*
X140400000Y-85450225D01*
X140419685Y-85383186D01*
X140472489Y-85337431D01*
X140541647Y-85327487D01*
X140605203Y-85356512D01*
X140638561Y-85402773D01*
X140658117Y-85449987D01*
X140658124Y-85450000D01*
X140762086Y-85605589D01*
X140762089Y-85605593D01*
X140894406Y-85737910D01*
X140894410Y-85737913D01*
X141049999Y-85841875D01*
X141050008Y-85841880D01*
X141222894Y-85913491D01*
X141222902Y-85913493D01*
X141406428Y-85949999D01*
X141406431Y-85950000D01*
X141600000Y-85950000D01*
X141600000Y-85250000D01*
X142100000Y-85250000D01*
X142100000Y-85950000D01*
X142293569Y-85950000D01*
X142293571Y-85949999D01*
X142477097Y-85913493D01*
X142477105Y-85913491D01*
X142649991Y-85841880D01*
X142650000Y-85841875D01*
X142805589Y-85737913D01*
X142805593Y-85737910D01*
X142937910Y-85605593D01*
X142937913Y-85605589D01*
X143041875Y-85450000D01*
X143041880Y-85449991D01*
X143113492Y-85277103D01*
X143113493Y-85277100D01*
X143118884Y-85250000D01*
X142249728Y-85250000D01*
X142341614Y-85211940D01*
X142411940Y-85141614D01*
X142450000Y-85049728D01*
X142450000Y-84950272D01*
X142411940Y-84858386D01*
X142341614Y-84788060D01*
X142249728Y-84750000D01*
X143118884Y-84750000D01*
X143118884Y-84749999D01*
X143113493Y-84722899D01*
X143113492Y-84722896D01*
X143041880Y-84550008D01*
X143041875Y-84549999D01*
X142937913Y-84394410D01*
X142937910Y-84394406D01*
X142805593Y-84262089D01*
X142805589Y-84262086D01*
X142650000Y-84158124D01*
X142649991Y-84158119D01*
X142477105Y-84086508D01*
X142477097Y-84086506D01*
X142293570Y-84050000D01*
X142100000Y-84050000D01*
X142100000Y-84750000D01*
X141600000Y-84750000D01*
X141600000Y-84050000D01*
X141406430Y-84050000D01*
X141222902Y-84086506D01*
X141222894Y-84086508D01*
X141050008Y-84158119D01*
X141049999Y-84158124D01*
X140894410Y-84262086D01*
X140894406Y-84262089D01*
X140762089Y-84394406D01*
X140762086Y-84394410D01*
X140658124Y-84549999D01*
X140658119Y-84550009D01*
X140638561Y-84597227D01*
X140594720Y-84651630D01*
X140528425Y-84673695D01*
X140460726Y-84656416D01*
X140413116Y-84605278D01*
X140400000Y-84549774D01*
X140400000Y-79424500D01*
X140419685Y-79357461D01*
X140472489Y-79311706D01*
X140524000Y-79300500D01*
X158763103Y-79300500D01*
X158830142Y-79320185D01*
X158875897Y-79372989D01*
X158885841Y-79442147D01*
X158869220Y-79488648D01*
X158843109Y-79531843D01*
X158804487Y-79595732D01*
X158804485Y-79595736D01*
X158776067Y-79686934D01*
X158755685Y-79752343D01*
X158749500Y-79820406D01*
X158749500Y-82179594D01*
X158755685Y-82247657D01*
X158755686Y-82247662D01*
X158755687Y-82247664D01*
X158804485Y-82404263D01*
X158804488Y-82404272D01*
X158889348Y-82544648D01*
X158889351Y-82544652D01*
X159005347Y-82660648D01*
X159005351Y-82660651D01*
X159145727Y-82745511D01*
X159145730Y-82745512D01*
X159302343Y-82794315D01*
X159323223Y-82796212D01*
X159388205Y-82821882D01*
X159428993Y-82878610D01*
X159436000Y-82919703D01*
X159436000Y-83412919D01*
X159416315Y-83479958D01*
X159363511Y-83525713D01*
X159355334Y-83529101D01*
X159282669Y-83556203D01*
X159282664Y-83556206D01*
X159167455Y-83642452D01*
X159167452Y-83642455D01*
X159081205Y-83757665D01*
X159076956Y-83765449D01*
X159074068Y-83763872D01*
X159041798Y-83806970D01*
X158976330Y-83831378D01*
X158908059Y-83816518D01*
X158858660Y-83767106D01*
X158857184Y-83763874D01*
X158853794Y-83757665D01*
X158767547Y-83642455D01*
X158767544Y-83642452D01*
X158652335Y-83556206D01*
X158652328Y-83556202D01*
X158517486Y-83505910D01*
X158517485Y-83505909D01*
X158517483Y-83505909D01*
X158457873Y-83499500D01*
X158457863Y-83499500D01*
X157812129Y-83499500D01*
X157812123Y-83499501D01*
X157752516Y-83505908D01*
X157617671Y-83556202D01*
X157617664Y-83556206D01*
X157502455Y-83642452D01*
X157502452Y-83642455D01*
X157416206Y-83757664D01*
X157416202Y-83757671D01*
X157365910Y-83892513D01*
X157365909Y-83892517D01*
X157359500Y-83952127D01*
X157359500Y-83952134D01*
X157359500Y-83952135D01*
X157359500Y-84447870D01*
X157359501Y-84447876D01*
X157365908Y-84507483D01*
X157416202Y-84642328D01*
X157416206Y-84642335D01*
X157502452Y-84757544D01*
X157502455Y-84757547D01*
X157569995Y-84808108D01*
X157611866Y-84864042D01*
X157616850Y-84933733D01*
X157583364Y-84995056D01*
X157559834Y-85013491D01*
X157425122Y-85094927D01*
X157304927Y-85215122D01*
X157216980Y-85360604D01*
X157166409Y-85522893D01*
X157160000Y-85593427D01*
X157160000Y-85600000D01*
X158261000Y-85600000D01*
X158328039Y-85619685D01*
X158373794Y-85672489D01*
X158385000Y-85724000D01*
X158385000Y-85976000D01*
X158365315Y-86043039D01*
X158312511Y-86088794D01*
X158261000Y-86100000D01*
X157160001Y-86100000D01*
X157160001Y-86106582D01*
X157166408Y-86177102D01*
X157166409Y-86177107D01*
X157216981Y-86339396D01*
X157304927Y-86484877D01*
X157425122Y-86605072D01*
X157570604Y-86693019D01*
X157570603Y-86693019D01*
X157732894Y-86743590D01*
X157732893Y-86743590D01*
X157803427Y-86749999D01*
X158034244Y-86749999D01*
X158101284Y-86769683D01*
X158147039Y-86822487D01*
X158156983Y-86891646D01*
X158127958Y-86955201D01*
X158121927Y-86961679D01*
X158079523Y-87004083D01*
X158079520Y-87004087D01*
X158026791Y-87095414D01*
X158006800Y-87170030D01*
X158006799Y-87170035D01*
X157999500Y-87197272D01*
X157999500Y-97443419D01*
X157979815Y-97510458D01*
X157973876Y-97518905D01*
X157875464Y-97647157D01*
X157814956Y-97793237D01*
X157814955Y-97793239D01*
X157794318Y-97949998D01*
X157794318Y-97950001D01*
X157814955Y-98106760D01*
X157814956Y-98106762D01*
X157871484Y-98243234D01*
X157875464Y-98252841D01*
X157971718Y-98378282D01*
X158097159Y-98474536D01*
X158243238Y-98535044D01*
X158280883Y-98540000D01*
X158399999Y-98555682D01*
X158400000Y-98555682D01*
X158400001Y-98555682D01*
X158452254Y-98548802D01*
X158556762Y-98535044D01*
X158702841Y-98474536D01*
X158779121Y-98416003D01*
X158844288Y-98390811D01*
X158912733Y-98404849D01*
X158962723Y-98453663D01*
X158969167Y-98466928D01*
X158997381Y-98535044D01*
X159025464Y-98602841D01*
X159121718Y-98728282D01*
X159247159Y-98824536D01*
X159393238Y-98885044D01*
X159471619Y-98895363D01*
X159549999Y-98905682D01*
X159550000Y-98905682D01*
X159550001Y-98905682D01*
X159602254Y-98898802D01*
X159706762Y-98885044D01*
X159852841Y-98824536D01*
X159899513Y-98788722D01*
X159964682Y-98763528D01*
X160033127Y-98777566D01*
X160050487Y-98788723D01*
X160097157Y-98824535D01*
X160097163Y-98824538D01*
X160170198Y-98854790D01*
X160243238Y-98885044D01*
X160321619Y-98895363D01*
X160399999Y-98905682D01*
X160400000Y-98905682D01*
X160400001Y-98905682D01*
X160452254Y-98898802D01*
X160556762Y-98885044D01*
X160702841Y-98824536D01*
X160828282Y-98728282D01*
X160924536Y-98602841D01*
X160985044Y-98456762D01*
X160998802Y-98352254D01*
X161005682Y-98300001D01*
X161005682Y-98299998D01*
X160989140Y-98174348D01*
X160985044Y-98143238D01*
X160924536Y-97997159D01*
X160828282Y-97871718D01*
X160828277Y-97871714D01*
X160812513Y-97859617D01*
X160771310Y-97803189D01*
X160764000Y-97761242D01*
X160764000Y-96352136D01*
X160783685Y-96285097D01*
X160800319Y-96264455D01*
X162617519Y-94447255D01*
X164441273Y-92623501D01*
X164449356Y-92609501D01*
X164489194Y-92540499D01*
X164514000Y-92447922D01*
X164514000Y-88632650D01*
X164533685Y-88565611D01*
X164550314Y-88544974D01*
X166219224Y-86876063D01*
X166280545Y-86842580D01*
X166350237Y-86847564D01*
X166406170Y-86889436D01*
X166430587Y-86954900D01*
X166426678Y-86995838D01*
X166406679Y-87070479D01*
X166399500Y-87097271D01*
X166399500Y-87097273D01*
X166399500Y-90195802D01*
X166399500Y-90301256D01*
X166413146Y-90352186D01*
X166426793Y-90403118D01*
X166439427Y-90425000D01*
X166479520Y-90494442D01*
X166980558Y-90995480D01*
X167071883Y-91048207D01*
X167173744Y-91075500D01*
X172076581Y-91075500D01*
X172143620Y-91095185D01*
X172189375Y-91147989D01*
X172199319Y-91217147D01*
X172170294Y-91280703D01*
X172169809Y-91281259D01*
X172153373Y-91299999D01*
X172164478Y-91384340D01*
X172164478Y-91384342D01*
X172221156Y-91521175D01*
X172311326Y-91638687D01*
X172313187Y-91640548D01*
X172314253Y-91642502D01*
X172316268Y-91645127D01*
X172315858Y-91645441D01*
X172346668Y-91701873D01*
X172349500Y-91728220D01*
X172349500Y-91771949D01*
X172359779Y-91842506D01*
X172359779Y-91842507D01*
X172359780Y-91842509D01*
X172406185Y-91937431D01*
X172412989Y-91951349D01*
X172449680Y-91988039D01*
X172483166Y-92049362D01*
X172486000Y-92075721D01*
X172486000Y-92461242D01*
X172466315Y-92528281D01*
X172437487Y-92559617D01*
X172421722Y-92571714D01*
X172421720Y-92571716D01*
X172421718Y-92571718D01*
X172363308Y-92647840D01*
X172325463Y-92697160D01*
X172264956Y-92843237D01*
X172264955Y-92843239D01*
X172244318Y-92999998D01*
X172244318Y-93000001D01*
X172264955Y-93156760D01*
X172264956Y-93156762D01*
X172325464Y-93302841D01*
X172421718Y-93428282D01*
X172547159Y-93524536D01*
X172693238Y-93585044D01*
X172771619Y-93595363D01*
X172849999Y-93605682D01*
X172850000Y-93605682D01*
X172850001Y-93605682D01*
X172902254Y-93598802D01*
X173006762Y-93585044D01*
X173152841Y-93524536D01*
X173278282Y-93428282D01*
X173278284Y-93428279D01*
X173284729Y-93423334D01*
X173286473Y-93425607D01*
X173335642Y-93398760D01*
X173405334Y-93403744D01*
X173461267Y-93445616D01*
X173485684Y-93511080D01*
X173486000Y-93519926D01*
X173486000Y-93966448D01*
X173466315Y-94033487D01*
X173413511Y-94079242D01*
X173409453Y-94081009D01*
X173269538Y-94138963D01*
X173144096Y-94235218D01*
X173047841Y-94360660D01*
X172987334Y-94506737D01*
X172987333Y-94506739D01*
X172966696Y-94663498D01*
X172966696Y-94663501D01*
X172987333Y-94820260D01*
X172987334Y-94820262D01*
X173028723Y-94920185D01*
X173047842Y-94966341D01*
X173144096Y-95091782D01*
X173269537Y-95188036D01*
X173415616Y-95248544D01*
X173478023Y-95256760D01*
X173572377Y-95269182D01*
X173572378Y-95269182D01*
X173572379Y-95269182D01*
X173638423Y-95260487D01*
X173729140Y-95248544D01*
X173875219Y-95188036D01*
X173886513Y-95179369D01*
X173951681Y-95154175D01*
X174020126Y-95168213D01*
X174070117Y-95217026D01*
X174086000Y-95277745D01*
X174086000Y-96202078D01*
X174086000Y-96297922D01*
X174110806Y-96390499D01*
X174110807Y-96390500D01*
X174110807Y-96390501D01*
X174158724Y-96473497D01*
X174158726Y-96473500D01*
X174158727Y-96473501D01*
X174495227Y-96810001D01*
X174562999Y-96877773D01*
X174646001Y-96925694D01*
X174738578Y-96950500D01*
X176781274Y-96950500D01*
X176848313Y-96970185D01*
X176868955Y-96986819D01*
X177736181Y-97854045D01*
X177769666Y-97915368D01*
X177772500Y-97941726D01*
X177772500Y-104711364D01*
X177752815Y-104778403D01*
X177736181Y-104799045D01*
X177408728Y-105126497D01*
X177408724Y-105126502D01*
X177360807Y-105209498D01*
X177360807Y-105209499D01*
X177360806Y-105209501D01*
X177336000Y-105302078D01*
X177336000Y-105302080D01*
X177336000Y-106011242D01*
X177316315Y-106078281D01*
X177287487Y-106109617D01*
X177271722Y-106121714D01*
X177271720Y-106121716D01*
X177271718Y-106121718D01*
X177212092Y-106199424D01*
X177175463Y-106247160D01*
X177114956Y-106393237D01*
X177114955Y-106393239D01*
X177094318Y-106549998D01*
X177094318Y-106550001D01*
X177114955Y-106706760D01*
X177114956Y-106706762D01*
X177153576Y-106800000D01*
X177175464Y-106852841D01*
X177271718Y-106978282D01*
X177397159Y-107074536D01*
X177543238Y-107135044D01*
X177621619Y-107145363D01*
X177699999Y-107155682D01*
X177700000Y-107155682D01*
X177700001Y-107155682D01*
X177752254Y-107148802D01*
X177856762Y-107135044D01*
X178002841Y-107074536D01*
X178099516Y-107000354D01*
X178164682Y-106975162D01*
X178233127Y-106989200D01*
X178250477Y-107000349D01*
X178347159Y-107074536D01*
X178493238Y-107135044D01*
X178571619Y-107145363D01*
X178649999Y-107155682D01*
X178650000Y-107155682D01*
X178650001Y-107155682D01*
X178702254Y-107148802D01*
X178806762Y-107135044D01*
X178952841Y-107074536D01*
X179078282Y-106978282D01*
X179174536Y-106852841D01*
X179235044Y-106706762D01*
X179254582Y-106558357D01*
X179255682Y-106550001D01*
X179255682Y-106549998D01*
X179236604Y-106405085D01*
X179235044Y-106393238D01*
X179174536Y-106247159D01*
X179078282Y-106121718D01*
X179078277Y-106121714D01*
X179062513Y-106109617D01*
X179021310Y-106053189D01*
X179014000Y-106011242D01*
X179014000Y-106002080D01*
X179014000Y-106002078D01*
X178989194Y-105909501D01*
X178947494Y-105837274D01*
X178941275Y-105826502D01*
X178941274Y-105826500D01*
X178941273Y-105826499D01*
X178873501Y-105758727D01*
X178863819Y-105749045D01*
X178830334Y-105687722D01*
X178827500Y-105661364D01*
X178827500Y-100468427D01*
X199475000Y-100468427D01*
X199475000Y-100550000D01*
X200125000Y-100550000D01*
X200125000Y-99825000D01*
X200124999Y-99824999D01*
X200118436Y-99825000D01*
X200118417Y-99825001D01*
X200047897Y-99831408D01*
X200047892Y-99831409D01*
X199885603Y-99881981D01*
X199740122Y-99969927D01*
X199619927Y-100090122D01*
X199531980Y-100235604D01*
X199481409Y-100397893D01*
X199475000Y-100468427D01*
X178827500Y-100468427D01*
X178827500Y-98939999D01*
X180294859Y-98939999D01*
X180294859Y-98940000D01*
X180315378Y-99161439D01*
X180376240Y-99375350D01*
X180475369Y-99574428D01*
X180491137Y-99595308D01*
X180491138Y-99595308D01*
X181100000Y-98986446D01*
X181100000Y-98992661D01*
X181127259Y-99094394D01*
X181179920Y-99185606D01*
X181254394Y-99260080D01*
X181345606Y-99312741D01*
X181447339Y-99340000D01*
X181453553Y-99340000D01*
X180846672Y-99946879D01*
X180846672Y-99946880D01*
X180962821Y-100018797D01*
X180962822Y-100018798D01*
X181170195Y-100099134D01*
X181388807Y-100140000D01*
X181611193Y-100140000D01*
X181829809Y-100099133D01*
X182037168Y-100018801D01*
X182037181Y-100018795D01*
X182153326Y-99946879D01*
X181546448Y-99340000D01*
X181552661Y-99340000D01*
X181654394Y-99312741D01*
X181745606Y-99260080D01*
X181820080Y-99185606D01*
X181872741Y-99094394D01*
X181900000Y-98992661D01*
X181900000Y-98986447D01*
X182508861Y-99595308D01*
X182524631Y-99574425D01*
X182524633Y-99574422D01*
X182623759Y-99375350D01*
X182684621Y-99161439D01*
X182705141Y-98940000D01*
X182705141Y-98939999D01*
X182684621Y-98718560D01*
X182623759Y-98504649D01*
X182524635Y-98305580D01*
X182524630Y-98305572D01*
X182508860Y-98284690D01*
X181900000Y-98893551D01*
X181900000Y-98887339D01*
X181872741Y-98785606D01*
X181820080Y-98694394D01*
X181745606Y-98619920D01*
X181654394Y-98567259D01*
X181552661Y-98540000D01*
X181546448Y-98540000D01*
X182153327Y-97933119D01*
X182037178Y-97861202D01*
X182037177Y-97861201D01*
X181829804Y-97780865D01*
X181611193Y-97740000D01*
X181388807Y-97740000D01*
X181170195Y-97780865D01*
X180962824Y-97861200D01*
X180962823Y-97861201D01*
X180846671Y-97933119D01*
X181453553Y-98540000D01*
X181447339Y-98540000D01*
X181345606Y-98567259D01*
X181254394Y-98619920D01*
X181179920Y-98694394D01*
X181127259Y-98785606D01*
X181100000Y-98887339D01*
X181100000Y-98893553D01*
X180491138Y-98284691D01*
X180491137Y-98284691D01*
X180475368Y-98305574D01*
X180376240Y-98504649D01*
X180315378Y-98718560D01*
X180294859Y-98939999D01*
X178827500Y-98939999D01*
X178827500Y-94565580D01*
X178827500Y-94565578D01*
X178802694Y-94473001D01*
X178754773Y-94389999D01*
X178687001Y-94322227D01*
X178150319Y-93785545D01*
X178116834Y-93724222D01*
X178114000Y-93697864D01*
X178114000Y-92288333D01*
X178133685Y-92221294D01*
X178186489Y-92175539D01*
X178255647Y-92165595D01*
X178319203Y-92194620D01*
X178325681Y-92200652D01*
X178377235Y-92252206D01*
X178480009Y-92297585D01*
X178505135Y-92300500D01*
X179794864Y-92300499D01*
X179794879Y-92300497D01*
X179794882Y-92300497D01*
X179819987Y-92297586D01*
X179819988Y-92297585D01*
X179819991Y-92297585D01*
X179922765Y-92252206D01*
X179922773Y-92252197D01*
X179929920Y-92247303D01*
X179996351Y-92225655D01*
X180063941Y-92243358D01*
X180070080Y-92247303D01*
X180077229Y-92252200D01*
X180077235Y-92252206D01*
X180180009Y-92297585D01*
X180205135Y-92300500D01*
X180231998Y-92300499D01*
X180299036Y-92320181D01*
X180344793Y-92372984D01*
X180356000Y-92424499D01*
X180356000Y-92585242D01*
X180336315Y-92652281D01*
X180305634Y-92685012D01*
X180265004Y-92714998D01*
X180265001Y-92715001D01*
X180186147Y-92821844D01*
X180142291Y-92947173D01*
X180142289Y-92947185D01*
X180139500Y-92976929D01*
X180139500Y-93381824D01*
X180119815Y-93448863D01*
X180090987Y-93480199D01*
X180081322Y-93487616D01*
X179971718Y-93571718D01*
X179875463Y-93697160D01*
X179814956Y-93843237D01*
X179814955Y-93843239D01*
X179794318Y-93999998D01*
X179794318Y-94000001D01*
X179814955Y-94156760D01*
X179814956Y-94156762D01*
X179847453Y-94235218D01*
X179875464Y-94302841D01*
X179971718Y-94428282D01*
X180070987Y-94504453D01*
X180112189Y-94560880D01*
X180119500Y-94602825D01*
X180119500Y-94637453D01*
X180122258Y-94666875D01*
X180122260Y-94666884D01*
X180165618Y-94790792D01*
X180165619Y-94790794D01*
X180187682Y-94820688D01*
X180243576Y-94896423D01*
X180275773Y-94920185D01*
X180349206Y-94974381D01*
X180366876Y-94980564D01*
X180473112Y-95017739D01*
X180475783Y-95018322D01*
X180477569Y-95019298D01*
X180480243Y-95020234D01*
X180480088Y-95020675D01*
X180537013Y-95051787D01*
X180903958Y-95418732D01*
X180937443Y-95480055D01*
X180932459Y-95549747D01*
X180894943Y-95602265D01*
X180789117Y-95689115D01*
X180664090Y-95841460D01*
X180664086Y-95841467D01*
X180571188Y-96015266D01*
X180513975Y-96203870D01*
X180494659Y-96400000D01*
X180513975Y-96596129D01*
X180571188Y-96784733D01*
X180664086Y-96958532D01*
X180664090Y-96958539D01*
X180789116Y-97110883D01*
X180941460Y-97235909D01*
X180941467Y-97235913D01*
X181115266Y-97328811D01*
X181115269Y-97328811D01*
X181115273Y-97328814D01*
X181303868Y-97386024D01*
X181500000Y-97405341D01*
X181696132Y-97386024D01*
X181884727Y-97328814D01*
X182058538Y-97235910D01*
X182210883Y-97110883D01*
X182335910Y-96958538D01*
X182420650Y-96800001D01*
X182428811Y-96784733D01*
X182428811Y-96784732D01*
X182428814Y-96784727D01*
X182486024Y-96596132D01*
X182505341Y-96400000D01*
X182486024Y-96203868D01*
X182428814Y-96015273D01*
X182428811Y-96015269D01*
X182428811Y-96015266D01*
X182335913Y-95841467D01*
X182335909Y-95841460D01*
X182210883Y-95689116D01*
X182058539Y-95564090D01*
X182058532Y-95564086D01*
X181913919Y-95486789D01*
X181864075Y-95437827D01*
X181852598Y-95409528D01*
X181839194Y-95359501D01*
X181805816Y-95301689D01*
X181791275Y-95276502D01*
X181791271Y-95276497D01*
X181746954Y-95232180D01*
X181713469Y-95170857D01*
X181718453Y-95101165D01*
X181760325Y-95045232D01*
X181825789Y-95020815D01*
X181834635Y-95020499D01*
X181897454Y-95020499D01*
X181897456Y-95020499D01*
X181926879Y-95017741D01*
X182050794Y-94974381D01*
X182156423Y-94896423D01*
X182234381Y-94790794D01*
X182258498Y-94721873D01*
X182277741Y-94666881D01*
X182277741Y-94666879D01*
X182278178Y-94662223D01*
X182280500Y-94637457D01*
X182280499Y-94447254D01*
X182300183Y-94380215D01*
X182316809Y-94359582D01*
X182580480Y-94095913D01*
X182595909Y-94069189D01*
X182604241Y-94054758D01*
X182604241Y-94054757D01*
X182633206Y-94004588D01*
X182633207Y-94004587D01*
X182660500Y-93902727D01*
X182660500Y-91907498D01*
X183362391Y-91907498D01*
X183362391Y-91907501D01*
X183382800Y-92192862D01*
X183443609Y-92472395D01*
X183543591Y-92740458D01*
X183680691Y-92991538D01*
X183680696Y-92991546D01*
X183787382Y-93134061D01*
X183787383Y-93134062D01*
X184843712Y-92077733D01*
X184854982Y-92119792D01*
X184927390Y-92245208D01*
X185029792Y-92347610D01*
X185155208Y-92420018D01*
X185197265Y-92431287D01*
X184140936Y-93487615D01*
X184283460Y-93594307D01*
X184283461Y-93594308D01*
X184534542Y-93731408D01*
X184534541Y-93731408D01*
X184802604Y-93831390D01*
X185082137Y-93892199D01*
X185367499Y-93912609D01*
X185367501Y-93912609D01*
X185652862Y-93892199D01*
X185932395Y-93831390D01*
X186200458Y-93731408D01*
X186451547Y-93594303D01*
X186594061Y-93487616D01*
X186594062Y-93487615D01*
X185537735Y-92431287D01*
X185579792Y-92420018D01*
X185705208Y-92347610D01*
X185807610Y-92245208D01*
X185880018Y-92119792D01*
X185891287Y-92077734D01*
X186947615Y-93134062D01*
X186947616Y-93134061D01*
X187054303Y-92991547D01*
X187191408Y-92740458D01*
X187291390Y-92472395D01*
X187352199Y-92192862D01*
X187372609Y-91907501D01*
X187372609Y-91907498D01*
X187352199Y-91622137D01*
X187291390Y-91342604D01*
X187191408Y-91074541D01*
X187054308Y-90823461D01*
X187054307Y-90823460D01*
X186947615Y-90680936D01*
X185891287Y-91737264D01*
X185880018Y-91695208D01*
X185807610Y-91569792D01*
X185705208Y-91467390D01*
X185579792Y-91394982D01*
X185537734Y-91383712D01*
X186594062Y-90327383D01*
X186594061Y-90327382D01*
X186451546Y-90220696D01*
X186451538Y-90220691D01*
X186200457Y-90083591D01*
X186200458Y-90083591D01*
X185932395Y-89983609D01*
X185652862Y-89922800D01*
X185367501Y-89902391D01*
X185367499Y-89902391D01*
X185082137Y-89922800D01*
X184802604Y-89983609D01*
X184534541Y-90083591D01*
X184283461Y-90220691D01*
X184283453Y-90220696D01*
X184140937Y-90327382D01*
X184140936Y-90327383D01*
X185197266Y-91383712D01*
X185155208Y-91394982D01*
X185029792Y-91467390D01*
X184927390Y-91569792D01*
X184854982Y-91695208D01*
X184843712Y-91737265D01*
X183787383Y-90680936D01*
X183787382Y-90680937D01*
X183680696Y-90823453D01*
X183680691Y-90823461D01*
X183543591Y-91074541D01*
X183443609Y-91342604D01*
X183382800Y-91622137D01*
X183362391Y-91907498D01*
X182660500Y-91907498D01*
X182660500Y-90540681D01*
X182669939Y-90493228D01*
X182679564Y-90469991D01*
X182685044Y-90456762D01*
X182702391Y-90325000D01*
X182705682Y-90300001D01*
X182705682Y-90299998D01*
X182690644Y-90185775D01*
X182685044Y-90143238D01*
X182624536Y-89997159D01*
X182528282Y-89871718D01*
X182402841Y-89775464D01*
X182340158Y-89749500D01*
X182256762Y-89714956D01*
X182256760Y-89714955D01*
X182100001Y-89694318D01*
X182099999Y-89694318D01*
X181943239Y-89714955D01*
X181943234Y-89714957D01*
X181921951Y-89723773D01*
X181852481Y-89731242D01*
X181790002Y-89699966D01*
X181754351Y-89639877D01*
X181750499Y-89609212D01*
X181750499Y-88355143D01*
X181750499Y-88355136D01*
X181750497Y-88355117D01*
X181747586Y-88330012D01*
X181747585Y-88330010D01*
X181747585Y-88330009D01*
X181702206Y-88227235D01*
X181622765Y-88147794D01*
X181622763Y-88147793D01*
X181579617Y-88128742D01*
X181526241Y-88083655D01*
X181505714Y-88016869D01*
X181524553Y-87949587D01*
X181566584Y-87908576D01*
X181615372Y-87879723D01*
X181615383Y-87879714D01*
X181729714Y-87765383D01*
X181729721Y-87765374D01*
X181812031Y-87626195D01*
X181812033Y-87626190D01*
X181857144Y-87470918D01*
X181857145Y-87470912D01*
X181858790Y-87450000D01*
X180954000Y-87450000D01*
X180886961Y-87430315D01*
X180841206Y-87377511D01*
X180830000Y-87326000D01*
X180830000Y-86395494D01*
X181330000Y-86395494D01*
X181330000Y-86950000D01*
X181858790Y-86950000D01*
X181857145Y-86929089D01*
X181812031Y-86773804D01*
X181729721Y-86634625D01*
X181729714Y-86634616D01*
X181615383Y-86520285D01*
X181615374Y-86520278D01*
X181476193Y-86437967D01*
X181476190Y-86437965D01*
X181330001Y-86395493D01*
X181330000Y-86395494D01*
X180830000Y-86395494D01*
X180829998Y-86395493D01*
X180683809Y-86437965D01*
X180683806Y-86437967D01*
X180544625Y-86520278D01*
X180544619Y-86520283D01*
X180494060Y-86570841D01*
X180432736Y-86604325D01*
X180365426Y-86600200D01*
X180342822Y-86592290D01*
X180342814Y-86592289D01*
X180313070Y-86589500D01*
X180313066Y-86589500D01*
X179926934Y-86589500D01*
X179926930Y-86589500D01*
X179897185Y-86592289D01*
X179897173Y-86592291D01*
X179771844Y-86636147D01*
X179714389Y-86678551D01*
X179648760Y-86702521D01*
X179580590Y-86687205D01*
X179534024Y-86641901D01*
X179529721Y-86634625D01*
X179529714Y-86634616D01*
X179415383Y-86520285D01*
X179415374Y-86520278D01*
X179276193Y-86437967D01*
X179276190Y-86437965D01*
X179130001Y-86395493D01*
X179130000Y-86395494D01*
X179130000Y-87326000D01*
X179110315Y-87393039D01*
X179057511Y-87438794D01*
X179006000Y-87450000D01*
X178754000Y-87450000D01*
X178686961Y-87430315D01*
X178641206Y-87377511D01*
X178630000Y-87326000D01*
X178630000Y-86395494D01*
X178629998Y-86395493D01*
X178483809Y-86437965D01*
X178483806Y-86437967D01*
X178344625Y-86520278D01*
X178344619Y-86520283D01*
X178294060Y-86570841D01*
X178232736Y-86604325D01*
X178165426Y-86600200D01*
X178142822Y-86592290D01*
X178142814Y-86592289D01*
X178113070Y-86589500D01*
X178113066Y-86589500D01*
X177726934Y-86589500D01*
X177726930Y-86589500D01*
X177697185Y-86592289D01*
X177697173Y-86592291D01*
X177571844Y-86636147D01*
X177487891Y-86698107D01*
X177422262Y-86722077D01*
X177354092Y-86706761D01*
X177340625Y-86698106D01*
X177244202Y-86626943D01*
X177244203Y-86626943D01*
X177116733Y-86582339D01*
X177116724Y-86582337D01*
X177086467Y-86579500D01*
X176683539Y-86579500D01*
X176653275Y-86582337D01*
X176653266Y-86582339D01*
X176525798Y-86626943D01*
X176525795Y-86626944D01*
X176509812Y-86638740D01*
X176444183Y-86662709D01*
X176376013Y-86647390D01*
X176326947Y-86597648D01*
X176312562Y-86529275D01*
X176336413Y-86465334D01*
X176363852Y-86428157D01*
X176400187Y-86324318D01*
X176407708Y-86302826D01*
X176407708Y-86302823D01*
X176407710Y-86302819D01*
X176410500Y-86273066D01*
X176410500Y-85886934D01*
X176410181Y-85883537D01*
X176407710Y-85857185D01*
X176407710Y-85857181D01*
X176407708Y-85857177D01*
X176407708Y-85857173D01*
X176363852Y-85731844D01*
X176363852Y-85731843D01*
X176320890Y-85673631D01*
X176296920Y-85608005D01*
X176312235Y-85539835D01*
X176320885Y-85526374D01*
X176363852Y-85468157D01*
X176402919Y-85356512D01*
X176407708Y-85342826D01*
X176407708Y-85342823D01*
X176407710Y-85342819D01*
X176410500Y-85313066D01*
X176410500Y-84926934D01*
X176407710Y-84897181D01*
X176407708Y-84897177D01*
X176407708Y-84897173D01*
X176371094Y-84792539D01*
X176363852Y-84771843D01*
X176284999Y-84665001D01*
X176178157Y-84586148D01*
X176123270Y-84566942D01*
X176068219Y-84547678D01*
X176011444Y-84506956D01*
X175985697Y-84442003D01*
X175992133Y-84389684D01*
X176017662Y-84316729D01*
X176020500Y-84286463D01*
X176020499Y-83883538D01*
X176017662Y-83853271D01*
X175973057Y-83725799D01*
X175934556Y-83673632D01*
X175910586Y-83608005D01*
X175925901Y-83539835D01*
X175934552Y-83526373D01*
X175973057Y-83474201D01*
X176017662Y-83346729D01*
X176020500Y-83316463D01*
X176020499Y-83209219D01*
X176040183Y-83142182D01*
X176092987Y-83096427D01*
X176162145Y-83086483D01*
X176218131Y-83109450D01*
X176291843Y-83163852D01*
X176330003Y-83177204D01*
X176417173Y-83207708D01*
X176417177Y-83207708D01*
X176417181Y-83207710D01*
X176432057Y-83209105D01*
X176446930Y-83210500D01*
X176446934Y-83210500D01*
X176833070Y-83210500D01*
X176862809Y-83207711D01*
X176862809Y-83207710D01*
X176862819Y-83207710D01*
X176885427Y-83199798D01*
X176955202Y-83196236D01*
X177014061Y-83229159D01*
X177064616Y-83279714D01*
X177064625Y-83279721D01*
X177203804Y-83362031D01*
X177350000Y-83404504D01*
X177350000Y-83404503D01*
X177850000Y-83404503D01*
X177996195Y-83362031D01*
X178135374Y-83279721D01*
X178135383Y-83279714D01*
X178249714Y-83165383D01*
X178249721Y-83165374D01*
X178332031Y-83026195D01*
X178332033Y-83026190D01*
X178377144Y-82870918D01*
X178377145Y-82870912D01*
X178378790Y-82850000D01*
X177850000Y-82850000D01*
X177850000Y-83404503D01*
X177350000Y-83404503D01*
X177350000Y-81795494D01*
X177850000Y-81795494D01*
X177850000Y-82350000D01*
X178378790Y-82350000D01*
X178377145Y-82329089D01*
X178332031Y-82173804D01*
X178249721Y-82034625D01*
X178249714Y-82034616D01*
X178135383Y-81920285D01*
X178135374Y-81920278D01*
X177996193Y-81837967D01*
X177996190Y-81837965D01*
X177850001Y-81795493D01*
X177850000Y-81795494D01*
X177350000Y-81795494D01*
X177349998Y-81795493D01*
X177203809Y-81837965D01*
X177203806Y-81837967D01*
X177064625Y-81920278D01*
X177064619Y-81920283D01*
X177014060Y-81970841D01*
X176952736Y-82004325D01*
X176885426Y-82000200D01*
X176862822Y-81992290D01*
X176862814Y-81992289D01*
X176833070Y-81989500D01*
X176833066Y-81989500D01*
X176446934Y-81989500D01*
X176446930Y-81989500D01*
X176417185Y-81992289D01*
X176417173Y-81992291D01*
X176291844Y-82036147D01*
X176218132Y-82090549D01*
X176152503Y-82114519D01*
X176084333Y-82099203D01*
X176035265Y-82049463D01*
X176020499Y-81990778D01*
X176020499Y-81968539D01*
X176017662Y-81938275D01*
X176017662Y-81938271D01*
X175973057Y-81810799D01*
X175934556Y-81758632D01*
X175910586Y-81693005D01*
X175925901Y-81624835D01*
X175934552Y-81611373D01*
X175973057Y-81559201D01*
X176017662Y-81431729D01*
X176020500Y-81401463D01*
X176020499Y-81285654D01*
X176040183Y-81218617D01*
X176092987Y-81172862D01*
X176162145Y-81162918D01*
X176185454Y-81168615D01*
X176297173Y-81207708D01*
X176297177Y-81207708D01*
X176297181Y-81207710D01*
X176312057Y-81209105D01*
X176326930Y-81210500D01*
X176326934Y-81210500D01*
X176713070Y-81210500D01*
X176742809Y-81207711D01*
X176742809Y-81207710D01*
X176742819Y-81207710D01*
X176765427Y-81199798D01*
X176835202Y-81196236D01*
X176894061Y-81229159D01*
X176944616Y-81279714D01*
X176944625Y-81279721D01*
X177083804Y-81362031D01*
X177230000Y-81404504D01*
X177230000Y-81404503D01*
X177730000Y-81404503D01*
X177876195Y-81362031D01*
X178015374Y-81279721D01*
X178015383Y-81279714D01*
X178129714Y-81165383D01*
X178129721Y-81165374D01*
X178212031Y-81026195D01*
X178212033Y-81026190D01*
X178257144Y-80870918D01*
X178257145Y-80870912D01*
X178258790Y-80850000D01*
X177730000Y-80850000D01*
X177730000Y-81404503D01*
X177230000Y-81404503D01*
X177230000Y-79795494D01*
X177730000Y-79795494D01*
X177730000Y-80350000D01*
X178258790Y-80350000D01*
X178257145Y-80329089D01*
X178212031Y-80173804D01*
X178129721Y-80034625D01*
X178129714Y-80034616D01*
X178015383Y-79920285D01*
X178015374Y-79920278D01*
X177876193Y-79837967D01*
X177876190Y-79837965D01*
X177730001Y-79795493D01*
X177730000Y-79795494D01*
X177230000Y-79795494D01*
X177229998Y-79795493D01*
X177083809Y-79837965D01*
X177083806Y-79837967D01*
X176944625Y-79920278D01*
X176944619Y-79920283D01*
X176894060Y-79970841D01*
X176832736Y-80004325D01*
X176765426Y-80000200D01*
X176742822Y-79992290D01*
X176742814Y-79992289D01*
X176713070Y-79989500D01*
X176713066Y-79989500D01*
X176326934Y-79989500D01*
X176326930Y-79989500D01*
X176297185Y-79992289D01*
X176297173Y-79992291D01*
X176175455Y-80034883D01*
X176105676Y-80038445D01*
X176045049Y-80003717D01*
X176012821Y-79941723D01*
X176010500Y-79917842D01*
X176010500Y-79686929D01*
X176007710Y-79657185D01*
X176007710Y-79657181D01*
X176007708Y-79657177D01*
X176007708Y-79657173D01*
X175963852Y-79531844D01*
X175963852Y-79531843D01*
X175920890Y-79473631D01*
X175896920Y-79408005D01*
X175912235Y-79339835D01*
X175920885Y-79326374D01*
X175963852Y-79268157D01*
X176007710Y-79142819D01*
X176009260Y-79126289D01*
X176010500Y-79113070D01*
X176010500Y-78726929D01*
X176007710Y-78697185D01*
X176007710Y-78697181D01*
X176007708Y-78697177D01*
X176007708Y-78697173D01*
X175977204Y-78610003D01*
X175963852Y-78571843D01*
X175884999Y-78465001D01*
X175833195Y-78426768D01*
X175814366Y-78412871D01*
X175772115Y-78357223D01*
X175764000Y-78313101D01*
X175764000Y-78305605D01*
X175783685Y-78238566D01*
X175836489Y-78192811D01*
X175837763Y-78192237D01*
X175922765Y-78154706D01*
X176002206Y-78075265D01*
X176047585Y-77972491D01*
X176050154Y-77950344D01*
X178000000Y-77950344D01*
X178006401Y-78009872D01*
X178006403Y-78009879D01*
X178056645Y-78144586D01*
X178056649Y-78144593D01*
X178142809Y-78259687D01*
X178142812Y-78259690D01*
X178257906Y-78345850D01*
X178257913Y-78345854D01*
X178392620Y-78396096D01*
X178392627Y-78396098D01*
X178452155Y-78402499D01*
X178452172Y-78402500D01*
X179000000Y-78402500D01*
X179500000Y-78402500D01*
X180047828Y-78402500D01*
X180047844Y-78402499D01*
X180107372Y-78396098D01*
X180107379Y-78396096D01*
X180242086Y-78345854D01*
X180242093Y-78345850D01*
X180357187Y-78259690D01*
X180357190Y-78259687D01*
X180443350Y-78144593D01*
X180443354Y-78144586D01*
X180493596Y-78009879D01*
X180493598Y-78009872D01*
X180499999Y-77950344D01*
X180500000Y-77950327D01*
X180500000Y-77799998D01*
X231494318Y-77799998D01*
X231494318Y-77800001D01*
X231514955Y-77956760D01*
X231514956Y-77956762D01*
X231564041Y-78075265D01*
X231575464Y-78102841D01*
X231671718Y-78228282D01*
X231797159Y-78324536D01*
X231943238Y-78385044D01*
X232021619Y-78395363D01*
X232099999Y-78405682D01*
X232100000Y-78405682D01*
X232100001Y-78405682D01*
X232172813Y-78396096D01*
X232256762Y-78385044D01*
X232402841Y-78324536D01*
X232528282Y-78228282D01*
X232540383Y-78212511D01*
X232596809Y-78171311D01*
X232638757Y-78164000D01*
X232731181Y-78164000D01*
X232798220Y-78183685D01*
X232843975Y-78236489D01*
X232846526Y-78242487D01*
X232856906Y-78268808D01*
X232874386Y-78313134D01*
X232960632Y-78426867D01*
X233070098Y-78509877D01*
X233074368Y-78513115D01*
X233207154Y-78565479D01*
X233290598Y-78575500D01*
X233809402Y-78575500D01*
X233892846Y-78565479D01*
X234025632Y-78513115D01*
X234139367Y-78426867D01*
X234225615Y-78313132D01*
X234225617Y-78313126D01*
X234229412Y-78306378D01*
X234279425Y-78257589D01*
X234347876Y-78243583D01*
X234413034Y-78268808D01*
X234445588Y-78306378D01*
X234449386Y-78313134D01*
X234535632Y-78426867D01*
X234645098Y-78509877D01*
X234649368Y-78513115D01*
X234782154Y-78565479D01*
X234865598Y-78575500D01*
X235384402Y-78575500D01*
X235467846Y-78565479D01*
X235600632Y-78513115D01*
X235714367Y-78426867D01*
X235800615Y-78313132D01*
X235828465Y-78242508D01*
X235871370Y-78187366D01*
X235937278Y-78164173D01*
X235943819Y-78164000D01*
X235950420Y-78164000D01*
X236017459Y-78183685D01*
X236063214Y-78236489D01*
X236066602Y-78244667D01*
X236093702Y-78317328D01*
X236093706Y-78317335D01*
X236179952Y-78432544D01*
X236179955Y-78432547D01*
X236295164Y-78518793D01*
X236295171Y-78518797D01*
X236340118Y-78535561D01*
X236430017Y-78569091D01*
X236489627Y-78575500D01*
X236985372Y-78575499D01*
X237044983Y-78569091D01*
X237179831Y-78518796D01*
X237295046Y-78432546D01*
X237345609Y-78365002D01*
X237401541Y-78323133D01*
X237471233Y-78318149D01*
X237532556Y-78351634D01*
X237550991Y-78375165D01*
X237632427Y-78509877D01*
X237752622Y-78630072D01*
X237898104Y-78718019D01*
X237898103Y-78718019D01*
X238060394Y-78768590D01*
X238060393Y-78768590D01*
X238130908Y-78774998D01*
X238130926Y-78774999D01*
X238637500Y-78774999D01*
X238644081Y-78774999D01*
X238714602Y-78768591D01*
X238714607Y-78768590D01*
X238876896Y-78718018D01*
X239022377Y-78630072D01*
X239142572Y-78509877D01*
X239230519Y-78364395D01*
X239281090Y-78202106D01*
X239287500Y-78131572D01*
X239287500Y-78050000D01*
X238637500Y-78050000D01*
X238637500Y-78774999D01*
X238130926Y-78774999D01*
X238137499Y-78774998D01*
X238137500Y-78774998D01*
X238137500Y-77674000D01*
X238157185Y-77606961D01*
X238209989Y-77561206D01*
X238261500Y-77550000D01*
X239287499Y-77550000D01*
X239287499Y-77468417D01*
X239281091Y-77397897D01*
X239281090Y-77397892D01*
X239230518Y-77235603D01*
X239142572Y-77090122D01*
X239022377Y-76969927D01*
X238881532Y-76884783D01*
X238834344Y-76833255D01*
X238822506Y-76764395D01*
X238849775Y-76700067D01*
X238884115Y-76673776D01*
X238882980Y-76671898D01*
X239034877Y-76580072D01*
X239155072Y-76459877D01*
X239243019Y-76314395D01*
X239293590Y-76152106D01*
X239300000Y-76081572D01*
X239300000Y-76000000D01*
X238274000Y-76000000D01*
X238206961Y-75980315D01*
X238161206Y-75927511D01*
X238150000Y-75876000D01*
X238150000Y-75500000D01*
X238650000Y-75500000D01*
X239299999Y-75500000D01*
X239299999Y-75418417D01*
X239293591Y-75347897D01*
X239293590Y-75347892D01*
X239243018Y-75185603D01*
X239155072Y-75040122D01*
X239034877Y-74919927D01*
X238889395Y-74831980D01*
X238889396Y-74831980D01*
X238727105Y-74781409D01*
X238727106Y-74781409D01*
X238656572Y-74775000D01*
X238650000Y-74775000D01*
X238650000Y-75500000D01*
X238150000Y-75500000D01*
X238150000Y-74775000D01*
X238149999Y-74774999D01*
X238143436Y-74775000D01*
X238143417Y-74775001D01*
X238072897Y-74781408D01*
X238072892Y-74781409D01*
X237910603Y-74831981D01*
X237765122Y-74919927D01*
X237644927Y-75040122D01*
X237563491Y-75174834D01*
X237511963Y-75222022D01*
X237443103Y-75233860D01*
X237378775Y-75206591D01*
X237358108Y-75184995D01*
X237307547Y-75117455D01*
X237307544Y-75117452D01*
X237192335Y-75031206D01*
X237192328Y-75031202D01*
X237057486Y-74980910D01*
X237057485Y-74980909D01*
X237057483Y-74980909D01*
X236997873Y-74974500D01*
X236997863Y-74974500D01*
X236502129Y-74974500D01*
X236502123Y-74974501D01*
X236442516Y-74980908D01*
X236307671Y-75031202D01*
X236307664Y-75031206D01*
X236192455Y-75117452D01*
X236192452Y-75117455D01*
X236106206Y-75232664D01*
X236106202Y-75232671D01*
X236088045Y-75281354D01*
X236046173Y-75337288D01*
X235980709Y-75361705D01*
X235912436Y-75346853D01*
X235863031Y-75297448D01*
X235856511Y-75283519D01*
X235838115Y-75236868D01*
X235835834Y-75233860D01*
X235751867Y-75123132D01*
X235638134Y-75036886D01*
X235638132Y-75036885D01*
X235505346Y-74984521D01*
X235505345Y-74984520D01*
X235505343Y-74984520D01*
X235421902Y-74974500D01*
X234903098Y-74974500D01*
X234819656Y-74984520D01*
X234819655Y-74984520D01*
X234686865Y-75036886D01*
X234573132Y-75123132D01*
X234486884Y-75236868D01*
X234483086Y-75243624D01*
X234433072Y-75292412D01*
X234364620Y-75306416D01*
X234299463Y-75281188D01*
X234266914Y-75243624D01*
X234263115Y-75236868D01*
X234176867Y-75123132D01*
X234063134Y-75036886D01*
X234063132Y-75036885D01*
X233930346Y-74984521D01*
X233930345Y-74984520D01*
X233930343Y-74984520D01*
X233846902Y-74974500D01*
X233328098Y-74974500D01*
X233244656Y-74984520D01*
X233244655Y-74984520D01*
X233111865Y-75036886D01*
X232998132Y-75123132D01*
X232911886Y-75236865D01*
X232911885Y-75236868D01*
X232884034Y-75307491D01*
X232841130Y-75362634D01*
X232775222Y-75385827D01*
X232768681Y-75386000D01*
X232673825Y-75386000D01*
X232606786Y-75366315D01*
X232598352Y-75360385D01*
X232552841Y-75325464D01*
X232552838Y-75325463D01*
X232552836Y-75325461D01*
X232406765Y-75264957D01*
X232406760Y-75264955D01*
X232250001Y-75244318D01*
X232249999Y-75244318D01*
X232093239Y-75264955D01*
X232093237Y-75264956D01*
X231947160Y-75325463D01*
X231821718Y-75421718D01*
X231725463Y-75547160D01*
X231664956Y-75693237D01*
X231664955Y-75693239D01*
X231644318Y-75849998D01*
X231644318Y-75850001D01*
X231664955Y-76006760D01*
X231664956Y-76006762D01*
X231725159Y-76152106D01*
X231725464Y-76152841D01*
X231821718Y-76278282D01*
X231947159Y-76374536D01*
X232093238Y-76435044D01*
X232171619Y-76445363D01*
X232249999Y-76455682D01*
X232250000Y-76455682D01*
X232250001Y-76455682D01*
X232302254Y-76448802D01*
X232406762Y-76435044D01*
X232552841Y-76374536D01*
X232678282Y-76278282D01*
X232703636Y-76245239D01*
X232760062Y-76204037D01*
X232829808Y-76199882D01*
X232890728Y-76234093D01*
X232910096Y-76259952D01*
X232911882Y-76263128D01*
X232998132Y-76376867D01*
X233102066Y-76455682D01*
X233111868Y-76463115D01*
X233244654Y-76515479D01*
X233328098Y-76525500D01*
X233846902Y-76525500D01*
X233930346Y-76515479D01*
X234063132Y-76463115D01*
X234176867Y-76376867D01*
X234263115Y-76263132D01*
X234263117Y-76263126D01*
X234266912Y-76256378D01*
X234316925Y-76207589D01*
X234385376Y-76193583D01*
X234450534Y-76218808D01*
X234483088Y-76256378D01*
X234486886Y-76263134D01*
X234573132Y-76376867D01*
X234677066Y-76455682D01*
X234686868Y-76463115D01*
X234819654Y-76515479D01*
X234903098Y-76525500D01*
X235421902Y-76525500D01*
X235505346Y-76515479D01*
X235638132Y-76463115D01*
X235751867Y-76376867D01*
X235838115Y-76263132D01*
X235856509Y-76216487D01*
X235899414Y-76161345D01*
X235965321Y-76138151D01*
X236033306Y-76154271D01*
X236081783Y-76204588D01*
X236088045Y-76218645D01*
X236106202Y-76267328D01*
X236106206Y-76267335D01*
X236192452Y-76382544D01*
X236192455Y-76382547D01*
X236307664Y-76468793D01*
X236307671Y-76468797D01*
X236352618Y-76485561D01*
X236442517Y-76519091D01*
X236502127Y-76525500D01*
X236997872Y-76525499D01*
X237057483Y-76519091D01*
X237192331Y-76468796D01*
X237307546Y-76382546D01*
X237358109Y-76315002D01*
X237414041Y-76273133D01*
X237483733Y-76268149D01*
X237545056Y-76301634D01*
X237563491Y-76325165D01*
X237644927Y-76459877D01*
X237765122Y-76580072D01*
X237905967Y-76665216D01*
X237953154Y-76716744D01*
X237964993Y-76785603D01*
X237937724Y-76849932D01*
X237903392Y-76876236D01*
X237904520Y-76878102D01*
X237752622Y-76969927D01*
X237632427Y-77090122D01*
X237550991Y-77224834D01*
X237499463Y-77272022D01*
X237430603Y-77283860D01*
X237366275Y-77256591D01*
X237345608Y-77234995D01*
X237295047Y-77167455D01*
X237295044Y-77167452D01*
X237179835Y-77081206D01*
X237179828Y-77081202D01*
X237044986Y-77030910D01*
X237044985Y-77030909D01*
X237044983Y-77030909D01*
X236985373Y-77024500D01*
X236985363Y-77024500D01*
X236489629Y-77024500D01*
X236489623Y-77024501D01*
X236430016Y-77030908D01*
X236295171Y-77081202D01*
X236295164Y-77081206D01*
X236179955Y-77167452D01*
X236179952Y-77167455D01*
X236093706Y-77282664D01*
X236093702Y-77282671D01*
X236066602Y-77355333D01*
X236024731Y-77411267D01*
X235959267Y-77435684D01*
X235950420Y-77436000D01*
X235943819Y-77436000D01*
X235876780Y-77416315D01*
X235831025Y-77363511D01*
X235828473Y-77357512D01*
X235800615Y-77286868D01*
X235798334Y-77283860D01*
X235714367Y-77173132D01*
X235600634Y-77086886D01*
X235600632Y-77086885D01*
X235467846Y-77034521D01*
X235467845Y-77034520D01*
X235467843Y-77034520D01*
X235384402Y-77024500D01*
X234865598Y-77024500D01*
X234782156Y-77034520D01*
X234782155Y-77034520D01*
X234649365Y-77086886D01*
X234535632Y-77173132D01*
X234449384Y-77286868D01*
X234445586Y-77293624D01*
X234395572Y-77342412D01*
X234327120Y-77356416D01*
X234261963Y-77331188D01*
X234229414Y-77293624D01*
X234225615Y-77286868D01*
X234139367Y-77173132D01*
X234025634Y-77086886D01*
X234025632Y-77086885D01*
X233892846Y-77034521D01*
X233892845Y-77034520D01*
X233892843Y-77034520D01*
X233809402Y-77024500D01*
X233290598Y-77024500D01*
X233207156Y-77034520D01*
X233207155Y-77034520D01*
X233074365Y-77086886D01*
X232960632Y-77173132D01*
X232874386Y-77286865D01*
X232874385Y-77286868D01*
X232846534Y-77357491D01*
X232803630Y-77412634D01*
X232737722Y-77435827D01*
X232731181Y-77436000D01*
X232638757Y-77436000D01*
X232571718Y-77416315D01*
X232540384Y-77387489D01*
X232528282Y-77371718D01*
X232402841Y-77275464D01*
X232394531Y-77272022D01*
X232256762Y-77214956D01*
X232256760Y-77214955D01*
X232100001Y-77194318D01*
X232099999Y-77194318D01*
X231943239Y-77214955D01*
X231943237Y-77214956D01*
X231797160Y-77275463D01*
X231671718Y-77371718D01*
X231575463Y-77497160D01*
X231514956Y-77643237D01*
X231514955Y-77643239D01*
X231494318Y-77799998D01*
X180500000Y-77799998D01*
X180500000Y-75612500D01*
X179500000Y-75612500D01*
X179500000Y-78402500D01*
X179000000Y-78402500D01*
X179000000Y-75612500D01*
X178000000Y-75612500D01*
X178000000Y-77950344D01*
X176050154Y-77950344D01*
X176050500Y-77947365D01*
X176050499Y-73424499D01*
X176070184Y-73357461D01*
X176122988Y-73311706D01*
X176174499Y-73300500D01*
X177876000Y-73300500D01*
X177943039Y-73320185D01*
G37*
%TD.AperFunction*%
%TA.AperFunction,Conductor*%
G36*
X183486334Y-103680953D02*
G01*
X183542267Y-103722825D01*
X183566684Y-103788289D01*
X183567000Y-103797135D01*
X183567000Y-106152356D01*
X183567002Y-106152382D01*
X183569913Y-106177487D01*
X183569915Y-106177491D01*
X183615293Y-106280264D01*
X183615294Y-106280265D01*
X183694735Y-106359706D01*
X183797509Y-106405085D01*
X183822635Y-106408000D01*
X184868574Y-106407999D01*
X184935613Y-106427683D01*
X184981368Y-106480487D01*
X184988348Y-106499903D01*
X184994292Y-106522087D01*
X185003423Y-106537902D01*
X185047020Y-106613413D01*
X187004087Y-108570480D01*
X187095412Y-108623207D01*
X187197273Y-108650500D01*
X187302727Y-108650500D01*
X189450500Y-108650500D01*
X189517539Y-108670185D01*
X189563294Y-108722989D01*
X189574500Y-108774500D01*
X189574500Y-109293102D01*
X189575670Y-109302841D01*
X189585122Y-109381561D01*
X189640639Y-109522343D01*
X189732077Y-109642922D01*
X189852656Y-109734360D01*
X189852657Y-109734360D01*
X189852658Y-109734361D01*
X189993436Y-109789877D01*
X190081898Y-109800500D01*
X190081903Y-109800500D01*
X190900500Y-109800500D01*
X190967539Y-109820185D01*
X191013294Y-109872989D01*
X191024500Y-109924500D01*
X191024500Y-111157745D01*
X191004815Y-111224784D01*
X190988181Y-111245426D01*
X190670426Y-111563181D01*
X190609103Y-111596666D01*
X190582745Y-111599500D01*
X190334033Y-111599500D01*
X190266994Y-111579815D01*
X190221239Y-111527011D01*
X190211295Y-111457853D01*
X190230931Y-111406609D01*
X190265080Y-111355501D01*
X190265080Y-111355500D01*
X190265084Y-111355495D01*
X190266758Y-111351455D01*
X190310676Y-111245426D01*
X190321658Y-111218913D01*
X190350500Y-111073918D01*
X190350500Y-110926082D01*
X190350500Y-110926079D01*
X190321659Y-110781092D01*
X190321658Y-110781091D01*
X190321658Y-110781087D01*
X190303989Y-110738429D01*
X190265087Y-110644511D01*
X190265080Y-110644498D01*
X190182951Y-110521584D01*
X190182948Y-110521580D01*
X190078419Y-110417051D01*
X190078415Y-110417048D01*
X189955501Y-110334919D01*
X189955488Y-110334912D01*
X189818917Y-110278343D01*
X189818907Y-110278340D01*
X189673920Y-110249500D01*
X189673918Y-110249500D01*
X189526082Y-110249500D01*
X189526080Y-110249500D01*
X189381092Y-110278340D01*
X189381082Y-110278343D01*
X189244511Y-110334912D01*
X189244498Y-110334919D01*
X189121584Y-110417048D01*
X189121580Y-110417051D01*
X189017051Y-110521580D01*
X189017048Y-110521584D01*
X188934919Y-110644498D01*
X188934912Y-110644511D01*
X188878343Y-110781082D01*
X188878340Y-110781092D01*
X188849500Y-110926079D01*
X188849500Y-110926082D01*
X188849500Y-111073918D01*
X188849500Y-111073920D01*
X188849499Y-111073920D01*
X188878340Y-111218907D01*
X188878343Y-111218917D01*
X188934912Y-111355488D01*
X188934919Y-111355501D01*
X188969069Y-111406609D01*
X188989947Y-111473286D01*
X188971463Y-111540666D01*
X188919484Y-111587357D01*
X188865967Y-111599500D01*
X185817254Y-111599500D01*
X185750215Y-111579815D01*
X185729573Y-111563181D01*
X184845915Y-110679522D01*
X184845914Y-110679521D01*
X184845913Y-110679520D01*
X184794783Y-110650000D01*
X184754589Y-110626793D01*
X184703657Y-110613146D01*
X184652727Y-110599500D01*
X184652726Y-110599500D01*
X180614636Y-110599500D01*
X180547597Y-110579815D01*
X180501842Y-110527011D01*
X180491898Y-110457853D01*
X180520923Y-110394297D01*
X180526955Y-110387819D01*
X182741273Y-108173501D01*
X182745099Y-108166874D01*
X182748602Y-108160806D01*
X182789194Y-108090499D01*
X182814000Y-107997922D01*
X182814000Y-104302135D01*
X182833685Y-104235096D01*
X182850315Y-104214458D01*
X183355319Y-103709453D01*
X183416642Y-103675969D01*
X183486334Y-103680953D01*
G37*
%TD.AperFunction*%
%TA.AperFunction,Conductor*%
G36*
X208867540Y-99383685D02*
G01*
X208913295Y-99436489D01*
X208924501Y-99488000D01*
X208924501Y-99694856D01*
X208924502Y-99694882D01*
X208927413Y-99719987D01*
X208927415Y-99719991D01*
X208972793Y-99822764D01*
X208972794Y-99822765D01*
X209052235Y-99902206D01*
X209155009Y-99947585D01*
X209180135Y-99950500D01*
X210819864Y-99950499D01*
X210819879Y-99950497D01*
X210819882Y-99950497D01*
X210844987Y-99947586D01*
X210844988Y-99947585D01*
X210844991Y-99947585D01*
X210947765Y-99902206D01*
X211024319Y-99825652D01*
X211085642Y-99792167D01*
X211155334Y-99797151D01*
X211211267Y-99839023D01*
X211235684Y-99904487D01*
X211236000Y-99913333D01*
X211236000Y-100897864D01*
X211216315Y-100964903D01*
X211199681Y-100985545D01*
X210072045Y-102113181D01*
X210010722Y-102146666D01*
X209984364Y-102149500D01*
X202770812Y-102149500D01*
X202703773Y-102129815D01*
X202658018Y-102077011D01*
X202647873Y-102009314D01*
X202655682Y-101949999D01*
X202655682Y-101949998D01*
X202636405Y-101803577D01*
X202635044Y-101793238D01*
X202574536Y-101647159D01*
X202574535Y-101647158D01*
X202574535Y-101647157D01*
X202549252Y-101614208D01*
X202524057Y-101549039D01*
X202538095Y-101480594D01*
X202573315Y-101439455D01*
X202582546Y-101432546D01*
X202668796Y-101317331D01*
X202719091Y-101182483D01*
X202725500Y-101122873D01*
X202725499Y-100477128D01*
X202719091Y-100417517D01*
X202668796Y-100282669D01*
X202668795Y-100282668D01*
X202668793Y-100282664D01*
X202582547Y-100167455D01*
X202577272Y-100162180D01*
X202543787Y-100100857D01*
X202548771Y-100031165D01*
X202590643Y-99975232D01*
X202656107Y-99950815D01*
X202664953Y-99950499D01*
X202869856Y-99950499D01*
X202869864Y-99950499D01*
X202869879Y-99950497D01*
X202869882Y-99950497D01*
X202894987Y-99947586D01*
X202894988Y-99947585D01*
X202894991Y-99947585D01*
X202997765Y-99902206D01*
X203077206Y-99822765D01*
X203122585Y-99719991D01*
X203125500Y-99694865D01*
X203125500Y-99488000D01*
X203145185Y-99420961D01*
X203197989Y-99375206D01*
X203249500Y-99364000D01*
X208800501Y-99364000D01*
X208867540Y-99383685D01*
G37*
%TD.AperFunction*%
%TA.AperFunction,Conductor*%
G36*
X164193039Y-85594685D02*
G01*
X164238794Y-85647489D01*
X164250000Y-85699000D01*
X164250000Y-86724999D01*
X164331581Y-86724999D01*
X164362280Y-86722210D01*
X164430826Y-86735748D01*
X164481171Y-86784195D01*
X164497500Y-86845701D01*
X164497500Y-87054431D01*
X164477815Y-87121470D01*
X164461181Y-87142112D01*
X163531728Y-88071564D01*
X163531724Y-88071569D01*
X163483807Y-88154565D01*
X163483807Y-88154566D01*
X163483806Y-88154568D01*
X163459000Y-88247145D01*
X163459000Y-88247147D01*
X163459000Y-92062416D01*
X163439315Y-92129455D01*
X163422681Y-92150097D01*
X159708728Y-95864049D01*
X159708724Y-95864054D01*
X159660807Y-95947050D01*
X159660807Y-95947051D01*
X159660806Y-95947053D01*
X159636000Y-96039630D01*
X159636000Y-96039632D01*
X159636000Y-97574250D01*
X159616315Y-97641289D01*
X159563511Y-97687044D01*
X159528186Y-97697189D01*
X159411292Y-97712579D01*
X159393238Y-97714956D01*
X159393237Y-97714956D01*
X159247158Y-97775464D01*
X159170878Y-97833995D01*
X159105709Y-97859188D01*
X159037264Y-97845149D01*
X158987275Y-97796335D01*
X158980832Y-97783070D01*
X158924536Y-97647159D01*
X158826124Y-97518905D01*
X158800930Y-97453736D01*
X158800500Y-97443419D01*
X158800500Y-87467254D01*
X158820185Y-87400215D01*
X158836815Y-87379577D01*
X159629574Y-86586817D01*
X159690897Y-86553333D01*
X159717255Y-86550499D01*
X160122871Y-86550499D01*
X160122872Y-86550499D01*
X160182483Y-86544091D01*
X160317331Y-86493796D01*
X160432546Y-86407546D01*
X160512914Y-86300188D01*
X160568847Y-86258318D01*
X160612180Y-86250500D01*
X161606535Y-86250500D01*
X161673574Y-86270185D01*
X161705800Y-86300187D01*
X161767454Y-86382546D01*
X161790770Y-86400000D01*
X161882664Y-86468793D01*
X161882673Y-86468798D01*
X161888008Y-86470788D01*
X161943942Y-86512658D01*
X161961740Y-86549296D01*
X161961846Y-86549253D01*
X161962578Y-86551021D01*
X161964450Y-86554874D01*
X161964955Y-86556759D01*
X161964955Y-86556761D01*
X161964956Y-86556762D01*
X161996742Y-86633499D01*
X162021395Y-86693019D01*
X162025464Y-86702841D01*
X162121718Y-86828282D01*
X162247159Y-86924536D01*
X162393238Y-86985044D01*
X162471619Y-86995363D01*
X162549999Y-87005682D01*
X162550000Y-87005682D01*
X162550001Y-87005682D01*
X162624773Y-86995838D01*
X162706762Y-86985044D01*
X162852841Y-86924536D01*
X162978282Y-86828282D01*
X163074536Y-86702841D01*
X163103259Y-86633495D01*
X163147098Y-86579095D01*
X163213392Y-86557029D01*
X163281091Y-86574307D01*
X163284933Y-86576935D01*
X163435604Y-86668019D01*
X163435603Y-86668019D01*
X163597894Y-86718590D01*
X163597892Y-86718590D01*
X163668418Y-86724999D01*
X163749999Y-86724998D01*
X163750000Y-86724998D01*
X163750000Y-85699000D01*
X163769685Y-85631961D01*
X163822489Y-85586206D01*
X163874000Y-85575000D01*
X164126000Y-85575000D01*
X164193039Y-85594685D01*
G37*
%TD.AperFunction*%
%TA.AperFunction,Conductor*%
G36*
X176747804Y-93476255D02*
G01*
X176777598Y-93493153D01*
X176883657Y-93574535D01*
X176883658Y-93574535D01*
X176883659Y-93574536D01*
X177029738Y-93635044D01*
X177108119Y-93645363D01*
X177186499Y-93655682D01*
X177186500Y-93655682D01*
X177245814Y-93647873D01*
X177314850Y-93658638D01*
X177367106Y-93705018D01*
X177386000Y-93770812D01*
X177386000Y-93852078D01*
X177386000Y-93947922D01*
X177410806Y-94040499D01*
X177410807Y-94040500D01*
X177410807Y-94040501D01*
X177458724Y-94123497D01*
X177458728Y-94123502D01*
X178063181Y-94727955D01*
X178096666Y-94789278D01*
X178099500Y-94815636D01*
X178099500Y-96888454D01*
X178079815Y-96955493D01*
X178027011Y-97001248D01*
X177957853Y-97011192D01*
X177894297Y-96982167D01*
X177887819Y-96976135D01*
X177206912Y-96295228D01*
X177206907Y-96295224D01*
X177123911Y-96247307D01*
X177123910Y-96247306D01*
X177123909Y-96247306D01*
X177031332Y-96222500D01*
X177031330Y-96222500D01*
X174988636Y-96222500D01*
X174921597Y-96202815D01*
X174900955Y-96186181D01*
X174850319Y-96135545D01*
X174816834Y-96074222D01*
X174814000Y-96047864D01*
X174814000Y-95666006D01*
X174833685Y-95598967D01*
X174886489Y-95553212D01*
X174954182Y-95543067D01*
X175050000Y-95555682D01*
X175050001Y-95555682D01*
X175095081Y-95549747D01*
X175206762Y-95535044D01*
X175295104Y-95498451D01*
X175364569Y-95490983D01*
X175427048Y-95522257D01*
X175430234Y-95525332D01*
X175434616Y-95529714D01*
X175434625Y-95529721D01*
X175573804Y-95612031D01*
X175729089Y-95657145D01*
X175750000Y-95658789D01*
X176250000Y-95658789D01*
X176270910Y-95657145D01*
X176426195Y-95612031D01*
X176565374Y-95529721D01*
X176565383Y-95529714D01*
X176679714Y-95415383D01*
X176679721Y-95415374D01*
X176762031Y-95276195D01*
X176804504Y-95130000D01*
X176250000Y-95130000D01*
X176250000Y-95658789D01*
X175750000Y-95658789D01*
X175750000Y-94820688D01*
X175762732Y-94773193D01*
X175760095Y-94772101D01*
X175763204Y-94764592D01*
X175763207Y-94764587D01*
X175773023Y-94727955D01*
X175773796Y-94725071D01*
X175773802Y-94725072D01*
X175773802Y-94725042D01*
X175774652Y-94721872D01*
X175811034Y-94662223D01*
X175873889Y-94631711D01*
X175894418Y-94630000D01*
X176804504Y-94630000D01*
X176762031Y-94483804D01*
X176679721Y-94344625D01*
X176679714Y-94344616D01*
X176629159Y-94294061D01*
X176595674Y-94232738D01*
X176599798Y-94165428D01*
X176607710Y-94142819D01*
X176607711Y-94142809D01*
X176610500Y-94113070D01*
X176610500Y-93726929D01*
X176607710Y-93697185D01*
X176607710Y-93697181D01*
X176585070Y-93632482D01*
X176581508Y-93562707D01*
X176616236Y-93502079D01*
X176678229Y-93469851D01*
X176747804Y-93476255D01*
G37*
%TD.AperFunction*%
%TA.AperFunction,Conductor*%
G36*
X175101434Y-89477432D02*
G01*
X175161902Y-89490512D01*
X175190285Y-89511733D01*
X175500000Y-89821447D01*
X176163265Y-90484713D01*
X176196750Y-90546036D01*
X176198715Y-90573564D01*
X176199500Y-90573564D01*
X176199500Y-90771950D01*
X176209779Y-90842507D01*
X176209779Y-90842508D01*
X176223484Y-90870543D01*
X176235241Y-90939416D01*
X176223484Y-90979457D01*
X176209781Y-91007488D01*
X176209780Y-91007491D01*
X176199500Y-91078051D01*
X176199500Y-91078055D01*
X176199500Y-91078056D01*
X176199500Y-91271950D01*
X176209779Y-91342507D01*
X176209779Y-91342508D01*
X176223484Y-91370543D01*
X176235241Y-91439416D01*
X176223484Y-91479457D01*
X176209781Y-91507488D01*
X176209780Y-91507491D01*
X176199500Y-91578051D01*
X176199500Y-91578055D01*
X176199500Y-91578056D01*
X176199500Y-91750500D01*
X176179815Y-91817539D01*
X176127011Y-91863294D01*
X176075501Y-91874500D01*
X175903049Y-91874500D01*
X175832492Y-91884779D01*
X175832491Y-91884779D01*
X175804457Y-91898484D01*
X175735584Y-91910241D01*
X175695543Y-91898484D01*
X175667511Y-91884781D01*
X175667509Y-91884780D01*
X175667502Y-91884779D01*
X175596949Y-91874500D01*
X175596943Y-91874500D01*
X175403049Y-91874500D01*
X175332492Y-91884779D01*
X175332491Y-91884779D01*
X175304457Y-91898484D01*
X175235584Y-91910241D01*
X175195543Y-91898484D01*
X175167511Y-91884781D01*
X175167509Y-91884780D01*
X175167502Y-91884779D01*
X175096949Y-91874500D01*
X175096943Y-91874500D01*
X174903049Y-91874500D01*
X174832492Y-91884779D01*
X174832491Y-91884779D01*
X174804457Y-91898484D01*
X174735584Y-91910241D01*
X174695543Y-91898484D01*
X174667511Y-91884781D01*
X174667509Y-91884780D01*
X174667502Y-91884779D01*
X174596949Y-91874500D01*
X174596943Y-91874500D01*
X174403049Y-91874500D01*
X174332492Y-91884779D01*
X174332491Y-91884779D01*
X174304457Y-91898484D01*
X174235584Y-91910241D01*
X174195543Y-91898484D01*
X174167511Y-91884781D01*
X174167509Y-91884780D01*
X174167502Y-91884779D01*
X174096949Y-91874500D01*
X174096943Y-91874500D01*
X173924499Y-91874500D01*
X173857460Y-91854815D01*
X173811705Y-91802011D01*
X173800499Y-91750504D01*
X173800499Y-91728220D01*
X173820184Y-91661184D01*
X173836824Y-91640536D01*
X173838681Y-91638679D01*
X173928842Y-91521178D01*
X173985521Y-91384342D01*
X173985521Y-91384340D01*
X173996626Y-91300000D01*
X173653468Y-91300000D01*
X173598995Y-91287394D01*
X173596948Y-91286393D01*
X173545371Y-91239260D01*
X173527464Y-91171724D01*
X173548913Y-91105228D01*
X173597011Y-91063575D01*
X173599061Y-91062572D01*
X173653467Y-91050000D01*
X173996626Y-91050000D01*
X173987204Y-90978437D01*
X173997969Y-90909402D01*
X174044349Y-90857146D01*
X174111618Y-90838260D01*
X174165254Y-90854059D01*
X174166255Y-90851983D01*
X174172522Y-90855001D01*
X174332050Y-90910822D01*
X174332058Y-90910824D01*
X174499996Y-90929746D01*
X174500004Y-90929746D01*
X174667943Y-90910824D01*
X174826713Y-90855267D01*
X174826713Y-90855266D01*
X175173285Y-90855266D01*
X175332056Y-90910824D01*
X175499996Y-90929746D01*
X175500004Y-90929746D01*
X175667943Y-90910824D01*
X175826713Y-90855267D01*
X175826714Y-90855266D01*
X175500001Y-90528553D01*
X175500000Y-90528553D01*
X175173285Y-90855266D01*
X174826713Y-90855266D01*
X174116610Y-90145163D01*
X174350000Y-90145163D01*
X174350000Y-90204837D01*
X174372836Y-90259968D01*
X174415032Y-90302164D01*
X174470163Y-90325000D01*
X174529837Y-90325000D01*
X174584968Y-90302164D01*
X174627164Y-90259968D01*
X174650000Y-90204837D01*
X174650000Y-90175000D01*
X174853553Y-90175000D01*
X175000000Y-90321447D01*
X175146447Y-90175000D01*
X175116610Y-90145163D01*
X175350000Y-90145163D01*
X175350000Y-90204837D01*
X175372836Y-90259968D01*
X175415032Y-90302164D01*
X175470163Y-90325000D01*
X175529837Y-90325000D01*
X175584968Y-90302164D01*
X175627164Y-90259968D01*
X175650000Y-90204837D01*
X175650000Y-90145163D01*
X175627164Y-90090032D01*
X175584968Y-90047836D01*
X175529837Y-90025000D01*
X175470163Y-90025000D01*
X175415032Y-90047836D01*
X175372836Y-90090032D01*
X175350000Y-90145163D01*
X175116610Y-90145163D01*
X175000000Y-90028553D01*
X174853553Y-90175000D01*
X174650000Y-90175000D01*
X174650000Y-90145163D01*
X174627164Y-90090032D01*
X174584968Y-90047836D01*
X174529837Y-90025000D01*
X174470163Y-90025000D01*
X174415032Y-90047836D01*
X174372836Y-90090032D01*
X174350000Y-90145163D01*
X174116610Y-90145163D01*
X173771447Y-89800000D01*
X173653468Y-89800000D01*
X173599007Y-89787400D01*
X173594916Y-89785400D01*
X173543334Y-89738272D01*
X173525420Y-89670738D01*
X173546861Y-89604239D01*
X173600851Y-89559889D01*
X173649377Y-89550000D01*
X173996625Y-89550000D01*
X174017694Y-89525975D01*
X174076695Y-89488551D01*
X174146564Y-89488965D01*
X174198604Y-89520052D01*
X174500000Y-89821447D01*
X174500001Y-89821447D01*
X174809712Y-89511734D01*
X174871035Y-89478249D01*
X174898564Y-89476293D01*
X174898564Y-89475500D01*
X174903050Y-89475499D01*
X174903051Y-89475500D01*
X175000010Y-89475499D01*
X175101434Y-89475499D01*
X175101434Y-89477432D01*
G37*
%TD.AperFunction*%
%TA.AperFunction,Conductor*%
G36*
X167672929Y-87247025D02*
G01*
X167702483Y-87268876D01*
X168679519Y-88245912D01*
X168679520Y-88245913D01*
X168754087Y-88320480D01*
X168845413Y-88373207D01*
X168947273Y-88400500D01*
X169052727Y-88400500D01*
X172147273Y-88400500D01*
X172747273Y-88400500D01*
X173382745Y-88400500D01*
X173449784Y-88420185D01*
X173470426Y-88436819D01*
X173538181Y-88504574D01*
X173571666Y-88565897D01*
X173574500Y-88592255D01*
X173574500Y-88926000D01*
X173554815Y-88993039D01*
X173502011Y-89038794D01*
X173450500Y-89050000D01*
X173200000Y-89050000D01*
X173200000Y-89560126D01*
X173221304Y-89599142D01*
X173216320Y-89668834D01*
X173174448Y-89724767D01*
X173108984Y-89749184D01*
X173100138Y-89749500D01*
X173074000Y-89749500D01*
X173006961Y-89729815D01*
X172961206Y-89677011D01*
X172950000Y-89625500D01*
X172950000Y-89050000D01*
X172675622Y-89050000D01*
X172565658Y-89064478D01*
X172565657Y-89064478D01*
X172428824Y-89121156D01*
X172311320Y-89211320D01*
X172221155Y-89328825D01*
X172216681Y-89339628D01*
X172172839Y-89394030D01*
X172106545Y-89416094D01*
X172038846Y-89398814D01*
X172002351Y-89365807D01*
X171956423Y-89303576D01*
X171883153Y-89249501D01*
X171850794Y-89225619D01*
X171850792Y-89225618D01*
X171726880Y-89182258D01*
X171697461Y-89179500D01*
X171322546Y-89179500D01*
X171293125Y-89182258D01*
X171293119Y-89182259D01*
X171216403Y-89209103D01*
X171146624Y-89212664D01*
X171087768Y-89179742D01*
X171017294Y-89109268D01*
X171017285Y-89109261D01*
X170879191Y-89027593D01*
X170879188Y-89027591D01*
X170740001Y-88987153D01*
X170740000Y-88987154D01*
X170740000Y-89926000D01*
X170720315Y-89993039D01*
X170667511Y-90038794D01*
X170616000Y-90050000D01*
X169720069Y-90050000D01*
X169722832Y-90085122D01*
X169731776Y-90115906D01*
X169731576Y-90185775D01*
X169693633Y-90244445D01*
X169629995Y-90273288D01*
X169612699Y-90274500D01*
X167443726Y-90274500D01*
X167376687Y-90254815D01*
X167356045Y-90238181D01*
X167236819Y-90118955D01*
X167203334Y-90057632D01*
X167200500Y-90031274D01*
X167200500Y-89550000D01*
X169720069Y-89550000D01*
X170240000Y-89550000D01*
X170240000Y-88987154D01*
X170239998Y-88987153D01*
X170100811Y-89027591D01*
X170100808Y-89027593D01*
X169962714Y-89109261D01*
X169962705Y-89109268D01*
X169849268Y-89222705D01*
X169849261Y-89222714D01*
X169767593Y-89360808D01*
X169767592Y-89360811D01*
X169722833Y-89514871D01*
X169722832Y-89514877D01*
X169720069Y-89550000D01*
X167200500Y-89550000D01*
X167200500Y-87507778D01*
X167220185Y-87440739D01*
X167272989Y-87394984D01*
X167299009Y-87387512D01*
X167298912Y-87387147D01*
X167306754Y-87385044D01*
X167306762Y-87385044D01*
X167452841Y-87324536D01*
X167539315Y-87258181D01*
X167604484Y-87232987D01*
X167672929Y-87247025D01*
G37*
%TD.AperFunction*%
%TA.AperFunction,Conductor*%
G36*
X173892539Y-73320185D02*
G01*
X173938294Y-73372989D01*
X173949500Y-73424500D01*
X173949500Y-75205135D01*
X173949501Y-76006762D01*
X173949501Y-77947356D01*
X173949502Y-77947382D01*
X173952413Y-77972487D01*
X173952415Y-77972491D01*
X173997793Y-78075264D01*
X173997794Y-78075265D01*
X174077235Y-78154706D01*
X174180009Y-78200085D01*
X174205135Y-78203000D01*
X174893169Y-78202999D01*
X174960208Y-78222683D01*
X175005963Y-78275487D01*
X175015907Y-78344646D01*
X174986882Y-78408202D01*
X174966804Y-78426768D01*
X174915001Y-78465000D01*
X174836147Y-78571844D01*
X174792291Y-78697173D01*
X174792289Y-78697185D01*
X174789500Y-78726929D01*
X174789500Y-79113070D01*
X174792289Y-79142814D01*
X174792291Y-79142826D01*
X174836147Y-79268157D01*
X174836148Y-79268158D01*
X174879108Y-79326367D01*
X174903079Y-79391996D01*
X174887763Y-79460166D01*
X174879108Y-79473633D01*
X174836148Y-79531841D01*
X174836147Y-79531842D01*
X174792291Y-79657173D01*
X174792289Y-79657185D01*
X174789500Y-79686929D01*
X174789500Y-80073070D01*
X174792289Y-80102814D01*
X174792291Y-80102826D01*
X174836147Y-80228155D01*
X174836148Y-80228157D01*
X174915001Y-80334999D01*
X174985634Y-80387129D01*
X175027884Y-80442775D01*
X175036000Y-80486898D01*
X175036000Y-80574435D01*
X175016315Y-80641474D01*
X174985634Y-80674205D01*
X174907138Y-80732138D01*
X174826943Y-80840799D01*
X174782339Y-80968266D01*
X174782337Y-80968275D01*
X174779500Y-80998532D01*
X174779500Y-81401460D01*
X174782337Y-81431724D01*
X174782337Y-81431728D01*
X174782338Y-81431729D01*
X174826943Y-81559201D01*
X174841925Y-81579501D01*
X174865443Y-81611367D01*
X174889413Y-81676996D01*
X174874097Y-81745166D01*
X174865443Y-81758633D01*
X174826942Y-81810799D01*
X174782339Y-81938266D01*
X174782337Y-81938275D01*
X174779500Y-81968532D01*
X174779500Y-82371460D01*
X174782337Y-82401724D01*
X174782339Y-82401733D01*
X174826942Y-82529199D01*
X174856218Y-82568868D01*
X174880188Y-82634498D01*
X174864870Y-82702668D01*
X174856218Y-82716132D01*
X174826942Y-82755800D01*
X174782339Y-82883266D01*
X174782337Y-82883275D01*
X174779500Y-82913532D01*
X174779500Y-83316460D01*
X174782337Y-83346724D01*
X174782339Y-83346733D01*
X174826942Y-83474199D01*
X174826943Y-83474201D01*
X174850345Y-83505910D01*
X174865443Y-83526367D01*
X174889413Y-83591996D01*
X174874097Y-83660166D01*
X174865443Y-83673633D01*
X174826942Y-83725799D01*
X174782339Y-83853266D01*
X174782337Y-83853275D01*
X174779500Y-83883532D01*
X174779500Y-84286460D01*
X174782337Y-84316724D01*
X174782339Y-84316734D01*
X174795570Y-84354545D01*
X174799132Y-84424324D01*
X174764404Y-84484951D01*
X174702410Y-84517179D01*
X174678530Y-84519500D01*
X174573540Y-84519500D01*
X174543275Y-84522337D01*
X174543266Y-84522339D01*
X174415800Y-84566942D01*
X174307138Y-84647138D01*
X174226943Y-84755799D01*
X174182339Y-84883266D01*
X174182337Y-84883275D01*
X174179500Y-84913532D01*
X174179500Y-85316460D01*
X174182337Y-85346724D01*
X174182339Y-85346733D01*
X174218553Y-85450225D01*
X174226943Y-85474201D01*
X174262763Y-85522735D01*
X174265443Y-85526367D01*
X174289413Y-85591996D01*
X174274097Y-85660166D01*
X174265443Y-85673633D01*
X174226942Y-85725799D01*
X174182339Y-85853266D01*
X174182337Y-85853275D01*
X174179500Y-85883532D01*
X174179500Y-86286460D01*
X174182337Y-86316724D01*
X174182339Y-86316733D01*
X174193104Y-86347499D01*
X174196665Y-86417278D01*
X174161935Y-86477905D01*
X174099941Y-86510131D01*
X174030366Y-86503725D01*
X174012941Y-86495184D01*
X173916193Y-86437967D01*
X173916190Y-86437965D01*
X173770001Y-86395493D01*
X173770000Y-86395494D01*
X173770000Y-87326000D01*
X173750315Y-87393039D01*
X173697511Y-87438794D01*
X173646000Y-87450000D01*
X172741210Y-87450000D01*
X172742451Y-87465776D01*
X172728084Y-87534153D01*
X172679031Y-87583908D01*
X172618833Y-87599500D01*
X172417255Y-87599500D01*
X172350216Y-87579815D01*
X172329574Y-87563181D01*
X172241402Y-87475009D01*
X172207917Y-87413686D01*
X172206144Y-87403513D01*
X172205681Y-87399999D01*
X172185044Y-87243238D01*
X172124536Y-87097159D01*
X172028282Y-86971718D01*
X171999977Y-86949999D01*
X172741209Y-86949999D01*
X172741210Y-86950000D01*
X173270000Y-86950000D01*
X173270000Y-86395494D01*
X173269998Y-86395493D01*
X173123809Y-86437965D01*
X173123806Y-86437967D01*
X172984625Y-86520278D01*
X172984616Y-86520285D01*
X172870285Y-86634616D01*
X172870278Y-86634625D01*
X172787968Y-86773804D01*
X172787966Y-86773809D01*
X172742855Y-86929081D01*
X172742854Y-86929087D01*
X172741209Y-86949999D01*
X171999977Y-86949999D01*
X171902841Y-86875464D01*
X171756762Y-86814956D01*
X171756760Y-86814955D01*
X171600001Y-86794318D01*
X171599999Y-86794318D01*
X171443239Y-86814955D01*
X171443237Y-86814956D01*
X171297160Y-86875463D01*
X171171718Y-86971718D01*
X171075463Y-87097160D01*
X171014956Y-87243237D01*
X171014955Y-87243239D01*
X170997007Y-87379573D01*
X170994318Y-87400000D01*
X170999681Y-87440739D01*
X171002127Y-87459314D01*
X170991362Y-87528350D01*
X170944982Y-87580606D01*
X170879188Y-87599500D01*
X169217255Y-87599500D01*
X169150216Y-87579815D01*
X169129574Y-87563181D01*
X167952034Y-86385641D01*
X167918549Y-86324318D01*
X167923532Y-86254631D01*
X167969091Y-86132483D01*
X167975500Y-86072873D01*
X167975499Y-85577128D01*
X167969091Y-85517517D01*
X167952935Y-85474201D01*
X167918797Y-85382671D01*
X167918793Y-85382664D01*
X167832547Y-85267455D01*
X167832544Y-85267452D01*
X167717335Y-85181206D01*
X167717328Y-85181202D01*
X167582486Y-85130910D01*
X167582485Y-85130909D01*
X167582483Y-85130909D01*
X167522873Y-85124500D01*
X167522864Y-85124500D01*
X167064634Y-85124500D01*
X166997595Y-85104815D01*
X166951840Y-85052011D01*
X166941896Y-84982853D01*
X166970921Y-84919297D01*
X166976980Y-84912792D01*
X166977999Y-84911773D01*
X167039338Y-84878320D01*
X167065636Y-84875499D01*
X167522871Y-84875499D01*
X167522872Y-84875499D01*
X167582483Y-84869091D01*
X167717331Y-84818796D01*
X167832546Y-84732546D01*
X167918796Y-84617331D01*
X167969091Y-84482483D01*
X167975500Y-84422873D01*
X167975499Y-83927128D01*
X167969091Y-83867517D01*
X167946508Y-83806970D01*
X167918797Y-83732671D01*
X167918793Y-83732664D01*
X167832547Y-83617455D01*
X167832544Y-83617452D01*
X167717335Y-83531206D01*
X167717330Y-83531203D01*
X167644666Y-83504101D01*
X167588733Y-83462229D01*
X167564316Y-83396765D01*
X167564000Y-83387919D01*
X167564000Y-82924500D01*
X167583685Y-82857461D01*
X167636489Y-82811706D01*
X167688000Y-82800500D01*
X167849591Y-82800500D01*
X167849594Y-82800500D01*
X167917657Y-82794315D01*
X168074270Y-82745512D01*
X168214653Y-82660648D01*
X168330648Y-82544653D01*
X168415512Y-82404270D01*
X168464315Y-82247657D01*
X168470500Y-82179594D01*
X168470500Y-79820406D01*
X168464315Y-79752343D01*
X168415512Y-79595730D01*
X168350779Y-79488649D01*
X168332944Y-79421095D01*
X168354462Y-79354621D01*
X168408502Y-79310334D01*
X168456897Y-79300500D01*
X169039560Y-79300500D01*
X169039562Y-79300500D01*
X169115989Y-79280021D01*
X169184511Y-79240460D01*
X169240460Y-79184511D01*
X169280021Y-79115989D01*
X169300500Y-79039562D01*
X169300500Y-73424500D01*
X169320185Y-73357461D01*
X169372989Y-73311706D01*
X169424500Y-73300500D01*
X173825500Y-73300500D01*
X173892539Y-73320185D01*
G37*
%TD.AperFunction*%
%TD*%
M02*
